<svg width="237" height="248" viewBox="0 0 237 248" fill="none" xmlns="http://www.w3.org/2000/svg">
<g filter="url(#filter0_d_861_1790)">
<rect x="11" y="8" width="215" height="227" rx="48.2885" fill="#FCBD01"/>
</g>
<circle cx="118.5" cy="121.5" r="75.5" fill="#D9D9D9" fill-opacity="0.49"/>
<circle cx="117.5" cy="121.5" r="84.5" fill="#D9D9D9" fill-opacity="0.49"/>
<path d="M98.1574 79.5834H138.8C141.589 79.5834 144.078 79.6693 146.31 79.9697C158.198 81.3002 161.417 86.8792 161.417 102.158V129.281C161.417 144.559 158.198 150.138 146.31 151.469C144.078 151.769 141.632 151.855 138.8 151.855H98.1574C95.3678 151.855 92.8787 151.769 90.647 151.469C78.7591 150.138 75.5404 144.559 75.5404 129.281V102.158C75.5404 86.8792 78.7591 81.3002 90.647 79.9697C92.8787 79.6693 95.3678 79.5834 98.1574 79.5834Z" stroke="#263238" stroke-width="6.4375" stroke-linecap="round" stroke-linejoin="round"/>
<path d="M125.281 106.707H141.074" stroke="#263238" stroke-width="6.4375" stroke-linecap="round" stroke-linejoin="round"/>
<path d="M95.9258 131.555H96.0115H141.117" stroke="#263238" stroke-width="6.4375" stroke-linecap="round" stroke-linejoin="round"/>
<path d="M97.0417 165.417H139.958" stroke="#263238" stroke-width="6.4375" stroke-linecap="round" stroke-linejoin="round"/>
<path d="M97.8773 106.621H97.9158" stroke="#263238" stroke-width="8.58333" stroke-linecap="round" stroke-linejoin="round"/>
<path d="M112.039 106.621H112.077" stroke="#263238" stroke-width="8.58333" stroke-linecap="round" stroke-linejoin="round"/>
<defs>
<filter id="filter0_d_861_1790" x="0.652464" y="0.239348" width="235.695" height="247.695" filterUnits="userSpaceOnUse" color-interpolation-filters="sRGB">
<feFlood flood-opacity="0" result="BackgroundImageFix"/>
<feColorMatrix in="SourceAlpha" type="matrix" values="0 0 0 0 0 0 0 0 0 0 0 0 0 0 0 0 0 0 127 0" result="hardAlpha"/>
<feOffset dy="2.58688"/>
<feGaussianBlur stdDeviation="5.17377"/>
<feColorMatrix type="matrix" values="0 0 0 0 0.290196 0 0 0 0 0.227451 0 0 0 0 1 0 0 0 0.1 0"/>
<feBlend mode="normal" in2="BackgroundImageFix" result="effect1_dropShadow_861_1790"/>
<feBlend mode="normal" in="SourceGraphic" in2="effect1_dropShadow_861_1790" result="shape"/>
</filter>
</defs>
</svg>
