<svg width="237" height="248" viewBox="0 0 237 248" fill="none" xmlns="http://www.w3.org/2000/svg">
<g filter="url(#filter0_d_861_1751)">
<rect x="11" y="8" width="215" height="227" rx="48.2885" fill="#FCBD01"/>
</g>
<circle cx="118.5" cy="121.5" r="75.5" fill="#D9D9D9" fill-opacity="0.49"/>
<circle cx="117.5" cy="121.5" r="84.5" fill="#D9D9D9" fill-opacity="0.49"/>
<path d="M118.5 137.688C128.721 137.688 137 129.409 137 119.188V93.75C137 83.5287 128.721 75.25 118.5 75.25C108.279 75.25 100 83.5287 100 93.75V119.188C100 129.409 108.279 137.688 118.5 137.688Z" stroke="#263238" stroke-width="6.9375" stroke-linecap="round" stroke-linejoin="round"/>
<path d="M83.1187 110.631V118.494C83.1187 138.011 98.9824 153.875 118.5 153.875C138.017 153.875 153.881 138.011 153.881 118.494V110.631" stroke="#263238" stroke-width="6.9375" stroke-linecap="round" stroke-linejoin="round"/>
<path d="M112.071 95.7387C116.234 94.2124 120.766 94.2124 124.929 95.7387" stroke="#263238" stroke-width="6.9375" stroke-linecap="round" stroke-linejoin="round"/>
<path d="M114.8 105.543C117.251 104.896 119.795 104.896 122.246 105.543" stroke="#263238" stroke-width="6.9375" stroke-linecap="round" stroke-linejoin="round"/>
<path d="M118.5 153.875V167.75" stroke="#263238" stroke-width="6.9375" stroke-linecap="round" stroke-linejoin="round"/>
<defs>
<filter id="filter0_d_861_1751" x="0.652464" y="0.239348" width="235.695" height="247.695" filterUnits="userSpaceOnUse" color-interpolation-filters="sRGB">
<feFlood flood-opacity="0" result="BackgroundImageFix"/>
<feColorMatrix in="SourceAlpha" type="matrix" values="0 0 0 0 0 0 0 0 0 0 0 0 0 0 0 0 0 0 127 0" result="hardAlpha"/>
<feOffset dy="2.58688"/>
<feGaussianBlur stdDeviation="5.17377"/>
<feColorMatrix type="matrix" values="0 0 0 0 0.290196 0 0 0 0 0.227451 0 0 0 0 1 0 0 0 0.1 0"/>
<feBlend mode="normal" in2="BackgroundImageFix" result="effect1_dropShadow_861_1751"/>
<feBlend mode="normal" in="SourceGraphic" in2="effect1_dropShadow_861_1751" result="shape"/>
</filter>
</defs>
</svg>
