<svg width="334" height="223" viewBox="0 0 334 223" fill="none" xmlns="http://www.w3.org/2000/svg">
<path opacity="0.62" d="M56.9453 172.115C45.4976 166.558 35.1454 157.621 31.2848 145.99C28.0819 136.339 29.6709 125.796 33.6161 116.543C42.4916 95.7253 61.6507 83.1985 81.8052 78.9197C92.0973 76.7349 102.385 78.5675 112.532 76.5844C125.584 74.0331 137.862 67.8741 149.315 60.5943C165.946 50.0238 181.545 37.363 200.527 31.1747C229.064 21.8708 263.201 29.575 285.076 50.0555C306.952 70.5359 315.623 102.748 306.874 130.237C298.124 157.725 272.452 179.316 242.695 184.483C217.59 188.843 191.733 182.27 166.122 181.045C129.278 179.281 90.0581 188.188 56.9453 172.115Z" fill="#AEDCFE"/>
<path opacity="0.62" d="M98.8366 45.1112C101.664 33.1351 94.2484 21.134 82.2723 18.3061C70.2962 15.4783 58.2952 22.8943 55.4673 34.8704C52.6394 46.8465 60.0555 58.8476 72.0316 61.6755C84.0077 64.5034 96.0087 57.0873 98.8366 45.1112Z" fill="#AEDCFE"/>
<path opacity="0.62" d="M297.908 47.8417C302.247 47.3053 305.329 43.3536 304.792 39.0153C304.256 34.677 300.304 31.595 295.966 32.1313C291.627 32.6677 288.545 36.6194 289.082 40.9578C289.618 45.2961 293.57 48.3781 297.908 47.8417Z" fill="#AEDCFE"/>
<path d="M274.585 88.2521H220.505C219.134 88.2521 218.024 87.1415 218.024 85.7712V52.43C218.024 51.0597 219.134 49.949 220.505 49.949H274.585C275.955 49.949 277.066 51.0597 277.066 52.43V85.7712C277.066 87.1415 275.955 88.2521 274.585 88.2521Z" fill="#374C7F"/>
<path d="M273.275 90.29H217.58C216.285 90.29 215.235 89.2403 215.235 87.9449V53.4605C215.235 52.1654 216.284 51.1154 217.58 51.1154H273.275C274.57 51.1154 275.62 52.165 275.62 53.4605V87.9449C275.62 89.2399 274.57 90.29 273.275 90.29Z" fill="#BCC0CE"/>
<path d="M272.891 89.2265H217.89C217.047 89.2265 216.363 88.5425 216.363 87.699V55.9637C216.363 55.3028 216.898 54.7671 217.559 54.7671H273.222C273.883 54.7671 274.419 55.3028 274.419 55.9637V87.699C274.419 88.5425 273.735 89.2265 272.891 89.2265Z" fill="white"/>
<path d="M270.755 61.4751H220.299C218.725 61.4751 217.45 60.1997 217.45 58.6268V58.5693C217.45 56.996 218.726 55.721 220.299 55.721H270.755C272.328 55.721 273.603 56.9964 273.603 58.5693V58.6268C273.603 60.1997 272.328 61.4751 270.755 61.4751Z" fill="#374C7F"/>
<path d="M262.812 59.5771H229.284C228.979 59.5771 228.732 59.33 228.732 59.0245V57.9396C228.732 57.6346 228.979 57.387 229.284 57.387H262.812C263.117 57.387 263.365 57.6341 263.365 57.9396V59.0245C263.365 59.3295 263.117 59.5771 262.812 59.5771Z" fill="white"/>
<path d="M219.971 59.5771H230.001C230.284 59.5771 230.513 59.3482 230.513 59.0659V57.8982C230.513 57.6159 230.284 57.387 230.001 57.387H219.971C219.688 57.387 219.459 57.6159 219.459 57.8982V59.0659C219.459 59.3482 219.688 59.5771 219.971 59.5771Z" fill="#DEF6F8"/>
<path d="M231.735 58.4821H243.115" stroke="#57595E" stroke-width="0.266087" stroke-miterlimit="10"/>
<path d="M220.96 58.4821H228.732" stroke="#57595E" stroke-width="0.266087" stroke-miterlimit="10"/>
<path d="M262.812 57.3874H259.407V59.5771H262.812C263.117 59.5771 263.365 59.3295 263.365 59.0245V57.9396C263.365 57.6346 263.118 57.3874 262.812 57.3874Z" fill="#F5AD49"/>
<path d="M261.518 58.2692C261.518 58.5876 261.26 58.8454 260.941 58.8454C260.623 58.8454 260.365 58.5872 260.365 58.2692C260.365 57.9508 260.623 57.6925 260.941 57.6925C261.259 57.6929 261.518 57.9508 261.518 58.2692Z" stroke="white" stroke-width="0.177376" stroke-miterlimit="10"/>
<path d="M261.386 58.6357L262 59.2498" stroke="white" stroke-width="0.177376" stroke-miterlimit="10"/>
<path d="M266.109 56.9661H267.402L268.022 58.7933H270.669L270.955 57.3514" stroke="white" stroke-width="0.396391" stroke-miterlimit="10" stroke-linecap="round"/>
<path d="M269.29 58.0064C269.596 58.0064 269.843 57.7279 269.843 57.3843C269.843 57.0407 269.596 56.7622 269.29 56.7622C268.985 56.7622 268.737 57.0407 268.737 57.3843C268.737 57.7279 268.985 58.0064 269.29 58.0064Z" fill="#F5AD49"/>
<path d="M268.802 59.8172C268.802 60.0808 268.589 60.2946 268.325 60.2946C268.061 60.2946 267.848 60.0808 267.848 59.8172C267.848 59.5535 268.062 59.3398 268.325 59.3398C268.589 59.3402 268.802 59.554 268.802 59.8172Z" fill="white"/>
<path d="M270.581 59.8172C270.581 60.0808 270.367 60.2946 270.104 60.2946C269.841 60.2946 269.627 60.0808 269.627 59.8172C269.627 59.5535 269.841 59.3398 270.104 59.3398C270.367 59.3402 270.581 59.554 270.581 59.8172Z" fill="white"/>
<path d="M265.445 87.4002H247.254C246.887 87.4002 246.59 87.1027 246.59 86.7358V85.1121C246.59 84.7451 246.887 84.4477 247.254 84.4477H265.445C265.812 84.4477 266.109 84.7451 266.109 85.1121V86.7358C266.109 87.1027 265.812 87.4002 265.445 87.4002Z" fill="#374C7F"/>
<path d="M265.445 87.0484H247.254C246.887 87.0484 246.59 86.7509 246.59 86.384V84.7603C246.59 84.3933 246.887 84.0958 247.254 84.0958H265.445C265.812 84.0958 266.109 84.3933 266.109 84.7603V86.384C266.109 86.7509 265.812 87.0484 265.445 87.0484Z" fill="#FF4747"/>
<path d="M256.762 73.6639L257.141 74.4303L257.986 74.5532L257.374 75.15L257.519 75.9921L256.762 75.5944L256.005 75.9921L256.15 75.15L255.538 74.5532L256.384 74.4303L256.762 73.6639Z" fill="#F5AD49"/>
<path d="M259.446 73.6639L259.824 74.4303L260.67 74.5533L260.058 75.15L260.202 75.9921L259.446 75.5944L258.689 75.9921L258.834 75.15L258.222 74.5533L259.067 74.4303L259.446 73.6639Z" fill="#F5AD49"/>
<path d="M262.129 73.6639L262.507 74.4303L263.353 74.5533L262.741 75.15L262.886 75.9921L262.129 75.5944L261.372 75.9921L261.517 75.15L260.905 74.5533L261.751 74.4303L262.129 73.6639Z" fill="#F5AD49"/>
<path d="M264.812 73.6639L265.191 74.4303L266.036 74.5533L265.424 75.15L265.569 75.9921L264.812 75.5944L264.056 75.9921L264.2 75.15L263.588 74.5533L264.434 74.4303L264.812 73.6639Z" fill="#F5AD49"/>
<path d="M267.496 73.6639L267.874 74.4303L268.719 74.5533L268.108 75.15L268.252 75.9921L267.496 75.5944L266.739 75.9921L266.883 75.15L266.271 74.5533L267.117 74.4303L267.496 73.6639Z" fill="#F5AD49"/>
<path d="M268.143 82.384H245.555C245.099 82.384 244.73 82.0148 244.73 81.5592V79.5432C244.73 79.0876 245.099 78.7184 245.555 78.7184H268.143C268.598 78.7184 268.967 79.0876 268.967 79.5432V81.5592C268.967 82.0148 268.598 82.384 268.143 82.384Z" fill="#F5AD49"/>
<path d="M262.345 79.4096H261.912V81.6928H262.345V79.4096Z" fill="#374C7F"/>
<path d="M263.271 80.335H260.988V80.7674H263.271V80.335Z" fill="#374C7F"/>
<path d="M261.48 79.6067L261.174 79.9124L262.789 81.5271L263.094 81.2214L261.48 79.6067Z" fill="#374C7F"/>
<path d="M262.797 79.5812L261.183 81.1959L261.489 81.5016L263.103 79.8869L262.797 79.5812Z" fill="#374C7F"/>
<path d="M258.696 79.4096H258.264V81.6928H258.696V79.4096Z" fill="#374C7F"/>
<path d="M259.622 80.335H257.339V80.7674H259.622V80.335Z" fill="#374C7F"/>
<path d="M257.84 79.5828L257.534 79.8885L259.149 81.5032L259.455 81.1975L257.84 79.5828Z" fill="#374C7F"/>
<path d="M259.132 79.5923L257.518 81.2068L257.824 81.5125L259.438 79.8981L259.132 79.5923Z" fill="#374C7F"/>
<path d="M255.048 79.4096H254.615V81.6928H255.048V79.4096Z" fill="#374C7F"/>
<path d="M255.973 80.335H253.69V80.7674H255.973V80.335Z" fill="#374C7F"/>
<path d="M254.175 79.5922L253.869 79.8979L255.484 81.5124L255.789 81.2066L254.175 79.5922Z" fill="#374C7F"/>
<path d="M255.501 79.5839L253.886 81.1985L254.192 81.5043L255.806 79.8896L255.501 79.5839Z" fill="#374C7F"/>
<path d="M251.399 79.4096H250.966V81.6928H251.399V79.4096Z" fill="#374C7F"/>
<path d="M252.324 80.335H250.041V80.7674H252.324V80.335Z" fill="#374C7F"/>
<path d="M250.533 79.6063L250.228 79.912L251.842 81.5267L252.148 81.221L250.533 79.6063Z" fill="#374C7F"/>
<path d="M251.851 79.5818L250.236 81.1965L250.542 81.5023L252.157 79.8876L251.851 79.5818Z" fill="#374C7F"/>
<path d="M219.037 53.0508C219.037 53.489 218.682 53.8444 218.244 53.8444C217.806 53.8444 217.451 53.489 217.451 53.0508C217.451 52.6126 217.806 52.2576 218.244 52.2576C218.682 52.2572 219.037 52.6126 219.037 53.0508Z" fill="#374C7F"/>
<path d="M222.225 53.0508C222.225 53.489 221.87 53.8444 221.432 53.8444C220.994 53.8444 220.639 53.489 220.639 53.0508C220.639 52.6126 220.994 52.2576 221.432 52.2576C221.87 52.2572 222.225 52.6126 222.225 53.0508Z" fill="#FF4747"/>
<path d="M225.412 53.0508C225.412 53.489 225.057 53.8444 224.619 53.8444C224.182 53.8444 223.826 53.489 223.826 53.0508C223.826 52.6126 224.182 52.2576 224.619 52.2576C225.057 52.2576 225.412 52.6126 225.412 53.0508Z" fill="white"/>
<path d="M244.73 64.6504H268.968" stroke="#45619B" stroke-width="0.540679" stroke-miterlimit="10" stroke-linecap="round"/>
<path d="M244.73 68.1605H268.968" stroke="#45619B" stroke-width="0.540679" stroke-miterlimit="10" stroke-linecap="round"/>
<path d="M244.73 71.6706H268.968" stroke="#45619B" stroke-width="0.540679" stroke-miterlimit="10" stroke-linecap="round"/>
<path d="M244.73 75.1807H253.871" stroke="#45619B" stroke-width="0.540679" stroke-miterlimit="10" stroke-linecap="round"/>
<path d="M233.662 80.7403L229.695 80.1979L225.727 80.7403L221.332 76.7109C220.138 75.6163 219.453 74.0598 219.453 72.4406V69.382C219.453 66.0607 222.155 63.3585 225.477 63.3585H233.913C237.234 63.3585 239.937 66.0607 239.937 69.382V72.4406C239.937 74.0603 239.252 75.6167 238.058 76.7109L233.662 80.7403ZM225.477 66.2473C223.748 66.2473 222.342 67.6537 222.342 69.382V72.4406C222.342 73.2524 222.685 74.0327 223.284 74.5813L226.68 77.6942L229.695 77.2818L232.71 77.6942L236.106 74.5813C236.704 74.0327 237.048 73.2524 237.048 72.4406V69.382C237.048 67.6537 235.641 66.2473 233.913 66.2473H225.477Z" fill="#374C7F"/>
<path d="M236.043 67.0855C236.66 67.6582 237.047 68.4758 237.047 69.3825V72.441C237.047 73.2529 236.704 74.0331 236.105 74.5817L233.81 76.686L234.958 77.4849L236.735 75.8803C237.687 75.0213 238.23 73.7993 238.23 72.5176V70.6962C238.23 68.099 236.043 67.0855 236.043 67.0855Z" fill="#28355F"/>
<path d="M229.695 73.2409C225.666 73.2409 222.401 76.5065 222.401 80.535C222.401 82.6837 223.33 84.6156 224.809 85.9507C226.299 86.6267 227.953 87.0034 229.695 87.0034C231.437 87.0034 233.091 86.6267 234.58 85.9507C236.059 84.616 236.988 82.6841 236.988 80.535C236.988 76.5065 233.723 73.2409 229.695 73.2409Z" fill="#374C7F"/>
<path d="M236.849 81.9609C232.636 83.4666 228.94 83.3789 226.554 83.0297C224.571 82.7394 223.149 82.2277 222.544 81.9814C222.602 82.2695 222.677 82.5519 222.768 82.8267C223.534 83.1041 224.795 83.4368 226.421 83.7258C227.338 83.8888 228.416 84.0103 229.528 83.9511C231.56 83.8433 233.994 83.6674 236.635 82.7843C236.721 82.5163 236.794 82.2415 236.849 81.9609Z" fill="#DEF6F8"/>
<path opacity="0.31" d="M233.191 74.1324C232.153 73.5642 230.961 73.2409 229.694 73.2409C227.358 73.2409 225.279 74.3395 223.944 76.0478C224.654 77.3629 226.949 77.8692 229.347 77.1687C231.313 76.5951 232.785 75.3749 233.191 74.1324Z" fill="#9BABB8"/>
<path opacity="0.4" d="M230.015 86.999C231.64 86.9558 233.183 86.5853 234.58 85.9507C236.059 84.616 236.988 82.6841 236.988 80.535C236.988 80.4526 236.987 80.3711 236.984 80.2896C235.114 80.7323 230.885 82.2486 230.015 86.999Z" fill="#19181B"/>
<path d="M145.047 83.1495H75.8305C74.0767 83.1495 72.6548 81.7276 72.6548 79.9738V37.3007C72.6548 35.5469 74.0767 34.125 75.8305 34.125H145.047C146.801 34.125 148.223 35.5465 148.223 37.3007V79.9738C148.223 81.7276 146.801 83.1495 145.047 83.1495Z" fill="#374C7F"/>
<path d="M147.87 80.8832H77.3138C75.6732 80.8832 74.343 79.5534 74.343 77.9124V34.2265C74.343 32.5859 75.6728 31.2557 77.3138 31.2557H147.87C149.51 31.2557 150.84 32.5859 150.84 34.2265V77.9124C150.841 79.553 149.511 80.8832 147.87 80.8832Z" fill="#BCC0CE"/>
<path d="M147.384 79.5361H77.7072C76.6384 79.5361 75.7722 78.6699 75.7722 77.6011V37.3977C75.7722 36.5605 76.4509 35.8818 77.2881 35.8818H147.804C148.641 35.8818 149.32 36.5605 149.32 37.3977V77.6011C149.319 78.6695 148.453 79.5361 147.384 79.5361Z" fill="white"/>
<path d="M144.678 44.3797H80.7589C78.7661 44.3797 77.1504 42.764 77.1504 40.7711V40.6981C77.1504 38.7052 78.7661 37.0896 80.7589 37.0896H144.678C146.671 37.0896 148.287 38.7052 148.287 40.6981V40.7711C148.286 42.764 146.671 44.3797 144.678 44.3797Z" fill="#374C7F"/>
<path d="M134.616 41.9753H92.142C91.7554 41.9753 91.4419 41.6618 91.4419 41.2753V39.9014C91.4419 39.5149 91.7554 39.2014 92.142 39.2014H134.616C135.002 39.2014 135.316 39.5149 135.316 39.9014V41.2753C135.316 41.6618 135.003 41.9753 134.616 41.9753Z" fill="white"/>
<path d="M80.3431 41.9753H93.0507C93.4083 41.9753 93.6982 41.6854 93.6982 41.3278V39.8489C93.6982 39.4913 93.4083 39.2014 93.0507 39.2014H80.3431C79.9855 39.2014 79.6956 39.4913 79.6956 39.8489V41.3278C79.6956 41.6854 79.9855 41.9753 80.3431 41.9753Z" fill="#DEF6F8"/>
<path d="M95.2471 40.5881H109.663" stroke="#57595E" stroke-width="0.337073" stroke-miterlimit="10"/>
<path d="M81.5967 40.5881H91.4421" stroke="#57595E" stroke-width="0.337073" stroke-miterlimit="10"/>
<path d="M134.616 39.2014H130.302V41.9753H134.616C135.002 41.9753 135.316 41.6618 135.316 41.2753V39.9014C135.316 39.5144 135.003 39.2014 134.616 39.2014Z" fill="#F5AD49"/>
<path d="M132.245 41.049C132.649 41.049 132.976 40.722 132.976 40.3187C132.976 39.9153 132.649 39.5883 132.245 39.5883C131.842 39.5883 131.515 39.9153 131.515 40.3187C131.515 40.722 131.842 41.049 132.245 41.049Z" stroke="white" stroke-width="0.224715" stroke-miterlimit="10"/>
<path d="M132.809 40.7827L133.587 41.5607" stroke="white" stroke-width="0.224715" stroke-miterlimit="10"/>
<path d="M138.792 38.6674H140.43L141.216 40.9822H144.569L144.931 39.1555" stroke="white" stroke-width="0.502158" stroke-miterlimit="10" stroke-linecap="round"/>
<path d="M142.823 39.9851C143.21 39.9851 143.524 39.6322 143.524 39.1969C143.524 38.7616 143.21 38.4087 142.823 38.4087C142.436 38.4087 142.123 38.7616 142.123 39.1969C142.123 39.6322 142.436 39.9851 142.823 39.9851Z" fill="#F5AD49"/>
<path d="M142.204 42.2795C142.204 42.6135 141.933 42.8838 141.6 42.8838C141.266 42.8838 140.996 42.613 140.996 42.2795C140.996 41.9455 141.266 41.6752 141.6 41.6752C141.934 41.6752 142.204 41.9455 142.204 42.2795Z" fill="white"/>
<path d="M144.458 42.2795C144.458 42.6135 144.187 42.8838 143.853 42.8838C143.519 42.8838 143.249 42.613 143.249 42.2795C143.249 41.9455 143.52 41.6752 143.853 41.6752C144.187 41.6752 144.458 41.9455 144.458 42.2795Z" fill="white"/>
<path d="M137.951 77.2221H114.908C114.443 77.2221 114.066 76.8454 114.066 76.3804V74.3234C114.066 73.8585 114.443 73.4818 114.908 73.4818H137.951C138.416 73.4818 138.793 73.8585 138.793 74.3234V76.3804C138.793 76.8454 138.416 77.2221 137.951 77.2221Z" fill="#374C7F"/>
<path d="M137.951 76.7763H114.908C114.443 76.7763 114.066 76.3996 114.066 75.9347V73.8777C114.066 73.4127 114.443 73.036 114.908 73.036H137.951C138.416 73.036 138.793 73.4127 138.793 73.8777V75.9347C138.793 76.3996 138.416 76.7763 137.951 76.7763Z" fill="#FF4747"/>
<path d="M126.952 59.8212L127.431 60.792L128.503 60.9474L127.727 61.7031L127.91 62.7706L126.952 62.2665L125.994 62.7706L126.177 61.7031L125.401 60.9474L126.473 60.792L126.952 59.8212Z" fill="#F5AD49"/>
<path d="M130.351 59.8212L130.831 60.792L131.902 60.9474L131.127 61.7031L131.31 62.7706L130.351 62.2665L129.393 62.7706L129.576 61.7031L128.801 60.9474L129.872 60.792L130.351 59.8212Z" fill="#F5AD49"/>
<path d="M133.751 59.8212L134.23 60.792L135.301 60.9474L134.526 61.7031L134.709 62.7706L133.751 62.2665L132.792 62.7706L132.975 61.7031L132.2 60.9474L133.271 60.792L133.751 59.8212Z" fill="#F5AD49"/>
<path d="M137.15 59.8212L137.629 60.792L138.7 60.9474L137.925 61.7031L138.108 62.7706L137.15 62.2665L136.191 62.7706L136.374 61.7031L135.599 60.9474L136.671 60.792L137.15 59.8212Z" fill="#F5AD49"/>
<path d="M140.549 59.8212L141.028 60.792L142.1 60.9474L141.325 61.7031L141.508 62.7706L140.549 62.2665L139.591 62.7706L139.774 61.7031L138.999 60.9474L140.07 60.792L140.549 59.8212Z" fill="#F5AD49"/>
<path d="M141.369 70.8677H112.754C112.177 70.8677 111.708 70.3996 111.708 69.8225V67.268C111.708 66.6909 112.177 66.2228 112.754 66.2228H141.369C141.946 66.2228 142.414 66.6909 142.414 67.268V69.8225C142.413 70.4001 141.946 70.8677 141.369 70.8677Z" fill="#F5AD49"/>
<path d="M134.025 67.0997H133.477V69.9921H134.025V67.0997Z" fill="#374C7F"/>
<path d="M135.197 68.2718H132.304V68.82H135.197V68.2718Z" fill="#374C7F"/>
<path d="M132.921 67.3301L132.533 67.7178L134.578 69.763L134.966 69.3754L132.921 67.3301Z" fill="#374C7F"/>
<path d="M134.578 67.3297L132.533 69.3749L132.921 69.7625L134.966 67.7173L134.578 67.3297Z" fill="#374C7F"/>
<path d="M129.402 67.0997H128.854V69.9921H129.402V67.0997Z" fill="#374C7F"/>
<path d="M130.574 68.2718H127.682V68.82H130.574V68.2718Z" fill="#374C7F"/>
<path d="M128.301 67.3378L127.913 67.7255L129.958 69.7707L130.346 69.3831L128.301 67.3378Z" fill="#374C7F"/>
<path d="M129.953 67.3217L127.908 69.367L128.296 69.7546L130.341 67.7094L129.953 67.3217Z" fill="#374C7F"/>
<path d="M124.78 67.0997H124.232V69.9921H124.78V67.0997Z" fill="#374C7F"/>
<path d="M125.952 68.2718H123.059V68.82H125.952V68.2718Z" fill="#374C7F"/>
<path d="M123.675 67.3299L123.288 67.7175L125.333 69.7628L125.721 69.3751L123.675 67.3299Z" fill="#374C7F"/>
<path d="M125.333 67.3299L123.288 69.3751L123.675 69.7628L125.721 67.7175L125.333 67.3299Z" fill="#374C7F"/>
<path d="M120.157 67.0997H119.609V69.9921H120.157V67.0997Z" fill="#374C7F"/>
<path d="M121.33 68.2718H118.437V68.82H121.33V68.2718Z" fill="#374C7F"/>
<path d="M119.056 67.3373L118.668 67.725L120.713 69.7702L121.101 69.3826L119.056 67.3373Z" fill="#374C7F"/>
<path d="M120.709 67.3217L118.664 69.3669L119.051 69.7545L121.097 67.7093L120.709 67.3217Z" fill="#374C7F"/>
<path d="M101.205 73.823C103.692 70.7931 103.879 66.8354 101.623 64.9834C99.3666 63.1313 95.5213 64.0862 93.0342 67.1161C90.5472 70.146 90.3601 74.1037 92.6165 75.9558C94.8728 77.8078 98.7181 76.853 101.205 73.823Z" fill="#374C7F"/>
<path d="M94.0433 67.9516C91.5565 70.9817 91.1419 74.7523 93.1174 76.3738C95.0929 77.9952 98.7108 76.8538 101.198 73.8238C103.684 70.7942 104.099 67.0231 102.123 65.4016C100.147 63.7802 96.53 64.9216 94.0433 67.9516Z" fill="#28355F"/>
<path d="M101.814 74.3234C104.302 71.2935 104.716 67.5226 102.74 65.9008C100.765 64.2791 97.1468 65.4207 94.6597 68.4506C92.1727 71.4806 91.7581 75.2515 93.7339 76.8732C95.7096 78.4949 99.3274 77.3534 101.814 74.3234Z" fill="#374C7F"/>
<path d="M96.2275 69.7445C94.2881 72.1075 94.0347 75.1059 95.6619 76.4415C97.2892 77.777 100.18 76.9442 102.12 74.5813C104.06 72.2184 104.313 69.2199 102.686 67.8844C101.058 66.5488 98.1669 67.3816 96.2275 69.7445Z" fill="#9BABB8"/>
<path d="M97.1124 70.4709C95.1729 72.8338 94.7214 75.6697 96.1041 76.8044C97.4869 77.9395 100.18 76.9438 102.12 74.5808C104.059 72.2179 104.511 69.3825 103.128 68.2473C101.745 67.1126 99.0518 68.1079 97.1124 70.4709Z" fill="#DEF6F8"/>
<path d="M98.733 67.2101L101.907 66.3725C101.907 66.3725 105.784 55.5901 98.6965 48.6883C94.9018 44.9996 92.5028 46.2902 91.8317 46.5645C91.1606 46.8384 89.8865 47.4427 89.8865 47.4427C89.8865 47.4427 92.3158 46.9893 94.811 49.452C97.3137 51.9263 100.135 56.4135 99.344 62.7377C98.7406 66.5787 98.733 67.2101 98.733 67.2101Z" fill="#28355F"/>
<path d="M99.1193 57.2307C98.3578 53.7455 96.5114 51.1332 94.8102 49.452C92.3155 46.9893 89.8857 47.4427 89.8857 47.4427C89.8857 47.4427 91.1598 46.8384 91.831 46.5645C92.5021 46.2902 94.9011 44.9996 98.6958 48.6883C101.019 50.9506 102.164 53.6297 102.654 56.2095L99.1193 57.2307Z" fill="#374C7F"/>
<path d="M98.733 67.2101C98.9089 67.1928 99.2491 65.6524 99.2869 65.509C99.6628 64.0937 99.8788 62.6326 99.9211 61.1687C99.9772 59.2124 99.7114 57.244 99.0674 55.3928C98.2711 53.1042 96.9022 51.0592 95.1583 49.3839C94.1282 48.3944 93.0184 47.3803 91.5337 47.2463C90.4351 47.147 89.3502 47.5269 88.4765 48.1828C87.6032 48.8384 86.9419 49.7482 86.5023 50.7417C86.2476 51.318 86.0654 51.9259 85.9506 52.5453C85.918 52.719 85.7274 54.5898 85.8005 54.5854C89.075 54.3899 89.075 54.3899 89.075 54.3899C89.075 54.3899 89.3654 49.139 91.4157 47.6765C93.0425 48.0768 102.315 53.3171 98.2703 67.256C98.7294 67.2101 98.733 67.2101 98.733 67.2101Z" fill="#44555F"/>
<path d="M91.4162 47.6756C89.3654 49.1381 89.0755 54.389 89.0755 54.389C89.0755 54.389 89.0755 54.389 85.801 54.5845C85.7965 54.5849 85.793 54.5774 85.7903 54.5631C85.9266 54.5043 86.0717 54.442 86.228 54.3752C86.729 47.4979 91.4162 47.6756 91.4162 47.6756Z" fill="#28355F"/>
<path d="M82.1738 57.0187C79.6871 60.0483 79.3896 63.9156 81.5099 65.6559C83.6301 67.3963 87.3651 66.3511 89.8518 63.3215C92.3386 60.2919 92.6361 56.4246 90.5158 54.6843C88.3956 52.9434 84.6606 53.9886 82.1738 57.0187Z" fill="#374C7F"/>
<path d="M90.5015 63.8474C92.9885 60.8175 93.2858 56.9503 91.1654 55.2098C89.045 53.4693 85.3099 54.5146 82.8228 57.5445C80.3357 60.5745 80.0385 64.4417 82.1589 66.1822C84.2793 67.9227 88.0144 66.8774 90.5015 63.8474Z" fill="#28355F"/>
<path d="M83.8072 58.3596C81.3204 61.3892 80.9058 65.1603 82.8813 66.7817C84.8568 68.4032 88.4747 67.2618 90.9615 64.2322C93.4482 61.2021 93.8628 57.4315 91.8873 55.81C89.9118 54.1881 86.2944 55.3295 83.8072 58.3596Z" fill="#374C7F"/>
<path d="M85.6365 59.8604C84.1709 61.6457 83.9269 63.8679 85.091 64.8236C86.2551 65.7793 88.3869 65.1064 89.8525 63.321C91.3181 61.5357 91.5621 59.3135 90.398 58.3578C89.2339 57.4026 87.1017 58.075 85.6365 59.8604Z" fill="#28355F"/>
<path d="M89.4925 63.0262C90.8819 61.3335 91.1727 59.2498 90.2077 58.2233C90.2732 58.2643 90.3373 58.3084 90.3979 58.3583C91.562 59.3139 91.3179 61.5361 89.8523 63.3215C88.3867 65.1068 86.2549 65.7797 85.0908 64.824C85.0303 64.7742 84.9741 64.7203 84.9211 64.6642C86.116 65.4101 88.1035 64.7185 89.4925 63.0262Z" fill="#9BABB8"/>
<path d="M98.5048 71.5192C97.4369 72.8205 97.1359 74.339 97.8328 74.9113C98.5297 75.4835 99.9606 74.8921 101.029 73.5909C102.096 72.2896 102.397 70.771 101.701 70.1988C101.004 69.627 99.5732 70.2179 98.5048 71.5192Z" fill="#FF4747"/>
<path d="M78.1555 34.7124C78.7106 34.7124 79.1606 34.2624 79.1606 33.7073C79.1606 33.1522 78.7106 32.7021 78.1555 32.7021C77.6004 32.7021 77.1504 33.1522 77.1504 33.7073C77.1504 34.2624 77.6004 34.7124 78.1555 34.7124Z" fill="#374C7F"/>
<path d="M82.1938 34.7124C82.749 34.7124 83.199 34.2624 83.199 33.7073C83.199 33.1522 82.749 32.7021 82.1938 32.7021C81.6387 32.7021 81.1887 33.1522 81.1887 33.7073C81.1887 34.2624 81.6387 34.7124 82.1938 34.7124Z" fill="#FF4747"/>
<path d="M86.2322 34.7124C86.7873 34.7124 87.2373 34.2624 87.2373 33.7073C87.2373 33.1522 86.7873 32.7021 86.2322 32.7021C85.6771 32.7021 85.2271 33.1522 85.2271 33.7073C85.2271 34.2624 85.6771 34.7124 86.2322 34.7124Z" fill="white"/>
<path d="M111.708 48.4019H142.413" stroke="#45619B" stroke-width="0.684967" stroke-miterlimit="10" stroke-linecap="round"/>
<path d="M111.708 52.849H142.413" stroke="#45619B" stroke-width="0.684967" stroke-miterlimit="10" stroke-linecap="round"/>
<path d="M111.708 57.2957H142.413" stroke="#45619B" stroke-width="0.684967" stroke-miterlimit="10" stroke-linecap="round"/>
<path d="M111.708 61.7423H123.289" stroke="#45619B" stroke-width="0.684967" stroke-miterlimit="10" stroke-linecap="round"/>
<path d="M137.321 189.677H42.7895C40.394 189.677 38.4524 187.736 38.4524 185.34V127.06C38.4524 124.665 40.394 122.723 42.7895 122.723H137.321C139.717 122.723 141.658 124.665 141.658 127.06V185.34C141.658 187.736 139.717 189.677 137.321 189.677Z" fill="#374C7F"/>
<path d="M139.768 187.137H44.5774C42.3641 187.137 40.5698 185.342 40.5698 183.129V124.19C40.5698 121.977 42.3641 120.183 44.5774 120.183H139.768C141.981 120.183 143.775 121.977 143.775 124.19V183.129C143.776 185.342 141.982 187.137 139.768 187.137Z" fill="#BCC0CE"/>
<path d="M139.113 185.319H45.1079C43.6659 185.319 42.4973 184.15 42.4973 182.709V128.468C42.4973 127.339 43.4129 126.423 44.5427 126.423H139.678C140.808 126.423 141.724 127.339 141.724 128.468V182.708C141.724 184.15 140.555 185.319 139.113 185.319Z" fill="white"/>
<path d="M135.461 137.888H49.2253C46.5364 137.888 44.3569 135.708 44.3569 133.02V132.921C44.3569 130.232 46.5364 128.053 49.2253 128.053H135.461C138.15 128.053 140.33 130.232 140.33 132.921V133.02C140.329 135.709 138.15 137.888 135.461 137.888Z" fill="#374C7F"/>
<path d="M121.886 134.644H64.5832C64.0617 134.644 63.6387 134.222 63.6387 133.7V131.846C63.6387 131.324 64.0613 130.901 64.5832 130.901H121.886C122.408 130.901 122.831 131.324 122.831 131.846V133.7C122.831 134.221 122.408 134.644 121.886 134.644Z" fill="white"/>
<path d="M48.6643 134.644H65.8083C66.2906 134.644 66.682 134.253 66.682 133.771V131.775C66.682 131.293 66.291 130.901 65.8083 130.901H48.6643C48.182 130.901 47.7905 131.292 47.7905 131.775V133.771C47.791 134.253 48.182 134.644 48.6643 134.644Z" fill="#DEF6F8"/>
<path d="M68.7717 132.773H88.2203" stroke="#57595E" stroke-width="0.454774" stroke-miterlimit="10"/>
<path d="M50.3555 132.773H63.6384" stroke="#57595E" stroke-width="0.454774" stroke-miterlimit="10"/>
<path d="M121.886 130.902H116.067V134.644H121.886C122.408 134.644 122.831 134.222 122.831 133.7V131.846C122.831 131.324 122.408 130.902 121.886 130.902Z" fill="#F5AD49"/>
<path d="M118.688 133.395C119.232 133.395 119.673 132.953 119.673 132.409C119.673 131.865 119.232 131.424 118.688 131.424C118.144 131.424 117.702 131.865 117.702 132.409C117.702 132.953 118.144 133.395 118.688 133.395Z" stroke="white" stroke-width="0.303183" stroke-miterlimit="10"/>
<path d="M119.449 133.035L120.498 134.085" stroke="white" stroke-width="0.303183" stroke-miterlimit="10"/>
<path d="M127.521 130.182H129.73L130.79 133.304H135.315L135.803 130.84" stroke="white" stroke-width="0.677441" stroke-miterlimit="10" stroke-linecap="round"/>
<path d="M132.958 131.959C133.48 131.959 133.904 131.483 133.904 130.896C133.904 130.309 133.48 129.832 132.958 129.832C132.436 129.832 132.013 130.309 132.013 130.896C132.013 131.483 132.436 131.959 132.958 131.959Z" fill="#F5AD49"/>
<path d="M131.309 135.87C131.759 135.87 132.124 135.505 132.124 135.055C132.124 134.605 131.759 134.239 131.309 134.239C130.858 134.239 130.493 134.605 130.493 135.055C130.493 135.505 130.858 135.87 131.309 135.87Z" fill="white"/>
<path d="M134.349 135.87C134.799 135.87 135.164 135.505 135.164 135.055C135.164 134.605 134.799 134.239 134.349 134.239C133.898 134.239 133.533 134.605 133.533 135.055C133.533 135.505 133.898 135.87 134.349 135.87Z" fill="white"/>
<path d="M126.386 182.197H95.2963C94.6693 182.197 94.1611 181.689 94.1611 181.062V178.287C94.1611 177.659 94.6697 177.151 95.2963 177.151H126.386C127.013 177.151 127.522 177.659 127.522 178.287V181.062C127.522 181.689 127.013 182.197 126.386 182.197Z" fill="#374C7F"/>
<path d="M126.386 181.596H95.2963C94.6693 181.596 94.1611 181.088 94.1611 180.461V177.686C94.1611 177.059 94.6697 176.551 95.2963 176.551H126.386C127.013 176.551 127.522 177.059 127.522 177.686V180.461C127.522 181.088 127.013 181.596 126.386 181.596Z" fill="#FF4747"/>
<path d="M111.546 158.721L112.193 160.031L113.638 160.241L112.592 161.26L112.84 162.7L111.546 162.02L110.254 162.7L110.501 161.26L109.455 160.241L110.9 160.031L111.546 158.721Z" fill="#F5AD49"/>
<path d="M116.132 158.721L116.779 160.031L118.224 160.241L117.178 161.26L117.425 162.7L116.132 162.02L114.839 162.7L115.086 161.26L114.04 160.241L115.486 160.031L116.132 158.721Z" fill="#F5AD49"/>
<path d="M120.719 158.721L121.365 160.031L122.81 160.241L121.765 161.26L122.011 162.7L120.719 162.02L119.425 162.7L119.673 161.26L118.626 160.241L120.072 160.031L120.719 158.721Z" fill="#F5AD49"/>
<path d="M125.305 158.721L125.951 160.031L127.397 160.241L126.351 161.26L126.597 162.7L125.305 162.02L124.012 162.7L124.258 161.26L123.212 160.241L124.658 160.031L125.305 158.721Z" fill="#F5AD49"/>
<path d="M129.891 158.721L130.537 160.031L131.983 160.241L130.937 161.26L131.183 162.7L129.891 162.02L128.598 162.7L128.844 161.26L127.798 160.241L129.244 160.031L129.891 158.721Z" fill="#F5AD49"/>
<path d="M130.996 173.624H92.3909C91.612 173.624 90.981 172.993 90.981 172.214V168.768C90.981 167.99 91.612 167.358 92.3909 167.358H130.996C131.775 167.358 132.406 167.99 132.406 168.768V172.214C132.406 172.993 131.775 173.624 130.996 173.624Z" fill="#F5AD49"/>
<path d="M121.088 168.54H120.349V172.442H121.088V168.54Z" fill="#374C7F"/>
<path d="M122.67 170.122H118.768V170.861H122.67V170.122Z" fill="#374C7F"/>
<path d="M119.598 168.85L119.075 169.373L121.835 172.132L122.357 171.609L119.598 168.85Z" fill="#374C7F"/>
<path d="M121.833 168.859L119.074 171.618L119.597 172.141L122.356 169.382L121.833 168.859Z" fill="#374C7F"/>
<path d="M114.852 168.54H114.113V172.442H114.852V168.54Z" fill="#374C7F"/>
<path d="M116.433 170.122H112.531V170.861H116.433V170.122Z" fill="#374C7F"/>
<path d="M113.362 168.85L112.839 169.373L115.598 172.132L116.121 171.609L113.362 168.85Z" fill="#374C7F"/>
<path d="M115.597 168.859L112.838 171.618L113.36 172.141L116.119 169.382L115.597 168.859Z" fill="#374C7F"/>
<path d="M108.616 168.54H107.876V172.442H108.616V168.54Z" fill="#374C7F"/>
<path d="M110.197 170.122H106.295V170.861H110.197V170.122Z" fill="#374C7F"/>
<path d="M107.126 168.85L106.603 169.373L109.362 172.132L109.885 171.609L107.126 168.85Z" fill="#374C7F"/>
<path d="M109.36 168.858L106.601 171.618L107.124 172.14L109.883 169.381L109.36 168.858Z" fill="#374C7F"/>
<path d="M102.379 168.54H101.64V172.442H102.379V168.54Z" fill="#374C7F"/>
<path d="M103.961 170.122H100.059V170.861H103.961V170.122Z" fill="#374C7F"/>
<path d="M100.89 168.85L100.367 169.373L103.126 172.132L103.649 171.609L100.89 168.85Z" fill="#374C7F"/>
<path d="M103.124 168.858L100.365 171.617L100.887 172.14L103.647 169.381L103.124 168.858Z" fill="#374C7F"/>
<path d="M45.7125 124.846C46.4614 124.846 47.0685 124.238 47.0685 123.49C47.0685 122.741 46.4614 122.134 45.7125 122.134C44.9636 122.134 44.3564 122.741 44.3564 123.49C44.3564 124.238 44.9636 124.846 45.7125 124.846Z" fill="#374C7F"/>
<path d="M51.1612 124.846C51.9101 124.846 52.5173 124.238 52.5173 123.49C52.5173 122.741 51.9101 122.134 51.1612 122.134C50.4123 122.134 49.8052 122.741 49.8052 123.49C49.8052 124.238 50.4123 124.846 51.1612 124.846Z" fill="#FF4747"/>
<path d="M56.6097 124.846C57.3586 124.846 57.9657 124.238 57.9657 123.49C57.9657 122.741 57.3586 122.134 56.6097 122.134C55.8608 122.134 55.2537 122.741 55.2537 123.49C55.2537 124.238 55.8608 124.846 56.6097 124.846Z" fill="white"/>
<path d="M90.981 143.315H132.406" stroke="#45619B" stroke-width="0.924111" stroke-miterlimit="10" stroke-linecap="round"/>
<path d="M90.981 149.314H132.406" stroke="#45619B" stroke-width="0.924111" stroke-miterlimit="10" stroke-linecap="round"/>
<path d="M90.981 155.314H132.406" stroke="#45619B" stroke-width="0.924111" stroke-miterlimit="10" stroke-linecap="round"/>
<path d="M90.981 161.313H106.605" stroke="#45619B" stroke-width="0.924111" stroke-miterlimit="10" stroke-linecap="round"/>
<path d="M62.5799 149.632L61.3828 143.869L66.9691 141.032L70.5602 142.761L71.89 146.662V149.632L67.8116 159.519H65.2848L62.5799 149.632Z" fill="#BC3535"/>
<path d="M59.7575 146.361C59.7575 146.361 51.6538 148.623 50.1913 151.415L45.9348 161.257L54.0479 163.917L55.3781 161.39L55.2454 180.143H78.1195V160.459L79.5838 163.074L87.4296 160.991L83.1731 150.75C83.1731 150.75 80.0059 146.76 73.3758 146.36L69.4128 149.55L66.682 157.789L64.4914 149.55L63.9664 149.632L59.7575 146.361Z" fill="#FF4747"/>
<path d="M64.4911 149.551L62.8015 150.44L66.6995 158.011L70.728 150.498L69.4125 149.551L66.6367 157.391L64.4911 149.551Z" fill="white"/>
<path d="M75.5993 156.859H69.8804V157.746H75.5993V156.859Z" fill="white"/>
<g opacity="0.35">
<path d="M83.173 150.751C83.173 150.751 80.0058 146.76 73.3756 146.361L71.5417 147.837C71.6704 147.846 71.7876 147.861 71.8904 147.881C73.2331 148.152 80.4275 152.407 80.4275 152.407L84.9458 161.651L87.4295 160.991L83.173 150.751Z" fill="#653239"/>
<path d="M59.7575 146.361C59.7575 146.361 51.6538 148.623 50.1913 151.415L45.9348 161.257L49.444 162.407C50.1744 160.612 51.3826 157.643 53.383 152.727C54.5476 152.037 59.9766 150.369 63.5522 149.31L59.7575 146.361Z" fill="#653239"/>
</g>
<path d="M72.2223 143.514C75.2813 149.1 72.3381 151.656 72.3381 151.656L69.4118 149.551C69.9391 149.096 70.3684 148.273 70.547 147.612C71.2194 145.119 69.8986 142.464 67.2528 142.017C66.0656 141.815 64.4891 142.331 63.5637 143.105C62.2197 144.23 62.0732 146.381 62.9064 147.871C63.0128 148.061 64.1707 149.72 64.4904 149.551C64.4838 149.555 60.4882 151.656 60.4882 151.656C58.4931 146.869 61.3825 143.382 61.3825 143.382C61.3825 143.382 63.0525 140.854 66.6361 140.855C66.6365 140.854 70.2931 140.744 72.2223 143.514Z" fill="white"/>
<path d="M293.977 198.941C293.977 199.605 259.114 200.143 216.107 200.143C173.1 200.143 138.236 199.605 138.236 198.941C138.236 198.277 173.1 197.739 216.107 197.739C259.113 197.738 293.977 198.277 293.977 198.941Z" fill="#131A2B"/>
<path d="M265.888 161.579C265.888 161.579 281.555 123.409 296.393 133.822C301.689 137.993 267.488 163.895 267.488 163.895L265.888 161.579Z" fill="#A4BDDA"/>
<path d="M290.94 135.481C290.94 135.481 272.704 151.084 267.935 158.405" stroke="white" stroke-width="0.332664" stroke-miterlimit="10"/>
<path d="M277.969 147.295C277.969 147.295 279.259 145.012 279.089 140.562" stroke="white" stroke-width="0.332664" stroke-miterlimit="10"/>
<path d="M272.003 160.377L284.96 134.02C274.478 140.657 265.888 161.579 265.888 161.579L267.297 163.618L268.781 162.903C269.567 162.294 270.675 161.431 272.003 160.377Z" fill="#7590AA"/>
<path d="M262.428 163.976C262.428 163.976 262.58 103.167 287.741 108.365C296.964 110.833 265.782 166.145 265.782 166.145L262.428 163.976Z" fill="#B4D1ED"/>
<path d="M282.204 112.293C282.204 112.293 267.174 142.876 264.72 161.806" stroke="white" stroke-width="0.332664" stroke-miterlimit="10"/>
<path d="M286.656 117.594C286.656 117.594 280.277 120.032 277.76 121.959" stroke="white" stroke-width="0.332664" stroke-miterlimit="10"/>
<path d="M270.277 123.751C270.277 123.751 272.386 129.7 272.748 134.07" stroke="white" stroke-width="0.332664" stroke-miterlimit="10"/>
<path d="M275.687 141.381C275.687 141.381 271.597 142.214 269.063 144.305" stroke="white" stroke-width="0.332664" stroke-miterlimit="10"/>
<path d="M283.562 142.038C283.562 142.038 287.665 140.572 292.255 140.971" stroke="white" stroke-width="0.332664" stroke-miterlimit="10"/>
<path d="M264.715 161.069C264.715 161.069 249.203 139.548 241.484 148.281C238.798 151.682 264.061 162.757 264.061 162.757L264.715 161.069Z" fill="#A4BDDA"/>
<path d="M245.143 148.502C245.143 148.502 258.882 155.527 262.96 159.391" stroke="white" stroke-width="0.213894" stroke-miterlimit="10"/>
<path d="M255.022 153.947C255.022 153.947 253.873 152.712 253.313 149.905" stroke="white" stroke-width="0.213894" stroke-miterlimit="10"/>
<path d="M260.712 161.233L248.663 146.693C256.211 149.273 264.715 161.069 264.715 161.069L264.14 162.555L263.105 162.33C262.522 162.067 261.7 161.693 260.712 161.233Z" fill="#7590AA"/>
<path d="M267.237 162.05C267.237 162.05 258.036 124.051 243.082 131.068C237.684 133.993 265.465 163.909 265.465 163.909L267.237 162.05Z" fill="#B4D1ED"/>
<path d="M247.133 132.696C247.133 132.696 261.11 149.567 265.479 161.037" stroke="white" stroke-width="0.213894" stroke-miterlimit="10"/>
<path d="M245.143 136.676C245.143 136.676 249.496 137.245 251.359 138.073" stroke="white" stroke-width="0.213894" stroke-miterlimit="10"/>
<path d="M256.306 138.073C256.306 138.073 255.878 142.109 256.306 144.896" stroke="white" stroke-width="0.213894" stroke-miterlimit="10"/>
<path d="M255.563 149.907C255.563 149.907 258.245 149.815 260.143 150.744" stroke="white" stroke-width="0.213894" stroke-miterlimit="10"/>
<path d="M250.738 151.497C250.738 151.497 247.953 151.195 245.143 152.132" stroke="white" stroke-width="0.213894" stroke-miterlimit="10"/>
<path d="M275.424 160.78H254.168V198.402H275.424V160.78Z" fill="#C92D3C"/>
<path d="M275.424 167.036H254.168V178.562H275.424V167.036Z" fill="#FF4747"/>
<path d="M234.85 168.743C234.85 168.743 222.598 138.893 210.993 147.037C206.852 150.299 233.598 170.555 233.598 170.555L234.85 168.743Z" fill="#A4BDDA"/>
<path d="M215.258 148.334C215.258 148.334 229.519 160.536 233.248 166.262" stroke="white" stroke-width="0.260164" stroke-miterlimit="10"/>
<path d="M225.402 157.573C225.402 157.573 224.393 155.788 224.526 152.308" stroke="white" stroke-width="0.260164" stroke-miterlimit="10"/>
<path d="M230.068 167.803L219.934 147.192C228.132 152.382 234.85 168.744 234.85 168.744L233.748 170.339L232.587 169.779C231.972 169.303 231.106 168.628 230.068 167.803Z" fill="#7590AA"/>
<path d="M237.556 170.619C237.556 170.619 237.437 123.064 217.76 127.129C210.547 129.059 234.933 172.315 234.933 172.315L237.556 170.619Z" fill="#B4D1ED"/>
<path d="M222.09 130.201C222.09 130.201 233.844 154.117 235.763 168.921" stroke="white" stroke-width="0.260164" stroke-miterlimit="10"/>
<path d="M218.608 134.346C218.608 134.346 223.597 136.252 225.566 137.759" stroke="white" stroke-width="0.260164" stroke-miterlimit="10"/>
<path d="M231.417 139.161C231.417 139.161 229.768 143.813 229.484 147.231" stroke="white" stroke-width="0.260164" stroke-miterlimit="10"/>
<path d="M227.186 152.948C227.186 152.948 230.385 153.6 232.366 155.235" stroke="white" stroke-width="0.260164" stroke-miterlimit="10"/>
<path d="M221.028 153.462C221.028 153.462 217.819 152.316 214.23 152.628" stroke="white" stroke-width="0.260164" stroke-miterlimit="10"/>
<path d="M235.767 168.345C235.767 168.345 247.898 151.515 253.934 158.345C256.035 161.005 236.278 169.665 236.278 169.665L235.767 168.345Z" fill="#A4BDDA"/>
<path d="M251.073 158.517C251.073 158.517 240.329 164.011 237.14 167.033" stroke="white" stroke-width="0.167267" stroke-miterlimit="10"/>
<path d="M243.347 162.775C243.347 162.775 244.245 161.81 244.684 159.614" stroke="white" stroke-width="0.167267" stroke-miterlimit="10"/>
<path d="M238.898 168.473L248.32 157.102C242.417 159.12 235.767 168.345 235.767 168.345L236.217 169.507L237.027 169.331C237.482 169.126 238.125 168.833 238.898 168.473Z" fill="#7590AA"/>
<path d="M233.794 169.112C233.794 169.112 240.99 139.395 252.685 144.883C256.906 147.171 235.181 170.566 235.181 170.566L233.794 169.112Z" fill="#B4D1ED"/>
<path d="M249.517 146.156C249.517 146.156 238.586 159.35 235.169 168.319" stroke="white" stroke-width="0.167267" stroke-miterlimit="10"/>
<path d="M251.073 149.269C251.073 149.269 247.669 149.714 246.212 150.361" stroke="white" stroke-width="0.167267" stroke-miterlimit="10"/>
<path d="M242.343 150.361C242.343 150.361 242.678 153.518 242.343 155.697" stroke="white" stroke-width="0.167267" stroke-miterlimit="10"/>
<path d="M242.924 159.616C242.924 159.616 240.827 159.544 239.343 160.27" stroke="white" stroke-width="0.167267" stroke-miterlimit="10"/>
<path d="M246.698 160.86C246.698 160.86 248.876 160.623 251.074 161.356" stroke="white" stroke-width="0.167267" stroke-miterlimit="10"/>
<path d="M244.015 168.119H227.392V197.54H244.015V168.119Z" fill="#C92D3C"/>
<path d="M244.015 173.012H227.392V182.026H244.015V173.012Z" fill="#FF4747"/>
<path d="M242.469 100.553H242.311C237.999 100.553 234.504 104.048 234.504 108.359V117.016H250.276V108.359C250.275 104.048 246.78 100.553 242.469 100.553Z" stroke="#CE7A2E" stroke-width="1.0753" stroke-miterlimit="10"/>
<path d="M245.109 100.553H244.952C240.64 100.553 237.145 104.048 237.145 108.359V117.016H252.917V108.359C252.916 104.048 249.421 100.553 245.109 100.553Z" stroke="#CE7A2E" stroke-width="1.0753" stroke-miterlimit="10"/>
<path d="M267.481 163.612H215.866V198.739H267.481V163.612Z" fill="#374C7F"/>
<path d="M235.58 163.612H215.866V198.739H235.58V163.612Z" fill="#28355F"/>
<path d="M262.821 147.482H225.723V163.612H262.821V147.482Z" fill="#FF4747"/>
<path d="M262.821 147.482H251.351V163.612H262.821V147.482Z" fill="#BC3535"/>
<path d="M256.906 114.864H230.742L229.128 147.482H258.52L256.906 114.864Z" fill="#F5AD49"/>
<path opacity="0.53" d="M225.723 163.612L251.351 157.119L262.821 163.612H225.723Z" fill="#440000"/>
<path d="M229.128 147.482C229.128 147.482 246.108 140.986 248.069 114.864C256.906 114.864 256.906 114.864 256.906 114.864L258.52 147.482H229.128Z" fill="#E37427"/>
<path d="M170.944 111.954H163.701V125.021H170.944V111.954Z" fill="#E37427"/>
<path d="M182.9 162.647L178.824 198.738H162.515C162.515 198.738 162.2 194.765 165.876 193.823C170.286 161.767 170.381 160.925 170.381 160.925L182.9 162.647Z" fill="#FF8076"/>
<path d="M173.712 187.884C173.712 187.884 173.464 190.649 176.594 190.854" stroke="#A50000" stroke-width="0.409618" stroke-miterlimit="10"/>
<path opacity="0.42" d="M174.484 161.489L170.38 160.925C170.38 160.925 170.285 161.767 165.876 193.824C162.2 194.765 162.515 198.739 162.515 198.739H169.311L174.484 161.489Z" fill="white"/>
<path d="M200.394 161.641L201.292 198.739H184.921C184.921 198.739 184.242 195.257 187.756 193.824C187.756 161.465 187.756 161.641 187.756 161.641H200.394Z" fill="#FF8076"/>
<path d="M200.394 161.64H187.756C187.756 161.642 187.756 161.712 187.756 164.743C191.183 168.352 197.007 168.928 200.569 168.902L200.394 161.64Z" fill="#440000"/>
<path opacity="0.42" d="M193.888 161.64H187.756C187.756 161.643 187.756 161.971 187.756 193.823C184.242 195.257 184.921 198.738 184.921 198.738H193.039L193.888 161.64Z" fill="white"/>
<path d="M169.937 164.216C171.798 165.774 176.016 168.7 182.129 169.478L182.901 162.647L170.381 160.925C170.381 160.925 170.361 161.098 169.937 164.216Z" fill="#440000"/>
<path d="M169.749 190.208H169.577C167.626 190.208 166.043 191.79 166.043 193.741V193.823H173.282V193.741C173.282 191.79 171.7 190.208 169.749 190.208Z" fill="#28355F"/>
<path d="M162.515 198.739H178.824L179.379 193.824H165.876C162.2 194.765 162.515 198.739 162.515 198.739Z" fill="#394C77"/>
<path d="M187.434 118.337L184.132 165.327C184.132 165.327 177.973 167.581 168.856 163.226L177.241 117.126L187.434 118.337Z" fill="#374C7F"/>
<path d="M180.198 165.904C182.699 165.849 184.131 165.327 184.131 165.327L189.836 117.711H184.861L180.198 165.904Z" fill="#28355F"/>
<path d="M172.704 194.579C172.704 194.996 172.366 195.334 171.949 195.334H166.221C165.804 195.334 165.466 194.996 165.466 194.579C165.466 194.162 165.804 193.824 166.221 193.824H171.949C172.366 193.824 172.704 194.162 172.704 194.579Z" fill="white"/>
<path d="M184.921 198.739H201.292L201.173 193.824H187.756C184.242 195.257 184.921 198.739 184.921 198.739Z" fill="#394C77"/>
<path d="M194.995 194.579C194.995 194.996 194.657 195.334 194.24 195.334H188.512C188.095 195.334 187.757 194.996 187.757 194.579C187.757 194.162 188.095 193.824 188.512 193.824H194.24C194.657 193.824 194.995 194.162 194.995 194.579Z" fill="white"/>
<path d="M191.461 190.208H191.29C189.338 190.208 187.756 191.79 187.756 193.741V193.823H194.995V193.741C194.995 191.79 193.413 190.208 191.461 190.208Z" fill="#28355F"/>
<path d="M196.214 187.884C196.214 187.884 195.967 190.649 199.097 190.854" stroke="#A50000" stroke-width="0.409618" stroke-miterlimit="10"/>
<path d="M198.848 117.126L201.979 164.128C201.979 164.128 196.185 167.199 186.56 164.128C186.56 130.745 186.56 130.745 186.56 130.745C186.56 130.745 182.882 124.554 183.492 119.03C183.897 115.59 183.897 115.59 183.897 115.59L198.848 117.126Z" fill="#374C7F"/>
<path d="M198.161 165.235C200.631 164.84 201.98 164.128 201.98 164.128L198.848 117.126L196.215 116.856L198.161 165.235Z" fill="#28355F"/>
<path d="M196.214 116.856L190.781 116.298C190.93 119.375 191.814 126.217 196.675 128.301C196.214 116.856 196.214 116.856 196.214 116.856Z" fill="#28355F"/>
<path d="M199.192 122.299L198.848 117.126L183.897 115.59C183.897 115.59 183.897 115.591 183.627 117.885L177.241 117.126C177.241 117.126 184.45 123.684 199.192 122.299Z" fill="#072847"/>
<path d="M182.054 74.7327C182.054 74.7327 178.572 75.4497 176.115 84.0509C173.657 92.6525 170.708 103.302 170.708 103.302C170.708 103.302 150.515 102.142 148.876 110.402C179.937 110.402 179.937 110.402 179.937 110.402L182.054 74.7327Z" fill="#D1544E"/>
<path d="M173.681 92.6502C175.658 93.3655 178.349 94.1488 180.895 94.2726L182.054 74.7327C182.054 74.7327 178.572 75.4497 176.114 84.0509C175.316 86.8471 174.465 89.8576 173.681 92.6502Z" fill="#BC3535"/>
<path d="M178.463 89.4483L175.031 107.603H177.471L178.463 89.4483Z" fill="#440000"/>
<path d="M195.328 72.0193L204.275 80.3648L198.848 117.126C198.848 117.126 185.843 121.837 177.241 117.126C177.856 93.1646 177.51 88.3292 182.054 74.7327C190.615 71.8153 191.181 72.0193 191.181 72.0193H195.328Z" fill="#FF4747"/>
<path d="M194.905 63.3121L195.328 72.0193L189.612 80.3648L188.691 73.5553L189.256 68.384L193.182 63.1616L194.905 63.3121Z" fill="#FF8076"/>
<path d="M193.671 64.6722L192.282 64.3587L189.256 68.384L188.691 73.5553C192.922 70.7394 193.671 64.6722 193.671 64.6722Z" fill="#440000"/>
<path d="M186.389 59.8849C186.389 59.8849 182.258 59.8849 181.593 56.7105C181.337 55.5843 183.27 54.2015 184.915 55.6867C184.051 52.6148 184.98 51.8466 187.101 51.8466C189.222 51.8466 191.117 55.277 191.168 55.4306C191.424 53.024 193.523 52.8709 193.932 56.1476C195.776 57.1202 197.063 57.3905 196.932 60.1414C196.801 62.8922 195.929 66.8663 195.008 67.7535L194.998 67.7481C194.423 67.4065 194.036 66.8191 193.949 66.1551L193.723 64.4215L192.921 62.6361L190.239 59.1688L186.389 59.8849Z" fill="#7A0000"/>
<path opacity="0.42" d="M191.994 58.0728C191.994 58.0728 186.962 54.723 186.388 51.8835C184.783 52.0661 184.155 52.9849 184.915 55.6867C183.27 54.202 181.337 55.5843 181.593 56.7105C182.259 59.8849 186.389 59.8848 186.389 59.8848L188.964 59.4057L191.994 58.0728Z" fill="white"/>
<path d="M185.651 59.2739C185.402 61.3251 184.941 65.5495 184.915 68.9447C184.899 70.9242 187.003 72.2362 188.76 71.3232C191.248 70.0304 193.372 67.8545 193.932 63.093L193.182 63.1612L193.386 58.3827C193.386 58.3827 189.833 57.4351 187.225 57.7107C186.401 57.7985 185.752 58.4509 185.651 59.2739Z" fill="#FF8076"/>
<path d="M193.181 63.1616L193.254 61.4582C193.254 61.4582 192.977 64.6637 191.543 65.8243C190.109 66.9848 187.707 66.3809 186.355 66.3702C185.863 66.3667 185.396 66.3876 185 66.4157C184.953 67.2783 184.921 68.1351 184.915 68.9443C184.9 70.9242 187.004 72.2366 188.761 71.3232C191.249 70.0304 193.372 67.8545 193.933 63.0935L193.181 63.1616Z" fill="#7A0000"/>
<path d="M190.239 63.3478C190.239 63.4898 190.099 63.6052 189.925 63.6052C189.752 63.6052 189.611 63.4898 189.611 63.3478V62.5239C189.611 62.3818 189.752 62.2665 189.925 62.2665C190.099 62.2665 190.239 62.3818 190.239 62.5239V63.3478Z" fill="#7A0000"/>
<path d="M186.389 63.8537C186.389 63.9935 186.249 64.1071 186.075 64.1071C185.902 64.1071 185.761 63.9935 185.761 63.8537V63.0427C185.761 62.9029 185.902 62.7893 186.075 62.7893C186.249 62.7893 186.389 62.9029 186.389 63.0427V63.8537Z" fill="#7A0000"/>
<path d="M187.352 63.3121L187.101 66.0322H188.398" stroke="#BA4A4A" stroke-width="0.204809" stroke-miterlimit="10"/>
<path d="M186.389 67.162H189.151C189.151 67.162 187.746 68.4914 186.389 67.162Z" fill="white"/>
<path d="M196.185 88.147L193.932 105.131L202.457 107.603L196.185 88.147Z" fill="#440000"/>
<path d="M193.932 63.0935L194.291 61.0525C194.291 61.0525 197.26 60.0385 196.902 62.5471C196.595 64.2879 193.723 64.421 193.723 64.421L193.932 63.0935Z" fill="#FF8076"/>
<path d="M192.921 75.5325L194.456 81.4742L196.974 73.5553L195.328 72.0193L192.921 75.5325Z" fill="#BC3535"/>
<path d="M189.122 76.7465L186.389 79.419L187.526 72.9438L188.799 72.5648L188.691 73.5553L189.122 76.7465Z" fill="#BC3535"/>
<path opacity="0.42" d="M191.994 58.0728C190.72 57.8247 188.802 57.5446 187.225 57.7112C186.401 57.7985 185.752 58.4509 185.651 59.2743C185.402 61.3255 184.941 65.5499 184.915 68.9452C184.902 70.6 186.37 71.7828 187.878 71.5949C188.254 71.0618 188.804 70.2388 189.611 68.9572C191.524 65.9209 191.921 59.7178 191.994 58.0728Z" fill="white"/>
<path d="M188.691 61.1362C188.691 61.1362 189.821 60.0901 190.951 60.8432" stroke="#7A0000" stroke-width="0.819191" stroke-miterlimit="10" stroke-linecap="round"/>
<path d="M186.599 61.1362C186.599 61.1362 185.636 60.7595 185.092 61.1362" stroke="#7A0000" stroke-width="0.819191" stroke-miterlimit="10" stroke-linecap="round"/>
<path d="M193.864 63.6052L196.185 62.266" stroke="#A50000" stroke-width="0.409618" stroke-miterlimit="10"/>
<path d="M196.185 122.299L198.161 165.235" stroke="#80C8D4" stroke-width="0.409618" stroke-miterlimit="10"/>
<path d="M184.154 125.021L180.198 165.904" stroke="#80C8D4" stroke-width="0.409618" stroke-miterlimit="10"/>
<path d="M169.138 125.021H165.871V198.738H169.138V125.021Z" fill="#F5AD49"/>
<path d="M170.944 113.507H163.701V115.59H170.944V113.507Z" fill="#E37427"/>
<path d="M180.199 197.125H154.229V198.739H180.199V197.125Z" fill="#E37427"/>
<path d="M193.723 110.402H141.094V113.507H193.723V110.402Z" fill="#F5AD49"/>
<path d="M178.145 107.603H156.864V110.402H178.145V107.603Z" fill="white"/>
<path d="M156.863 107.603H141.771V110.402H156.863V107.603Z" fill="#28355F"/>
<path d="M142.702 87.7721H127.609L142.702 107.603H157.795L142.702 87.7721Z" fill="#374C7F"/>
<path d="M141.771 87.7721H126.679L141.771 107.603H156.864L141.771 87.7721Z" fill="white"/>
<path d="M180.825 110.402L187.434 113.507H192.702L184.696 110.402H180.825Z" fill="#E37427"/>
<path d="M142.164 97.2292C143.612 97.8464 144.491 99.0403 144.126 99.8954C143.761 100.75 142.292 100.943 140.844 100.326C139.396 99.7088 138.517 98.5149 138.882 97.6598C139.247 96.8048 140.716 96.6119 142.164 97.2292Z" fill="#DEF6F8"/>
<path d="M163.701 108.281H158.826V109.622H163.701V108.281Z" fill="#374C7F"/>
<path d="M169.942 108.281H165.067V109.622H169.942V108.281Z" fill="#374C7F"/>
<path d="M204.275 80.3648C204.275 80.3648 206.016 83.2319 206.289 90.4681C206.449 94.7095 206.421 103.856 206.371 110.701C206.341 114.84 202.199 117.682 198.324 116.224L178.145 107.603H170.709C170.709 107.603 169.152 105.76 174.204 104.531C176.409 103.995 178.615 103.641 180.4 103.412C182.762 103.109 185.156 103.215 187.483 103.723L196.185 105.624V88.1475C196.185 88.1475 196.254 81.7302 204.275 80.3648Z" fill="#FF8076"/>
<path d="M206.289 90.4681C206.016 83.2319 204.275 80.3648 204.275 80.3648C196.253 81.7302 196.185 88.147 196.185 88.147V98.5318C198.586 98.514 202.561 98.2989 206.4 97.2675C206.385 94.5385 206.351 92.1274 206.289 90.4681Z" fill="#BC3535"/>
<path d="M196.185 105.623L200.394 106.652" stroke="#A50000" stroke-width="0.409618" stroke-miterlimit="10" stroke-linecap="round"/>
<path opacity="0.49" d="M198.324 116.224C202.124 117.653 206.178 114.947 206.362 110.937C205.587 110.595 204.732 110.402 203.831 110.402C200.61 110.402 197.96 112.827 197.597 115.951L198.324 116.224Z" fill="#B0322F"/>
<path d="M170.944 105.977C170.944 105.977 175.772 104.633 178.145 104.838" stroke="#A50000" stroke-width="0.409618" stroke-miterlimit="10" stroke-linecap="round"/>
</svg>
