<svg width="687" height="369" viewBox="0 0 687 369" fill="none" xmlns="http://www.w3.org/2000/svg">
<g opacity="0.08">
<path d="M598.968 342.94C573.029 340.452 569.934 331.145 566.003 319.35C561.582 306.181 556.129 289.798 516.433 276.733C496.536 270.2 477.475 266.104 458.118 264.212C440.825 262.527 423.631 262.63 405.65 264.549C372.243 268.126 340.703 277.666 310.145 286.869C281.552 295.501 251.977 304.444 220.142 308.851C203.046 311.236 186.735 312.118 170.278 311.599C151.805 311.003 133.628 308.644 114.763 304.367C81.7981 296.901 49.0297 294.309 17.3913 296.642C11.5451 297.082 5.74797 297.679 0 298.456V299.26C5.84623 298.482 11.6925 297.86 17.6369 297.419C49.0297 295.086 81.5033 297.679 114.223 305.067C137.46 310.329 158.978 312.507 179.268 312.507C228.249 312.507 270.056 299.882 310.882 287.568C342.717 277.951 372.734 268.878 405.944 265.326C423.729 263.408 440.727 263.304 457.824 264.989C477.033 266.856 495.947 270.926 515.647 277.407C533.088 283.136 554.802 290.264 564.579 319.48C566.593 325.572 568.362 330.834 573.029 335.06C578.187 339.752 586.392 342.5 598.723 343.692C635.225 347.218 656.939 352.791 667.011 361.242C669.418 363.238 671.186 365.416 672.366 367.723H673.888C672.66 365.26 670.843 362.979 668.239 360.827C657.922 352.195 635.913 346.518 598.968 342.94Z" fill="#848484"/>
<path d="M570.458 351.539C539.558 349.116 536.659 344.245 530.371 333.627C524.869 324.375 516.567 310.355 484.094 290.021C440.42 262.651 394.094 279.764 340.448 299.582C286.064 319.684 224.41 342.441 149.148 326.05C120.311 319.762 91.2282 316.669 62.6365 316.798C41.3646 316.901 20.2893 318.808 0 322.468V323.292C20.2893 319.607 41.3155 317.7 62.6365 317.597C91.0316 317.442 119.918 320.561 148.559 326.797C182.456 334.194 216.698 334.323 253.15 327.236C285.033 321.025 313.624 310.458 341.283 300.252C367.811 290.459 392.866 281.207 416.299 277.908C442.189 274.248 463.362 278.269 482.964 290.562C515.24 310.793 523.493 324.71 528.946 333.911C535.235 344.529 538.428 349.863 570.262 352.363C588.881 353.832 600.524 357.44 604.896 363.084C605.977 364.502 606.616 366.048 606.861 367.723H608.335C608.139 365.945 607.451 364.296 606.272 362.801C601.654 356.822 589.618 353.059 570.458 351.539Z" fill="#848484"/>
<path d="M418.075 317.575C404.445 312.775 386.158 312.93 363.753 318.12C345.956 322.219 325.512 329.484 302.96 339.655C279.917 350.085 259.326 361.501 246.48 369H248.442C261.287 361.501 281.388 350.397 303.891 340.226C326.345 330.081 346.643 322.868 364.292 318.794C386.207 313.735 404.004 313.527 417.192 318.198C447.834 329.017 464.111 347.283 478.476 363.395C480.192 365.29 481.81 367.158 483.477 368.974H485.095C483.33 367.054 481.565 365.082 479.8 363.058C465.435 346.868 449.06 328.498 418.075 317.575Z" fill="#848484"/>
<path d="M378.984 343.929C372.702 341.555 364.584 341.607 354.871 344.084C347.236 346.045 338.587 349.503 329.164 354.381C320.176 359.052 312.106 364.136 306.791 367.723H308.675C323.752 357.684 358.302 337.065 378.115 344.549C390.92 349.4 398.41 359.026 404.885 367.723H406.432C399.86 358.871 392.321 348.962 378.984 343.929Z" fill="#848484"/>
<path d="M135.823 343.605C123.253 341.927 110.243 340.199 98.5534 338.14C69.5498 332.981 35.9487 337.327 12.8633 341.876C8.31468 342.766 4.01061 343.706 0 344.647V345.485C4.15734 344.52 8.65704 343.528 13.4013 342.588C36.2422 338.09 69.5009 333.795 98.0643 338.878C109.754 340.962 122.813 342.69 135.431 344.367C163.799 348.128 190.602 351.686 192.46 358.142C193.243 360.861 189.624 364.038 181.504 367.723H183.657C191.335 364.038 194.71 360.836 193.928 358.015C191.922 351.051 165.951 347.62 135.823 343.605Z" fill="#848484"/>
<path d="M118.83 354.312C109.018 353.417 97.0756 353.47 86.0747 354.469C65.7082 356.31 25.867 362.201 0 366.172V366.987C25.867 363.016 65.9559 357.099 86.372 355.232C97.2243 354.259 108.969 354.18 118.631 355.074C132.606 356.363 137.511 359.071 139.196 361.149C140.732 363.016 140.336 365.225 138.057 367.723H139.741C141.922 365.146 142.169 362.832 140.534 360.833C137.214 356.784 126.907 355.048 118.83 354.312Z" fill="#848484"/>
<path d="M62.8482 210.736C84.9801 218.656 99.4246 230.015 112.106 240.046C126.502 251.405 138.988 261.227 158.476 262.816C160.287 262.972 162.148 263.024 164.009 263.024C179.041 263.024 196.913 258.413 219.583 248.695C236.574 241.4 250.724 234.783 263.21 228.921C289.553 216.546 308.6 207.609 329.655 204.717C351.15 201.747 374.751 204.874 411.083 215.477C440.755 224.153 476.156 230.119 508.13 231.839C523.015 232.646 536.529 232.49 547.252 231.344C558.563 230.145 566.495 227.983 570.755 224.883C576.582 220.636 578.002 212.742 551.512 199.22C519.832 183.041 483.795 181.087 445.651 179.029C420.386 177.674 394.239 176.241 367.847 170.588C337.979 164.205 312.077 153.106 288.623 136.719C271.289 124.604 251.067 118.872 230.061 120.149C215.764 121.009 201.711 125.021 188.295 132.029C174.83 139.115 162.686 148.885 152.306 161.078C144.57 170.119 136.05 174.756 126.11 175.225C104.615 176.241 79.7409 157.014 55.7484 138.412C43.7521 129.111 31.3641 119.523 19.5637 112.645C13.4432 109.076 7.86125 106.445 2.62207 104.699V105.663C19.1231 111.447 37.044 125.307 54.5243 138.855C66.5695 148.182 79.0554 157.848 91.0517 164.882C103.88 172.385 114.848 176.059 124.494 176.059C125.082 176.059 125.669 176.033 126.257 176.007C136.735 175.512 145.696 170.744 153.628 161.417C163.96 149.302 175.956 139.611 189.323 132.602C202.495 125.698 216.253 121.764 230.208 120.93C250.626 119.706 270.457 125.333 287.448 137.214C311.048 153.731 337.195 164.882 367.259 171.317C393.847 177.023 420.092 178.43 445.456 179.811C483.354 181.869 519.147 183.797 550.484 199.793C576.239 212.95 575.064 220.454 569.58 224.44C561.55 230.25 538.635 232.725 508.277 231.083C476.499 229.364 441.294 223.424 411.768 214.8C375.094 204.092 351.199 200.966 329.263 203.988C307.866 206.932 288.721 215.92 262.231 228.374C249.745 234.236 235.643 240.853 218.653 248.122C193.485 258.908 174.438 263.337 158.671 262.061C139.82 260.549 127.53 250.858 113.281 239.629C100.502 229.546 86.0083 218.135 63.6316 210.11C45.0742 203.467 27.398 200.132 10.897 200.132C8.10608 200.132 5.36407 200.236 2.62207 200.419V201.2C21.1796 199.872 41.4018 203.076 62.8482 210.736Z" fill="#848484"/>
<path d="M27.5989 286.947C50.3767 287.13 75.8602 289.568 98.3428 291.692C130.566 294.76 155.951 297.172 159.1 291.613C163.823 283.276 148.473 276.381 122.99 264.977C104.738 256.797 81.9605 246.625 57.6085 231.995C39.3076 221.01 21.0559 216.029 3.44372 217.235C2.36141 217.314 1.2299 217.419 0 217.55V218.362C1.1807 218.231 2.4106 218.1 3.6405 218.022C20.7607 216.868 38.5205 221.744 56.5262 232.52C80.9766 247.201 103.754 257.4 122.055 265.606C147.047 276.801 162.15 283.565 157.722 291.404C154.967 296.28 128.844 293.789 98.638 290.932C66.021 287.838 27.7465 284.194 0.049196 287.34V288.153C7.82216 287.261 17.0218 286.842 27.5989 286.947Z" fill="#848484"/>
<path d="M93.5475 283.453C106.471 283.453 113.728 282.205 115.12 279.683C118.202 274.187 92.5037 264.283 76.8461 258.867C54.7268 251.193 28.3824 243.971 14.216 241.661C9.49393 240.891 4.72211 240.36 0.0497064 240.042V240.838C4.57299 241.157 9.19569 241.688 13.7687 242.431C27.8356 244.715 54.0309 251.883 76.0011 259.53C101.6 268.425 115.667 275.86 113.629 279.444C111.641 282.949 93.9452 283.586 63.7734 281.249C39.3178 279.364 13.8184 276.098 0 274.027V274.851C13.9178 276.948 39.2681 280.161 63.5248 282.046C75.7029 282.975 85.6442 283.453 93.5475 283.453Z" fill="#848484"/>
<path d="M29.3146 268.132C35.2467 268.132 38.5588 267.519 39.2014 266.294C40.5856 263.843 30.6987 259.767 22.1466 256.783C14.7809 254.199 6.37703 251.748 0 250.256V251.135C6.22873 252.627 14.2865 254.998 21.3556 257.476C32.3301 261.312 38.6082 264.615 37.7679 266.081C36.4331 268.451 16.6099 267.119 0 265.121V265.921C4.99287 266.507 10.579 267.093 16.0167 267.519C21.4051 267.919 25.8047 268.132 29.3146 268.132Z" fill="#848484"/>
<path fill-rule="evenodd" clip-rule="evenodd" d="M169.527 247.703C168.111 247.703 166.743 247.624 165.425 247.442C153.46 245.85 143.937 241.335 137.882 234.368C131.777 227.27 129.726 218.111 132.021 207.855C134.121 198.617 140.226 189.458 149.798 181.368C183.836 152.533 212.111 136.719 233.843 134.371C240.827 133.614 247.224 134.266 252.742 136.328C273.438 144.01 286.938 151.488 298.844 158.083L299.283 158.326L299.389 158.385C317.798 168.587 332.357 176.654 364.234 181.316C384.403 184.265 393.925 186.979 393.291 189.641C392.802 191.702 385.965 193.346 372.926 194.546C360.278 195.695 342.013 196.399 320.135 196.556C303.629 196.686 286.488 200.105 267.686 207.072C251.277 213.179 235.748 221.138 222.025 228.183C201.758 238.595 184.031 247.703 169.527 247.703ZM151.067 181.786C141.642 189.771 135.586 198.826 133.535 207.959C131.289 218.058 133.291 227.061 139.298 234.029C145.109 240.787 154.29 245.171 165.815 246.685C167.036 246.841 168.306 246.92 169.576 246.92C183.444 246.92 200.976 237.917 220.997 227.636L220.999 227.635C234.722 220.563 250.3 212.578 266.856 206.446C285.901 199.4 303.336 195.903 320.135 195.773C341.964 195.616 360.131 194.912 372.682 193.764C388.846 192.276 391.63 190.475 391.874 189.536C392.558 186.561 372.535 183.299 363.891 182.047C331.562 177.297 316.863 169.156 298.306 158.848L298.105 158.737C286.189 152.136 272.697 144.661 251.961 136.954C248.152 135.545 243.952 134.84 239.361 134.84C237.701 134.84 235.943 134.945 234.185 135.127C212.893 137.45 184.91 153.133 151.067 181.786Z" fill="#848484"/>
<path fill-rule="evenodd" clip-rule="evenodd" d="M516.907 219.437C494.006 217.673 467.881 214.741 452.451 212.743C426.717 209.423 415.681 206.465 414.412 202.6C413.289 199.097 420.418 194.869 436.776 189.291C445.712 186.256 457.334 185.607 471.446 187.423C482.628 188.85 495.373 191.807 509.338 196.218C532.582 203.56 551.577 212.536 552.505 212.977C559.341 215.545 562.076 217.465 560.855 218.892C559.683 220.215 554.995 220.89 546.596 220.89C539.418 220.89 529.554 220.397 516.907 219.437ZM456.797 187.164C449.375 187.164 442.978 188.098 437.606 189.914C422.029 195.232 414.9 199.331 415.877 202.392C417.244 206.777 435.311 209.682 452.793 211.939C495.178 217.413 555.874 222.757 559.488 218.529C559.976 217.958 559.634 216.557 551.626 213.548L551.577 213.522C551.566 213.517 551.492 213.483 551.358 213.42C549.161 212.397 530.836 203.858 508.606 196.84C494.787 192.482 482.189 189.55 471.153 188.149C466.026 187.501 461.24 187.164 456.797 187.164Z" fill="#848484"/>
<path d="M687 205.694C683.506 203.761 679.521 201.775 674.994 199.789C657.772 192.238 635.925 186.019 610.043 181.29C577.715 175.385 538.991 171.779 494.952 170.578C469.759 169.898 421.44 167.521 380.648 159.186C337.692 150.433 313.877 137.499 309.941 120.751C305.365 101.363 309.842 89.3443 324.062 82.8905C339.611 75.8358 367.757 75.5223 410.073 82.0022C439.449 86.4963 463.215 92.6626 482.306 97.627C501.152 102.539 516.061 106.406 529.347 107.085C543.764 107.817 555.032 104.708 565.857 96.9999C572.745 92.0877 578.207 87.4369 583.029 83.3347C592.723 75.052 599.759 69.0686 611.224 66.8477C623.328 64.4961 639.714 66.4819 666.088 73.4843C673.616 75.4701 680.554 77.691 687 79.9903V79.0496C680.751 76.8287 674.01 74.7123 666.777 72.7788C640.009 65.6719 623.279 63.6861 610.732 66.0899C598.775 68.4154 591.69 74.4772 581.799 82.8905C577.026 86.9666 571.565 91.5913 564.725 96.5034C542.484 112.363 520.096 106.537 482.995 96.8954C463.854 91.9048 439.99 85.7124 410.516 81.2183C367.658 74.6862 339.07 75.0259 323.128 82.2634C308.514 88.9001 303.888 101.154 308.514 120.829C312.548 137.891 336.659 151.033 380.156 159.917C421.144 168.278 469.661 170.656 494.903 171.361C538.794 172.537 577.322 176.143 609.502 182.022C635.187 186.725 656.886 192.891 673.961 200.364C678.98 202.559 683.31 204.754 687 206.844V205.694Z" fill="#848484"/>
<path d="M686.999 189.226C676.642 185.067 664.183 180.883 650.064 176.934C609.953 165.689 562.661 157.87 516.98 154.941C470.714 151.96 436.954 148.691 410.767 144.611C377.301 139.433 356.195 132.974 346.229 124.919C339.486 119.453 338.021 113.151 341.783 106.142C344.616 100.964 349.795 97.5383 357.661 95.6815C384.287 89.3529 435.342 102.612 480.387 114.301C496.852 118.59 512.437 122.618 525.677 125.39C548.004 130.071 561.732 131.117 571.601 128.842C581.128 126.645 586.6 121.572 594.124 114.537C598.668 110.3 603.797 105.515 611.028 100.232C618.747 94.5832 628.519 91.628 640.097 91.445C655.927 91.2096 673.075 96.2046 686.999 101.696V100.729C665.356 92.2818 649.771 90.5297 640.097 90.6604C628.079 90.8435 617.917 93.9032 609.904 99.7612C602.625 105.07 597.495 109.908 592.903 114.145C578.148 127.874 571.406 134.15 526.214 124.657C513.023 121.885 497.487 117.858 481.022 113.595C435.684 101.827 384.287 88.4899 357.075 94.9754C348.867 96.9106 343.248 100.624 340.366 105.959C336.457 113.177 337.972 119.715 344.958 125.39C355.169 133.575 376.519 140.139 410.376 145.369C436.661 149.449 470.518 152.718 516.834 155.699C562.319 158.628 609.416 166.421 649.38 177.614C663.695 181.642 676.495 185.957 686.999 190.246V189.226Z" fill="#848484"/>
<path d="M686.95 177.681C659.073 164.726 621.267 159.544 591.63 155.513C562.872 151.587 542.135 148.761 544.385 141.119C545.021 138.894 550.792 139.051 560.916 139.522C570.306 139.941 581.946 140.49 592.95 138.501C605.959 136.146 614.909 130.833 620.289 122.248C624.055 116.229 630.071 112.774 638.091 112.041C652.764 110.68 672.033 118.322 686.999 125.912V124.813C686.607 124.63 686.265 124.421 685.874 124.237C666.115 114.501 649.976 110.131 637.847 111.256C629.239 112.041 622.881 115.653 618.92 121.987C607.084 140.857 579.403 139.574 561.063 138.737C551.085 138.266 543.847 137.952 542.967 141.014C541.842 144.887 545.803 147.871 555.585 150.357C564.29 152.582 576.811 154.309 591.287 156.272C621.169 160.355 659.268 165.563 686.999 178.754V177.681H686.95Z" fill="#848484"/>
<path d="M686.999 170.133C677.582 166.88 667.242 162.267 658.358 157.307C645.057 149.866 637.144 142.986 636.125 137.893C635.591 135.146 637.095 132.959 640.688 131.413C653.309 125.973 673.892 135.039 686.999 142.266V141.12C684.281 139.653 681.32 138.133 678.213 136.693C670.98 133.359 664.28 131.066 658.407 129.893C650.931 128.399 644.62 128.693 639.765 130.799C635.785 132.506 634.086 134.933 634.668 138C636.707 148.4 665.106 163.627 686.999 171.093V170.133Z" fill="#848484"/>
<path fill-rule="evenodd" clip-rule="evenodd" d="M517.434 138.981C517.603 139.044 517.697 139.079 517.713 139.085C523.542 141.384 525.55 143.27 523.836 144.716C521.877 146.24 515.558 146.834 507.231 146.834C495.817 146.834 480.535 145.723 467.113 144.303C434.441 140.867 403.288 135.03 383.793 128.701C361.848 121.572 354.403 113.849 362.289 106.358C364.395 104.344 367.922 103.052 372.723 102.484C388.201 100.65 417.346 106.281 459.276 119.17C488.742 128.21 514.483 137.873 517.434 138.981ZM504.44 146.007C518.008 146.188 521.633 144.974 522.564 144.251C524.131 142.985 520.311 141.1 516.833 139.731C515.559 139.24 419.552 102.923 378.945 102.923C376.79 102.923 374.83 103.026 373.018 103.233C368.658 103.749 365.474 104.912 363.564 106.72C359.645 110.439 359.694 114.211 363.76 117.956C367.434 121.366 374.438 124.749 384.529 128.03C403.877 134.306 434.835 140.118 467.36 143.528C481.32 145 494.496 145.878 504.44 146.007Z" fill="#848484"/>
<path fill-rule="evenodd" clip-rule="evenodd" d="M469.182 132.518C469.535 132.63 469.731 132.692 469.753 132.697C469.795 132.714 469.841 132.733 469.892 132.754C470.734 133.093 472.715 133.892 471.703 134.669C471.069 135.168 469.119 135.343 466.487 135.343C459.271 135.343 447.033 133.895 443.913 133.521C427.678 131.524 412.612 128.654 403.641 125.834C394.622 122.989 391.501 120.219 394.329 117.599C395.012 116.975 396.182 116.551 397.742 116.351C404.08 115.502 418.122 118.023 439.525 123.788C453.603 127.579 466.372 131.627 469.182 132.518ZM444.206 132.797C460.782 134.819 469.656 134.869 470.485 134.245C470.533 134.195 470.436 133.895 468.876 133.321C467.511 132.872 417.683 116.95 400.473 116.95C399.546 116.95 398.766 117 398.035 117.1C396.816 117.249 396.036 117.549 395.548 117.973C393.159 120.169 396.085 122.59 404.324 125.186C413.149 127.981 428.068 130.826 444.206 132.797Z" fill="#848484"/>
<path fill-rule="evenodd" clip-rule="evenodd" d="M179.639 228.272C174.763 229.379 170.764 229.827 167.497 229.827C160.864 229.827 157.207 227.956 155.208 226.033C142.187 213.57 171.593 173.441 211.58 157.791C223.528 153.127 234.256 151.23 243.424 152.178C250.982 152.969 257.468 155.63 262.735 160.109C267.904 164.483 270.391 169.542 270.05 174.759C269.708 179.949 266.538 184.929 260.93 189.145L259.419 190.278L259.331 190.344C240.73 204.315 221.511 218.749 179.639 228.272ZM212.457 158.45C194.366 165.537 176.566 178.632 164.863 193.466C153.891 207.378 150.575 219.999 156.475 225.638C160.425 229.405 167.984 230.038 179.053 227.508C220.601 218.049 239.717 203.689 258.199 189.778L259.711 188.645C265.173 184.561 268.245 179.739 268.586 174.706C268.928 169.648 266.489 164.747 261.515 160.531C256.492 156.263 250.299 153.707 243.18 152.969C241.717 152.811 240.205 152.732 238.693 152.732C230.939 152.732 222.162 154.655 212.457 158.45Z" fill="#848484"/>
<path fill-rule="evenodd" clip-rule="evenodd" d="M192.267 210.959C189.167 211.657 186.617 211.952 184.567 211.952C180.667 211.952 178.517 210.906 177.317 209.806C173.868 206.533 175.968 199.612 182.767 191.752C189.867 183.596 200.516 176.192 211.316 172.008C218.466 169.244 224.865 168.118 230.415 168.681C234.965 169.137 238.915 170.72 242.064 173.403C248.314 178.714 247.914 185.474 240.965 190.652C229.915 198.887 217.866 205.165 192.267 210.959ZM212.216 172.678C201.667 176.783 191.167 184.053 184.168 192.1C177.668 199.612 175.518 206.399 178.668 209.43C180.768 211.442 185.168 211.71 191.717 210.235C217.016 204.521 228.866 198.324 239.765 190.196C246.365 185.287 246.765 178.875 240.815 173.859C237.865 171.391 234.315 169.915 230.166 169.486C229.316 169.405 228.466 169.352 227.566 169.352C223.016 169.352 217.916 170.479 212.216 172.678Z" fill="#848484"/>
<path opacity="0.3" d="M204.545 196.629C205.108 196.629 205.802 196.55 206.625 196.337C213.039 194.691 216.029 192.885 218.803 190.522C220.623 188.982 220.753 186.937 219.106 185.371C218.239 184.548 217.199 184.07 215.943 183.91C214.469 183.725 212.736 184.07 210.872 184.893C205.195 187.415 200.341 193.682 202.378 195.886C202.682 196.205 203.288 196.629 204.545 196.629Z" fill="#848484" stroke="#575757" stroke-width="6.609"/>
<path d="M686.85 345.281C672.746 344.939 659.037 343.966 646.906 342.388C630.928 340.31 617.514 337.18 607.059 333.13C594.237 328.16 585.805 321.742 581.909 314.01C576.484 303.148 567.903 292.891 557.103 284.318C544.429 274.245 528.895 266.486 510.846 261.226C477.657 251.521 437.268 250.601 390.863 258.491C334.644 268.038 290.902 278.058 258.946 285.396C218.163 294.732 195.675 299.887 190.547 294.233C190.103 293.733 190.054 293.207 190.448 292.628C193.358 288.341 217.473 282.503 245.434 275.77C266.245 270.747 289.867 265.04 308.458 258.991C329.96 251.995 341.253 245.657 342.979 239.634C345.395 231.165 351.806 225.222 361.472 222.46C372.469 219.33 387.51 220.146 406.249 224.88C440.671 233.559 524.704 243.921 575.744 243.921C593.35 243.921 607.059 242.685 613.421 239.713C617.267 237.924 618.352 235.584 616.626 232.743C610.955 223.354 617.514 213.65 631.865 210.204C649.864 205.891 669.738 212.15 686.85 222.171V220.856C680.144 217.016 673.338 214.018 666.483 211.861C653.908 207.89 641.382 207.048 631.273 209.494C616.232 213.097 609.328 223.196 615.245 232.98C616.774 235.505 615.837 237.53 612.484 239.108C601.881 244.052 567.607 244.473 518.391 240.239C475.882 236.583 430.069 229.982 406.94 224.143C387.756 219.304 372.272 218.515 360.88 221.75C350.77 224.617 344.113 230.771 341.598 239.502C337.85 252.573 286.316 265.04 244.892 275.034C215.5 282.135 192.273 287.737 189.166 292.339C188.623 293.128 188.673 293.864 189.314 294.548C192.075 297.599 198.832 298.125 211.308 296.258C222.799 294.522 239.072 290.814 259.637 286.106C291.543 278.795 335.286 268.774 391.406 259.227C437.416 251.416 477.411 252.31 510.254 261.884C528.057 267.091 543.443 274.771 555.969 284.712C566.67 293.233 575.202 303.411 580.577 314.168C584.522 322.058 593.152 328.633 606.27 333.709C616.873 337.812 630.484 340.968 646.659 343.098C658.938 344.702 672.796 345.702 686.998 346.017V345.281H686.85Z" fill="#848484"/>
<path d="M686.949 329.384C663.834 332.234 645.609 331.789 631.582 328.05C610.887 322.507 601.799 310.427 595.082 298.19C587.97 285.274 567.572 275.73 551.174 268.069C540.16 262.918 531.467 258.865 531.072 255.623C530.973 254.708 531.566 253.897 532.85 253.139C537.345 250.472 551.668 252.146 569.844 254.264C584.414 255.963 602.59 258.081 621.506 258.656C630.249 258.918 635.978 258.133 639.089 256.251C643.535 253.531 641.855 248.982 640.077 244.171C637.558 237.451 634.99 230.522 646.992 226.705C650.993 225.423 655.438 225.188 660.179 225.92C668.181 227.201 677.318 231.437 686.998 238.262V236.928C679.096 231.49 669.86 226.652 660.624 225.188C655.487 224.351 650.647 224.639 646.251 226.025C633.36 230.13 636.175 237.66 638.645 244.328C640.374 248.956 642.004 253.322 638.003 255.754C635.237 257.427 629.853 258.133 621.605 257.872C602.787 257.297 584.71 255.179 570.189 253.479C550.878 251.23 536.9 249.583 531.813 252.59C530.282 253.505 529.541 254.525 529.689 255.649C530.084 259.205 538.974 263.363 550.285 268.618C566.534 276.201 586.785 285.666 593.749 298.373C600.565 310.767 609.751 323.03 630.989 328.704C639.139 330.874 648.671 331.972 659.685 331.972C667.934 331.972 677.022 331.371 686.998 330.142V329.384H686.949Z" fill="#848484"/>
<path d="M687 309.12C675.425 310.727 661.298 311.648 649.821 309.305C641.384 307.593 635.253 304.275 631.624 299.482C626.621 292.847 617.841 286.685 610.778 281.734C603.813 276.862 597.829 272.649 599.693 270.753C600.87 269.568 605.137 269.12 612.74 269.357L615.29 269.436C638.049 270.174 649.527 270.542 655.167 267.777C657.914 266.434 659.238 264.328 659.386 260.983C659.631 256.375 664.192 252.531 670.765 251.398C675.67 250.556 681.212 251.214 687 253.215V252.241C679.545 249.818 673.757 250.055 670.323 250.661C663.162 251.899 658.159 256.033 657.914 260.983C657.767 264.091 656.59 266.013 654.186 267.198C648.987 269.752 637.068 269.357 615.388 268.646L612.838 268.567C604.45 268.304 599.889 268.883 598.368 270.384C596.063 272.728 601.704 276.704 609.552 282.234C616.566 287.159 625.296 293.268 630.201 299.798C633.978 304.802 640.403 308.251 649.232 310.068C654.432 311.122 660.121 311.543 665.811 311.543C673.315 311.543 680.771 310.832 686.951 309.989V309.12H687Z" fill="#848484"/>
<path d="M686.999 294.168C675.173 294.323 658.42 293.546 655.266 288.107C653.344 284.792 654.675 281.581 658.912 279.068C664.628 275.676 674.73 273.915 686.999 274.018V273.241C674.286 273.163 663.791 275.002 657.828 278.55C653.197 281.296 651.768 284.766 653.837 288.34C656.104 292.225 664.48 294.427 678.721 294.867C680.593 294.919 682.466 294.945 684.24 294.945C685.176 294.945 686.063 294.945 686.95 294.919V294.168H686.999Z" fill="#848484"/>
<path d="M54.4062 197.541C73.1192 201.634 90.9906 205.567 103.07 205.567C106.337 205.567 109.159 205.277 111.486 204.643C114.753 203.746 116.832 202.135 117.723 199.891C119.852 194.611 109.308 189.515 93.3173 181.806C77.4757 174.176 55.7924 163.747 36.6339 148.117C23.6635 137.53 11.3862 130.718 0.0495052 127.682V128.553C10.9902 131.589 22.8219 138.242 35.3962 148.539C54.7033 164.275 76.4361 174.73 92.3272 182.387C107.921 189.911 118.268 194.875 116.288 199.706C115.446 201.739 113.664 203.112 110.793 203.904C100.545 206.782 78.4163 201.924 55.0003 196.776C39.5547 193.396 23.5645 189.885 9.70302 188.301C6.23766 187.905 2.97031 187.641 0 187.509V188.301C2.8713 188.433 6.03964 188.67 9.40599 189.066C23.1189 190.677 39.0101 194.162 54.4062 197.541Z" fill="#848484"/>
<path d="M45.1732 183.862C50.0874 183.862 53.2061 183.2 54.4819 181.902C57.6006 178.644 48.1973 172.434 26.4613 163.373C16.6328 159.301 6.42631 155.534 0 153.218V154.109C21.4998 161.821 58.1676 176.405 53.2533 181.546C52.2138 182.64 49.3787 183.124 45.4095 183.124C34.9667 183.124 16.4438 179.917 0 176.506V177.321C3.54392 178.059 7.27685 178.797 11.057 179.51C26.414 182.411 37.8491 183.862 45.1732 183.862Z" fill="#848484"/>
<path fill-rule="evenodd" clip-rule="evenodd" d="M259.391 244.431C262.007 242.104 264.768 240.006 267.675 238.165C276.927 232.283 290.829 229.213 304.829 229.93C313.064 230.364 317.229 231.899 317.278 234.533C317.375 243.254 267.142 261.464 244.52 262.743C241.226 262.948 238.707 263.024 236.818 263.024C232.749 263.024 231.393 262.641 230.908 262.078C229.94 260.902 233.427 259.214 239.24 256.4C245.441 253.408 253.918 249.316 259.391 244.431ZM288.552 250.85C305.458 244.508 315.97 238.242 315.921 234.559C315.873 232.385 312.143 231.106 304.828 230.722C303.521 230.646 302.213 230.62 300.905 230.62C288.698 230.62 276.975 233.536 268.886 238.651C266.028 240.441 263.315 242.538 260.748 244.815C255.227 249.757 246.709 253.871 240.474 256.882L240.306 256.963C240.233 256.998 240.159 257.034 240.086 257.069C235.988 259.057 231.79 261.092 232.361 261.746C232.701 262.155 235.074 262.513 244.472 261.976C254.838 261.388 272.131 257.014 288.552 250.85Z" fill="#848484"/>
<path d="M50.6298 104.761C61.6859 115.586 73.5281 126.724 85.0755 134.855C97.8022 143.771 108.858 148.111 118.932 148.111C119.03 148.111 119.128 148.111 119.226 148.111C129.25 148.032 138.095 143.744 146.252 135.064C163.401 116.841 183.695 105.703 204.972 102.905C219.517 100.996 234.455 102.879 249.344 108.552C260.793 112.919 268.95 114.357 274.158 112.971C281.873 110.932 282.315 103.323 282.807 94.5384C283.347 84.8906 283.937 73.9356 294.796 68.9156C299.857 66.5887 306.638 65.7259 315.532 66.2488C338.824 67.6606 360.985 65.7782 379.608 60.8628C397.298 56.1827 411.007 49.0449 419.213 40.2077C427.026 31.815 429.287 22.3502 425.847 12.8855C424.422 8.93753 422.014 5.06797 418.722 1.27686H417.051C428.55 14.1928 429.188 27.7885 417.936 39.8678C409.877 48.5482 396.413 55.5552 379.019 60.1568C360.641 65.0199 338.725 66.8501 315.729 65.4644C306.54 64.9153 299.169 65.8566 293.863 68.3143C282.512 73.5434 281.922 84.6814 281.332 94.4861C280.89 102.67 280.448 110.409 273.519 112.239C268.802 113.494 261.186 112.056 250.179 107.873C234.897 102.068 219.566 100.134 204.579 102.094C182.86 104.97 162.222 116.239 144.925 134.672C137.014 143.065 128.612 147.196 119.226 147.274C119.128 147.274 119.03 147.274 118.932 147.274C97.5565 147.274 74.1178 126.07 51.9074 104.317C38.2962 90.9826 21.7367 81.8316 2.62207 76.9685V77.8313C21.2453 82.7467 37.3626 91.7408 50.6298 104.761Z" fill="#848484"/>
<path d="M68.6694 71.5018C77.1208 71.5018 84.5462 70.8447 90.6527 69.5043C104.575 66.4557 111.512 60.2269 111.268 50.9231C111.024 41.8034 115.567 35.0227 125.142 30.2131C148.737 18.2812 199.543 20.3311 253.377 22.5388C261.291 22.8542 269.498 23.1959 277.559 23.485C285.424 23.7741 292.654 23.9055 299.298 23.9055C329.635 23.9055 346.831 20.9882 350.592 15.1799C353.23 11.08 348.833 6.1127 341.799 1.27686H339.894C347.124 6.08642 351.716 11.0011 349.224 14.9434C344.925 21.619 320.89 24.2471 277.706 22.7228C269.645 22.4337 261.438 22.092 253.524 21.7766C199.396 19.569 148.249 17.4927 124.165 29.6612C114.297 34.6547 109.607 41.6194 109.851 50.9757C110.096 59.9115 103.452 65.93 90.1642 68.821C73.0661 72.553 45.2695 70.8447 13.8091 64.1429C10.0475 63.3544 6.33479 62.4871 2.62207 61.5935V62.4608C6.13939 63.3281 9.70555 64.1429 13.2717 64.8788C33.8383 69.2415 52.9881 71.5018 68.6694 71.5018Z" fill="#848484"/>
<path d="M40.7641 45.9135C58.3456 45.3426 73.241 40.4378 85.1085 31.3288L87.062 29.8236C101.469 18.7682 108.697 13.2146 119.392 10.9049C130.088 8.59519 144.592 9.42564 173.504 11.1125C177.02 11.3201 180.781 11.5277 184.737 11.7613C218.972 13.7336 243.781 14.3824 260.581 13.7596C276.746 13.1627 285.928 11.4239 289.444 8.28378C291.593 6.36336 291.495 4.02772 289.737 1.27686H288.223C289.981 3.92391 290.177 6.1298 288.174 7.8945C284.951 10.7751 275.916 12.436 260.484 13.007C243.781 13.6038 219.07 12.9551 184.883 10.9827C180.927 10.7492 177.167 10.5416 173.651 10.3339C144.495 8.62115 129.892 7.76474 118.806 10.1782C107.72 12.5917 100.395 18.1973 85.841 29.3824L83.8875 30.8876C72.2642 39.789 57.7595 44.59 40.6664 45.135C31.8757 45.4205 19.1291 44.616 2.62207 40.5156V41.372C17.1268 44.9274 28.7501 45.9654 37.3943 45.9654C38.5664 45.9654 39.6897 45.9395 40.7641 45.9135Z" fill="#848484"/>
<path d="M59.9831 28.6733C67.1911 26.8648 72.1309 23.7878 74.6008 19.5231C78.2804 13.3151 79.0869 7.05304 78.482 1.27686H76.9698C77.5747 6.97207 76.7682 13.1531 73.139 19.2802C70.7699 23.3289 66.0822 26.244 59.2774 27.9445C43.0971 32.0202 17.8941 28.6733 0 25.3803V26.244C12.047 28.4573 27.2696 30.6436 40.98 30.6436C47.8856 30.6166 54.4384 30.0768 59.9831 28.6733Z" fill="#848484"/>
<path d="M361.435 20.5189C351.714 30.7136 308.92 29.3317 308.432 29.3056C284.446 29.3056 262.17 28.3931 242.532 27.5587C213.319 26.3333 188.063 25.2904 169.402 27.8716C159.534 29.2274 151.864 31.5479 146.002 34.9375C139.652 38.5877 135.353 43.5156 132.812 49.9557C124.361 71.4922 102.232 74.0735 84.4011 76.1333C73.6539 77.3848 64.3722 78.4538 61.2946 83.5641C58.5101 88.2313 61.7343 97.5134 69.5993 107.213C78.0016 117.616 89.4328 125.673 100.18 128.749C103.648 129.74 107.117 130.235 110.39 130.235C116.643 130.235 122.554 128.462 127.732 124.995C135.597 119.728 141.996 113.992 148.2 108.438C159.778 98.0609 169.744 89.1178 185.23 87.1101C194.755 85.8847 205.845 87.3969 219.034 91.8033C236.523 97.6177 248.638 99.4428 256.112 97.383C265.394 94.8278 266.322 86.9276 267.299 78.532C268.618 67.2683 269.986 55.6136 291.676 56.1351C296.659 56.2393 301.446 56.3176 306.087 56.3176C352.984 56.3176 383.418 50.3989 396.559 38.6659C406.915 29.4621 404.277 18.3549 400.272 10.6893C398.366 7.01298 395.973 3.77989 393.872 1.27686H392.26C394.409 3.77989 396.901 7.14335 398.855 10.924C405.938 24.5603 400.809 33.3209 395.289 38.2748C381.122 50.8943 346.242 56.6565 291.725 55.3789C281.319 55.1443 274.383 57.4909 270.523 62.5752C267.153 66.9815 266.469 72.848 265.834 78.532C264.905 86.6929 263.977 94.3846 255.428 96.7312C248.443 98.6606 236.816 96.8354 219.767 91.1775C206.187 86.6669 194.755 85.1025 184.839 86.4061C168.767 88.492 158.606 97.5655 146.882 108.099C140.726 113.627 134.327 119.337 126.511 124.551C118.89 129.636 110.243 130.809 100.766 128.097C90.3121 125.099 79.0764 117.199 70.8205 106.952C63.2486 97.5655 59.9268 88.2834 62.5647 83.851C65.3981 79.1578 73.8493 78.167 84.5965 76.9415C93.5851 75.8986 103.746 74.7253 112.832 71.0229C123.335 66.7469 130.321 59.9157 134.131 50.1382C138.87 38.0141 149.813 31.3915 169.646 28.6538C177.951 27.5066 187.672 27.0894 198.468 27.0894C211.56 27.0894 226.362 27.7152 242.287 28.367C261.974 29.1753 284.25 30.1139 308.236 30.1139C308.236 30.1139 308.236 30.1139 308.285 30.1139C308.383 30.1139 319.423 30.505 331.489 29.5664C347.903 28.3149 358.357 25.3946 362.656 20.91C367.297 16.0343 364.317 9.46387 353.765 1.30293H352.007C362.754 9.38565 365.88 15.8258 361.435 20.5189Z" fill="#848484"/>
<path d="M364.602 30.4846C356.581 35.918 332.324 38.1709 294.52 37.0047C265.812 36.13 239.207 33.5591 238.963 33.5326C238.816 33.5061 222.579 31.9424 204.289 33.8772C193.48 34.9903 184.09 37.0842 176.314 40.1057C166.582 43.8693 159.393 49.0641 154.992 55.5312C146.482 68.0677 136.945 76.6286 125.795 81.7175C116.112 86.1437 106.673 87.3099 97.8697 88.1315C85.0075 89.3242 80.6548 93.7769 79.2855 97.302C76.5468 104.193 83.149 113.496 93.4192 117.233C96.2069 118.24 99.0434 118.744 101.782 118.744C104.325 118.744 106.819 118.32 109.167 117.445C118.801 113.894 128.68 107.056 139.146 99.8464C159.051 86.0907 179.64 71.8844 200.327 79.014C203.359 80.0477 206.294 81.0814 209.081 82.0885C224.242 87.4689 236.273 91.7361 243.853 89.7218C248.353 88.5291 250.896 85.3751 251.825 79.7561C253.732 68.1472 257.253 59.4008 268.257 54.471C276.082 50.9459 287.233 49.6472 302.393 50.4424C344.844 52.6952 372.818 48.6136 385.582 38.3564C395.803 30.1401 394.043 19.4588 390.766 11.9316C388.908 7.6644 386.365 3.90078 384.36 1.27686H382.795C384.8 3.87428 387.441 7.7174 389.348 12.1171C392.527 19.4853 394.238 29.928 384.36 37.9058C371.937 47.8979 344.404 51.8471 302.54 49.6472C286.988 48.8256 275.495 50.2038 267.328 53.8614C255.982 58.9768 252.314 67.8822 250.358 79.7031C249.477 84.951 247.179 87.999 243.218 89.0326C236.371 90.8349 224.682 86.7003 209.913 81.4524C207.076 80.4452 204.142 79.4116 201.11 78.3779C191.28 74.9854 180.667 75.8335 168.685 80.9753C158.219 85.4281 147.949 92.5312 138.021 99.3958C127.653 106.579 117.823 113.337 108.384 116.836C102.858 118.877 97.674 117.843 94.2506 116.597C84.4206 113.019 78.1117 104.087 80.7037 97.4875C82.0242 94.201 86.0834 90.0398 98.1142 88.9266C107.113 88.0785 116.747 86.8858 126.724 82.3271C138.07 77.1322 147.754 68.4653 156.361 55.7962C160.665 49.4617 167.658 44.3994 177.097 40.7418C184.677 37.7998 193.921 35.759 204.484 34.6458C211.331 33.9302 217.884 33.6916 223.411 33.6916C232.409 33.6916 238.571 34.3012 238.669 34.3012C238.914 34.3277 265.616 36.8987 294.422 37.7733C333.253 38.966 357.266 36.6866 365.726 30.9617C374.089 25.3163 376.046 17.736 371.351 8.96311C369.737 5.96812 367.634 3.31769 365.775 1.27686H364.113C366.02 3.29118 368.27 6.04763 369.932 9.17514C373.111 15.1386 374.774 23.62 364.602 30.4846Z" fill="#848484"/>
<path fill-rule="evenodd" clip-rule="evenodd" d="M209.585 40.857C214.824 39.4953 220.65 39.2072 226.035 40.0714C231.274 40.9094 235.24 42.6639 237.785 45.2826C245.423 53.1649 238.667 67.0179 233.967 74.5598C232.743 76.55 231.225 77.5975 229.218 77.8332L229.218 77.8332C228.924 77.8594 228.63 77.8856 228.336 77.8856C225.075 77.8856 221.33 75.8404 216.667 73.2945L216.586 73.2504C212.131 70.815 207.088 68.0654 201.018 66.1275C190.883 62.8803 185.889 59.2403 186.183 55.2599C186.722 48.3203 203.71 42.402 209.585 40.857ZM228.926 77.0736C230.345 76.8903 231.569 76 232.597 74.324C243.368 56.9881 239.647 48.9225 236.465 45.6753C234.115 43.2661 230.443 41.6425 225.596 40.8569C223.687 40.5426 221.729 40.3855 219.721 40.3855C216.49 40.3855 213.259 40.7783 210.223 41.5639C204.544 43.0566 188.143 48.7392 187.653 55.286C187.36 58.9522 192.158 62.3827 201.802 65.4466C207.962 67.3923 213.257 70.2889 217.544 72.6343L217.665 72.7004L217.721 72.7308C222.299 75.2318 226.244 77.3866 228.926 77.0736Z" fill="#848484"/>
<path fill-rule="evenodd" clip-rule="evenodd" d="M213.705 54.0651C215.213 53.6034 216.894 53.4948 218.446 53.7935C219.998 54.0923 221.161 54.6897 221.894 55.6131C224.049 58.2202 222.196 62.7012 220.903 65.1454C220.687 65.6071 220.256 66.2317 219.308 66.3675C219.179 66.3946 219.092 66.3946 218.963 66.3946C217.896 66.3946 216.871 65.7286 215.511 64.8451L215.472 64.8195C214.308 64.0591 212.972 63.19 211.377 62.5926C208.489 61.5063 207.067 60.257 207.153 58.872C207.315 56.2764 212.888 54.3485 213.625 54.0935C213.674 54.0764 213.702 54.0668 213.705 54.0651ZM219.048 65.5525C219.178 65.5525 219.436 65.3352 219.695 64.8736C220.643 62.9997 222.755 58.3829 220.815 55.9659C220.212 55.2598 219.35 54.7981 218.143 54.5809C217.669 54.4994 217.152 54.4451 216.678 54.4451C215.859 54.4451 215.083 54.5537 214.307 54.7981C213.143 55.1783 208.617 56.9436 208.488 58.9261C208.402 59.958 209.609 60.9629 212.066 61.8862C213.79 62.538 215.255 63.4885 216.419 64.2489C216.477 64.2858 216.537 64.3234 216.597 64.3615C217.513 64.9403 218.603 65.6289 219.048 65.5525Z" fill="#848484"/>
<path d="M686.999 61.4394C659.86 51.2133 627.174 42.7002 601.261 47.4758C582.514 50.9278 569.508 60.9981 562.687 77.4014C559.546 84.9801 551.693 89.7557 539.375 91.5985C516.308 95.0764 479.402 87.0824 453.637 72.9891C432.975 61.7249 424.681 49.3446 430.865 39.0406C436.607 29.4894 438.226 19.1076 435.723 8.23266C435.184 5.92271 434.447 3.61276 433.564 1.27686H432.043C432.975 3.66467 433.711 6.00057 434.251 8.33648C436.754 19.1076 435.134 29.3856 429.491 38.833C423.111 49.4224 431.552 62.0623 452.606 73.5601C464.875 80.2564 480.286 85.8885 496.039 89.4183C507.229 91.9359 518.026 93.2077 527.547 93.2077C531.964 93.2077 536.087 92.9222 539.816 92.3771C552.478 90.4824 560.92 85.3694 564.159 77.5831C570.882 61.4653 583.495 51.6026 601.752 48.2285C627.37 43.5048 660.007 52.1736 686.999 62.4256V61.4394Z" fill="#848484"/>
<path d="M686.999 41.4903C667.048 32.377 635.752 24.3082 610.324 27.05C594.529 28.7473 582.5 34.3615 574.627 43.6837C563.722 56.5834 549.883 65.6183 533.453 70.5797C515.849 75.8806 500.201 74.9928 490.176 73.3215C478.049 71.2848 467.584 67.0023 460.689 61.2575C453.55 55.33 450.909 48.3318 453.305 41.5686C458.244 27.52 460.151 13.9937 458.929 1.27686H457.462C458.635 13.9154 456.777 27.4156 451.887 41.4119C449.442 48.384 452.132 55.565 459.467 61.6492C466.557 67.5507 477.315 71.9376 489.785 74.0266C495.017 74.9144 500.396 75.3322 505.775 75.3322C515.409 75.3322 525.14 73.9482 534.186 71.2325C550.91 66.1928 564.944 57.0273 575.996 43.971C583.673 34.8838 595.312 29.4524 610.617 27.7812C623.038 26.4494 637.952 27.6506 653.747 31.3064C665.581 34.0482 677.513 38.0695 686.999 42.5087V41.4903Z" fill="#848484"/>
<path d="M366.55 359.57C365.303 358.954 363.719 358.708 361.896 358.807C355.705 359.152 347.26 363.708 340.877 367.723H342.749C348.843 363.93 356.617 359.866 362.04 359.546C363.431 359.472 364.583 359.644 365.543 360.112C368.854 361.713 372.549 364.644 375.908 367.723H377.587C374.084 364.472 370.101 361.319 366.55 359.57Z" fill="#848484"/>
<path d="M686.999 26.4416C682.964 26.6274 678.485 26.6274 673.711 26.3885C656.929 25.539 636.653 22.0351 618.05 16.7261C596.494 10.5676 578.482 19.7522 557.664 30.3702C541.817 38.4665 523.854 47.6245 501.609 50.9426C493.784 52.1106 487.731 51.5001 483.548 49.1907C469.325 41.2537 478.823 15.2661 485.319 1.27686H483.794C481.825 5.55061 479.561 10.8862 477.79 16.4606C472.327 33.7945 473.902 44.9965 482.465 49.7747C485.565 51.5001 489.552 52.3495 494.375 52.3495C496.737 52.3495 499.247 52.1372 502.003 51.739C524.543 48.3943 542.703 39.1566 558.649 30.9808C579.072 20.5751 596.691 11.5763 617.312 17.4693C636.309 22.9111 656.29 26.3619 673.515 27.2114C678.338 27.4503 682.865 27.4768 686.95 27.291V26.4416H686.999Z" fill="#848484"/>
<path d="M505.99 35.6726C506.78 35.7248 507.522 35.7509 508.313 35.7509C521.459 35.7509 536.139 28.1306 543.997 23.381C554.426 17.1177 564.558 8.97545 571.625 1.27686H569.994C563.026 8.79277 553.091 16.7262 542.91 22.859C528.873 31.3144 515.825 35.5943 506.187 34.8897C502.184 34.6026 499.564 33.6371 498.181 31.9929C492.991 25.7297 507.028 11.1676 518.049 1.30295H516.319C514.145 3.28632 511.822 5.42627 509.598 7.64451C497.489 19.6752 493.189 27.974 496.846 32.3061C498.378 34.2112 501.492 35.3595 505.99 35.6726Z" fill="#848484"/>
<path d="M523.664 19.1252C523.969 19.1523 524.325 19.1523 524.681 19.1523C527.733 19.1523 532.566 18.1773 539.281 14.0876C544.266 11.0813 549.048 6.99158 551.846 3.41649C552.304 2.82064 552.813 2.08938 553.27 1.30394H551.693C551.337 1.8727 550.93 2.46855 550.472 3.09148C544.724 10.4583 531.599 18.8814 523.918 18.2856C522.494 18.1773 521.578 17.8523 521.069 17.2564C518.475 14.1147 529.005 4.82486 533.533 1.27686H531.701C528.445 3.904 516.593 13.7897 519.696 17.5814C520.357 18.4481 521.68 18.9627 523.664 19.1252Z" fill="#848484"/>
<path d="M686.951 16.0574C680.473 18.0317 672.954 18.7521 664.537 18.1385C655.127 17.4715 644.582 15.2304 633.139 11.4685C623.161 8.18691 614.224 4.29167 607.888 1.27686H605.712C612.191 4.39839 621.695 8.64047 632.429 12.1622C644.062 15.9774 654.796 18.2719 664.395 18.9389C666.381 19.0722 668.32 19.1523 670.259 19.1523C676.406 19.1523 681.986 18.4319 686.999 16.9645V16.0574H686.951Z" fill="#848484"/>
<path fill-rule="evenodd" clip-rule="evenodd" d="M370.77 235.943C380.16 232.972 396.433 232.893 419.147 235.731C434.839 237.706 448.323 240.451 450.258 240.845C450.323 240.858 450.376 240.869 450.414 240.877C465.016 242.336 466.835 243.635 466.737 244.59C466.638 245.89 462.705 247.667 433.011 250.054C414.575 251.54 392.599 252.76 376.571 253.635L372.589 253.848C369.689 254.007 367.083 254.086 364.723 254.086C355.726 254.086 350.466 252.919 349.089 250.638C346.582 246.527 358.135 239.948 370.77 235.943ZM432.715 249.285C461.869 246.925 465.114 245.2 465.163 244.564C465.212 244.246 464.18 243.078 449.972 241.646L449.824 241.62C449.817 241.618 449.773 241.609 449.695 241.593C448.229 241.291 434.621 238.489 418.753 236.5C410.15 235.413 399.874 234.458 390.533 234.458C383.208 234.458 376.424 235.068 371.458 236.633C365.215 238.622 359.364 241.195 355.382 243.715C351.203 246.394 349.433 248.755 350.416 250.399C351.94 252.84 359.512 253.768 372.343 253.052L376.375 252.866C377.559 252.8 378.776 252.731 380.021 252.661C395.623 251.786 415.687 250.661 432.715 249.285Z" fill="#848484"/>
<path fill-rule="evenodd" clip-rule="evenodd" d="M382.852 69.2964C382.444 67.3031 387.998 64.9611 399.31 62.2951C406.749 60.551 415.565 61.0991 421.781 63.7153C426.673 65.7833 431.972 68.7233 429.322 71.1651C427.284 73.0586 420.813 74.0553 412.202 74.0553C406.444 74.0553 399.718 73.6068 392.686 72.6849C386.317 71.8627 383.107 70.7415 382.852 69.2964ZM393.044 71.9626C409.298 74.1053 424.941 73.5821 427.947 70.8165C429.68 69.2468 427.183 66.9794 420.763 64.2886C417.196 62.8185 412.763 62.0461 408.279 62.0461C405.426 62.0461 402.572 62.3451 399.923 62.968C389.579 65.4098 384.025 67.6272 384.331 69.2219C384.534 70.2932 387.541 71.24 393.044 71.9626Z" fill="#848484"/>
<path d="M538.312 359.633C512.598 357.911 497.496 346.376 478.445 331.761C473.115 327.69 467.587 323.462 461.368 319.078C445.772 308.091 428.301 301.488 409.497 299.453C388.126 297.156 364.633 300.706 339.709 309.996C312.318 320.2 272.686 336.615 238.681 351.856C229.155 356.136 216.718 361.825 204.527 367.723H206.699C216.372 363.078 227.378 357.963 239.618 352.457C273.574 337.242 313.157 320.827 340.499 310.649C386.942 293.346 427.215 296.347 460.134 319.574C466.304 323.932 471.831 328.16 477.162 332.231C496.459 347.002 511.71 358.642 538.065 360.416C556.77 361.669 567.48 364.122 570.047 367.723H571.626C569.208 363.678 558.004 360.964 538.312 359.633Z" fill="#848484"/>
<path d="M398.923 329.583C389.649 327.433 380.13 327.692 370.61 330.335C347.008 336.864 325.614 344.585 307.017 353.317C295.584 358.68 286.947 363.603 280.568 367.723H282.531C297.056 358.473 325.123 343.782 371.248 331.008C380.375 328.495 389.453 328.236 398.285 330.283C416.097 334.403 430.033 347.099 438.571 357.048C441.859 360.831 444.607 364.536 446.815 367.723H448.385C446.128 364.458 443.331 360.649 439.945 356.737C427.383 342.098 413.546 332.952 398.923 329.583Z" fill="#848484"/>
<path opacity="0.459984" d="M598.043 206.584C599.461 206.766 600.779 206.844 602.045 206.844C608.834 206.844 613.596 204.373 615.369 201.72C617.497 198.468 615.825 194.098 607.111 192.226C593.027 189.182 583.148 188.272 577.676 189.494C575.194 190.041 574.029 191.341 574.282 193.162C574.637 195.477 577.322 198.364 581.476 200.913C586.137 203.775 592.014 205.778 598.043 206.584Z" fill="#848484" stroke="#575757" stroke-width="6.609"/>
<path fill-rule="evenodd" clip-rule="evenodd" d="M166.211 275.607C164.388 273.71 164.7 270.971 169.806 269.443C177.517 267.152 187.937 268.205 192.053 269.996C193.824 270.76 194.449 271.656 193.772 272.499C192.417 274.29 187.207 276.134 178.35 277.951C177.048 278.215 175.745 278.346 174.547 278.346C170.692 278.346 167.67 277.082 166.211 275.607ZM177.777 277.214C186.113 275.502 191.167 273.763 192.365 272.209C192.886 271.551 191.948 270.971 191.01 270.602C188.822 269.654 184.498 268.943 179.913 268.943C176.735 268.943 173.453 269.285 170.587 270.128C166.315 271.393 166.003 273.605 167.618 275.238C169.233 276.871 173.088 278.188 177.777 277.214Z" fill="#848484"/>
<path fill-rule="evenodd" clip-rule="evenodd" d="M248.902 341.152C246.973 343.689 226.055 349.225 219.132 350.686C217.648 351.019 216.264 351.147 214.879 351.121C210.626 351.121 207.313 349.712 205.681 348.02C203.604 345.867 203.999 342.766 209.637 341.049C219.527 338.025 243.314 337.538 248.061 339.64C249.05 340.05 249.347 340.588 248.902 341.152ZM210.378 341.716C205.532 343.202 205.185 345.791 207.015 347.687C208.845 349.584 213.246 351.121 218.537 349.968C227.291 348.097 245.934 342.869 247.467 340.87C247.615 340.69 247.665 340.485 247.071 340.229C242.819 338.358 219.428 338.948 210.378 341.716Z" fill="#848484"/>
<path d="M41.6701 18.2858C49.953 15.5376 47.192 6.79794 44.4822 1.27686H42.8972C43.613 2.66332 44.2777 4.2726 44.8401 5.95616C46.1694 10.2393 46.5785 15.7604 40.8009 17.6916C34.0519 19.9198 20.3493 16.9983 0 9.00142V9.96699C15.6966 16.0823 27.6096 19.1523 35.5857 19.1523C37.9377 19.1275 39.9828 18.8552 41.6701 18.2858Z" fill="#848484"/>
<path fill-rule="evenodd" clip-rule="evenodd" d="M331.928 192.799C324.781 192.799 317.148 192.427 311.703 191.36C303.924 189.847 303.535 187.59 304.605 185.953C305.723 184.192 308.008 182.902 311.46 182.134C317.634 180.769 327.358 181.092 340.338 183.126C349.916 184.639 357.841 186.549 357.938 186.573C362.022 187.615 362.168 188.607 361.633 189.252C360.028 191.112 349.916 192.204 341.019 192.601C338.248 192.725 335.136 192.799 331.928 192.799ZM312.041 182.803C308.978 183.473 306.936 184.614 305.964 186.176C304.748 188.111 306.839 189.624 312.284 190.666C318.702 191.906 329.689 192.352 340.92 191.856C351.275 191.385 359.248 190.195 360.318 188.954C360.853 188.31 358.957 187.665 357.304 187.243C356.818 187.119 335.718 182.059 320.549 182.059C317.389 182.059 314.472 182.258 312.041 182.803Z" fill="#848484"/>
<path d="M598.968 342.94C573.029 340.452 569.934 331.145 566.003 319.35C561.582 306.181 556.129 289.798 516.433 276.733C496.536 270.2 477.475 266.104 458.118 264.212C440.825 262.527 423.631 262.63 405.65 264.549C372.243 268.126 340.703 277.666 310.145 286.869C281.552 295.501 251.977 304.444 220.142 308.851C203.046 311.236 186.735 312.118 170.278 311.599C151.805 311.003 133.628 308.644 114.763 304.367C81.7981 296.901 49.0297 294.309 17.3913 296.642C11.5451 297.082 5.74797 297.679 0 298.456V299.26C5.84623 298.482 11.6925 297.86 17.6369 297.419C49.0297 295.086 81.5033 297.679 114.223 305.067C137.46 310.329 158.978 312.507 179.268 312.507C228.249 312.507 270.056 299.882 310.882 287.568C342.717 277.951 372.734 268.878 405.944 265.326C423.729 263.408 440.727 263.304 457.824 264.989C477.033 266.856 495.947 270.926 515.647 277.407C533.088 283.136 554.802 290.264 564.579 319.48C566.593 325.572 568.362 330.834 573.029 335.06C578.187 339.752 586.392 342.5 598.723 343.692C635.225 347.218 656.939 352.791 667.011 361.242C669.418 363.238 671.186 365.416 672.366 367.723H673.888C672.66 365.26 670.843 362.979 668.239 360.827C657.922 352.195 635.913 346.492 598.968 342.94Z" fill="#848484"/>
<path d="M570.458 351.539C539.558 349.116 536.659 344.245 530.371 333.627C524.869 324.375 516.567 310.355 484.094 290.021C440.42 262.651 394.094 279.764 340.448 299.582C286.064 319.684 224.41 342.441 149.148 326.05C120.311 319.762 91.2282 316.669 62.6365 316.798C41.3646 316.901 20.2893 318.808 0 322.468V323.292C20.2893 319.607 41.3155 317.7 62.6365 317.597C91.0316 317.442 119.918 320.561 148.559 326.797C182.456 334.194 216.698 334.323 253.15 327.236C285.033 321.025 313.624 310.458 341.283 300.252C367.811 290.459 392.866 281.207 416.299 277.908C442.189 274.248 463.362 278.269 482.964 290.562C515.24 310.793 523.493 324.71 528.946 333.911C535.235 344.529 538.428 349.863 570.262 352.363C588.881 353.832 600.524 357.44 604.896 363.084C605.977 364.502 606.616 366.048 606.861 367.723H608.335C608.139 365.945 607.451 364.296 606.272 362.801C601.654 356.822 589.618 353.059 570.458 351.539Z" fill="#848484"/>
<path d="M415.453 316.298C401.823 311.498 383.536 311.654 361.131 316.843C343.334 320.943 322.89 328.208 300.337 338.378C277.295 348.809 256.703 360.225 243.858 367.723H245.819C258.665 360.225 278.766 349.12 301.269 338.949C323.723 328.804 344.02 321.591 361.67 317.518C383.585 312.458 401.382 312.251 414.57 316.921C445.212 327.741 461.489 346.007 475.854 362.119C477.57 364.013 479.188 365.881 480.855 367.697H482.473C480.708 365.777 478.943 363.806 477.178 361.782C462.813 345.591 446.438 327.222 415.453 316.298Z" fill="#848484"/>
<path d="M378.984 343.929C372.702 341.555 364.584 341.607 354.871 344.084C347.236 346.045 338.587 349.503 329.164 354.381C320.176 359.052 312.106 364.136 306.791 367.723H308.675C323.752 357.684 358.302 337.065 378.115 344.549C390.92 349.4 398.41 359.026 404.885 367.723H406.432C399.86 358.871 392.273 348.962 378.984 343.929Z" fill="#848484"/>
<path d="M135.823 343.605C123.253 341.927 110.243 340.199 98.5534 338.14C69.5498 332.981 35.9487 337.327 12.8633 341.876C8.31468 342.766 4.01061 343.706 0 344.647V345.485C4.15734 344.52 8.65704 343.528 13.4013 342.588C36.2422 338.09 69.5009 333.795 98.0643 338.878C109.754 340.962 122.813 342.69 135.431 344.367C163.799 348.128 190.602 351.686 192.46 358.142C193.243 360.861 189.624 364.038 181.504 367.723H183.657C191.335 364.038 194.71 360.836 193.928 358.015C191.873 351.051 165.902 347.595 135.823 343.605Z" fill="#848484"/>
<path d="M118.83 354.312C109.018 353.417 97.0756 353.47 86.0747 354.469C65.7082 356.31 25.867 362.201 0 366.172V366.987C25.867 363.016 65.9559 357.099 86.372 355.232C97.2243 354.259 108.969 354.18 118.631 355.074C132.606 356.363 137.511 359.071 139.196 361.149C140.732 363.016 140.336 365.225 138.057 367.723H139.741C141.922 365.146 142.169 362.832 140.534 360.833C137.214 356.784 126.907 355.048 118.83 354.312Z" fill="#848484"/>
<path d="M60.1823 209.476C82.3161 217.393 96.7618 228.749 109.445 238.776C123.841 250.131 136.328 259.95 155.818 261.539C157.63 261.695 159.491 261.747 161.351 261.747C176.385 261.747 194.258 257.137 216.931 247.423C233.923 240.13 248.075 233.515 260.562 227.655C286.907 215.284 305.955 206.35 327.012 203.459C348.509 200.49 372.112 203.616 408.447 214.216C438.121 222.889 473.526 228.853 505.502 230.572C520.389 231.379 533.904 231.223 544.628 230.077C555.94 228.879 563.873 226.717 568.133 223.618C573.96 219.373 575.38 211.481 548.888 197.964C517.206 181.79 481.165 179.837 443.018 177.779C417.751 176.425 391.601 174.993 365.207 169.341C335.337 162.96 309.432 151.865 285.976 135.483C268.641 123.372 248.417 117.642 227.41 118.918C213.111 119.778 199.057 123.789 185.64 130.795C172.173 137.879 160.029 147.646 149.648 159.835C141.911 168.872 133.39 173.508 123.45 173.977C101.952 174.993 77.0765 155.772 53.0819 137.176C41.0846 127.878 28.6956 118.293 16.8941 111.418C10.7731 107.797 5.19066 105.167 0 103.422V104.386C16.5024 110.167 34.4249 124.023 51.9066 137.566C63.9529 146.89 76.4399 156.553 88.4372 163.585C101.267 171.086 112.236 174.758 121.883 174.758C122.47 174.758 123.058 174.732 123.646 174.706C134.125 174.211 143.086 169.445 151.019 160.121C161.351 148.01 173.349 138.322 186.717 131.316C199.89 124.414 213.65 120.481 227.606 119.648C248.026 118.424 267.858 124.049 284.85 135.926C308.453 152.438 334.602 163.585 364.669 170.018C391.259 175.722 417.506 177.128 442.871 178.509C480.773 180.566 516.569 182.493 547.909 198.485C573.666 211.637 572.491 219.138 567.007 223.123C558.976 228.931 536.059 231.405 505.698 229.764C473.917 228.045 438.709 222.107 409.181 213.486C372.504 202.782 348.607 199.657 326.669 202.678C305.27 205.621 286.123 214.606 259.631 227.056C247.144 232.916 233.041 239.531 216.049 246.798C190.879 257.58 171.831 262.008 156.063 260.731C137.21 259.221 124.919 249.532 110.669 238.307C97.8881 228.228 83.3934 216.82 61.0148 208.798C42.4557 202.157 24.7781 198.823 8.27568 198.823C5.48448 198.823 2.74224 198.928 0 199.11V199.891C18.5591 198.615 38.7341 201.792 60.1823 209.476Z" fill="#848484"/>
<path d="M27.5989 286.944C50.3767 287.128 75.8602 289.567 98.3428 291.691C130.566 294.759 155.951 297.172 159.1 291.612C163.823 283.272 148.473 276.375 122.99 264.967C104.738 256.784 81.9605 246.608 57.6085 231.974C39.3076 221.012 21.0559 216.029 3.44372 217.235C2.36141 217.314 1.2299 217.419 0 217.55V218.363C1.1807 218.232 2.4106 218.101 3.6405 218.022C20.7607 216.868 38.5205 221.746 56.5262 232.525C80.9766 247.212 103.754 257.414 122.055 265.622C147.047 276.821 162.15 283.587 157.722 291.429C154.967 296.307 128.844 293.815 98.638 290.957C66.021 287.836 27.6973 284.19 0 287.364V288.177C7.87136 287.259 17.0218 286.865 27.5989 286.944Z" fill="#848484"/>
<path d="M93.5381 283.453C106.467 283.453 113.728 282.205 115.12 279.683C118.203 274.187 92.4938 264.283 76.8295 258.867C54.7006 251.193 28.3449 243.971 14.1724 241.661C9.44829 240.891 4.67442 240.36 0 240.042V240.838C4.52523 241.157 9.14993 241.688 13.7249 242.431C27.7979 244.715 54.0045 251.883 75.9842 259.53C101.594 268.425 115.667 275.86 113.628 279.444C111.639 282.949 93.9359 283.586 63.7511 281.249C39.3347 279.391 13.8243 276.125 0.0497279 274.054V274.877C13.9735 276.975 39.3347 280.187 63.6019 282.073C75.6858 283.002 85.6811 283.453 93.5381 283.453Z" fill="#848484"/>
<path d="M29.3146 268.132C35.2467 268.132 38.5588 267.519 39.2014 266.294C40.5856 263.843 30.6987 259.767 22.1466 256.783C14.7809 254.199 6.37703 251.748 0 250.256V251.135C6.22873 252.627 14.2865 254.998 21.3556 257.476C32.3301 261.312 38.6082 264.615 37.7679 266.081C36.4331 268.451 16.6099 267.119 0 265.121V265.921C4.99287 266.507 10.579 267.093 16.0167 267.519C21.4545 267.919 25.8542 268.132 29.3146 268.132Z" fill="#848484"/>
<path fill-rule="evenodd" clip-rule="evenodd" d="M166.904 247.703C165.488 247.703 164.12 247.624 162.802 247.442C150.837 245.876 141.314 241.335 135.259 234.368C129.154 227.27 127.103 218.111 129.398 207.855C131.498 198.617 137.603 189.458 147.174 181.368C181.213 152.533 209.488 136.719 231.22 134.371C238.204 133.614 244.601 134.266 250.119 136.328C270.815 144.01 284.315 151.488 296.221 158.083L296.66 158.326L296.766 158.385C315.175 168.587 329.734 176.654 361.611 181.316C381.78 184.265 391.302 186.979 390.668 189.641C390.179 191.702 383.342 193.346 370.303 194.546C357.655 195.695 339.39 196.399 317.512 196.556C301.006 196.686 283.865 200.105 265.063 207.072C248.654 213.179 233.125 221.138 219.402 228.183C199.135 238.595 181.408 247.703 166.904 247.703ZM148.446 181.786C139.021 189.771 132.965 198.826 130.914 207.959C128.667 218.058 130.67 227.087 136.676 234.055C142.488 240.813 151.669 245.197 163.194 246.711C164.415 246.867 165.685 246.946 166.954 246.946C180.823 246.946 198.354 237.944 218.376 227.662L218.378 227.661C232.101 220.589 247.679 212.604 264.234 206.472C283.28 199.426 300.714 195.929 317.514 195.799C339.343 195.642 357.51 194.938 370.061 193.79C386.225 192.302 389.009 190.502 389.253 189.562C389.937 186.587 369.914 183.325 361.27 182.073C328.941 177.323 314.242 169.182 295.684 158.874L295.483 158.763C283.568 152.162 270.076 144.687 249.34 136.98C245.53 135.571 241.331 134.866 236.74 134.866C235.08 134.866 233.322 134.971 231.563 135.154C210.271 137.45 182.289 153.133 148.446 181.786Z" fill="#848484"/>
<path fill-rule="evenodd" clip-rule="evenodd" d="M514.285 219.437C491.384 217.673 465.259 214.741 449.829 212.743C424.046 209.423 413.01 206.491 411.79 202.6C410.667 199.097 417.796 194.869 434.154 189.291C443.09 186.256 454.712 185.607 468.824 187.423C480.006 188.85 492.751 191.807 506.716 196.218C529.96 203.56 548.955 212.536 549.883 212.977C556.719 215.545 559.454 217.465 558.233 218.892C557.061 220.215 552.373 220.89 543.974 220.89C536.796 220.89 526.932 220.397 514.285 219.437ZM454.124 187.189C446.702 187.189 440.305 188.123 434.934 189.939C419.357 195.258 412.276 199.357 413.204 202.418C414.571 206.802 432.639 209.708 450.12 211.965C492.505 217.439 553.202 222.783 556.815 218.555C557.303 217.984 556.962 216.583 548.953 213.574L548.905 213.548C548.893 213.543 548.819 213.509 548.685 213.446C546.489 212.423 528.163 203.884 505.934 196.866C492.115 192.508 479.516 189.576 468.481 188.175C463.353 187.527 458.568 187.189 454.124 187.189Z" fill="#848484"/>
<path fill-rule="evenodd" clip-rule="evenodd" d="M494.478 208.835C486.038 208.139 476.364 206.987 470.673 206.21C462.47 205.084 456.921 203.932 456.305 202.003C455.831 200.503 458.439 198.815 464.746 196.537C470.816 194.314 480.015 195.225 491.965 199.243C500.453 202.084 507.424 205.567 507.946 205.835C509.843 206.585 511.882 207.576 511.17 208.46C510.791 208.943 509.7 209.398 505.527 209.398C503.061 209.398 499.552 209.237 494.478 208.835ZM472.381 196.189C469.868 196.189 467.544 196.51 465.552 197.234C460.052 199.217 457.396 200.797 457.681 201.869C458.155 203.45 464.651 204.548 470.958 205.406C492.155 208.326 508.942 209.237 509.843 208.139C509.843 208.139 510.127 207.737 507.093 206.504L507.045 206.477C507.037 206.474 507.003 206.457 506.944 206.428C505.372 205.653 486.188 196.189 472.381 196.189Z" fill="#848484"/>
<path d="M609.674 66.1047C597.758 68.4384 590.697 74.5218 580.842 82.9652C576.085 87.0557 570.643 91.6969 563.827 96.6266C541.664 112.543 519.353 106.696 482.382 97.0199C463.308 92.0116 439.526 85.7971 410.155 81.287C367.446 74.7316 338.958 75.0725 323.071 82.3358C308.508 88.9961 303.898 101.294 308.508 121.039C312.528 138.162 336.555 151.351 379.901 160.266C420.746 168.657 469.094 171.043 494.248 171.751C537.986 172.931 576.38 176.55 608.448 182.45C634.043 187.17 655.667 193.358 672.682 200.857C678.272 203.322 683.028 205.761 687 208.121V206.967C683.224 204.817 678.86 202.562 673.761 200.307C656.599 192.729 634.828 186.488 609.036 181.742C576.821 175.816 538.231 172.197 494.346 170.991C469.241 170.309 421.089 167.923 380.44 159.558C337.634 150.774 313.901 137.794 309.979 120.986C305.419 101.53 309.881 89.4681 324.051 82.9914C339.546 75.9116 367.593 75.5969 409.763 82.0999C439.036 86.61 462.719 92.7983 481.744 97.7803C500.524 102.71 515.381 106.591 528.621 107.273C542.988 108.007 554.216 104.886 565.004 97.151C571.868 92.2214 577.311 87.5539 582.117 83.4372C591.776 75.1249 598.788 69.1202 610.213 66.8914C622.275 64.5314 638.604 66.5243 664.886 73.5516C672.878 75.7018 680.233 78.0617 687 80.5528V79.5564C680.429 77.144 673.27 74.8889 665.523 72.8174C638.8 65.6852 622.128 63.6661 609.674 66.1047Z" fill="#848484"/>
<path d="M638.683 90.6629C626.616 90.8473 616.413 93.9292 608.369 99.8295C601.06 105.177 595.91 110.05 591.299 114.317C576.485 128.146 569.716 134.468 524.343 124.906C511.099 122.114 495.501 118.057 478.971 113.764C433.451 101.91 381.849 88.4766 354.527 95.0091C346.286 96.9584 340.645 100.699 337.751 106.072C333.827 113.342 335.348 119.928 342.362 125.644C352.565 133.941 374.049 140.526 407.993 145.794C434.383 149.904 468.376 153.196 514.876 156.199C560.543 159.149 607.829 166.999 647.953 178.273C662.914 182.487 676.207 187.018 686.998 191.522V190.469C676.354 186.096 663.405 181.723 648.591 177.562C608.32 166.235 560.838 158.359 514.974 155.409C468.523 152.406 434.628 149.113 408.336 145.004C374.736 139.789 353.546 133.283 343.539 125.17C336.77 119.664 335.299 113.316 339.076 106.257C341.921 101.041 347.12 97.5905 355.017 95.7203C381.75 89.3458 433.009 102.701 478.235 114.475C494.765 118.795 510.413 122.852 523.706 125.644C546.122 130.359 559.906 131.412 569.814 129.121C579.379 126.908 584.873 121.798 592.427 114.712C596.989 110.445 602.139 105.625 609.399 100.304C617.149 94.614 626.959 91.6375 638.584 91.4531C654.968 91.216 672.773 96.5896 686.949 102.306V101.305C664.68 92.3487 648.591 90.5048 638.683 90.6629Z" fill="#848484"/>
<path d="M636.075 109.978C627.39 110.756 620.976 114.336 616.979 120.614C605.037 139.318 577.108 138.047 558.604 137.217C548.538 136.75 541.235 136.438 540.346 139.474C539.212 143.313 543.208 146.27 553.077 148.735C561.861 150.94 574.493 152.652 589.099 154.597C619.693 158.696 658.872 163.962 686.949 177.478V176.414C658.724 163.132 619.841 157.918 589.444 153.845C560.43 149.954 539.508 147.152 541.777 139.577C542.419 137.372 548.242 137.528 558.456 137.995C567.93 138.41 579.674 138.955 590.777 136.983C603.902 134.648 612.932 129.382 618.36 120.874C622.16 114.907 628.229 111.483 636.322 110.756C651.569 109.355 671.653 117.423 686.999 125.154V124.064C686.209 123.649 685.37 123.26 684.531 122.845C664.596 113.195 648.313 108.863 636.075 109.978Z" fill="#848484"/>
<path d="M656.388 129.911C648.723 128.388 642.252 128.687 637.275 130.836C633.193 132.577 631.451 135.052 632.048 138.18C634.189 149.006 664.402 164.945 686.999 172.37V171.391C676.994 168.045 665.845 163.15 656.288 157.846C642.65 150.257 634.537 143.239 633.492 138.044C632.944 135.243 634.487 133.012 638.171 131.435C651.56 125.695 673.61 135.759 686.999 143.212V142.042C683.913 140.329 680.379 138.534 676.646 136.82C669.23 133.447 662.411 131.108 656.388 129.911Z" fill="#848484"/>
<path fill-rule="evenodd" clip-rule="evenodd" d="M517.415 139.005C517.584 139.069 517.678 139.104 517.694 139.11C523.522 141.409 525.579 143.295 523.816 144.716C521.857 146.24 515.539 146.834 507.213 146.834C495.801 146.834 480.52 145.723 467.1 144.302C434.432 140.866 403.283 135.028 383.79 128.698C361.848 121.568 354.403 113.844 362.289 106.352C364.395 104.337 367.921 103.045 372.721 102.477C388.198 100.668 417.339 106.274 459.264 119.191C488.727 128.233 514.466 137.898 517.415 139.005ZM504.42 146.007C517.987 146.188 521.611 144.974 522.542 144.25C524.158 143.01 520.338 141.099 516.811 139.729C515.538 139.239 419.542 102.916 378.94 102.916C376.785 102.916 374.826 103.019 373.014 103.226C368.655 103.742 365.471 104.905 363.561 106.713C359.643 110.433 359.692 114.205 363.757 117.951C367.431 121.361 374.434 124.746 384.524 128.027C403.87 134.304 434.823 140.117 467.344 143.527C481.303 145 494.478 145.878 504.42 146.007Z" fill="#848484"/>
<path fill-rule="evenodd" clip-rule="evenodd" d="M469.209 131.24C469.562 131.352 469.758 131.414 469.78 131.419C470.511 131.694 472.802 132.568 471.681 133.392C471.047 133.891 469.097 134.066 466.465 134.066C459.252 134.066 447.018 132.618 443.898 132.243C427.668 130.246 412.607 127.375 403.638 124.554C394.621 121.708 391.502 118.937 394.329 116.315C395.011 115.691 396.181 115.267 397.741 115.067C404.077 114.243 418.163 116.74 439.56 122.507C453.634 126.3 466.4 130.349 469.209 131.24ZM444.24 131.494C460.812 133.516 469.683 133.566 470.512 132.942C470.609 132.917 470.463 132.617 468.903 132.018C467.538 131.569 417.725 115.641 400.52 115.641C399.594 115.641 398.814 115.691 398.083 115.791C396.864 115.94 396.084 116.24 395.597 116.664C393.209 118.861 396.133 121.283 404.37 123.88C413.192 126.676 428.107 129.522 444.24 131.494Z" fill="#848484"/>
<path fill-rule="evenodd" clip-rule="evenodd" d="M177.016 228.272C172.14 229.379 168.141 229.827 164.874 229.827C158.242 229.827 154.633 227.982 152.585 226.033C139.565 213.57 168.97 173.441 208.958 157.791C220.905 153.127 231.633 151.23 240.801 152.178C248.36 152.969 254.846 155.63 260.112 160.109C265.281 164.483 267.768 169.542 267.427 174.759C267.086 179.949 263.916 184.929 258.308 189.145L256.796 190.278L256.708 190.344C238.107 204.315 218.888 218.749 177.016 228.272ZM209.834 158.476C191.743 165.564 173.943 178.659 162.24 193.493C151.268 207.378 148 220.025 153.852 225.664C157.802 229.432 165.361 230.064 176.43 227.535C217.978 218.076 237.094 203.716 255.576 189.804L257.088 188.671C262.55 184.587 265.622 179.765 265.963 174.733C266.305 169.674 263.866 164.773 258.892 160.557C253.869 156.289 247.676 153.733 240.557 152.995C239.094 152.837 237.582 152.758 236.07 152.758C228.316 152.758 219.539 154.682 209.834 158.476Z" fill="#848484"/>
<path fill-rule="evenodd" clip-rule="evenodd" d="M192.267 210.959C189.167 211.657 186.617 211.952 184.567 211.952C180.617 211.952 178.467 210.906 177.317 209.806C173.868 206.533 175.968 199.612 182.767 191.752C189.867 183.596 200.516 176.192 211.316 172.008C218.466 169.244 224.865 168.118 230.415 168.681C234.965 169.137 238.915 170.72 242.064 173.403C248.314 178.714 247.914 185.474 240.965 190.652C229.915 198.887 217.866 205.165 192.267 210.959ZM212.215 172.678C201.666 176.783 191.166 184.053 184.166 192.1C177.617 199.585 175.467 206.399 178.667 209.43C180.767 211.442 185.166 211.71 191.716 210.235C217.015 204.521 228.864 198.324 239.764 190.196C246.364 185.287 246.764 178.875 240.814 173.859C237.864 171.391 234.314 169.915 230.164 169.486C229.314 169.405 228.464 169.352 227.564 169.352C223.015 169.352 217.915 170.479 212.215 172.678Z" fill="#848484"/>
<path d="M665.257 211.86C652.714 207.89 640.22 207.048 630.137 209.494C615.134 213.096 608.248 223.194 614.151 232.975C615.676 235.5 614.741 237.524 611.396 239.102C600.821 244.045 566.635 244.466 517.545 240.233C475.145 236.578 429.449 229.978 406.38 224.14C387.246 219.302 371.801 218.513 360.438 221.747C350.355 224.613 343.714 230.766 341.206 239.496C337.467 252.565 286.066 265.029 244.748 275.021C215.431 282.121 192.264 287.721 189.165 292.323C188.624 293.112 188.673 293.848 189.313 294.532C192.067 297.582 198.806 298.108 211.25 296.241C222.711 294.505 238.943 290.798 259.455 286.091C291.28 278.781 334.91 268.763 390.886 259.218C436.778 251.408 476.67 252.302 509.429 261.873C527.186 267.08 542.533 274.758 555.027 284.697C565.7 293.217 574.21 303.393 579.571 314.148C583.507 322.036 592.114 328.61 605.198 333.685C615.774 337.787 629.35 340.942 645.484 343.072C658.076 344.729 672.39 345.728 686.998 346.017V345.228C672.488 344.939 658.322 343.94 645.828 342.283C629.891 340.206 616.512 337.077 606.084 333.028C593.295 328.058 584.884 321.642 580.998 313.911C575.587 303.051 567.028 292.796 556.256 284.224C543.615 274.153 528.121 266.396 510.118 261.137C477.014 251.434 436.729 250.54 390.443 258.402C334.368 267.948 290.739 277.966 258.865 285.302C218.186 294.637 195.756 299.791 190.641 294.137C190.198 293.638 190.149 293.112 190.542 292.533C193.444 288.247 217.497 282.41 245.387 275.678C266.144 270.656 289.706 264.95 308.25 258.902C329.696 251.908 340.96 245.571 342.681 239.549C345.091 231.082 351.486 225.139 361.127 222.378C372.096 219.249 387.098 220.064 405.79 224.798C440.123 233.475 523.94 243.835 574.849 243.835C592.41 243.835 606.084 242.599 612.429 239.628C616.266 237.84 617.348 235.5 615.626 232.66C609.97 223.272 616.512 213.57 630.826 210.125C649.222 205.707 669.586 212.386 686.949 222.852V221.511C679.768 217.435 672.537 214.174 665.257 211.86Z" fill="#848484"/>
<path d="M659.523 225.188C654.43 224.351 649.63 224.639 645.271 226.025C632.489 230.13 635.28 237.66 637.729 244.328C639.443 248.956 641.059 253.322 637.092 255.754C634.35 257.427 629.011 258.133 620.832 257.872C602.173 257.297 584.248 255.179 569.849 253.479C550.699 251.23 536.839 249.583 531.795 252.59C530.277 253.505 529.542 254.525 529.689 255.649C530.081 259.205 538.896 263.363 550.112 268.618C566.225 276.201 586.305 285.666 593.21 298.373C599.969 310.767 609.078 323.03 630.138 328.704C638.219 330.874 647.671 331.972 658.593 331.972C667.114 331.972 676.567 331.319 686.95 329.985V329.175C663.441 332.208 644.928 331.815 630.774 327.998C610.254 322.455 601.242 310.375 594.582 298.138C587.529 285.222 567.302 275.678 551.042 268.017C540.121 262.866 531.501 258.813 531.109 255.571C531.011 254.656 531.599 253.845 532.872 253.087C537.329 250.42 551.532 252.093 569.555 254.211C584.003 255.911 602.026 258.029 620.783 258.604C629.452 258.865 635.133 258.081 638.219 256.198C642.627 253.479 640.961 248.93 639.198 244.118C636.701 237.399 634.154 230.47 646.055 226.652C650.022 225.371 654.43 225.136 659.131 225.868C667.408 227.201 676.958 231.777 686.998 239.124V237.765C678.869 232.039 669.171 226.731 659.523 225.188Z" fill="#848484"/>
<path d="M669.301 250.651C662.241 251.889 657.309 256.024 657.067 260.975C656.922 264.083 655.761 266.005 653.392 267.191C648.266 269.745 636.515 269.35 615.141 268.639L612.626 268.56C604.357 268.297 599.86 268.876 598.361 270.378C596.088 272.722 601.649 276.699 609.386 282.229C616.302 287.155 624.909 293.265 629.745 299.797C633.469 304.801 639.803 308.251 648.508 310.068C653.634 311.122 659.243 311.543 664.852 311.543C672.783 311.543 680.665 310.727 687 309.805V308.962C675.394 310.674 660.839 311.754 649.04 309.331C640.722 307.619 634.677 304.3 631.099 299.507C626.167 292.87 617.511 286.707 610.547 281.755C603.68 276.883 597.781 272.669 599.618 270.773C600.779 269.587 604.986 269.14 612.481 269.377L614.996 269.456C637.434 270.193 648.749 270.562 654.311 267.796C657.019 266.453 658.324 264.346 658.469 261.001C658.711 256.392 663.208 252.547 669.688 251.415C674.862 250.519 680.81 251.335 687 253.68V252.679C679.07 249.808 672.928 250.019 669.301 250.651Z" fill="#848484"/>
<path d="M657.65 278.577C653.186 281.318 651.809 284.783 653.804 288.351C655.988 292.23 664.061 294.428 677.786 294.867C679.59 294.919 681.395 294.945 683.105 294.945C684.434 294.945 685.764 294.919 686.999 294.893V294.117C675.554 294.35 658.268 293.729 655.133 288.093C653.281 284.783 654.563 281.577 658.648 279.069C664.346 275.578 674.557 273.794 686.951 274.027V273.251C674.224 273.07 663.634 274.932 657.65 278.577Z" fill="#848484"/>
<path d="M54.4329 197.541C73.138 201.634 91.0019 205.567 103.076 205.567C106.342 205.567 109.163 205.277 111.488 204.643C114.754 203.746 116.833 202.135 117.724 199.891C119.851 194.611 109.311 189.515 93.3277 181.806C77.4927 174.176 55.8185 163.747 36.668 148.117C23.6536 137.53 11.4309 130.718 0.0494845 127.682V128.553C10.9855 131.589 22.8123 138.242 35.3814 148.539C54.6803 164.275 76.404 174.73 92.2885 182.387C107.876 189.911 118.218 194.875 116.239 199.706C115.398 201.739 113.616 203.112 110.746 203.904C100.503 206.782 78.3834 201.924 54.9772 196.776C39.5381 193.396 23.5546 189.885 9.69895 188.301C6.23504 187.905 2.96907 187.641 0 187.509V188.301C2.8701 188.433 6.0371 188.67 9.40205 189.066C23.1587 190.677 39.0927 194.162 54.4329 197.541Z" fill="#848484"/>
<path d="M45.1732 182.585C50.0874 182.585 53.2061 181.923 54.4819 180.625C57.6006 177.367 48.1973 171.157 26.4613 162.097C16.6328 158.024 6.42631 154.257 0 151.941V152.832C21.4998 160.544 58.1676 175.128 53.2533 180.269C52.2138 181.363 49.3787 181.847 45.4095 181.847C34.9667 181.847 16.4438 178.64 0 175.23V176.044C3.54392 176.782 7.27685 177.52 11.057 178.233C26.3668 181.134 37.8018 182.585 45.1732 182.585Z" fill="#848484"/>
<path fill-rule="evenodd" clip-rule="evenodd" d="M256.769 244.431C259.385 242.104 262.146 240.006 265.053 238.165C274.256 232.283 288.207 229.213 302.207 229.93C310.441 230.364 314.607 231.899 314.656 234.533C314.753 243.254 264.52 261.464 241.898 262.743C238.604 262.948 236.085 263.024 234.196 263.024C230.127 263.024 228.771 262.641 228.286 262.078C227.317 260.902 230.805 259.214 236.618 256.4C242.818 253.408 251.296 249.316 256.769 244.431ZM285.882 250.85C302.787 244.508 313.299 238.242 313.25 234.559C313.25 232.385 309.472 231.08 302.158 230.722C300.85 230.646 299.542 230.62 298.234 230.62C286.027 230.62 274.304 233.536 266.215 238.651C263.357 240.441 260.644 242.538 258.077 244.815C252.556 249.757 244.038 253.871 237.803 256.882L237.635 256.963L237.415 257.069C233.317 259.057 229.119 261.092 229.691 261.746C230.03 262.155 232.403 262.513 241.801 261.976C252.167 261.388 269.46 257.014 285.882 250.85Z" fill="#848484"/>
<path d="M48.0078 104.761C59.0638 115.586 70.906 126.724 82.4534 134.855C95.1802 143.771 106.236 148.111 116.309 148.111C116.408 148.111 116.506 148.111 116.604 148.111C126.628 148.032 135.473 143.744 143.63 135.064C160.779 116.841 181.073 105.703 202.35 102.905C216.895 100.996 231.833 102.879 246.722 108.552C258.171 112.919 266.328 114.357 271.536 112.971C279.251 110.932 279.693 103.323 280.184 94.5384C280.725 84.8906 281.315 73.9356 292.174 68.9156C297.235 66.5887 304.016 65.7259 312.91 66.2488C336.202 67.6606 358.363 65.7782 376.986 60.8628C394.676 56.1827 408.385 49.0449 416.591 40.2077C424.404 31.815 426.665 22.3502 423.225 12.8855C421.8 8.93753 419.392 5.06797 416.1 1.27686H414.429C425.928 14.1928 426.566 27.7885 415.314 39.8678C407.255 48.5482 393.791 55.5552 376.396 60.1568C358.019 65.0199 336.103 66.8501 313.107 65.4644C303.918 64.9153 296.547 65.8566 291.24 68.3143C279.89 73.5434 279.3 84.6814 278.71 94.4861C278.268 102.67 277.826 110.409 270.897 112.239C266.18 113.494 258.564 112.056 247.557 107.873C232.275 102.068 216.944 100.134 201.957 102.094C180.238 104.97 159.6 116.239 142.303 134.672C134.392 143.065 125.99 147.196 116.604 147.274C116.506 147.274 116.408 147.274 116.309 147.274C94.9345 147.274 71.4957 126.07 49.2853 104.317C35.6741 91.061 19.1638 81.91 0 77.0469V77.9097C18.5741 82.7467 34.6914 91.7408 48.0078 104.761Z" fill="#848484"/>
<path d="M66.0474 71.5018C74.4987 71.5018 81.9242 70.8447 88.0306 69.5043C101.953 66.4557 108.89 60.2269 108.646 50.9231C108.402 41.8034 112.945 35.0227 122.52 30.2131C146.115 18.2812 196.921 20.3311 250.755 22.5388C258.669 22.8542 266.876 23.1959 274.937 23.485C282.802 23.7741 290.032 23.9055 296.676 23.9055C327.013 23.9055 344.208 20.9882 347.97 15.1799C350.608 11.08 346.211 6.1127 339.177 1.27686H337.272C344.502 6.08642 349.094 11.0011 346.602 14.9434C342.303 21.619 318.268 24.2471 275.083 22.7228C267.023 22.4337 258.816 22.092 250.902 21.7766C196.774 19.569 145.627 17.4927 121.543 29.6612C111.675 34.6547 106.985 41.6194 107.229 50.9757C107.474 59.9115 100.83 65.93 87.5421 68.821C70.444 72.553 42.6475 70.8447 11.187 64.1429C7.42545 63.3544 3.71272 62.4871 0 61.5935V62.4608C3.51732 63.3281 7.08348 64.1429 10.6497 64.8788C31.265 69.2415 50.4149 71.5018 66.0474 71.5018Z" fill="#848484"/>
<path d="M38.142 45.9135C55.7235 45.3426 70.6189 40.4378 82.4864 31.3288L84.4399 29.8236C98.8469 18.7682 106.075 13.2146 116.77 10.9049C127.466 8.59519 141.97 9.42564 170.882 11.1125C174.398 11.3201 178.159 11.5277 182.115 11.7613C216.399 13.7077 241.208 14.3824 257.959 13.7596C274.124 13.1627 283.306 11.4239 286.822 8.28378C288.971 6.36336 288.873 4.02772 287.115 1.27686H285.601C287.359 3.92391 287.555 6.1298 285.552 7.8945C282.329 10.7232 273.294 12.4101 257.862 12.981C241.159 13.6038 216.447 12.9551 182.261 10.9827C178.305 10.7492 174.545 10.5416 171.029 10.3339C141.873 8.62115 127.27 7.76474 116.184 10.1782C105.098 12.5917 97.7725 18.1973 83.219 29.3824L81.2655 30.8876C69.6422 39.789 55.1374 44.59 38.0443 45.135C29.2536 45.4205 16.507 44.616 0 40.5156V41.372C14.5047 44.9274 26.128 45.9654 34.7722 45.9654C35.9932 45.9654 37.1164 45.9395 38.142 45.9135Z" fill="#848484"/>
<path d="M59.9831 28.6985C67.1911 26.8884 72.1309 23.8085 74.6008 19.5399C78.2804 13.3262 79.0869 7.05836 78.482 1.27686H76.9698C77.5747 6.97731 76.7682 13.1641 73.139 19.2968C70.7699 23.3492 66.0822 26.267 59.2774 27.969C43.0971 32.0215 17.9445 28.6985 0 25.3754V26.24C12.047 28.4553 27.2696 30.6436 40.98 30.6436C47.8856 30.6436 54.4384 30.0763 59.9831 28.6985Z" fill="#848484"/>
<path d="M361.435 20.5189C351.763 30.7136 308.92 29.3317 308.432 29.3056C284.446 29.3056 262.17 28.3931 242.532 27.5587C213.319 26.3333 188.063 25.2904 169.402 27.8716C159.534 29.2274 151.864 31.5479 146.002 34.9375C139.652 38.5877 135.353 43.5156 132.812 49.9557C124.361 71.4922 102.232 74.0735 84.4011 76.1333C73.6539 77.3848 64.3722 78.4538 61.2946 83.5641C58.5101 88.2313 61.7343 97.5134 69.5993 107.213C78.0016 117.616 89.4328 125.673 100.18 128.749C103.648 129.74 107.117 130.235 110.39 130.235C116.643 130.235 122.554 128.462 127.732 124.995C135.597 119.728 141.996 113.992 148.2 108.438C159.778 98.0609 169.744 89.1178 185.23 87.1101C194.755 85.8847 205.845 87.3969 219.034 91.8033C236.523 97.6177 248.638 99.4428 256.112 97.383C265.394 94.8278 266.322 86.9276 267.299 78.532C268.618 67.2683 269.986 55.6136 291.676 56.1351C296.659 56.2393 301.446 56.3176 306.087 56.3176C352.984 56.3176 383.418 50.3989 396.559 38.6659C406.915 29.4621 404.277 18.3549 400.272 10.6893C398.366 7.01298 395.973 3.77989 393.872 1.27686H392.26C394.409 3.77989 396.901 7.14335 398.855 10.924C405.938 24.5603 400.809 33.3209 395.289 38.2748C381.122 50.8943 346.242 56.6565 291.725 55.3789C281.319 55.1443 274.383 57.4909 270.523 62.5752C267.153 66.9815 266.469 72.848 265.834 78.532C264.905 86.6929 263.977 94.3846 255.428 96.7312C248.443 98.6606 236.816 96.8354 219.767 91.1775C206.187 86.6669 194.755 85.1025 184.839 86.4061C168.767 88.492 158.606 97.5655 146.882 108.099C140.726 113.627 134.327 119.337 126.511 124.551C118.89 129.636 110.243 130.809 100.766 128.097C90.3121 125.099 79.0764 117.199 70.8205 106.952C63.2486 97.5655 59.9268 88.2834 62.5647 83.851C65.3981 79.1578 73.8493 78.167 84.5965 76.9415C93.5851 75.8986 103.746 74.7253 112.832 71.0229C123.335 66.7469 130.321 59.9157 134.131 50.1382C138.87 38.0141 149.813 31.3915 169.646 28.6538C177.951 27.5066 187.672 27.0894 198.468 27.0894C211.56 27.0894 226.362 27.7152 242.287 28.367C261.974 29.1753 284.25 30.1139 308.236 30.1139C308.236 30.1139 308.236 30.1139 308.285 30.1139C308.383 30.1139 319.423 30.505 331.489 29.5664C347.903 28.3149 358.357 25.3946 362.656 20.91C367.297 16.0343 364.317 9.46387 353.765 1.30293H352.007C362.754 9.35957 365.88 15.8258 361.435 20.5189Z" fill="#848484"/>
<path d="M364.602 29.2078C356.581 34.6411 332.324 36.894 294.52 35.7278C265.812 34.8532 239.207 32.2823 238.963 32.2558C238.816 32.2292 222.579 30.6655 204.289 32.6003C193.48 33.7135 184.09 35.8073 176.314 38.8288C166.582 42.5924 159.393 47.7873 154.992 54.2543C146.482 66.7909 136.945 75.3518 125.795 80.4406C116.112 84.8668 106.673 86.033 97.8697 86.8546C85.0075 88.0473 80.6548 92.5001 79.2855 96.0251C76.5468 102.916 83.149 112.219 93.4192 115.956C96.2069 116.964 99.0434 117.467 101.782 117.467C104.325 117.467 106.819 117.043 109.167 116.168C118.801 112.617 128.68 105.779 139.146 98.5695C159.051 84.8138 179.64 70.6075 200.327 77.7372C203.359 78.7708 206.294 79.8045 209.081 80.8117C224.242 86.192 236.273 90.4592 243.853 88.4449C248.353 87.2522 250.896 84.0982 251.825 78.4793C253.732 66.8704 257.253 58.124 268.257 53.1942C276.082 49.6691 287.233 48.3704 302.393 49.1655C344.844 51.4184 372.818 47.3367 385.582 37.0795C395.803 28.8632 394.043 18.182 390.766 10.6547C388.908 6.38754 386.365 2.62393 384.36 0H382.795C384.8 2.59742 387.441 6.44055 389.348 10.8403C392.527 18.2085 394.238 28.6512 384.36 36.629C371.937 46.6211 344.404 50.5702 302.54 48.3704C286.988 47.5487 275.495 48.927 267.328 52.5846C255.982 57.6999 252.314 66.6053 250.358 78.4263C249.477 83.6741 247.179 86.7221 243.218 87.7558C236.371 89.5581 224.682 85.4234 209.913 80.1756C207.076 79.1684 204.142 78.1347 201.11 77.1011C191.28 73.7085 180.667 74.5566 168.685 79.6985C158.219 84.1512 147.949 91.2544 138.021 98.119C127.653 105.302 117.823 112.06 108.384 115.559C102.858 117.6 97.674 116.566 94.2506 115.32C84.4206 111.742 78.1117 102.81 80.7037 96.2107C82.0242 92.9241 86.0834 88.763 98.1142 87.6498C107.113 86.8016 116.747 85.6089 126.724 81.0502C138.07 75.8554 147.754 67.1884 156.361 54.5194C160.665 48.1848 167.658 43.1225 177.097 39.4649C184.677 36.5229 193.921 34.4821 204.484 33.3689C211.331 32.6533 217.884 32.4148 223.411 32.4148C232.409 32.4148 238.571 33.0244 238.669 33.0244C238.914 33.0509 265.616 35.6218 294.422 36.4964C333.253 37.6891 357.266 35.4098 365.726 29.6848C374.089 24.0659 376.046 16.4592 371.351 7.71276C369.737 4.71777 367.634 2.06734 365.775 0.0265043H364.113C366.02 2.04083 368.27 4.79728 369.932 7.92479C373.111 13.8353 374.725 22.3431 364.602 29.2078Z" fill="#848484"/>
<path fill-rule="evenodd" clip-rule="evenodd" d="M206.965 40.857C212.203 39.4953 218.029 39.2072 223.415 40.0714C228.702 40.9094 232.668 42.6639 235.165 45.2826C242.802 53.1649 236.046 67.0179 231.346 74.5598C230.122 76.55 228.604 77.5975 226.597 77.8332L226.597 77.8332C226.303 77.8594 226.01 77.8856 225.716 77.8856C222.454 77.8856 218.709 75.8404 214.046 73.2945L213.966 73.2504C209.511 70.815 204.468 68.0654 198.397 66.1275C188.263 62.8803 183.269 59.2403 183.563 55.2599C184.101 48.3203 201.09 42.402 206.965 40.857ZM226.303 77.0736C227.723 76.8903 228.947 76 229.975 74.324C240.795 56.9881 237.074 48.9225 233.843 45.6753C231.493 43.2661 227.821 41.6425 222.974 40.8569C221.065 40.5426 219.106 40.3855 217.099 40.3855C213.868 40.3855 210.637 40.7783 207.601 41.5639C201.922 43.0566 185.521 48.7392 185.031 55.286C184.737 58.9522 189.535 62.3827 199.18 65.4466C205.34 67.3923 210.635 70.2889 214.922 72.6343L215.043 72.7004L215.098 72.7307C219.677 75.2318 223.621 77.3866 226.303 77.0736Z" fill="#848484"/>
<path fill-rule="evenodd" clip-rule="evenodd" d="M211.083 52.7883C212.591 52.3266 214.272 52.218 215.824 52.5167C217.332 52.8154 218.496 53.4129 219.272 54.3362C221.427 56.9434 219.574 61.4244 218.281 63.8685C218.065 64.3302 217.634 64.9548 216.686 65.0906C216.557 65.1178 216.47 65.1178 216.341 65.1178C215.274 65.1178 214.249 64.4517 212.889 63.5682L212.85 63.5426C211.686 62.7822 210.35 61.9132 208.755 61.3157C205.867 60.2294 204.445 58.9802 204.531 57.5951C204.693 54.9996 210.266 53.0716 211.003 52.8167C211.052 52.7996 211.08 52.79 211.083 52.7883ZM216.383 64.2761C216.512 64.2761 216.771 64.0589 217.03 63.5972C218.021 61.7233 220.09 57.1065 218.15 54.6895C217.547 53.9834 216.685 53.5217 215.478 53.3045C215.004 53.223 214.487 53.1687 214.013 53.1687C213.194 53.1687 212.418 53.2773 211.642 53.5217C210.478 53.902 205.952 55.6672 205.823 57.6497C205.737 58.6817 206.944 59.6865 209.401 60.6099C211.125 61.2616 212.59 62.2122 213.754 62.9726C213.812 63.0094 213.872 63.047 213.932 63.0851C214.848 63.6639 215.938 64.3526 216.383 64.2761Z" fill="#848484"/>
<path d="M600.411 47.4758C581.755 50.9278 568.813 60.9981 562.025 77.4014C558.899 84.9801 551.085 89.7557 538.827 91.5985C515.874 95.0764 479.148 87.0824 453.508 72.9891C432.948 61.7249 424.694 49.3446 430.848 39.0406C436.562 29.4894 438.173 19.1076 435.683 8.23266C435.145 5.94866 434.413 3.61276 433.534 1.27686H432.02C432.948 3.66467 433.68 6.00057 434.218 8.33648C436.708 19.1076 435.097 29.3856 429.48 38.833C423.132 49.4224 431.532 62.0623 452.483 73.5601C464.692 80.2564 480.027 85.8885 495.704 89.4183C506.839 91.9359 517.583 93.2077 527.057 93.2077C531.453 93.2077 535.555 92.9222 539.267 92.3771C551.867 90.4824 560.267 85.3694 563.49 77.5831C570.181 61.4653 582.732 51.6026 600.899 48.2285C626.783 43.4269 659.944 52.4591 686.999 62.9188V61.9585C659.748 51.4988 626.588 42.6483 600.411 47.4758Z" fill="#848484"/>
<path d="M608.609 27.05C592.724 28.7473 580.626 34.3615 572.708 43.6837C561.742 56.5834 547.824 65.6183 531.3 70.5797C513.596 75.8806 497.859 74.9928 487.777 73.3215C475.581 71.2848 465.057 67.0023 458.122 61.2575C450.942 55.33 448.287 48.3318 450.696 41.5686C455.663 27.52 457.532 13.9676 456.352 1.27686H454.877C456.057 13.9154 454.188 27.4156 449.27 41.4119C446.811 48.384 449.516 55.565 456.893 61.6492C464.024 67.5507 474.843 71.9376 487.384 74.0266C492.646 74.9144 498.055 75.3322 503.465 75.3322C513.153 75.3322 522.94 73.9482 532.038 71.2325C548.857 66.1928 562.971 57.0273 574.085 43.971C581.806 34.8838 593.511 29.4524 608.904 27.7812C621.395 26.4494 636.395 27.6506 652.279 31.3064C664.722 34.1526 677.311 38.4351 686.999 43.1093V42.0648C666.984 32.7164 634.723 24.256 608.609 27.05Z" fill="#848484"/>
<path d="M366.55 359.682C365.303 358.979 363.719 358.697 361.896 358.81C355.705 359.204 347.26 364.412 340.877 369H342.749C348.843 364.665 356.617 360.02 362.04 359.654C363.431 359.57 364.583 359.767 365.543 360.302C368.854 362.131 372.549 365.481 375.908 369H377.587C374.084 365.284 370.149 361.653 366.55 359.682Z" fill="#848484"/>
<path d="M672.47 26.415C655.789 25.5656 635.634 22.0616 617.142 16.7526C595.715 10.5942 577.811 19.7787 557.118 30.3968C541.366 38.493 523.51 47.651 501.399 50.9692C493.62 52.1372 487.603 51.5266 483.445 49.2172C469.307 41.2802 478.798 15.2926 485.255 1.27686H483.739C481.782 5.55061 479.532 10.8862 477.771 16.4606C472.34 33.7945 473.906 44.9965 482.418 49.7747C485.5 51.5001 489.462 52.3495 494.256 52.3495C496.605 52.3495 499.099 52.1372 501.839 51.739C524.244 48.3943 542.295 39.1566 558.145 30.9808C578.447 20.5751 595.96 11.5763 616.457 17.4693C635.34 22.9111 655.202 26.3619 672.323 27.2114C677.656 27.4768 682.548 27.4768 686.999 27.2114V26.415C682.645 26.6805 677.754 26.6805 672.47 26.415Z" fill="#848484"/>
<path d="M505.99 35.6726C506.78 35.7248 507.522 35.7509 508.313 35.7509C521.459 35.7509 536.139 28.1306 543.997 23.381C554.426 17.1177 564.558 8.97545 571.625 1.27686H569.994C563.026 8.79277 553.091 16.7262 542.91 22.859C528.873 31.3144 515.825 35.5943 506.187 34.8897C502.184 34.6026 499.564 33.6371 498.181 31.9929C492.991 25.7297 507.028 11.1676 518.049 1.30295H516.319C514.145 3.28632 511.822 5.42627 509.598 7.64451C497.489 19.6752 493.189 27.974 496.846 32.3061C498.428 34.2112 501.492 35.3334 505.99 35.6726Z" fill="#848484"/>
<path d="M523.664 19.1252C523.969 19.1523 524.325 19.1523 524.681 19.1523C527.733 19.1523 532.566 18.1773 539.281 14.0876C544.266 11.0813 549.048 6.99158 551.846 3.41649C552.304 2.82064 552.813 2.08938 553.27 1.30394H551.693C551.337 1.8727 550.93 2.46855 550.472 3.09148C544.724 10.4583 531.599 18.8814 523.918 18.2856C522.494 18.1773 521.578 17.8523 521.069 17.2564C518.475 14.1147 529.005 4.82486 533.533 1.27686H531.701C528.445 3.904 516.593 13.7897 519.696 17.5814C520.357 18.4752 521.731 18.9898 523.664 19.1252Z" fill="#848484"/>
<path d="M662.874 18.1385C653.311 17.4715 642.594 15.2304 630.964 11.4685C620.824 8.18691 611.741 4.29167 605.301 1.27686H603.091C609.675 4.39839 619.334 8.64047 630.243 12.1622C642.065 15.9774 652.974 18.2719 662.73 18.9389C664.749 19.0722 666.719 19.1523 668.689 19.1523C675.465 19.1523 681.569 18.2985 686.999 16.591V15.6572C680.031 17.925 672.005 18.7788 662.874 18.1385Z" fill="#848484"/>
<path fill-rule="evenodd" clip-rule="evenodd" d="M370.77 235.943C380.16 232.972 396.433 232.893 419.147 235.731C435.42 237.773 449.284 240.638 450.414 240.877C465.016 242.336 466.835 243.635 466.737 244.59C466.638 245.89 462.705 247.667 433.011 250.054C414.575 251.54 392.599 252.76 376.571 253.635L372.589 253.848C369.689 254.007 367.083 254.086 364.723 254.086C355.726 254.086 350.466 252.919 349.089 250.638C346.582 246.527 358.135 239.948 370.77 235.943ZM432.764 249.285C461.918 246.924 465.163 245.2 465.212 244.564C465.212 244.245 464.179 243.078 450.07 241.672L449.922 241.646C449.915 241.645 449.871 241.636 449.793 241.619C448.327 241.318 434.719 238.516 418.851 236.527C410.247 235.439 399.972 234.484 390.631 234.484C383.306 234.484 376.522 235.094 371.556 236.659C365.312 238.649 359.462 241.222 355.48 243.741C351.301 246.42 349.531 248.781 350.514 250.426C352.038 252.866 359.609 253.794 372.441 253.078L376.423 252.866C377.608 252.799 378.824 252.731 380.07 252.661C395.672 251.786 415.736 250.661 432.764 249.285Z" fill="#848484"/>
<path fill-rule="evenodd" clip-rule="evenodd" d="M382.852 69.2964C382.444 67.3031 387.998 64.9611 399.31 62.2951C406.749 60.551 415.615 61.0991 421.781 63.7153C426.673 65.7833 431.972 68.7233 429.322 71.1651C427.284 73.0586 420.813 74.0553 412.202 74.0553C406.444 74.0553 399.718 73.6068 392.686 72.6849C386.317 71.8627 383.107 70.7415 382.852 69.2964ZM393.094 71.9626C409.348 74.1053 424.991 73.5821 427.998 70.8165C429.679 69.2219 427.233 66.9794 420.813 64.2886C417.246 62.8185 412.813 62.0461 408.329 62.0461C405.476 62.0461 402.622 62.3451 399.973 62.968C389.629 65.4098 384.075 67.6272 384.381 69.2219C384.585 70.2932 387.591 71.24 393.094 71.9626Z" fill="#848484"/>
<path d="M538.312 359.633C512.598 357.911 497.496 346.376 478.445 331.761C473.115 327.69 467.587 323.462 461.368 319.078C445.772 308.091 428.301 301.488 409.497 299.453C388.126 297.156 364.633 300.706 339.709 309.996C312.318 320.2 272.686 336.615 238.681 351.856C229.155 356.136 216.718 361.825 204.527 367.723H206.699C216.372 363.078 227.378 357.963 239.618 352.457C273.574 337.242 313.157 320.827 340.499 310.649C386.942 293.346 427.215 296.347 460.134 319.574C466.304 323.932 471.831 328.16 477.162 332.231C496.459 347.002 511.71 358.642 538.065 360.416C556.77 361.669 567.48 364.122 570.047 367.723H571.626C569.208 363.678 558.004 360.964 538.312 359.633Z" fill="#848484"/>
<path d="M397.074 329.63C387.945 327.41 378.574 327.677 369.203 330.406C345.97 337.145 324.91 345.116 306.603 354.129C295.349 359.665 286.848 364.747 280.568 369H282.5C296.798 359.451 324.427 344.287 369.831 331.101C378.816 328.507 387.752 328.239 396.446 330.352C413.98 334.605 427.698 347.71 436.102 357.98C439.339 361.885 442.044 365.71 444.217 369H445.763C443.541 365.63 440.788 361.698 437.455 357.66C425.089 342.548 411.468 333.107 397.074 329.63Z" fill="#848484"/>
<path fill-rule="evenodd" clip-rule="evenodd" d="M166.211 275.607C164.388 273.71 164.7 270.971 169.806 269.443C177.465 267.152 187.937 268.205 192.053 269.996C193.824 270.76 194.449 271.656 193.772 272.499C192.417 274.29 187.207 276.134 178.35 277.951C177.048 278.215 175.745 278.346 174.547 278.346C170.692 278.346 167.67 277.082 166.211 275.607ZM177.724 277.214C186.06 275.502 191.114 273.763 192.312 272.209C192.833 271.551 191.895 270.945 190.957 270.602C188.769 269.654 184.445 268.943 179.86 268.943C176.682 268.943 173.4 269.285 170.534 270.128C166.262 271.393 165.95 273.605 167.565 275.238C169.18 276.871 173.035 278.188 177.724 277.214Z" fill="#848484"/>
<path fill-rule="evenodd" clip-rule="evenodd" d="M246.279 341.152C244.351 343.689 223.433 349.225 216.509 350.686C215.026 350.994 213.592 351.147 212.256 351.122C208.003 351.122 204.69 349.712 203.058 348.021C200.981 345.868 201.377 342.766 207.014 341.049C216.905 338.025 240.691 337.538 245.439 339.64C246.428 340.05 246.724 340.588 246.279 341.152ZM207.756 341.716C202.909 343.202 202.563 345.791 204.393 347.687C206.223 349.584 210.574 351.122 215.915 349.968C224.668 348.097 243.312 342.869 244.845 340.87C244.993 340.69 245.043 340.485 244.449 340.229C240.196 338.358 216.805 338.948 207.756 341.716Z" fill="#848484"/>
<path d="M41.6471 18.3093C49.9356 15.5574 47.2239 6.8056 44.4611 1.27686H42.875C43.5913 2.66524 44.2564 4.27675 44.8192 5.96265C46.1495 10.2518 46.5588 15.7805 40.8285 17.7143C34.0749 19.9456 20.3631 17.0201 0 9.01213V9.95425C15.7072 16.078 27.6283 19.1523 35.6098 19.1523C37.9633 19.1523 39.9587 18.8548 41.6471 18.3093Z" fill="#848484"/>
<path fill-rule="evenodd" clip-rule="evenodd" d="M331.938 192.799C324.794 192.799 317.164 192.427 311.721 191.36C303.945 189.872 303.507 187.59 304.625 185.953C305.743 184.192 308.027 182.902 311.478 182.134C317.65 180.769 327.37 181.092 340.346 183.126C349.92 184.639 357.842 186.549 357.939 186.573C362.022 187.615 362.167 188.607 361.633 189.252C360.029 191.112 349.92 192.204 341.026 192.601C338.256 192.725 335.146 192.799 331.938 192.799ZM312.012 182.828C308.95 183.498 306.909 184.639 305.937 186.201C304.721 188.111 306.811 189.624 312.255 190.691C318.67 191.931 329.653 192.377 340.88 191.881C351.232 191.41 359.202 190.219 360.271 188.979C360.806 188.334 358.911 187.69 357.258 187.268C356.772 187.144 335.68 182.084 320.517 182.084C317.358 182.084 314.442 182.282 312.012 182.828Z" fill="#848484"/>
</g>
</svg>
