<svg width="611" height="408" viewBox="0 0 611 408" fill="none" xmlns="http://www.w3.org/2000/svg">
<g clip-path="url(#clip0_29_14526)">
<path d="M554.587 131.25H468.512V217.325H554.587V131.25Z" fill="#EBEBEB"/>
<path d="M512.979 145.064C514.612 145.064 515.905 146.357 515.905 147.99V149.487C519.92 149.964 523.323 151.257 526.453 153.23C527.542 153.843 528.496 154.863 528.496 156.497C528.496 158.606 526.794 160.24 524.684 160.24C524.004 160.24 523.323 160.036 522.643 159.628C520.261 158.199 517.947 157.177 515.634 156.633V169.698C525.978 172.284 530.402 176.436 530.402 183.717C530.402 191.203 524.549 196.171 515.906 196.987V201.07C515.906 202.704 514.613 203.997 512.98 203.997C511.347 203.997 509.986 202.704 509.986 201.07V196.851C504.882 196.307 500.186 194.469 496.034 191.543C494.878 190.794 494.197 189.706 494.197 188.276C494.197 186.167 495.831 184.534 497.941 184.534C498.758 184.534 499.573 184.806 500.187 185.282C503.385 187.596 506.515 189.161 510.258 189.841V176.435C500.322 173.848 495.695 170.106 495.695 162.416C495.695 155.135 501.479 150.098 509.986 149.418V147.989C509.985 146.357 511.346 145.064 512.979 145.064ZM510.257 168.27V156.225C505.902 156.633 503.724 158.946 503.724 161.94C503.724 164.799 505.016 166.568 510.257 168.27ZM515.633 177.729V190.114C519.988 189.638 522.371 187.461 522.371 184.194C522.371 181.199 520.874 179.362 515.633 177.729Z" fill="white"/>
<path d="M142.489 37.4658H56.4133V123.541H142.489V37.4658Z" fill="#EBEBEB"/>
<path d="M125.474 78.6138H73.4278V71.2329H125.474V78.6138Z" fill="white"/>
<path d="M76.3288 77.0513L76.4266 78.6154L78.0559 104.432H120.85L122.472 78.6154L122.569 77.0513H76.3288ZM92.1659 98.7296C92.1659 99.5116 91.5468 100.147 90.7647 100.147H90.5447C89.9011 100.147 89.3798 99.6257 89.3798 98.9739V82.9739C89.3798 82.3385 89.9011 81.8171 90.5447 81.8171H90.9928C91.6608 81.8171 92.1659 82.3385 92.1659 82.9739V98.7296ZM100.834 98.7296C100.834 99.5116 100.215 100.147 99.4327 100.147H99.2128C98.5692 100.147 98.0478 99.6257 98.0478 98.9739V82.9739C98.0478 82.3385 98.5692 81.8171 99.2128 81.8171H99.6609C100.329 81.8171 100.834 82.3385 100.834 82.9739V98.7296ZM109.51 98.7296C109.51 99.5116 108.883 100.147 108.109 100.147H107.881C107.245 100.147 106.716 99.6257 106.716 98.9739V82.9739C106.716 82.3385 107.245 81.8171 107.881 81.8171H108.329C108.997 81.8171 109.51 82.3385 109.51 82.9739V98.7296Z" fill="white"/>
<path d="M104.986 74.095C104.986 77.1524 102.508 79.6306 99.4506 79.6306C96.3932 79.6306 93.915 77.1524 93.915 74.095C93.915 71.0375 96.3932 68.5593 99.4506 68.5593C102.508 68.5601 104.986 71.0384 104.986 74.095Z" fill="white"/>
<path d="M114.625 73.6444H112.181V59.0187H86.7214V73.6444H84.2774V56.5747H114.625V73.6444Z" fill="white"/>
<path d="M40.577 361.529C210.304 361.03 400.697 361.026 570.423 361.529C400.696 362.031 210.303 362.028 40.577 361.529Z" fill="#263238"/>
<path d="M40.5793 361.525L180.434 361.525L160.032 219.072H60.9679L40.5793 361.525Z" fill="#FFC727"/>
<path d="M60.9721 219.069L76.511 361.529H40.5769L60.9721 219.069Z" fill="#FFC727"/>
<path opacity="0.2" d="M60.9721 219.069L76.511 361.529H40.5769L60.9721 219.069Z" fill="black"/>
<path d="M132.134 228.892L136.505 227.967C136.479 227.848 133.947 215.879 131.238 203.799C128.309 190.74 115.467 184.732 104.737 186.463C96.7031 187.762 87.798 194.029 89.1406 207.42C90.576 221.755 91.662 228.507 91.7076 228.788L96.1166 228.072C96.1068 228.006 95.0062 221.15 93.5846 206.975C92.5532 196.684 99.0364 191.91 105.449 190.874C114.125 189.471 124.524 194.287 126.877 204.776C129.581 216.828 132.109 228.772 132.134 228.892Z" fill="#263238"/>
<path d="M74.6194 360.437C71.7428 358.391 68.7677 356.518 65.7917 354.643C62.8019 352.794 59.7803 350.999 56.7253 349.262L56.3041 349.023L55.9236 349.307C53.557 351.078 51.1945 352.854 48.902 354.725C46.5875 356.566 44.2975 358.442 42.0833 360.418C44.6275 358.888 47.0959 357.257 49.5399 355.591C52.0059 353.955 54.4018 352.224 56.7937 350.488L55.9929 350.533C59.0251 352.309 62.0898 354.029 65.1872 355.692C68.2984 357.331 71.4096 358.97 74.6194 360.437Z" fill="white"/>
<path d="M56.3594 349.898C56.9753 340.814 57.4282 331.725 57.8567 322.635C58.2885 313.545 58.5867 304.45 58.9582 295.358C59.2091 286.262 59.5244 277.168 59.715 268.07L59.9708 254.421C60.0017 249.87 60.084 245.32 60.0702 240.767C59.7468 245.309 59.5203 249.853 59.2417 254.397L58.5704 268.031C58.1419 277.121 57.8388 286.216 57.4714 295.308C57.2245 304.404 56.9044 313.498 56.7178 322.597C56.5264 331.694 56.3618 340.793 56.3594 349.898Z" fill="white"/>
<path d="M128.384 228.429C128.384 231.707 131.042 234.365 134.32 234.365C137.598 234.365 140.256 231.707 140.256 228.429C140.256 225.151 137.598 222.493 134.32 222.493C131.042 222.493 128.384 225.151 128.384 228.429Z" fill="#263238"/>
<path d="M88.4338 228.429C88.4338 231.707 91.0912 234.365 94.3694 234.365C97.6477 234.365 100.305 231.707 100.306 228.429C100.306 225.151 97.6485 222.493 94.3702 222.493C91.0912 222.493 88.4338 225.151 88.4338 228.429Z" fill="#263238"/>
<path d="M561.229 224.308C562.364 220.5 560.637 215.342 551.466 212.812C537.529 208.971 527.509 223.397 526.309 225.215C527.594 223.12 539.741 204.101 553.819 207.907C564.952 210.919 564.329 219.511 561.229 224.308Z" fill="#455A64"/>
<path d="M561.229 224.308C560.172 225.927 558.832 227.117 557.569 227.506C552.671 229.016 541.55 229.947 527.149 225.69C526.829 225.595 526.512 225.495 526.192 225.4C526.192 225.4 526.231 225.337 526.309 225.215C526.333 225.185 526.352 225.146 526.38 225.109C526.414 225.119 526.459 225.124 526.495 225.127C541.635 227.324 552.18 225.709 556.505 224.15C558.205 223.535 559.562 221.468 559.732 219.051C559.768 218.496 559.744 217.923 559.644 217.35C561.6 219.625 561.865 222.179 561.229 224.308Z" fill="#37474F"/>
<path d="M552.17 204.439C550.298 200.021 545.222 195.889 536.259 198.591C522.641 202.701 525.289 222.687 525.672 225.17C525.154 222.363 520.838 196.618 534.54 192.395C545.377 189.056 551.111 197.925 552.17 204.439Z" fill="#455A64"/>
<path d="M552.17 204.439C552.521 206.644 552.34 208.583 551.638 209.685C548.921 213.964 540.948 221.203 526.668 225.163C526.351 225.251 526.031 225.331 525.714 225.419C525.714 225.419 525.699 225.334 525.672 225.17C525.668 225.126 525.655 225.076 525.649 225.023C525.682 225.013 525.722 224.994 525.753 224.977C539.116 218.555 546.148 210.965 548.384 206.964C549.26 205.391 548.82 202.572 547.203 200.08C546.829 199.509 546.396 198.955 545.904 198.444C549.071 199.587 551.126 201.967 552.17 204.439Z" fill="#37474F"/>
<path d="M490.07 224.308C488.935 220.5 490.661 215.342 499.833 212.812C513.77 208.971 523.79 223.397 524.99 225.215C523.705 223.12 511.558 204.101 497.479 207.907C486.346 210.919 486.97 219.511 490.07 224.308Z" fill="#455A64"/>
<path d="M490.07 224.308C491.127 225.927 492.466 227.117 493.73 227.506C498.628 229.016 509.749 229.947 524.15 225.69C524.47 225.595 524.787 225.495 525.107 225.4C525.107 225.4 525.067 225.337 524.99 225.215C524.966 225.185 524.947 225.146 524.919 225.109C524.886 225.119 524.84 225.124 524.803 225.127C509.663 227.324 499.119 225.709 494.793 224.15C493.094 223.535 491.737 221.468 491.567 219.051C491.531 218.496 491.554 217.923 491.654 217.35C489.699 219.625 489.433 222.179 490.07 224.308Z" fill="#37474F"/>
<path d="M498.202 204.439C500.075 200.021 505.15 195.889 514.114 198.591C527.731 202.701 525.084 222.687 524.701 225.17C525.219 222.363 529.535 196.618 515.832 192.395C504.995 189.056 499.262 197.925 498.202 204.439Z" fill="#455A64"/>
<path d="M498.202 204.439C497.851 206.643 498.032 208.583 498.734 209.685C501.45 213.964 509.425 221.203 523.704 225.163C524.022 225.251 524.341 225.331 524.658 225.419C524.658 225.419 524.673 225.334 524.7 225.17C524.704 225.126 524.718 225.076 524.723 225.023C524.69 225.013 524.65 224.994 524.619 224.977C511.256 218.555 504.225 210.965 501.988 206.964C501.112 205.391 501.552 202.572 503.17 200.08C503.544 199.509 503.977 198.955 504.469 198.444C501.301 199.587 499.247 201.967 498.202 204.439Z" fill="#37474F"/>
<path d="M555.256 361.529H480.96L483.682 229.647L547.836 227.355L555.256 361.529Z" fill="#FFC727"/>
<path opacity="0.6" d="M555.256 361.529H480.96L483.682 229.647L547.836 227.355L555.256 361.529Z" fill="white"/>
<path d="M570.448 361.529H549.339L546.106 227.355L567.879 231.417L570.448 361.529Z" fill="#FFC727"/>
<path d="M479.95 227.553V245.911L546.106 243.642V222.633L479.95 227.553Z" fill="#FFC727"/>
<path opacity="0.4" d="M479.95 227.553V245.911L546.106 243.642V222.633L479.95 227.553Z" fill="white"/>
<path d="M570.985 245.911L546.106 243.642V222.633L572.402 227.553L570.985 245.911Z" fill="#FFC727"/>
<path opacity="0.1" d="M570.985 245.911L546.106 243.642V222.633L572.402 227.553L570.985 245.911Z" fill="black"/>
<path d="M504.904 225.697L505.761 361.529H523.3L521.77 224.594L504.904 225.697Z" fill="#455A64"/>
<path d="M556.588 224.594L563.182 225.828V361.529H557.667L556.588 224.594Z" fill="#455A64"/>
<path d="M514.485 256.952C514.343 258.767 513.85 260.382 512.977 261.635C512.931 261.32 512.864 260.993 512.785 260.667C512.711 260.335 512.613 259.997 512.501 259.654C511.891 257.755 510.751 255.646 508.846 253.353C508.671 253.145 508.496 252.939 508.308 252.726C508.261 252.671 508.215 252.622 508.161 252.568C508.161 252.561 508.161 252.561 508.161 252.561C508.074 252.464 507.977 252.375 507.9 252.276C493.124 233.549 479.053 263.888 478.756 264.587C478.75 264.594 478.75 264.6 478.75 264.6C478.75 264.6 477.941 234.343 494.074 233.504C506.714 232.843 515.225 247.601 514.485 256.952Z" fill="#FFC727"/>
<path d="M512.978 261.635C512.61 262.166 512.17 262.638 511.656 263.03C503.952 268.928 480.293 264.869 478.823 264.616L478.752 264.6C500.994 266.742 507.096 258.65 508.162 252.568C508.216 252.622 508.262 252.671 508.31 252.726C508.497 252.939 508.672 253.146 508.847 253.353C510.739 255.654 511.886 257.756 512.503 259.654C512.614 259.998 512.706 260.336 512.786 260.667C512.865 260.993 512.931 261.32 512.978 261.635Z" fill="#FFC727"/>
<path opacity="0.2" d="M512.978 261.635C512.61 262.166 512.17 262.638 511.656 263.03C503.952 268.928 480.293 264.869 478.823 264.616L478.752 264.6C500.994 266.742 507.096 258.65 508.162 252.568C508.216 252.622 508.262 252.671 508.31 252.726C508.497 252.939 508.672 253.146 508.847 253.353C510.739 255.654 511.886 257.756 512.503 259.654C512.614 259.998 512.706 260.336 512.786 260.667C512.865 260.993 512.931 261.32 512.978 261.635Z" fill="black"/>
<path d="M442.453 260.39C442.767 262.182 443.412 263.744 444.4 264.908C444.416 264.59 444.451 264.258 444.5 263.926C444.54 263.588 444.606 263.243 444.684 262.89C445.111 260.942 446.047 258.735 447.724 256.27C447.878 256.047 448.033 255.823 448.199 255.594C448.24 255.536 448.283 255.483 448.33 255.423C448.329 255.417 448.329 255.417 448.329 255.417C448.407 255.312 448.494 255.213 448.562 255.108C461.488 235.059 478.384 263.921 478.746 264.588C478.752 264.594 478.752 264.601 478.752 264.601C478.752 264.601 476.677 234.404 460.539 235.105C447.893 235.65 440.826 251.15 442.453 260.39Z" fill="#FFC727"/>
<path d="M444.399 264.907C444.815 265.401 445.299 265.828 445.848 266.17C454.078 271.307 477.243 265.014 478.683 264.622L478.751 264.6C456.815 268.849 449.97 261.375 448.329 255.423C448.281 255.482 448.239 255.534 448.198 255.594C448.032 255.823 447.877 256.047 447.723 256.269C446.059 258.739 445.118 260.94 444.683 262.889C444.605 263.242 444.546 263.587 444.498 263.925C444.45 264.258 444.416 264.589 444.399 264.907Z" fill="#FFC727"/>
<path opacity="0.2" d="M444.399 264.907C444.815 265.401 445.299 265.828 445.848 266.17C454.078 271.307 477.243 265.014 478.683 264.622L478.751 264.6C456.815 268.849 449.97 261.375 448.329 255.423C448.281 255.482 448.239 255.534 448.198 255.594C448.032 255.823 447.877 256.047 447.723 256.269C446.059 258.739 445.118 260.94 444.683 262.889C444.605 263.242 444.546 263.587 444.498 263.925C444.45 264.258 444.416 264.589 444.399 264.907Z" fill="black"/>
<path d="M512.978 361.529H437.853L440.01 272.28L513.432 271.187L512.978 361.529Z" fill="#455A64"/>
<path d="M539.87 361.529H512.978L511.429 271.187L538.12 273.42L539.87 361.529Z" fill="#37474F"/>
<path d="M437.338 268.084V287.031L511.429 284.783V263.1L437.338 268.084Z" fill="#37474F"/>
<path d="M540.232 287.125L511.429 284.783V263.1L541.871 268.178L540.232 287.125Z" fill="#263238"/>
<path d="M485.333 361.529H467.333L465.521 266.144L486.776 264.735L485.333 361.529Z" fill="#FFC727"/>
<path d="M526.195 361.529H532.317L531.774 266.494L523.217 265.066L526.195 361.529Z" fill="#FFC727"/>
<path d="M496.672 361.529H114.328C108.527 361.529 103.825 356.826 103.825 351.025V102.174C103.825 96.3727 108.527 91.6704 114.328 91.6704H496.672C502.474 91.6704 507.176 96.3727 507.176 102.174V351.025C507.176 356.826 502.474 361.529 496.672 361.529Z" fill="#263238"/>
<path d="M479.191 103.056H132.056V349.83H479.191V103.056Z" fill="white"/>
<path d="M121.286 255.965H119.129C118.566 255.965 118.111 255.509 118.111 254.947V198.256C118.111 197.693 118.567 197.237 119.129 197.237H121.286C121.849 197.237 122.305 197.694 122.305 198.256V254.947C122.305 255.51 121.848 255.965 121.286 255.965Z" fill="#455A64"/>
<path d="M500.223 228.374C501.191 224.293 498.667 220.2 494.586 219.232C490.504 218.264 486.411 220.789 485.443 224.87C484.476 228.951 487 233.044 491.081 234.012C495.163 234.98 499.256 232.456 500.223 228.374Z" fill="#455A64"/>
<path d="M479.191 103.056H132.056V349.83H479.191V103.056Z" fill="white"/>
<path d="M479.191 103.054H132.056V111.533H479.191V103.054Z" fill="#455A64"/>
<path d="M138.746 107.294C138.746 108.254 137.968 109.032 137.009 109.032C136.049 109.032 135.271 108.254 135.271 107.294C135.271 106.334 136.049 105.556 137.009 105.556C137.968 105.556 138.746 106.334 138.746 107.294Z" fill="#C7C7C7"/>
<path d="M144.104 109.032C145.063 109.032 145.841 108.254 145.841 107.294C145.841 106.334 145.063 105.556 144.104 105.556C143.144 105.556 142.366 106.334 142.366 107.294C142.366 108.254 143.144 109.032 144.104 109.032Z" fill="white"/>
<path d="M151.198 109.032C152.158 109.032 152.936 108.254 152.936 107.294C152.936 106.334 152.158 105.556 151.198 105.556C150.239 105.556 149.461 106.334 149.461 107.294C149.461 108.254 150.239 109.032 151.198 109.032Z" fill="#FFC727"/>
<path d="M456.932 186.172H365.405V304.203H456.932V186.172Z" fill="white"/>
<path d="M456.932 304.203C456.858 304.224 365.388 304.277 365.316 304.292C365.294 304.272 365.217 186.217 365.201 186.172V185.969H365.405C365.505 185.948 456.953 186.072 457.048 186.056C457.157 186.121 456.853 304.117 456.932 304.203ZM456.932 304.203L456.816 186.172C457.605 186.402 365.201 186.336 365.405 186.375L365.608 186.172L365.494 304.203C364.891 304.087 457.087 304.19 456.932 304.203Z" fill="#C7C7C7"/>
<path d="M454.158 188.575H368.176V274.558H454.158V188.575Z" fill="#EBEBEB"/>
<path d="M428.063 196.327V200.266L411.171 200.259V200.266H394.271V196.327H428.063Z" fill="#455A64"/>
<path d="M423.154 202.663H428.063V208.217C423.238 207.964 423.154 202.663 423.154 202.663Z" fill="#455A64"/>
<path d="M428.063 210.952V266.806H415.004L411.17 215.139L407.329 266.806H394.27V210.952C396.452 210.576 401.66 209.009 401.66 202.664H409.756C409.756 207.012 409.633 210.845 411.162 210.86H411.17C412.699 210.845 412.576 207.012 412.576 202.664H420.672C420.673 209.009 425.881 210.575 428.063 210.952Z" fill="#455A64"/>
<path d="M394.271 208.218V202.664H399.179C399.179 202.664 399.096 207.964 394.271 208.218Z" fill="#455A64"/>
<path d="M446.682 199.815C442.353 197.073 442.514 193.754 443.697 193.055C445.176 192.195 446.305 193.727 446.682 195.206C447.058 193.727 448.188 192.195 449.639 193.055C450.823 193.755 450.984 197.073 446.682 199.815Z" fill="#FFC727"/>
<path d="M454.159 291.04H422.373V299.506H454.159V291.04Z" fill="white"/>
<path d="M454.159 299.506C446.237 299.571 430.295 299.661 422.373 299.68L422.198 299.681L422.198 299.506L422.169 291.041L422.168 290.836L422.373 290.837C422.468 290.84 454.159 290.954 454.244 290.957L454.243 291.041L454.159 299.506ZM454.159 299.506L454.075 291.04L454.159 291.124L422.373 291.243L422.576 291.04L422.547 299.505L422.373 299.331L438.22 299.393L454.159 299.506Z" fill="#C7C7C7"/>
<path d="M368.177 279.449C381.675 278.901 395.273 278.901 408.775 279.449C395.272 279.997 381.676 279.996 368.177 279.449Z" fill="#C7C7C7"/>
<path d="M368.177 284.136C386.982 283.869 407.668 283.867 426.474 284.136C407.668 284.404 386.983 284.402 368.177 284.136Z" fill="#C7C7C7"/>
<path d="M245.596 186.172H154.068V304.203H245.596V186.172Z" fill="white"/>
<path d="M245.596 304.203C245.522 304.224 154.052 304.277 153.98 304.292C153.958 304.272 153.882 186.217 153.865 186.172V185.969H154.068C154.168 185.948 245.616 186.072 245.712 186.056C245.822 186.121 245.517 304.117 245.596 304.203ZM245.596 304.203L245.48 186.172C246.269 186.402 153.865 186.336 154.069 186.375L154.272 186.172L154.158 304.203C153.556 304.087 245.751 304.19 245.596 304.203Z" fill="#C7C7C7"/>
<path d="M242.823 188.575H156.841V274.558H242.823V188.575Z" fill="#EBEBEB"/>
<path d="M222.689 257.184H176.976L177.113 255.293L177.212 253.9L177.337 252.246L177.436 250.84L177.561 249.198L177.66 247.793L177.785 246.138L177.884 244.745L180.708 205.948H188.22C188.22 212.354 193.42 217.554 199.826 217.554C206.245 217.554 211.444 212.355 211.444 205.948H218.957L221.781 244.745L221.88 246.138L222.005 247.793L222.104 249.198L222.229 250.84L222.328 252.246L222.453 253.9L222.552 255.293L222.689 257.184Z" fill="#455A64"/>
<path d="M180.707 205.948L166.714 223.309L178.715 233.321L180.707 205.948Z" fill="#263238"/>
<path d="M218.957 205.948L232.95 223.309L220.949 233.321L218.957 205.948Z" fill="#263238"/>
<path d="M235.346 199.815C231.017 197.073 231.178 193.754 232.361 193.055C233.84 192.195 234.969 193.727 235.346 195.206C235.722 193.727 236.852 192.195 238.303 193.055C239.487 193.755 239.648 197.073 235.346 199.815Z" fill="#FFC727"/>
<path d="M242.823 291.04H211.036V299.506H242.823V291.04Z" fill="white"/>
<path d="M242.823 299.506C234.901 299.571 218.959 299.661 211.037 299.68L210.862 299.681L210.861 299.506L210.833 291.041L210.832 290.836L211.036 290.837C211.131 290.84 242.822 290.954 242.907 290.957L242.906 291.041L242.823 299.506ZM242.823 299.506L242.739 291.04L242.823 291.124L211.037 291.243L211.239 291.04L211.211 299.505L211.037 299.331L226.883 299.393L242.823 299.506Z" fill="#C7C7C7"/>
<path d="M156.841 279.449C170.339 278.901 183.938 278.901 197.439 279.449C183.937 279.997 170.34 279.996 156.841 279.449Z" fill="#C7C7C7"/>
<path d="M156.841 284.136C175.647 283.869 196.332 283.867 215.138 284.136C196.333 284.404 175.647 284.402 156.841 284.136Z" fill="#C7C7C7"/>
<path d="M351.264 186.172H259.737V304.203H351.264V186.172Z" fill="white"/>
<path d="M351.264 304.203C351.19 304.224 259.72 304.277 259.648 304.292C259.626 304.272 259.549 186.217 259.533 186.172V185.969H259.737C259.837 185.948 351.285 186.072 351.38 186.056C351.49 186.121 351.185 304.117 351.264 304.203ZM351.264 304.203L351.147 186.172C351.936 186.402 259.532 186.336 259.736 186.375L259.939 186.172L259.825 304.203C259.224 304.087 351.419 304.19 351.264 304.203Z" fill="#C7C7C7"/>
<path d="M348.491 291.04H316.705V299.506H348.491V291.04Z" fill="white"/>
<path d="M348.491 299.506C340.569 299.571 324.627 299.661 316.705 299.68L316.53 299.681L316.53 299.506L316.501 291.041L316.5 290.836L316.704 290.837C316.799 290.84 348.49 290.954 348.575 290.957L348.575 291.041L348.491 299.506ZM348.491 299.506L348.408 291.04L348.491 291.124L316.705 291.243L316.908 291.04L316.879 299.505L316.705 299.331L332.552 299.393L348.491 299.506Z" fill="#C7C7C7"/>
<path d="M262.509 279.449C276.007 278.901 289.605 278.901 303.107 279.449C289.605 279.997 276.008 279.996 262.509 279.449Z" fill="#C7C7C7"/>
<path d="M262.509 284.136C281.314 283.869 302 283.867 320.806 284.136C302 284.404 281.315 284.402 262.509 284.136Z" fill="#C7C7C7"/>
<path d="M348.491 188.575H262.509V274.558H348.491V188.575Z" fill="#EBEBEB"/>
<path d="M341.014 199.815C336.685 197.073 336.846 193.754 338.029 193.055C339.508 192.195 340.637 193.727 341.014 195.206C341.39 193.727 342.519 192.195 343.971 193.055C345.155 193.755 345.316 197.073 341.014 199.815Z" fill="#FFC727"/>
<path d="M316.979 234.249C310.895 235.191 307.818 231.4 307.818 231.4H303.181C303.181 231.4 300.097 235.19 294.02 234.243C287.942 233.295 285.806 226.428 287.942 221.531C290.071 216.635 290.993 216.078 291.65 214.108C292.402 211.846 294.019 204.789 294.809 204.232C295.599 203.682 297.444 204.207 297.387 205.104C297.336 206.001 294.601 216.842 294.916 217.424C295.232 218.006 298.966 220.217 300.653 222.372C302.34 224.532 303.496 227.691 305.498 227.691C307.495 227.691 308.658 224.532 310.345 222.372C312.026 220.217 315.766 218.006 316.082 217.424C316.398 216.842 313.662 206.001 313.605 205.104C313.555 204.207 315.4 203.682 316.189 204.238C316.979 204.788 318.597 211.844 319.349 214.107C320 216.078 320.928 216.634 323.057 221.53C325.192 226.428 323.057 233.302 316.979 234.249Z" fill="#FFC727"/>
<path d="M323.866 245.54C323.38 245.622 316.588 247.202 313.113 250.828C309.637 254.461 308.292 258.334 307.9 258.725C307.502 259.123 305.499 259.123 305.499 259.123C305.499 259.123 303.497 259.123 303.105 258.725C302.708 258.333 301.362 254.467 297.886 250.828C294.412 247.202 287.626 245.622 287.133 245.54C286.646 245.457 286.912 240.719 287.777 241.035C292.73 242.835 304.836 243.013 305.499 243.013C306.163 243.013 318.269 242.836 323.222 241.041C324.087 240.725 324.352 245.464 323.866 245.54Z" fill="#FFC727"/>
<path d="M292.736 244.817C292.736 245.444 292.229 245.951 291.602 245.951C290.975 245.951 290.468 245.444 290.468 244.817C290.468 244.19 290.975 243.683 291.602 243.683C292.229 243.683 292.736 244.19 292.736 244.817Z" fill="#FFC727"/>
<path d="M299.687 244.817C299.687 245.444 299.18 245.951 298.553 245.951C297.926 245.951 297.419 245.444 297.419 244.817C297.419 244.19 297.926 243.683 298.553 243.683C299.18 243.683 299.687 244.19 299.687 244.817Z" fill="#FFC727"/>
<path d="M303.156 249.967C303.156 250.594 302.649 251.101 302.022 251.101C301.394 251.101 300.888 250.594 300.888 249.967C300.888 249.339 301.394 248.833 302.022 248.833C302.648 248.833 303.156 249.339 303.156 249.967Z" fill="#FFC727"/>
<path d="M306.637 255.156C306.637 255.784 306.131 256.29 305.503 256.29C304.876 256.29 304.369 255.784 304.369 255.156C304.369 254.529 304.876 254.022 305.503 254.022C306.131 254.022 306.637 254.53 306.637 255.156Z" fill="#FFC727"/>
<path d="M306.637 244.817C306.637 245.444 306.131 245.951 305.503 245.951C304.876 245.951 304.369 245.444 304.369 244.817C304.369 244.19 304.876 243.683 305.503 243.683C306.131 243.683 306.637 244.19 306.637 244.817Z" fill="#FFC727"/>
<path d="M310.106 249.967C310.106 250.594 309.6 251.101 308.972 251.101C308.345 251.101 307.838 250.594 307.838 249.967C307.838 249.339 308.345 248.833 308.972 248.833C309.599 248.833 310.106 249.339 310.106 249.967Z" fill="#FFC727"/>
<path d="M313.588 244.817C313.588 245.444 313.082 245.951 312.454 245.951C311.827 245.951 311.32 245.444 311.32 244.817C311.32 244.19 311.827 243.683 312.454 243.683C313.081 243.683 313.588 244.19 313.588 244.817Z" fill="#FFC727"/>
<path d="M320.525 244.817C320.525 245.444 320.018 245.951 319.405 245.951C318.778 245.951 318.271 245.444 318.271 244.817C318.271 244.19 318.778 243.683 319.405 243.683C320.018 243.683 320.525 244.19 320.525 244.817Z" fill="#FFC727"/>
<path d="M292.736 244.817C292.736 245.444 292.229 245.951 291.602 245.951C290.975 245.951 290.468 245.444 290.468 244.817C290.468 244.19 290.975 243.683 291.602 243.683C292.229 243.683 292.736 244.19 292.736 244.817ZM298.553 243.683C297.925 243.683 297.419 244.19 297.419 244.817C297.419 245.444 297.925 245.951 298.553 245.951C299.18 245.951 299.687 245.444 299.687 244.817C299.687 244.19 299.18 243.683 298.553 243.683ZM305.503 243.683C304.876 243.683 304.369 244.19 304.369 244.817C304.369 245.444 304.876 245.951 305.503 245.951C306.131 245.951 306.637 245.444 306.637 244.817C306.637 244.19 306.131 243.683 305.503 243.683ZM312.454 243.683C311.827 243.683 311.32 244.19 311.32 244.817C311.32 245.444 311.827 245.951 312.454 245.951C313.081 245.951 313.588 245.444 313.588 244.817C313.588 244.19 313.081 243.683 312.454 243.683ZM319.405 243.683C318.778 243.683 318.271 244.19 318.271 244.817C318.271 245.444 318.778 245.951 319.405 245.951C320.018 245.951 320.525 245.444 320.525 244.817C320.525 244.19 320.018 243.683 319.405 243.683ZM305.503 254.022C304.876 254.022 304.369 254.529 304.369 255.156C304.369 255.783 304.876 256.29 305.503 256.29C306.131 256.29 306.637 255.783 306.637 255.156C306.637 254.53 306.131 254.022 305.503 254.022ZM302.022 248.833C301.394 248.833 300.887 249.339 300.887 249.967C300.887 250.594 301.394 251.101 302.022 251.101C302.649 251.101 303.156 250.594 303.156 249.967C303.156 249.339 302.648 248.833 302.022 248.833ZM308.972 248.833C308.345 248.833 307.838 249.339 307.838 249.967C307.838 250.594 308.345 251.101 308.972 251.101C309.6 251.101 310.106 250.594 310.106 249.967C310.106 249.339 309.599 248.833 308.972 248.833Z" fill="white"/>
<path d="M292.736 214.867C292.736 215.494 292.229 216.001 291.602 216.001C291.336 216.001 291.095 215.907 290.908 215.748C291.201 215.214 291.441 214.733 291.655 214.107C291.695 214 291.722 213.88 291.762 213.747C292.309 213.827 292.736 214.293 292.736 214.867ZM319.351 214.107C319.311 214 319.284 213.893 319.231 213.76C318.685 213.827 318.271 214.293 318.271 214.867C318.271 215.494 318.778 216.001 319.405 216.001C319.658 216.001 319.899 215.907 320.085 215.748C319.791 215.214 319.565 214.734 319.351 214.107ZM295.075 208.543C294.449 208.543 293.942 209.051 293.942 209.677C293.942 210.302 294.449 210.81 295.075 210.81C295.701 210.81 296.208 210.302 296.208 209.677C296.208 209.051 295.701 208.543 295.075 208.543ZM315.924 208.543C315.298 208.543 314.791 209.051 314.791 209.677C314.791 210.302 315.298 210.81 315.924 210.81C316.55 210.81 317.057 210.302 317.057 209.677C317.057 209.051 316.55 208.543 315.924 208.543ZM291.6 224.064C290.975 224.064 290.467 224.572 290.467 225.198C290.467 225.823 290.975 226.331 291.6 226.331C292.226 226.331 292.734 225.823 292.734 225.198C292.733 224.571 292.226 224.064 291.6 224.064ZM298.549 224.064C297.924 224.064 297.416 224.572 297.416 225.198C297.416 225.823 297.924 226.331 298.549 226.331C299.175 226.331 299.683 225.823 299.683 225.198C299.683 224.571 299.175 224.064 298.549 224.064ZM312.449 224.064C311.824 224.064 311.316 224.572 311.316 225.198C311.316 225.823 311.824 226.331 312.449 226.331C313.075 226.331 313.582 225.823 313.582 225.198C313.582 224.571 313.075 224.064 312.449 224.064ZM319.398 224.064C318.773 224.064 318.265 224.572 318.265 225.198C318.265 225.823 318.773 226.331 319.398 226.331C320.024 226.331 320.532 225.823 320.532 225.198C320.532 224.571 320.024 224.064 319.398 224.064ZM288.974 219.283C288.721 219.817 288.427 220.43 288.12 221.137C288.747 221.137 289.254 220.631 289.254 220.016C289.254 219.736 289.147 219.483 288.974 219.283ZM295.075 218.878C294.449 218.878 293.942 219.385 293.942 220.011C293.942 220.636 294.449 221.144 295.075 221.144C295.701 221.144 296.208 220.636 296.208 220.011C296.208 219.385 295.701 218.878 295.075 218.878ZM315.924 218.878C315.298 218.878 314.791 219.385 314.791 220.011C314.791 220.636 315.298 221.144 315.924 221.144C316.55 221.144 317.057 220.636 317.057 220.011C317.057 219.385 316.55 218.878 315.924 218.878ZM322.019 219.283C321.846 219.484 321.739 219.737 321.739 220.017C321.739 220.631 322.246 221.138 322.873 221.138C322.567 220.43 322.286 219.817 322.019 219.283ZM288.12 229.208C288.026 229.208 287.934 229.221 287.853 229.248C288.133 229.928 288.48 230.569 288.907 231.156C289.121 230.956 289.254 230.662 289.254 230.342C289.254 229.716 288.747 229.208 288.12 229.208ZM295.075 229.212C294.449 229.212 293.942 229.719 293.942 230.345C293.942 230.97 294.449 231.478 295.075 231.478C295.701 231.478 296.208 230.97 296.208 230.345C296.208 229.718 295.701 229.212 295.075 229.212ZM302.025 229.212C301.399 229.212 300.892 229.719 300.892 230.345C300.892 230.97 301.399 231.478 302.025 231.478C302.65 231.478 303.158 230.97 303.158 230.345C303.157 229.718 302.65 229.212 302.025 229.212ZM308.974 229.212C308.348 229.212 307.841 229.719 307.841 230.345C307.841 230.97 308.348 231.478 308.974 231.478C309.6 231.478 310.107 230.97 310.107 230.345C310.107 229.718 309.6 229.212 308.974 229.212ZM315.924 229.212C315.298 229.212 314.791 229.719 314.791 230.345C314.791 230.97 315.298 231.478 315.924 231.478C316.55 231.478 317.057 230.97 317.057 230.345C317.057 229.718 316.55 229.212 315.924 229.212ZM322.873 229.208C322.246 229.208 321.739 229.715 321.739 230.342C321.739 230.662 321.873 230.956 322.086 231.156C322.526 230.583 322.873 229.928 323.14 229.248C323.06 229.222 322.967 229.208 322.873 229.208Z" fill="white"/>
<path d="M406.825 152.387H204.175V163.772H406.825V152.387Z" fill="white"/>
<path d="M406.942 163.888H204.059V152.272H406.941V163.888H406.942Z" fill="white"/>
<path d="M406.942 163.888C406.752 163.699 203.669 164.44 203.871 163.888C203.871 163.887 203.859 152.271 203.859 152.271C203.669 151.711 406.769 152.415 406.959 152.27C406.958 152.272 406.942 163.888 406.942 163.888ZM406.942 163.888L406.925 152.272C407.057 152.129 203.205 152.833 204.259 152.273C204.26 152.272 204.248 163.888 204.248 163.888C202.96 163.356 407.277 164.063 406.942 163.888Z" fill="#C7C7C7"/>
<path d="M402.838 160.634L401.997 161.272L400.438 159.214L399.867 158.461C399.981 158.417 400.091 158.354 400.194 158.276C400.392 158.125 400.536 157.93 400.627 157.715L401.233 158.514L402.838 160.634Z" fill="#C7C7C7"/>
<path d="M401.181 155.787C400.409 154.781 398.967 154.59 397.961 155.362C396.955 156.135 396.764 157.577 397.536 158.584C398.23 159.489 399.464 159.733 400.437 159.213C400.547 159.154 400.654 159.086 400.755 159.008C400.943 158.864 401.102 158.696 401.232 158.514C401.8 157.714 401.809 156.607 401.181 155.787ZM400.194 158.275C400.091 158.354 399.981 158.416 399.867 158.46C399.309 158.683 398.652 158.521 398.269 158.022C397.808 157.42 397.92 156.556 398.522 156.095C399.124 155.634 399.986 155.748 400.449 156.35C400.758 156.754 400.809 157.276 400.626 157.714C400.536 157.929 400.392 158.124 400.194 158.275Z" fill="#C7C7C7"/>
<path d="M207.167 154.625H206.556V161.534H207.167V154.625Z" fill="#C7C7C7"/>
<path d="M166.183 153.373H156.841V154.793H166.183V153.373Z" fill="#C7C7C7"/>
<path d="M166.183 161.367H156.841V162.788H166.183V161.367Z" fill="#C7C7C7"/>
<path d="M166.183 157.407H156.841V158.827H166.183V157.407Z" fill="#C7C7C7"/>
<path d="M450.182 160.982H441.363C441.197 160.982 441.049 160.875 440.997 160.717L438.478 153.013H436.423C436.21 153.013 436.038 152.84 436.038 152.628C436.038 152.415 436.21 152.242 436.423 152.242H438.758C438.924 152.242 439.072 152.349 439.123 152.508L441.642 160.211H450.182C450.394 160.211 450.567 160.384 450.567 160.597C450.567 160.809 450.394 160.982 450.182 160.982Z" fill="#FFC727"/>
<path d="M449.327 163.917C448.645 163.917 448.089 163.361 448.089 162.678C448.089 161.996 448.645 161.44 449.327 161.44C450.01 161.44 450.566 161.996 450.566 162.678C450.566 163.361 450.01 163.917 449.327 163.917ZM449.327 162.211C449.069 162.211 448.86 162.421 448.86 162.678C448.86 162.936 449.07 163.146 449.327 163.146C449.585 163.146 449.795 162.936 449.795 162.678C449.795 162.421 449.586 162.211 449.327 162.211Z" fill="#FFC727"/>
<path d="M442.044 163.917C441.362 163.917 440.806 163.361 440.806 162.678C440.806 161.996 441.362 161.44 442.044 161.44C442.727 161.44 443.283 161.996 443.283 162.678C443.283 163.361 442.727 163.917 442.044 163.917ZM442.044 162.211C441.786 162.211 441.577 162.421 441.577 162.678C441.577 162.936 441.787 163.146 442.044 163.146C442.302 163.146 442.512 162.936 442.512 162.678C442.512 162.421 442.302 162.211 442.044 162.211Z" fill="#FFC727"/>
<path d="M452.301 153.626L450.339 159.784H442.011L440.049 153.626L446.55 153.631L452.301 153.626Z" fill="#FFC727"/>
<path d="M451.682 155.881C453.05 155.881 454.159 154.772 454.159 153.403C454.159 152.035 453.05 150.926 451.682 150.926C450.313 150.926 449.204 152.035 449.204 153.403C449.204 154.772 450.313 155.881 451.682 155.881Z" fill="#455A64"/>
<path d="M452.196 153.145C452.367 153.313 452.451 153.536 452.451 153.756C452.451 153.976 452.367 154.2 452.196 154.37C452.028 154.538 451.805 154.625 451.581 154.625C451.361 154.625 451.137 154.538 450.97 154.37C450.893 154.294 450.893 154.168 450.97 154.091C451.046 154.014 451.172 154.014 451.249 154.091C451.34 154.182 451.458 154.227 451.581 154.227C451.703 154.227 451.822 154.181 451.916 154.091C452.01 153.996 452.056 153.878 452.056 153.756C452.056 153.634 452.01 153.515 451.916 153.425C451.825 153.33 451.706 153.289 451.584 153.284C451.528 153.288 451.476 153.263 451.441 153.222C451.437 153.222 451.437 153.222 451.437 153.218C451.357 153.142 451.357 153.02 451.43 152.939L451.786 152.576H451.22C451.111 152.576 451.024 152.489 451.024 152.377C451.024 152.269 451.111 152.181 451.22 152.181H452.249C452.361 152.181 452.448 152.269 452.448 152.377C452.448 152.412 452.438 152.443 452.424 152.471C452.413 152.489 452.403 152.506 452.389 152.52L451.949 152.974C452.043 153.016 452.126 153.072 452.196 153.145Z" fill="white"/>
<path d="M538.968 118.58H72.032L108.074 91.1565H501.465L538.968 118.58Z" fill="#FFC727"/>
<path d="M173.74 91.1555L143.869 118.584H107.95L140.565 91.1555H173.74Z" fill="#EBEBEB"/>
<path d="M237.304 91.1555L215.705 118.584H179.787L205.458 91.1555H237.304Z" fill="#EBEBEB"/>
<path d="M291.265 91.1555L287.541 118.584H251.623L263.078 91.1555H291.265Z" fill="#EBEBEB"/>
<path d="M467.131 118.584L436.132 91.1555H469.307L503.049 118.584H467.131Z" fill="#EBEBEB"/>
<path d="M395.295 118.584L376.136 91.1555H405.365L431.214 118.584H395.295Z" fill="#EBEBEB"/>
<path d="M323.459 118.584L318.192 91.1555H346.393L359.377 118.584H323.459Z" fill="#EBEBEB"/>
<path d="M89.9916 136.761C80.073 136.761 72.0322 128.72 72.0322 118.801V118.583H107.95V118.801C107.95 128.72 99.9101 136.761 89.9916 136.761Z" fill="#FFC727"/>
<path opacity="0.1" d="M89.9916 136.761C80.073 136.761 72.0322 128.72 72.0322 118.801V118.583H107.95V118.801C107.95 128.72 99.9101 136.761 89.9916 136.761Z" fill="black"/>
<path d="M125.909 136.761C115.991 136.761 107.95 128.72 107.95 118.801V118.583H143.868V118.801C143.869 128.72 135.828 136.761 125.909 136.761Z" fill="#DBDBDB"/>
<path d="M161.828 136.761C151.91 136.761 143.869 128.72 143.869 118.801V118.583H179.787V118.801C179.787 128.72 171.746 136.761 161.828 136.761Z" fill="#FFC727"/>
<path opacity="0.1" d="M161.828 136.761C151.91 136.761 143.869 128.72 143.869 118.801V118.583H179.787V118.801C179.787 128.72 171.746 136.761 161.828 136.761Z" fill="black"/>
<path d="M197.746 136.761C187.827 136.761 179.787 128.72 179.787 118.801V118.583H215.704V118.801C215.705 128.72 207.665 136.761 197.746 136.761Z" fill="#DBDBDB"/>
<path d="M233.664 136.761C223.745 136.761 215.704 128.72 215.704 118.801V118.583H251.622V118.801C251.623 128.72 243.582 136.761 233.664 136.761Z" fill="#FFC727"/>
<path opacity="0.1" d="M233.664 136.761C223.745 136.761 215.704 128.72 215.704 118.801V118.583H251.622V118.801C251.623 128.72 243.582 136.761 233.664 136.761Z" fill="black"/>
<path d="M269.582 136.761C259.664 136.761 251.623 128.72 251.623 118.801V118.583H287.541V118.801C287.541 128.72 279.501 136.761 269.582 136.761Z" fill="#DBDBDB"/>
<path d="M305.5 136.761C295.582 136.761 287.541 128.72 287.541 118.801V118.583H323.459V118.801C323.46 128.72 315.419 136.761 305.5 136.761Z" fill="#FFC727"/>
<path opacity="0.1" d="M305.5 136.761C295.582 136.761 287.541 128.72 287.541 118.801V118.583H323.459V118.801C323.46 128.72 315.419 136.761 305.5 136.761Z" fill="black"/>
<path d="M341.418 136.761C331.499 136.761 323.459 128.72 323.459 118.801V118.583H359.377V118.801C359.377 128.72 351.337 136.761 341.418 136.761Z" fill="#DBDBDB"/>
<path d="M377.337 136.761C367.418 136.761 359.377 128.72 359.377 118.801V118.583H395.295V118.801C395.295 128.72 387.255 136.761 377.337 136.761Z" fill="#FFC727"/>
<path opacity="0.1" d="M377.337 136.761C367.418 136.761 359.377 128.72 359.377 118.801V118.583H395.295V118.801C395.295 128.72 387.255 136.761 377.337 136.761Z" fill="black"/>
<path d="M413.255 136.761C403.336 136.761 395.295 128.72 395.295 118.801V118.583H431.213V118.801C431.214 128.72 423.173 136.761 413.255 136.761Z" fill="#DBDBDB"/>
<path d="M449.172 136.761C439.254 136.761 431.213 128.72 431.213 118.801V118.583H467.131V118.801C467.132 128.72 459.091 136.761 449.172 136.761Z" fill="#FFC727"/>
<path opacity="0.1" d="M449.172 136.761C439.254 136.761 431.213 128.72 431.213 118.801V118.583H467.131V118.801C467.132 128.72 459.091 136.761 449.172 136.761Z" fill="black"/>
<path d="M485.091 136.761C475.172 136.761 467.132 128.72 467.132 118.801V118.583H503.05V118.801C503.05 128.72 495.01 136.761 485.091 136.761Z" fill="#DBDBDB"/>
<path d="M521.009 136.761C511.09 136.761 503.05 128.72 503.05 118.801V118.583H538.968V118.801C538.968 128.72 530.928 136.761 521.009 136.761Z" fill="#FFC727"/>
<path opacity="0.1" d="M521.009 136.761C511.09 136.761 503.05 128.72 503.05 118.801V118.583H538.968V118.801C538.968 128.72 530.928 136.761 521.009 136.761Z" fill="black"/>
<path d="M536.598 129.086L536.663 129.203C536.636 129.193 536.611 129.172 536.598 129.15C536.572 129.129 536.52 129.108 536.495 129.086H536.598Z" fill="#FFC727"/>
<path d="M139.343 177.405C139.431 177.386 148.254 175.587 157.292 176.46C165.322 177.236 172.71 181.892 173.42 186.624C173.788 189.068 172.26 191.135 169.121 192.445C159.231 196.568 139.955 178.898 139.139 178.143L138.525 177.575L139.343 177.405ZM157.209 177.318C149.925 176.614 142.778 177.673 140.369 178.091C143.842 181.156 160.374 195.158 168.788 191.649C171.569 190.49 172.876 188.797 172.568 186.752C172.4 185.637 171.73 184.437 170.658 183.276C168.062 180.465 163.108 177.888 157.209 177.318Z" fill="#263238"/>
<path d="M63.5521 94.7081C64.3553 93.3997 66.0792 93.0152 67.3826 93.8299L145.022 142.563C145.739 143.031 146.224 143.793 146.305 144.654L149.037 171.808L149.081 172.195L149.14 172.902L149.17 173.218L150.207 183.492C150.352 184.752 149.597 185.943 148.403 186.384L138.593 189.955L137.711 190.273L111.725 199.732C110.915 200.036 110.005 199.935 109.283 199.477L31.6579 150.739C30.3446 149.92 29.9552 148.207 30.7748 146.893L63.5521 94.7081Z" fill="white"/>
<path d="M41.0038 130.811L35.3672 139.837L32.5484 144.349L31.139 146.606C30.8963 146.988 30.6731 147.336 30.5834 147.751C30.4873 148.158 30.4824 148.587 30.5818 148.993C30.6836 149.398 30.8775 149.779 31.1513 150.093C31.4242 150.413 31.7843 150.623 32.1688 150.862L34.4254 152.271L38.9387 155.089L47.9652 160.725L84.0712 183.267L102.124 194.539L106.637 197.357L108.894 198.766L109.459 199.118C109.63 199.227 109.792 199.307 109.974 199.371C110.331 199.496 110.721 199.532 111.094 199.478C111.286 199.45 111.453 199.402 111.652 199.327L112.277 199.098L113.525 198.64L116.023 197.724L121.02 195.894L141.039 188.667L146.043 186.86C146.859 186.559 147.75 186.259 148.505 185.955C149.206 185.624 149.728 184.934 149.845 184.168C149.87 183.977 149.886 183.785 149.864 183.589L149.801 182.934L149.671 181.61L149.41 178.962L148.889 173.665L146.822 152.484L146.302 147.188L146.04 144.553C145.926 143.743 145.412 143.043 144.667 142.629L135.669 136.949L99.6753 114.229L81.6785 102.87L72.6797 97.1897L68.1803 94.3497C67.8015 94.1216 67.4414 93.8552 67.043 93.6654C66.6406 93.4854 66.1958 93.3909 65.7534 93.4177C64.8662 93.4536 64.0157 93.9505 63.5506 94.7098L41.0038 130.811ZM65.7542 93.4031C66.1982 93.3738 66.6463 93.4658 67.0528 93.6458C67.4569 93.8357 67.8153 94.0988 68.1966 94.3253L72.7099 97.1424L81.7372 102.777L99.7918 114.047L135.901 136.586L144.928 142.221C145.737 142.659 146.405 143.516 146.533 144.479L146.811 147.137L147.357 152.429L149.531 173.6L150.079 178.891L150.352 181.536L150.489 182.859L150.556 183.528C150.584 183.773 150.568 184.028 150.534 184.275C150.387 185.27 149.719 186.159 148.817 186.593C147.93 186.958 147.137 187.22 146.291 187.539L141.296 189.372L121.315 196.698L116.312 198.507L113.811 199.411L112.559 199.863L111.934 200.089C111.718 200.17 111.457 200.246 111.209 200.278C110.705 200.349 110.185 200.298 109.707 200.128C109.47 200.045 109.234 199.924 109.032 199.794L108.47 199.439L106.22 198.019L101.722 195.179L83.7266 183.816L47.7354 161.091L38.7383 155.41L34.2397 152.569L31.9904 151.148C31.6254 150.919 31.2083 150.673 30.902 150.312C30.5948 149.955 30.3781 149.525 30.2665 149.069C30.1574 148.613 30.1647 148.131 30.2755 147.676C30.3749 147.217 30.6429 146.804 30.8759 146.442L32.2967 144.193L35.1382 139.694L40.8214 130.697L63.553 94.709C64.0133 93.9473 64.863 93.4438 65.7542 93.4031Z" fill="#EBEBEB"/>
<path d="M140.005 174.941C139.793 174.7 139.555 174.484 139.276 174.298C139.26 174.277 139.224 174.271 139.199 174.245L139.189 174.239C137.474 173.17 135.191 173.676 134.116 175.403C133.047 177.118 133.559 179.39 135.28 180.476L135.351 180.513C135.55 180.63 135.754 180.737 135.964 180.809C136.092 180.863 136.215 180.902 136.343 180.929C137.851 181.304 139.486 180.691 140.357 179.302C141.225 177.896 141.043 176.136 140.005 174.941Z" fill="white"/>
<path d="M140.396 179.538C139.955 180.26 139.258 180.841 138.436 181.149C137.608 181.464 136.695 181.492 135.805 181.183L135.832 181.194L135.448 181.021L135.084 180.848L135.078 180.845L135.055 180.832C134.134 180.278 133.47 179.317 133.257 178.27C133.036 177.222 133.283 176.103 133.884 175.258C134.474 174.404 135.406 173.827 136.386 173.663C137.368 173.498 138.381 173.707 139.195 174.231L139.204 174.237L139.207 174.239C139.225 174.261 139.257 174.265 139.283 174.294L139.281 174.291C139.551 174.475 139.793 174.696 140.004 174.943C141.089 176.152 141.296 178.083 140.396 179.538ZM139.269 174.307L139.266 174.304C139.252 174.286 139.215 174.278 139.191 174.253L139.194 174.256L139.184 174.251L139.183 174.25C138.363 173.748 137.335 173.617 136.438 173.885C135.536 174.142 134.773 174.76 134.35 175.547C133.924 176.335 133.831 177.259 134.048 178.089C134.257 178.924 134.789 179.652 135.503 180.122L135.475 180.106L135.793 180.267L136.094 180.424L136.122 180.435C136.748 180.693 137.542 180.759 138.254 180.577C138.977 180.396 139.648 179.962 140.124 179.35C140.596 178.742 140.886 177.955 140.856 177.153C140.846 176.35 140.527 175.557 140.004 174.941C139.788 174.699 139.542 174.483 139.269 174.307Z" fill="#EBEBEB"/>
<path d="M65.2874 100.215L36.4971 146.07C35.7077 147.334 36.1337 149.024 37.4413 149.851L108.853 194.682C109.591 195.147 110.471 195.252 111.275 194.984L144.343 183.772C145.534 183.368 146.259 182.212 146.108 180.965L145.142 173.123L145.038 172.287L141.831 146.315C141.728 145.473 141.244 144.725 140.511 144.261L69.1 99.4284C67.786 98.608 66.0752 98.9575 65.2874 100.215ZM68.8394 99.8463L140.251 144.678C140.853 145.057 141.262 145.69 141.344 146.376L144.55 172.354L144.657 173.215L145.622 181.026C145.686 181.532 145.569 182.024 145.316 182.424C145.057 182.83 144.67 183.144 144.187 183.309L111.12 194.52C110.47 194.742 109.717 194.643 109.113 194.265L37.702 149.433C36.6193 148.755 36.2616 147.363 36.9085 146.33L65.7037 100.475C66.3505 99.4495 67.7575 99.162 68.8394 99.8463Z" fill="#263238"/>
<path d="M54.0834 134.123C55.0871 133.863 56.1046 134.338 56.3767 135.187C56.8419 136.878 58.1356 139.298 60.292 140.525C61.7682 141.392 63.4195 141.754 64.7555 141.687C66.1397 141.608 67.0757 141.186 67.6509 140.551C67.9409 140.194 68.0704 139.906 68.1095 139.564C68.1356 139.174 68.1022 138.749 67.87 138.248C67.4529 137.234 66.3971 135.925 64.9054 134.602L64.8753 134.585L64.846 134.567C63.6786 133.518 62.6863 132.449 61.9621 131.335C61.2566 130.191 60.8199 129.002 60.9576 127.665C61.0627 126.795 61.4676 125.899 62.1136 125.143C63.4887 123.56 65.6574 122.766 67.76 122.704C69.8798 122.613 72.0843 123.137 74.0126 124.268C76.8452 125.931 77.8391 128.379 78.5984 130.122C78.965 130.945 78.4167 131.879 77.4375 132.236C76.459 132.593 75.3707 132.237 75.0505 131.402C74.2912 129.659 73.5263 127.994 71.7307 126.981C70.3922 126.154 68.8794 125.833 67.6696 125.893C66.4419 125.982 65.6191 126.35 65.127 126.912C64.8729 127.208 64.7604 127.466 64.7401 127.779C64.6887 128.072 64.758 128.437 64.9307 128.903C65.3054 129.853 66.2749 131.03 67.6346 132.233L67.6949 132.268C68.982 133.389 70.0484 134.541 70.8264 135.768C71.545 136.961 72.037 138.262 71.8814 139.63C71.7706 140.578 71.3478 141.504 70.6366 142.303C69.2077 143.976 66.9266 144.825 64.6814 144.923C62.4052 145.006 60.0623 144.44 57.9832 143.219C54.8077 141.314 53.3168 138.332 52.6968 136.145C52.4524 135.314 53.0618 134.415 54.0834 134.123Z" fill="#FFC727"/>
<path d="M72.1763 150.097C71.426 150.547 70.4859 150.563 69.7926 150.155C69.6117 150.049 69.4187 149.895 69.2737 149.728C68.6838 148.937 68.9796 147.814 69.9743 147.222L90.1862 135.227C90.9552 134.746 91.9084 134.778 92.6008 135.185C93.2941 135.592 93.6363 136.32 93.3796 137.102L86.4851 156.918C86.1519 157.898 84.9837 158.508 83.8554 158.291C83.6093 158.228 83.4106 158.152 83.1996 158.028C82.5364 157.639 82.2122 156.881 82.4802 156.147L83.9792 151.8L76.6277 147.483L72.1763 150.097ZM85.2631 148.097L87.7707 140.857L80.4118 145.248L85.2631 148.097Z" fill="#FFC727"/>
<path d="M89.5158 159.386L103.07 143.48C103.769 142.634 105.068 142.424 106.002 142.972C106.906 143.503 107.114 144.598 106.384 145.425L94.1057 159.851L102.27 164.646C103.205 165.194 103.365 166.302 102.683 167.117C101.954 167.945 100.638 168.185 99.704 167.637L89.9419 161.905C89.9419 161.905 89.9598 161.875 89.9297 161.857C89.9297 161.857 89.9118 161.887 89.8816 161.869C88.9765 161.339 88.7867 160.214 89.5158 159.386Z" fill="#FFC727"/>
<path d="M105.513 168.982L119.084 153.045C119.766 152.229 121.082 151.99 122.015 152.538L122.045 152.556L122.075 152.573L131.837 158.305C132.771 158.854 132.932 159.96 132.25 160.775C131.52 161.604 130.204 161.843 129.301 161.312L121.135 156.518L116.886 161.478L123.936 165.619C124.841 166.149 125.048 167.244 124.319 168.071C123.62 168.917 122.321 169.127 121.387 168.579L114.367 164.457L110.118 169.416L118.283 174.211C119.217 174.759 119.377 175.866 118.678 176.713C117.967 177.51 116.65 177.75 115.747 177.219L105.955 171.469C105.955 171.469 105.955 171.469 105.925 171.452C104.991 170.904 104.832 169.797 105.513 168.982Z" fill="#FFC727"/>
<path d="M138.524 177.57L139.135 178.143C139.235 178.238 139.629 178.602 140.26 179.157C140.301 179.189 140.343 179.221 140.378 179.259C140.414 179.285 140.461 179.324 140.496 179.362C142.158 180.805 145.173 183.32 148.756 185.803C148.862 185.881 148.969 185.946 149.076 186.023C149.177 186.094 149.271 186.159 149.372 186.23C149.617 186.051 149.834 185.828 150.001 185.579C149.907 185.514 149.812 185.449 149.716 185.385C149.615 185.314 149.515 185.243 149.414 185.171C145.628 182.559 142.436 179.902 140.833 178.51C140.804 178.478 140.78 178.453 140.751 178.433C140.721 178.401 140.686 178.375 140.663 178.35C140.557 178.26 140.456 178.177 140.368 178.094C140.491 178.075 140.62 178.049 140.761 178.024C140.832 177.746 140.862 177.449 140.856 177.15C140.857 177.138 140.857 177.138 140.85 177.131C139.905 177.289 139.359 177.395 139.34 177.4L138.524 177.57Z" fill="#263238"/>
<path d="M571.241 63.5546L558.483 150.88C557.77 155.764 553.234 159.143 548.359 158.431L409.856 138.196C404.981 137.484 401.603 132.949 402.317 128.064L415.074 40.7391C415.738 36.1973 419.957 33.0527 424.5 33.7167L564.218 54.1289C568.76 54.7929 571.904 59.0129 571.241 63.5546Z" fill="#FFC727"/>
<path opacity="0.2" d="M571.241 63.5546L558.483 150.88C557.77 155.764 553.234 159.143 548.359 158.431L409.856 138.196C404.981 137.484 401.603 132.949 402.317 128.064L415.074 40.7391C415.738 36.1973 419.957 33.0527 424.5 33.7167L564.218 54.1289C568.76 54.7929 571.904 59.0129 571.241 63.5546Z" fill="black"/>
<path d="M450.176 73.4749L427.636 70.182C425.766 69.9091 424.471 68.1706 424.744 66.3001L426.714 52.8158C426.987 50.9453 428.726 49.65 430.596 49.9237L453.136 53.2166C455.007 53.4895 456.302 55.228 456.028 57.0985L454.058 70.5828C453.785 72.4533 452.047 73.7478 450.176 73.4749Z" fill="#FFC727"/>
<path d="M420.474 88.0004L419.169 88.5299C419.129 88.5486 419.063 88.5641 419.015 88.5568C418.906 88.5413 418.817 88.4664 418.782 88.3735C418.719 88.2032 418.793 88.0403 418.949 87.989L420.735 87.2321C420.879 87.1792 421.067 87.2558 421.121 87.4C421.146 87.4782 421.147 87.5523 421.125 87.624L419.983 95.4358C419.96 95.5939 419.819 95.7096 419.65 95.6843C419.492 95.6615 419.377 95.5083 419.401 95.3503L420.474 88.0004Z" fill="#F8F8F8"/>
<path d="M422.104 95.51L426.6 92.5064C427.138 92.1381 427.478 91.5923 427.567 90.9846C427.643 90.4616 427.525 89.9117 427.208 89.4432C426.853 88.9072 426.294 88.5772 425.698 88.4909C425.163 88.4127 424.615 88.5186 424.134 88.833L423.666 89.1491C423.526 89.2526 423.334 89.2119 423.254 89.0766C423.15 88.9381 423.191 88.745 423.327 88.6652L423.797 88.3369C424.4 87.941 425.116 87.7976 425.784 87.8954C426.525 88.0037 427.235 88.4053 427.692 89.1043C428.112 89.7121 428.245 90.4135 428.149 91.0693C428.039 91.822 427.626 92.5316 426.936 93.0017L423.086 95.5785L427.108 96.1658C427.266 96.1887 427.379 96.3418 427.354 96.5121C427.332 96.6701 427.178 96.7842 427.021 96.7614L422.283 96.0689L422.235 96.0616C422.149 96.0494 422.068 96.0127 422.028 95.9443C421.938 95.796 421.964 95.6135 422.104 95.51Z" fill="#F8F8F8"/>
<path d="M435.505 89.862L432.977 91.8001C433.495 91.9874 433.968 92.3174 434.322 92.7907C434.798 93.431 434.97 94.2139 434.862 94.9545C434.753 95.695 434.366 96.3956 433.713 96.8705C433.072 97.3479 432.289 97.5312 431.548 97.4229C430.818 97.3162 430.119 96.9284 429.644 96.2758C429.539 96.1488 429.566 95.954 429.706 95.8514C429.833 95.7455 430.027 95.774 430.131 95.9133C430.517 96.416 431.056 96.7182 431.639 96.8029C432.222 96.8877 432.837 96.754 433.35 96.3834C433.866 95.9997 434.17 95.4481 434.256 94.8648C434.34 94.2824 434.207 93.6673 433.821 93.1638C433.449 92.6498 432.898 92.3467 432.315 92.262C432.218 92.2473 432.14 92.187 432.09 92.1047L432.078 92.1031C431.974 91.9638 432.002 91.7691 432.142 91.6656L434.573 89.8009L431.318 89.3243C431.148 89.2998 431.034 89.1459 431.059 88.9764C431.084 88.8062 431.236 88.6921 431.407 88.7174L435.379 89.2982C435.549 89.3227 435.663 89.4758 435.639 89.6461C435.632 89.695 435.612 89.7414 435.583 89.7748C435.563 89.8082 435.534 89.8416 435.505 89.862Z" fill="#F8F8F8"/>
<path d="M441.735 97.1246L437.13 96.4517L437.118 96.4501L437.094 96.446C437.033 96.4371 436.962 96.4143 436.921 96.3589C436.801 96.2424 436.817 96.046 436.945 95.9401L442.76 90.5364L442.773 90.5258C442.902 90.4077 443.074 90.4208 443.192 90.5495C443.235 90.5926 443.251 90.657 443.267 90.7091C443.264 90.7336 443.274 90.7474 443.273 90.7596L443.267 90.7963L442.415 96.6277L442.987 96.7108C443.156 96.7352 443.271 96.8892 443.248 97.0464C443.224 97.2045 443.072 97.3185 442.901 97.2933L442.33 97.2102L442.117 98.6684C442.094 98.8265 441.941 98.9405 441.771 98.9153C441.613 98.8917 441.499 98.7393 441.521 98.5813L441.735 97.1246ZM441.82 96.5413L442.548 91.5605L437.798 95.954L441.82 96.5413Z" fill="#F8F8F8"/>
<path d="M452.258 99.5924C452.154 99.453 452.182 99.2583 452.32 99.1671C452.459 99.0636 452.653 99.0913 452.756 99.2306C453.143 99.7341 453.682 100.036 454.265 100.121C454.848 100.206 455.451 100.071 455.966 99.6877C456.482 99.304 456.783 98.7646 456.869 98.1813C456.956 97.5858 456.822 96.9708 456.449 96.4697C456.076 95.9687 455.525 95.6648 454.941 95.5793C454.346 95.4921 453.744 95.6282 453.228 96.0119C453.089 96.1154 452.894 96.0868 452.804 95.95C452.77 95.9198 452.752 95.8799 452.744 95.8424L452.746 95.8302C452.735 95.8164 452.738 95.8042 452.739 95.7919C452.73 95.7659 452.736 95.7292 452.742 95.6925C452.743 95.6803 452.759 95.6575 452.762 95.6339L453.675 92.2677C453.69 92.1707 453.749 92.1048 453.829 92.0673C453.885 92.0257 453.961 92.0127 454.034 92.0233L457.995 92.6017C458.165 92.6261 458.279 92.7801 458.254 92.9496C458.227 93.1312 458.075 93.2339 457.906 93.2086L454.201 92.6669L453.528 95.15C454.002 94.9585 454.52 94.8974 455.03 94.9724C455.771 95.0799 456.461 95.4538 456.937 96.1064C457.426 96.7484 457.587 97.5166 457.477 98.2701C457.371 98.9993 456.993 99.7129 456.341 100.188C455.701 100.654 454.906 100.835 454.177 100.728C453.435 100.62 452.734 100.233 452.258 99.5924Z" fill="#F8F8F8"/>
<path d="M461.204 94.9682C461.938 94.0208 463.034 93.3992 464.449 93.5572C464.61 93.5678 464.724 93.721 464.713 93.8807C464.688 94.0509 464.535 94.1658 464.375 94.1544C463.178 94.0281 462.335 94.5259 461.671 95.3348C461.307 95.7902 461.026 96.3572 460.815 96.9471C461.411 96.4387 462.219 96.1715 463.057 96.2937C464.625 96.5234 465.691 97.9695 465.466 99.5125C465.239 101.068 463.805 102.136 462.238 101.907C460.719 101.685 459.656 100.301 459.827 98.7874C459.829 98.6017 459.856 98.42 459.885 98.2253C460.062 97.0978 460.474 95.8921 461.204 94.9682ZM460.43 98.8257C460.421 98.8868 460.427 98.9373 460.431 98.987C460.426 99.0236 460.423 99.0481 460.406 99.0709C460.394 100.173 461.207 101.148 462.325 101.311C463.564 101.492 464.706 100.642 464.884 99.4269C465.061 98.2122 464.21 97.0709 462.971 96.8892C461.756 96.7116 460.615 97.563 460.437 98.7768L460.43 98.8257Z" fill="#F8F8F8"/>
<path d="M468.21 102.357L472.446 95.3576L468.34 94.758C468.182 94.7352 468.068 94.582 468.091 94.4248C468.114 94.2668 468.267 94.1527 468.425 94.1755L472.921 94.8321C472.983 94.8289 473.044 94.8378 473.101 94.8704C473.17 94.9177 473.22 95 473.233 95.0757C473.24 95.114 473.249 95.1401 473.244 95.1767C473.235 95.2378 473.215 95.2843 473.171 95.3275L468.736 102.67C468.671 102.772 468.552 102.829 468.442 102.813C468.393 102.806 468.369 102.803 468.325 102.772C468.186 102.689 468.14 102.496 468.21 102.357Z" fill="#F8F8F8"/>
<path d="M477.794 95.4938C478.766 95.6364 479.452 96.5431 479.311 97.515C479.223 98.1105 478.858 98.5773 478.373 98.8413C479.321 99.4017 479.88 100.501 479.713 101.643C479.49 103.174 478.084 104.221 476.553 103.997C475.034 103.776 473.974 102.367 474.199 100.837C474.366 99.695 475.216 98.8013 476.273 98.5341C475.895 98.1447 475.69 97.5932 475.777 96.9985C475.917 96.0266 476.81 95.3504 477.794 95.4938ZM476.636 103.415C477.851 103.592 478.952 102.761 479.128 101.558C479.302 100.367 478.487 99.2429 477.271 99.0653C476.069 98.8901 474.953 99.7317 474.779 100.923C474.604 102.125 475.434 103.239 476.636 103.415ZM477.36 98.4575C478.018 98.5415 478.63 98.0852 478.726 97.4294C478.822 96.7728 478.364 96.1732 477.708 96.0771C477.052 95.981 476.453 96.4274 476.357 97.0832C476.262 97.739 476.706 98.35 477.36 98.4575Z" fill="#F8F8F8"/>
<path d="M492.907 97.7022C494.366 97.9157 495.386 99.1686 495.34 100.589C495.348 100.615 495.347 100.626 495.356 100.653C495.334 100.886 495.311 101.13 495.274 101.385C495.11 102.515 494.683 103.732 493.965 104.656C493.235 105.579 492.123 106.223 490.718 106.068L490.706 106.066C490.536 106.042 490.42 105.9 490.443 105.742C490.468 105.572 490.608 105.457 490.781 105.469C491.967 105.592 492.833 105.099 493.485 104.289C493.851 103.821 494.142 103.268 494.341 102.677C493.746 103.185 492.941 103.427 492.09 103.303C490.547 103.078 489.465 101.654 489.694 100.087C489.918 98.543 491.365 97.4766 492.907 97.7022ZM494.723 100.821C494.901 99.6061 494.06 98.4786 492.821 98.2978C491.606 98.1202 490.467 98.9593 490.289 100.173C490.108 101.412 490.962 102.53 492.177 102.708C493.417 102.888 494.542 102.06 494.723 100.821Z" fill="#F8F8F8"/>
<path d="M497.263 102.681C497.43 101.539 497.874 100.537 498.512 99.8229C499.145 99.1459 499.961 98.7321 500.824 98.8575C501.686 98.9838 502.352 99.6144 502.764 100.444C503.158 101.308 503.322 102.399 503.156 103.541C502.989 104.683 502.521 105.682 501.897 106.385C501.263 107.074 500.445 107.488 499.583 107.362C498.72 107.236 498.055 106.605 497.645 105.764C497.235 104.911 497.096 103.823 497.263 102.681ZM497.858 102.768C497.706 103.812 497.849 104.789 498.19 105.508C498.533 106.216 499.062 106.678 499.668 106.767C500.276 106.856 500.902 106.563 501.445 105.985C501.979 105.393 502.407 104.5 502.56 103.456C502.712 102.41 502.557 101.433 502.215 100.713C501.864 99.9793 501.344 99.5427 500.736 99.4539C500.129 99.3651 499.495 99.6323 498.96 100.236C498.426 100.829 498.011 101.724 497.858 102.768Z" fill="#F8F8F8"/>
<path d="M507.579 100.726L506.274 101.256C506.234 101.274 506.17 101.289 506.121 101.283C506.012 101.267 505.924 101.192 505.887 101.1C505.825 100.93 505.899 100.767 506.055 100.715L507.841 99.958C507.985 99.905 508.173 99.9816 508.226 100.126C508.252 100.204 508.253 100.279 508.23 100.35L507.089 108.162C507.066 108.32 506.925 108.435 506.756 108.41C506.598 108.387 506.483 108.234 506.506 108.076L507.579 100.726Z" fill="#F8F8F8"/>
<path d="M509.21 108.236L513.706 105.232C514.244 104.864 514.584 104.318 514.672 103.711C514.748 103.188 514.63 102.638 514.314 102.169C513.958 101.634 513.399 101.303 512.803 101.217C512.268 101.139 511.72 101.245 511.239 101.56L510.771 101.876C510.632 101.979 510.44 101.939 510.36 101.803C510.257 101.664 510.297 101.471 510.433 101.392L510.903 101.064C511.506 100.668 512.222 100.524 512.89 100.621C513.631 100.73 514.342 101.131 514.798 101.83C515.218 102.438 515.351 103.14 515.255 103.796C515.145 104.549 514.732 105.258 514.043 105.728L510.193 108.304L514.214 108.892C514.372 108.915 514.486 109.068 514.461 109.239C514.438 109.397 514.285 109.51 514.128 109.487L509.39 108.795L509.342 108.788C509.256 108.775 509.175 108.739 509.135 108.671C509.044 108.522 509.07 108.339 509.21 108.236Z" fill="#F8F8F8"/>
<path d="M529.896 103.652L527.366 105.59C527.885 105.778 528.358 106.107 528.711 106.58C529.188 107.221 529.36 108.003 529.251 108.744C529.143 109.486 528.755 110.185 528.103 110.66C527.461 111.138 526.678 111.321 525.937 111.213C525.208 111.106 524.507 110.718 524.032 110.066C523.927 109.939 523.955 109.745 524.094 109.64C524.221 109.534 524.416 109.563 524.52 109.702C524.906 110.205 525.444 110.507 526.028 110.592C526.611 110.677 527.227 110.544 527.739 110.172C528.255 109.789 528.559 109.237 528.644 108.655C528.729 108.071 528.595 107.456 528.21 106.953C527.838 106.44 527.287 106.136 526.704 106.051C526.607 106.037 526.529 105.976 526.479 105.895L526.467 105.893C526.362 105.754 526.391 105.559 526.53 105.455L528.961 103.59L525.706 103.114C525.536 103.09 525.421 102.936 525.447 102.766C525.471 102.596 525.625 102.482 525.795 102.507L529.767 103.088C529.937 103.112 530.051 103.266 530.027 103.436C530.019 103.485 530 103.531 529.971 103.565C529.953 103.597 529.924 103.631 529.896 103.652Z" fill="#F8F8F8"/>
<path d="M536.125 110.915L531.521 110.242L531.509 110.24L531.484 110.237C531.424 110.229 531.352 110.205 531.311 110.15C531.191 110.033 531.207 109.838 531.335 109.732L537.15 104.327L537.163 104.317C537.292 104.199 537.464 104.211 537.582 104.34C537.625 104.384 537.641 104.449 537.658 104.501C537.655 104.525 537.664 104.539 537.663 104.551L537.657 104.588L536.805 110.419L537.376 110.502C537.546 110.527 537.66 110.681 537.638 110.839C537.614 110.997 537.462 111.111 537.29 111.086L536.719 111.003L536.506 112.461C536.483 112.619 536.33 112.733 536.161 112.708C536.002 112.685 535.888 112.532 535.911 112.374L536.125 110.915ZM536.21 110.332L536.939 105.351L532.19 109.744L536.21 110.332Z" fill="#F8F8F8"/>
<path d="M539.364 112.318C539.26 112.18 539.289 111.985 539.426 111.893C539.566 111.789 539.759 111.818 539.863 111.956C540.249 112.46 540.788 112.762 541.371 112.847C541.954 112.932 542.557 112.797 543.072 112.413C543.588 112.03 543.889 111.49 543.975 110.907C544.062 110.312 543.928 109.696 543.555 109.195C543.181 108.694 542.63 108.39 542.046 108.305C541.451 108.218 540.849 108.353 540.333 108.738C540.194 108.841 539.999 108.813 539.909 108.676C539.876 108.646 539.856 108.606 539.849 108.568L539.851 108.556C539.84 108.542 539.843 108.53 539.844 108.518C539.835 108.492 539.841 108.455 539.847 108.418C539.848 108.406 539.864 108.383 539.868 108.36L540.781 104.994C540.796 104.897 540.855 104.831 540.934 104.793C540.99 104.752 541.067 104.738 541.14 104.749L545.1 105.328C545.271 105.353 545.385 105.506 545.36 105.676C545.333 105.858 545.182 105.96 545.012 105.936L541.307 105.394L540.634 107.877C541.109 107.685 541.627 107.625 542.137 107.699C542.877 107.807 543.567 108.18 544.044 108.833C544.533 109.475 544.693 110.243 544.583 110.997C544.476 111.726 544.099 112.439 543.447 112.915C542.808 113.38 542.013 113.562 541.284 113.455C540.542 113.346 539.841 112.958 539.364 112.318Z" fill="#F8F8F8"/>
<path d="M548.31 107.695C549.044 106.747 550.14 106.126 551.556 106.283C551.716 106.294 551.83 106.448 551.819 106.606C551.795 106.777 551.641 106.891 551.481 106.88C550.283 106.755 549.441 107.252 548.778 108.061C548.414 108.516 548.133 109.083 547.922 109.673C548.517 109.165 549.325 108.898 550.164 109.02C551.731 109.249 552.797 110.695 552.573 112.238C552.345 113.793 550.911 114.862 549.344 114.633C547.826 114.411 546.762 113.028 546.933 111.514C546.936 111.329 546.963 111.147 546.991 110.953C547.168 109.824 547.58 108.617 548.31 107.695ZM547.536 111.552C547.527 111.613 547.531 111.663 547.537 111.713C547.531 111.749 547.528 111.774 547.512 111.797C547.5 112.899 548.313 113.873 549.43 114.037C550.67 114.218 551.812 113.367 551.989 112.153C552.167 110.938 551.316 109.797 550.076 109.615C548.862 109.437 547.72 110.289 547.543 111.503L547.536 111.552Z" fill="#F8F8F8"/>
<path d="M492.461 121.242L418.3 110.404L417.767 114.049L491.928 124.886L492.461 121.242Z" fill="#37474F"/>
<path d="M469.62 126.17L417.117 118.498L416.584 122.142L469.087 129.815L469.62 126.17Z" fill="#37474F"/>
<path d="M528.275 64.2158L491.289 58.8108L490.756 62.4552L527.743 67.8603L528.275 64.2158Z" fill="#37474F"/>
<path d="M553 83.7903C552.804 83.5247 552.609 83.2583 552.413 82.9927C552.302 82.8412 552.189 82.6913 552.076 82.5398C554.167 80.9414 555.463 78.8616 555.852 76.2587C556.241 73.655 555.607 71.2884 554.063 69.1353C554.21 69.031 554.362 68.9267 554.511 68.8183C554.776 68.6253 555.039 68.4298 555.303 68.235C555.31 68.2302 555.313 68.222 555.318 68.2163C555.323 68.2171 555.329 68.2179 555.335 68.2188C555.346 68.2375 555.357 68.2579 555.369 68.2758C555.586 68.6073 555.812 68.9316 556.017 69.2705C556.439 69.9711 556.761 70.7182 557.01 71.4962C557.304 72.4167 557.482 73.3601 557.515 74.3255C557.53 74.7825 557.505 75.2412 557.493 75.6982C557.489 75.8538 557.345 76.8493 557.338 76.8795C557.27 77.1817 557.21 77.4872 557.132 77.787C556.914 78.622 556.586 79.4139 556.174 80.1707C555.876 80.719 555.53 81.2363 555.142 81.7267C554.734 82.2441 554.285 82.7231 553.788 83.1565C553.537 83.3748 553.274 83.5809 553.018 83.7927C553.011 83.7919 553.005 83.7911 553 83.7903Z" fill="white"/>
<path d="M551.556 71.0164C551.976 70.7035 552.386 70.3964 552.809 70.0803C553.851 71.5141 554.412 73.1092 554.388 74.8836C554.353 77.5345 553.231 79.6494 551.16 81.2747C550.844 80.8453 550.536 80.4298 550.225 80.0078C551.617 78.9439 552.492 77.5443 552.751 75.7903C553.012 74.0396 552.583 72.4494 551.556 71.0164Z" fill="white"/>
<path d="M549.286 78.7466C548.978 78.3303 548.669 77.914 548.356 77.4912C549.065 76.9495 549.52 76.2318 549.653 75.3299C549.786 74.4305 549.562 73.6142 549.036 72.8843C549.456 72.5731 549.872 72.2643 550.289 71.9556C551.852 73.9645 551.532 77.114 549.286 78.7466Z" fill="white"/>
<path d="M420.706 280.623C420.72 281.7 421.205 282.414 422.046 282.93C422.745 283.361 423.483 283.739 424.243 284.081C424.058 281.485 424.199 278.796 424.283 276.231C424.382 273.216 424.691 270.264 425.064 267.282C425.068 267.237 425.139 267.245 425.137 267.29C424.979 270.31 424.929 273.348 424.854 276.37C424.787 279.015 424.929 281.692 424.844 284.337C425.624 284.659 426.421 284.942 427.223 285.196C427.179 284.274 427.143 283.351 427.119 282.425C427.045 279.642 427.219 276.895 427.294 274.117C427.294 274.05 427.388 274.047 427.387 274.115C427.355 276.816 427.556 279.55 427.66 282.252C427.699 283.294 427.747 284.336 427.803 285.377C428.353 285.538 428.901 285.69 429.443 285.828C429.804 285.921 430.166 286.01 430.528 286.087C430.498 284.262 430.573 282.421 430.592 280.635C430.626 277.743 430.84 274.865 430.917 271.976C430.92 271.875 431.063 271.871 431.063 271.972C431.003 274.848 431.136 277.742 431.144 280.619C431.148 282.47 431.234 284.363 431.227 286.24C436.081 287.234 441.08 287.227 445.961 286.548C448.791 286.154 451.592 285.539 454.358 284.777C455.025 284.593 456.724 284.071 458.399 283.53C458.392 282.658 458.407 281.785 458.389 280.942C458.347 279.018 458.42 277.078 458.327 275.159C458.325 275.104 458.398 275.102 458.402 275.156C458.561 277.083 458.832 278.991 458.929 280.926C458.965 281.7 459.024 282.504 459.056 283.313C459.655 283.119 460.231 282.926 460.736 282.746C460.439 279.117 460.569 275.421 460.485 271.799C460.482 271.712 460.599 271.708 460.605 271.796C460.853 275.345 461.319 278.941 461.376 282.519C461.971 282.302 462.384 282.133 462.484 282.049C463.303 281.365 462.327 267.017 462.178 263.667C461.901 257.423 460.393 232.015 458.358 226.076C457.622 223.924 455.291 217.45 447.427 214.352C444.916 213.365 442.024 213.703 439.373 213.767C426.502 214.08 422.613 223.271 421.883 239.249C421.602 245.424 421.232 269.495 420.931 275.675C420.854 277.315 420.688 278.981 420.706 280.623Z" fill="#263238"/>
<path d="M543.038 369.444C542.482 367.31 508.61 316.025 506.143 314.92C505.862 314.778 488.559 325.49 488.559 325.49C487.818 326.356 456.794 317.689 456.794 317.689L454.042 355.61L511.412 358.074C511.412 358.074 518.858 363.121 525.698 367.281C525.71 367.284 525.715 367.291 525.723 367.287C529.93 369.863 533.662 372.045 534.744 372.402C537.564 373.32 543.609 371.569 543.038 369.444Z" fill="#EB9481"/>
<path d="M534.746 372.402C533.66 372.048 529.932 369.865 525.726 367.285C525.716 367.294 525.708 367.284 525.698 367.284C518.862 363.123 511.415 358.072 511.415 358.072L498.646 357.526L480.755 324.032C485.086 325.09 488.324 325.765 488.561 325.487C488.561 325.487 505.857 314.776 506.141 314.922C508.609 316.024 542.479 367.307 543.037 369.443C543.607 371.569 537.565 373.325 534.746 372.402Z" fill="white"/>
<path d="M543.372 369.531C542.783 367.342 508.742 316.074 506.208 314.939C505.249 314.503 496.834 318.983 488.559 325.489L510.545 358.515C510.545 358.515 531.94 371.673 534.853 372.619C537.759 373.555 543.962 371.72 543.372 369.531Z" fill="#FFC727"/>
<path d="M540.834 370.157C534.917 361.703 511.848 327.047 506.642 318.241C506.599 318.169 506.646 318.138 506.695 318.205C512.743 326.456 535.53 361.298 540.975 370.064C541.09 370.249 540.959 370.335 540.834 370.157Z" fill="#263238"/>
<path d="M530.82 370.546C529.384 368.563 529.029 365.929 529.505 364.012C529.962 362.17 530.996 360.167 532.818 359.045C532.87 359.012 532.935 359.106 532.887 359.149C529.85 361.873 528.927 366.893 530.927 370.476C530.968 370.547 530.869 370.614 530.82 370.546Z" fill="#263238"/>
<path d="M513.197 360.639C510.865 357.231 509.432 352.437 510.825 348.432C510.879 348.277 511.099 348.355 511.115 348.493C511.577 352.667 512.345 356.415 513.66 360.418C513.753 360.7 513.364 360.884 513.197 360.639Z" fill="#263238"/>
<path d="M515.995 362.608C513.664 359.2 512.23 354.406 513.624 350.4C513.678 350.245 513.898 350.324 513.913 350.461C514.375 354.634 515.143 358.384 516.459 362.386C516.55 362.668 516.162 362.851 515.995 362.608Z" fill="#263238"/>
<path d="M518.794 364.576C516.462 361.168 515.028 356.374 516.422 352.368C516.476 352.212 516.696 352.292 516.711 352.429C517.173 356.603 517.942 360.352 519.257 364.354C519.349 364.636 518.961 364.82 518.794 364.576Z" fill="#263238"/>
<path d="M521.591 366.544C519.26 363.136 517.826 358.342 519.22 354.336C519.274 354.181 519.494 354.26 519.509 354.397C519.971 358.571 520.739 362.32 522.054 366.322C522.147 366.604 521.759 366.788 521.591 366.544Z" fill="#263238"/>
<path d="M499.932 325.85C497.38 321.983 503.386 318.012 505.942 321.885C508.492 325.751 502.487 329.723 499.932 325.85Z" fill="#263238"/>
<path d="M511.346 366.829C512.509 363.382 512.138 359.553 512.206 355.979C512.214 355.609 511.814 355.455 511.518 355.545C511.485 355.486 511.419 355.45 511.348 355.503C508.511 357.663 505.901 361.118 504.627 364.469C503.841 366.538 503.887 369.668 506.487 370.451C508.945 371.192 510.667 368.841 511.346 366.829ZM508.602 368.88C504.632 371.023 505.265 365.738 505.906 364.236C506.317 363.271 506.853 362.337 507.392 361.438C508.521 359.556 509.896 357.869 511.202 356.116C511.061 357.869 511.072 359.619 510.995 361.377C510.904 363.471 510.79 367.699 508.602 368.88Z" fill="#263238"/>
<path d="M501.044 344.745C498.977 346.506 500.193 349.391 501.744 350.97C504.255 353.527 508.033 355.643 511.499 356.482C511.585 356.502 511.63 356.443 511.638 356.375C511.945 356.34 512.249 356.038 512.094 355.702C510.597 352.456 509.398 348.801 506.949 346.111C505.519 344.541 502.998 343.08 501.044 344.745ZM508.817 351.245C509.592 352.823 510.285 354.43 511.118 355.979C509.218 354.899 507.281 353.906 505.491 352.634C504.637 352.028 503.771 351.389 503.007 350.669C501.818 349.551 499.116 344.965 503.612 345.333C506.091 345.537 507.893 349.364 508.817 351.245Z" fill="#263238"/>
<path d="M466.358 309.622C466.358 309.622 418.113 287.564 396.599 287.836C371.003 288.161 351.131 318.562 382.531 340.445C410.285 359.789 497.727 358.308 497.727 358.308L477.263 321.628C477.263 321.628 453.106 312.283 421.472 311.316L465.617 320.249L466.358 309.622Z" fill="#455A64"/>
<path d="M465.474 316.936C461.691 315.977 457.838 315.334 453.999 314.644C450.128 313.949 446.24 313.334 442.35 312.755C434.593 311.599 426.768 310.77 418.931 310.401C418.196 310.367 417.462 310.349 416.727 310.327C416.575 310.265 416.41 310.227 416.253 310.178C415.883 310.063 415.515 309.947 415.141 309.849C414.443 309.668 413.738 309.519 413.034 309.364C411.567 309.042 410.09 308.791 408.635 308.42C408.547 308.397 408.503 308.531 408.592 308.556C410.053 308.98 411.482 309.502 412.943 309.92C413.365 310.041 413.787 310.161 414.21 310.275C411.33 310.241 408.45 310.279 405.567 310.354C405.477 310.356 405.465 310.496 405.558 310.496C409.471 310.518 413.401 310.742 417.301 311.059C421.175 311.373 425.044 311.708 428.902 312.179C436.705 313.131 444.486 314.336 452.234 315.653C456.581 316.393 460.935 317.217 465.321 317.684C465.746 317.731 465.901 317.044 465.474 316.936Z" fill="#263238"/>
<path d="M488.835 356.65C487.578 354.32 486.538 351.851 485.404 349.458C484.267 347.057 483.129 344.656 481.987 342.258C479.709 337.472 471.466 321.341 470.623 320.195C470.569 320.122 470.446 320.193 470.47 320.276C470.828 321.506 475.935 332.164 477.116 334.543C479.477 339.301 481.977 343.977 484.436 348.684C485.138 350.028 485.869 351.357 486.584 352.694C487.296 354.03 488.062 355.349 488.709 356.717C488.749 356.8 488.879 356.732 488.835 356.65Z" fill="#263238"/>
<path d="M374.964 369.456C375.591 367.341 411.156 317.216 413.66 316.194C413.946 316.061 430.88 327.345 430.88 327.345C431.592 328.236 462.888 320.609 462.888 320.609L464.372 358.6L406.951 359.147C406.951 359.147 399.34 363.942 392.365 367.872C392.353 367.874 392.348 367.881 392.341 367.876C388.049 370.309 384.246 372.366 383.154 372.687C380.306 373.513 374.322 371.561 374.964 369.456Z" fill="#EB9481"/>
<path d="M383.153 372.689C384.25 372.371 388.048 370.315 392.338 367.877C392.348 367.885 392.357 367.876 392.366 367.876C399.337 363.946 406.948 359.146 406.948 359.146L419.728 359.027L438.728 326.149C434.364 327.062 431.105 327.629 430.877 327.343C430.877 327.343 413.949 316.06 413.66 316.197C411.156 317.217 375.594 367.34 374.964 369.455C374.325 371.56 380.306 373.517 383.153 372.689Z" fill="white"/>
<path d="M374.627 369.532C375.29 367.364 411.023 317.261 413.594 316.211C414.566 315.808 422.828 320.567 430.88 327.345L407.804 359.619C407.804 359.619 385.98 372.055 383.038 372.903C380.103 373.741 373.964 371.699 374.627 369.532Z" fill="#FFC727"/>
<path d="M377.144 370.242C383.34 361.991 407.553 328.124 413.05 319.497C413.095 319.427 413.049 319.394 412.997 319.459C406.677 327.504 382.74 361.565 377.005 370.145C376.885 370.325 377.013 370.417 377.144 370.242Z" fill="#263238"/>
<path d="M387.139 370.966C388.641 369.032 389.083 366.41 388.672 364.479C388.276 362.622 387.309 360.586 385.526 359.403C385.475 359.369 385.408 359.46 385.454 359.505C388.399 362.329 389.154 367.377 387.034 370.891C386.991 370.962 387.088 371.032 387.139 370.966Z" fill="#263238"/>
<path d="M405.083 361.653C407.527 358.324 409.12 353.581 407.861 349.531C407.812 349.374 407.589 349.446 407.57 349.582C406.969 353.739 406.076 357.459 404.628 361.416C404.526 361.694 404.908 361.891 405.083 361.653Z" fill="#263238"/>
<path d="M402.22 363.526C404.664 360.197 406.258 355.454 404.998 351.404C404.949 351.247 404.727 351.319 404.707 351.455C404.106 355.611 403.213 359.332 401.765 363.288C401.663 363.568 402.046 363.765 402.22 363.526Z" fill="#263238"/>
<path d="M399.357 365.4C401.801 362.072 403.395 357.328 402.135 353.278C402.086 353.121 401.864 353.194 401.845 353.33C401.244 357.486 400.351 361.207 398.902 365.163C398.801 365.441 399.183 365.638 399.357 365.4Z" fill="#263238"/>
<path d="M396.495 367.273C398.939 363.945 400.533 359.201 399.273 355.152C399.224 354.994 399.003 355.066 398.983 355.203C398.382 359.359 397.489 363.081 396.041 367.036C395.938 367.315 396.32 367.512 396.495 367.273Z" fill="#263238"/>
<path d="M419.502 327.326C422.18 323.546 416.311 319.377 413.628 323.162C410.949 326.941 416.818 331.111 419.502 327.326Z" fill="#263238"/>
<path d="M411.462 371.683C414.087 370.989 414.237 367.861 413.52 365.767C412.359 362.376 409.866 358.836 407.102 356.582C407.033 356.527 406.967 356.561 406.931 356.619C406.638 356.518 406.233 356.659 406.228 357.029C406.177 360.603 405.679 364.418 406.726 367.901C407.337 369.934 408.98 372.341 411.462 371.683ZM407.259 362.463C407.242 360.705 407.31 358.956 407.228 357.199C408.475 358.993 409.793 360.725 410.858 362.646C411.367 363.562 411.871 364.512 412.25 365.491C412.84 367.014 413.296 372.317 409.4 370.043C407.252 368.789 407.28 364.559 407.259 362.463Z" fill="#263238"/>
<path d="M411.813 347.34C409.276 349.947 407.956 353.56 406.35 356.754C406.184 357.085 406.478 357.397 406.784 357.443C406.788 357.511 406.833 357.572 406.918 357.555C410.411 356.831 414.257 354.843 416.852 352.371C418.455 350.844 419.766 348.002 417.76 346.173C415.862 344.443 413.294 345.819 411.813 347.34ZM415.173 346.676C419.679 346.457 416.825 350.951 415.599 352.029C414.812 352.721 413.925 353.331 413.051 353.91C411.22 355.12 409.251 356.048 407.316 357.065C408.201 355.545 408.947 353.962 409.774 352.41C410.76 350.56 412.689 346.795 415.173 346.676Z" fill="#263238"/>
<path d="M464.265 308.904C464.265 308.904 512.794 293.914 538.761 296.824C564.2 299.675 574.859 331.474 550.197 348.924C523.266 367.979 421.321 362.108 421.321 362.108L442.803 322.996C442.803 322.996 477.441 314.584 509.09 314.675L464.672 322.128L464.265 308.904Z" fill="#455A64"/>
<path d="M441.37 325.52C441.396 325.472 441.4 325.376 441.411 325.322C441.423 325.269 441.434 325.215 441.446 325.161C441.473 325.036 441.502 324.911 441.533 324.786C441.598 324.527 441.682 324.279 441.773 324.026C441.863 323.775 441.963 323.53 442.069 323.285C442.179 323.032 442.329 322.827 442.472 322.593C442.486 322.569 442.512 322.565 442.531 322.549C442.544 322.538 442.557 322.528 442.57 322.519C442.59 322.509 442.605 322.498 442.626 322.494C442.645 322.486 442.66 322.474 442.683 322.469C446.495 321.637 472.433 317.107 476.294 316.546C480.185 315.981 484.091 315.496 487.998 315.046C495.79 314.15 503.638 313.583 511.483 313.476C512.219 313.467 512.954 313.473 513.688 313.476C513.841 313.419 514.009 313.387 514.167 313.343C514.54 313.24 514.912 313.136 515.29 313.051C515.993 312.893 516.703 312.768 517.411 312.637C518.888 312.364 520.372 312.162 521.839 311.841C521.928 311.821 521.968 311.955 521.878 311.978C520.404 312.353 518.959 312.827 517.484 313.197C517.059 313.304 516.633 313.409 516.206 313.509C519.086 313.572 521.964 313.705 524.842 313.876C524.932 313.882 524.94 314.021 524.847 314.019C520.935 313.91 516.999 314.002 513.091 314.188C509.209 314.373 505.331 314.579 501.459 314.92C493.63 315.611 485.812 316.556 478.024 317.614C473.654 318.208 447.21 322.902 442.812 323.222C442.792 323.224 442.776 323.217 442.757 323.215C442.724 323.317 442.692 323.419 442.645 323.52C442.531 323.762 442.417 324.003 442.293 324.241C442.174 324.47 442.057 324.697 441.921 324.916C441.853 325.025 441.785 325.134 441.715 325.242C441.68 325.296 441.645 325.349 441.61 325.404C441.581 325.45 441.515 325.52 441.501 325.573C441.473 325.674 441.319 325.613 441.37 325.52Z" fill="#263238"/>
<path d="M429.424 359.52C430.759 357.233 431.881 354.8 433.094 352.446C434.311 350.084 435.529 347.723 436.75 345.364C439.186 340.658 447.963 324.811 448.844 323.693C448.9 323.623 449.021 323.698 448.994 323.779C448.596 324.996 443.136 335.478 441.876 337.816C439.358 342.493 436.703 347.083 434.087 351.705C433.34 353.024 432.566 354.328 431.807 355.642C431.051 356.953 430.241 358.246 429.548 359.591C429.507 359.674 429.378 359.601 429.424 359.52Z" fill="#263238"/>
<path d="M446.156 261.129C439.103 272.907 428.028 294.331 425.237 296.17C415.126 302.836 398.738 315.951 395.697 319.207C391.783 323.397 412.539 342.032 415.428 339.359C417.499 337.443 440.405 319.446 446.701 308.164C450.781 300.851 453.895 278.326 455.242 264.828C456.438 252.839 450.892 253.221 446.156 261.129Z" fill="#EB9481"/>
<path d="M418.689 336.447C418.323 336.806 413.11 341.889 409.629 344.214C407.032 345.95 399.421 350.744 397.227 348.074C395.728 346.255 399.872 342.909 402.749 340.478C404.265 339.197 405.839 336.687 404.968 335.727C403.446 334.05 399.575 337.445 397.162 340.1C392.498 345.234 386.776 353.626 382.365 351.832C380.699 351.154 381.598 348.672 383.221 346.003C380.305 349.437 377.016 352.539 375.136 351.858C374.058 351.472 373.73 350.579 373.887 349.389C372.879 350.11 371.863 350.354 370.939 349.841C369.363 348.978 369.361 346.968 370.062 344.685C369.634 344.773 369.194 344.68 368.765 344.319C365.05 341.294 374.112 326.357 378.123 323.957C389.918 316.883 403.538 313.189 403.538 313.189C409.815 315.606 418.696 336.434 418.689 336.447Z" fill="#EB9481"/>
<path d="M396.212 330.647C393.357 332.07 390.755 334.13 388.741 336.618C386.184 339.776 384.83 342.954 382.914 346.33C382.863 346.419 383 346.5 383.051 346.411C383.965 344.805 387.897 338.612 388.958 337.151C390.901 334.475 393.318 332.263 396.24 330.694C396.27 330.678 396.244 330.631 396.212 330.647Z" fill="#263238"/>
<path d="M392.12 325.987C389.057 327.966 385.916 329.982 383.307 332.553C380.451 335.367 378.683 339.041 376.925 342.593C375.87 344.726 374.859 346.882 373.902 349.061C373.862 349.152 373.993 349.235 374.039 349.142C375.806 345.487 377.681 341.882 379.669 338.342C381.539 335.011 383.901 332.168 386.894 329.792C388.582 328.453 390.367 327.246 392.151 326.042C392.184 326.02 392.154 325.965 392.12 325.987Z" fill="#263238"/>
<path d="M387.039 322.389C383.993 324.09 381.333 325.562 379.002 328.222C375.916 331.743 373.463 336.804 372.607 338.594C371.661 340.571 370.783 342.579 369.935 344.599C369.9 344.681 370.042 344.744 370.079 344.661C372.067 340.2 374.349 335.838 376.898 331.672C378.116 329.681 379.539 327.832 381.309 326.299C383.059 324.784 385.074 323.601 387.05 322.41C387.063 322.401 387.052 322.381 387.039 322.389Z" fill="#263238"/>
<path d="M399.368 313.201L421.232 338.189C421.232 338.189 441.571 317.536 447.677 308.555C450.226 304.804 455.366 276.202 456.104 266.806C457.005 255.332 452.498 249.991 446.123 259.946C440.602 268.567 425.935 293.97 425.056 294.597C424.177 295.224 399.368 313.201 399.368 313.201Z" fill="#FFC727"/>
<path d="M406.518 311.87C415.307 320.069 423.314 330.026 424.832 331.662C424.904 331.74 424.773 331.847 424.704 331.765C423.298 330.083 412.925 319.7 406.377 311.983C406.3 311.894 406.433 311.792 406.518 311.87Z" fill="#263238"/>
<path opacity="0.1" d="M456.1 266.806C455.363 276.205 450.228 304.807 447.674 308.552C441.572 317.534 421.232 338.187 421.232 338.187L409.324 324.582L451.032 254.947C454.626 253.527 456.744 258.6 456.1 266.806Z" fill="black"/>
<path d="M500.037 309.193L438.357 317.091L439.239 296.987C439.239 296.987 433.733 293.198 435.742 284.609C437.057 278.988 444.317 265.355 448.116 259.597C457.373 245.569 465.568 251.916 468.897 254.89C481.608 266.247 500.037 309.193 500.037 309.193Z" fill="#FFC727"/>
<path opacity="0.1" d="M454.153 252.961L464.247 251.739C464.65 251.919 465.046 252.112 465.415 252.319L453.052 253.812C453.421 253.501 453.783 253.212 454.153 252.961ZM447.922 259.893L471.089 257.09C470.885 256.86 470.685 256.65 470.485 256.44L448.456 259.093C448.348 259.254 448.231 259.426 448.115 259.598C448.052 259.689 447.992 259.79 447.922 259.893ZM444.414 265.761L475.047 262.063C474.894 261.834 474.732 261.616 474.57 261.398L444.852 264.989C444.703 265.247 444.563 265.503 444.414 265.761ZM441.278 271.597L478.452 267.103C478.309 266.882 478.165 266.65 478.023 266.429L441.686 270.82C441.546 271.076 441.408 271.343 441.278 271.597ZM438.472 277.388L481.555 272.181C481.421 271.948 481.288 271.725 481.155 271.502L438.821 276.614C438.702 276.876 438.583 277.137 438.472 277.388ZM436.173 283.122L484.463 277.287C484.34 277.062 484.205 276.829 484.082 276.604L436.433 282.355C436.336 282.623 436.246 282.879 436.173 283.122ZM435.315 288.677L487.216 282.403C487.103 282.176 486.979 281.951 486.854 281.716L435.302 287.941C435.301 288.192 435.299 288.441 435.315 288.677ZM436.361 293.266C436.468 293.515 436.592 293.739 436.713 293.955L489.861 287.541C489.748 287.313 489.634 287.087 489.509 286.851L436.361 293.266ZM439.144 299.114L492.409 292.676C492.295 292.449 492.191 292.22 492.078 291.993L439.184 298.388L439.144 299.114ZM438.909 304.598L494.88 297.837C494.775 297.608 494.662 297.381 494.547 297.145L438.937 303.866L438.909 304.598ZM438.662 310.074L497.271 302.993C497.169 302.774 497.065 302.545 496.959 302.307L438.701 309.35L438.662 310.074ZM438.427 315.559L499.584 308.164C499.496 307.962 499.391 307.733 499.282 307.476L438.454 314.826L438.427 315.559Z" fill="black"/>
<path d="M456.863 295.32C454.154 295.41 451.43 295.592 448.761 296.082C447.433 296.327 446.125 296.63 444.817 296.963C444.165 297.129 443.512 297.273 442.854 297.413C442.179 297.557 441.457 297.685 440.763 297.659C440.7 297.656 440.696 297.749 440.758 297.756C441.43 297.821 442.072 297.881 442.749 297.857C443.391 297.833 444.035 297.741 444.668 297.631C446.017 297.396 447.355 297.099 448.701 296.851C451.418 296.349 454.134 295.849 456.881 295.545C457.007 295.53 456.991 295.316 456.863 295.32Z" fill="#263238"/>
<path d="M463.367 298.171C461.17 297.792 458.922 297.514 456.696 297.386C455.577 297.322 454.462 297.323 453.341 297.354C452.806 297.369 452.271 297.393 451.737 297.424C451.149 297.458 450.565 297.571 449.977 297.596C449.916 297.598 449.909 297.694 449.972 297.693C450.527 297.686 451.086 297.77 451.641 297.796C452.198 297.821 452.756 297.841 453.313 297.866C454.43 297.916 455.545 297.979 456.663 298.018C458.899 298.097 461.125 298.198 463.357 298.354C463.477 298.364 463.48 298.191 463.367 298.171Z" fill="#263238"/>
<path d="M458.929 253.01C459.16 254.164 457.265 263.199 452.398 265.147C450.812 265.778 446.979 257.272 446.979 257.272L446.552 256.71L440.588 248.821L447.889 237.503L448.981 235.948C448.981 235.948 450.47 238.213 452.297 241.053C452.382 241.184 452.468 241.316 452.557 241.457C452.665 241.615 452.768 241.763 452.862 241.915C453.141 242.336 453.423 242.767 453.696 243.202C453.904 243.531 454.109 243.852 454.315 244.207C454.531 244.557 454.733 244.902 454.95 245.252C457.006 248.754 458.824 252.523 458.929 253.01Z" fill="#EB9481"/>
<path d="M452.297 241.053C452.965 249.189 448.678 254.582 446.552 256.71L440.588 248.821L447.889 237.503L448.981 235.948C448.981 235.948 450.47 238.213 452.297 241.053Z" fill="#263238"/>
<path d="M424.788 236.334C425.385 253.68 435.841 255.281 439.581 255.149C442.977 255.028 454.522 254.187 455.721 236.872C456.92 219.558 448.667 214.352 440.887 214.217C433.107 214.081 424.192 218.988 424.788 236.334Z" fill="#EB9481"/>
<path d="M428.032 236.149C428.419 236.012 428.753 235.822 429.121 235.648C429.536 235.451 429.887 235.337 430.133 234.925C430.265 234.703 430.168 234.338 429.966 234.19C429.493 233.844 428.925 233.959 428.415 234.176C427.861 234.411 427.495 234.734 427.215 235.265C426.943 235.779 427.522 236.329 428.032 236.149Z" fill="#263238"/>
<path d="M439.312 234.539C438.903 234.565 438.521 234.522 438.114 234.506C437.655 234.488 437.286 234.521 436.899 234.24C436.691 234.088 436.636 233.714 436.765 233.498C437.063 232.995 437.631 232.877 438.185 232.876C438.786 232.874 439.25 233.027 439.716 233.405C440.168 233.77 439.852 234.504 439.312 234.539Z" fill="#263238"/>
<path d="M430.914 240.108C430.897 240.066 430.833 240.18 430.843 240.227C431.092 241.383 431.181 242.749 430.2 243.326C430.169 243.344 430.183 243.402 430.221 243.389C431.472 242.976 431.334 241.164 430.914 240.108Z" fill="#263238"/>
<path d="M429.654 239.083C427.759 239.281 428.294 243.059 430.05 242.875C431.779 242.694 431.244 238.917 429.654 239.083Z" fill="#263238"/>
<path d="M428.903 239.444C428.633 239.686 428.389 240.092 428.036 240.166C427.626 240.252 427.263 239.887 426.943 239.532C426.91 239.496 426.885 239.532 426.89 239.581C426.973 240.306 427.318 241.024 428.032 241.065C428.682 241.101 429.059 240.416 429.129 239.672C429.142 239.534 429.011 239.346 428.903 239.444Z" fill="#263238"/>
<path d="M437.535 239.059C437.537 239.014 437.635 239.098 437.643 239.147C437.805 240.318 438.189 241.632 439.309 241.838C439.344 241.845 439.35 241.903 439.31 241.905C437.994 241.944 437.502 240.195 437.535 239.059Z" fill="#263238"/>
<path d="M438.367 237.665C440.216 237.201 441.007 240.933 439.294 241.362C437.609 241.785 436.817 238.053 438.367 237.665Z" fill="#263238"/>
<path d="M439.197 237.745C439.534 237.88 439.902 238.178 440.259 238.126C440.673 238.067 440.89 237.599 441.068 237.157C441.087 237.111 441.123 237.136 441.134 237.185C441.305 237.895 441.226 238.688 440.57 238.97C439.972 239.227 439.383 238.712 439.062 238.038C439.003 237.912 439.062 237.691 439.197 237.745Z" fill="#263238"/>
<path d="M439.449 247.931C439.255 248.276 439.091 248.721 438.689 248.876C438.304 249.024 437.79 248.982 437.387 248.947C437.347 248.944 437.321 248.992 437.355 249.02C437.777 249.369 438.476 249.46 438.975 249.215C439.462 248.974 439.586 248.456 439.573 247.95C439.571 247.879 439.477 247.88 439.449 247.931Z" fill="#263238"/>
<path d="M433.671 244.885C433.671 244.885 433.832 246.659 434.019 247.47C434.037 247.546 434.242 247.537 434.521 247.489C434.535 247.49 434.544 247.494 434.553 247.483C436.037 247.374 437.364 246.546 437.964 245.175C438.002 245.083 437.879 245.022 437.817 245.09C436.93 246.123 435.795 246.6 434.53 246.915C434.421 246.704 434.357 243.866 434.226 243.887C433.773 243.951 432.97 244.455 432.481 244.731C432.038 241.044 432.191 237.316 431.695 233.652C431.675 233.522 431.483 233.526 431.471 233.649C431.035 237.545 431.451 241.798 431.81 245.617C431.85 246.094 433.378 245.098 433.671 244.885Z" fill="#263238"/>
<path d="M434.55 247.074C434.55 247.074 435.525 248.033 436.687 248.252C437.116 248.334 437.562 248.323 438.001 248.129C438.903 247.734 438.791 246.867 438.502 246.155C438.267 245.569 437.903 245.09 437.903 245.09C437.903 245.09 436.731 246.592 434.55 247.074Z" fill="#263238"/>
<path d="M436.688 248.252C437.116 248.334 437.563 248.323 438.001 248.129C438.904 247.734 438.791 246.867 438.503 246.155C437.511 246.416 436.619 247.258 436.688 248.252Z" fill="#FF9BBC"/>
<path d="M455.282 238.342C452.073 239.259 450.081 231.89 450.081 231.89C450.081 231.89 435.773 231.67 432.844 220.497C432.844 220.497 431.566 228.102 424.766 232.501C424.766 232.501 423.339 219.977 432.837 216.042C432.837 216.042 444.399 209.702 452.778 218.362C461.157 227.021 457.436 237.727 455.282 238.342Z" fill="#263238"/>
<path d="M432.666 219.664C432.745 221.425 433.272 223.164 434.085 224.752C434.898 226.34 436.022 227.797 437.422 228.933C437.748 229.245 438.148 229.462 438.508 229.73L439.062 230.114C439.255 230.226 439.456 230.328 439.655 230.43C440.056 230.631 440.45 230.848 440.856 231.031C441.274 231.189 441.696 231.337 442.118 231.48C442.329 231.55 442.538 231.631 442.75 231.692L443.401 231.835L444.699 232.117C445.577 232.222 446.46 232.283 447.333 232.329C446.478 232.103 445.617 231.967 444.781 231.735L443.54 231.351L442.921 231.16C442.72 231.083 442.526 230.988 442.328 230.903C441.936 230.727 441.542 230.556 441.146 230.395C440.765 230.202 440.4 229.977 440.027 229.772L439.469 229.459L438.95 229.087C438.614 228.828 438.236 228.617 437.932 228.319C436.596 227.26 435.524 225.905 434.619 224.455C434.17 223.725 433.79 222.949 433.465 222.148C433.125 221.351 432.867 220.519 432.666 219.664Z" fill="#263238"/>
<path d="M455.818 242.775C455.555 242.934 455.308 243.047 455.066 243.126C454.785 243.233 454.517 243.282 454.266 243.297C453.875 243.332 453.525 243.273 453.223 243.163C452.945 243.071 452.694 242.931 452.486 242.785C451.946 242.402 451.66 241.948 451.66 241.948L451.753 237.214C451.753 237.214 454.488 231.194 457.147 232.073C459.817 232.951 458.46 241.191 455.818 242.775Z" fill="#EB9481"/>
<path d="M456.703 234.421C456.748 234.408 456.769 234.471 456.732 234.495C454.894 235.672 454.191 237.712 453.814 239.761C454.269 238.914 454.999 238.36 456.117 238.881C456.175 238.908 456.141 238.999 456.082 238.997C455.234 238.974 454.674 239.226 454.244 239.981C453.941 240.516 453.783 241.15 453.604 241.736C453.545 241.932 453.206 241.896 453.235 241.678C453.238 241.662 453.241 241.646 453.242 241.629C452.719 239.101 454.028 235.185 456.703 234.421Z" fill="#263238"/>
<path d="M462.252 263.448C461.115 277.129 459.716 299.871 457.635 302.488C450.097 311.967 438.598 329.527 436.72 333.567C434.303 338.766 459.824 350.025 461.738 346.586C463.111 344.122 479.287 319.895 481.763 307.214C483.368 298.995 477.053 276.97 473.087 263.998C469.251 251.448 462.984 254.636 462.252 263.448Z" fill="#EB9481"/>
<path d="M434.361 332.543C427.452 337.84 426.492 340.261 418.287 341.634C412.902 342.536 411.168 346.361 416.561 348.135C425.382 351.036 435.731 346.074 438.824 343.321L434.361 332.543Z" fill="#EB9481"/>
<path d="M456.351 322.061C456.351 322.061 445.718 325.184 437.797 330.1C432.319 333.499 421.228 342.225 421.66 361.463C421.763 366.026 425.145 372.455 427.684 364.941C429.487 359.604 429.018 355.675 430.633 352.761C430.633 352.761 435.905 360.429 440.473 360.147C442.514 360.021 448.077 359.547 452.356 358.562C452.356 358.562 452.392 357.572 452.258 356.311C452.258 356.311 458.391 353.621 461.738 346.585L456.351 322.061Z" fill="#EB9481"/>
<path d="M433.088 334.179C432.098 337.41 430.112 344.292 430.446 350.486C430.816 357.366 433.385 370.52 438.461 370.194C442.183 369.956 441.644 364.847 441.644 364.847C441.644 364.847 443.852 370.06 447.167 369.108C450.187 368.241 449.533 364.314 449.533 364.314C449.533 364.314 451.416 367.246 454.165 365.85C457.472 364.172 452.983 358.303 454.864 353.709C455.286 352.677 433.088 334.179 433.088 334.179Z" fill="#EB9481"/>
<path d="M437.65 348.882C437.216 352.073 438.09 359.572 441.515 364.785C441.592 364.903 441.724 364.908 441.675 364.785C439.123 358.245 438.018 351.689 437.715 348.879C437.71 348.84 437.655 348.846 437.65 348.882Z" fill="#263238"/>
<path d="M444.607 348.709C444.515 351.501 445.762 359.191 449.414 364.353C449.495 364.469 449.627 364.465 449.574 364.343C446.627 357.62 445.142 351.489 444.672 348.701C444.664 348.664 444.607 348.673 444.607 348.709Z" fill="#263238"/>
<path d="M430.592 352.723C429.209 355.305 428.907 357.574 428.415 360.419C428.172 361.826 427.905 363.234 427.506 364.607C427.143 365.856 426.625 367.715 425.078 367.903C424.218 368.007 423.526 367.31 423.08 366.659C422.58 365.929 422.04 364.189 421.887 363.315C421.88 363.271 421.802 363.283 421.809 363.327C421.932 364.117 422.309 365.804 422.651 366.529C422.96 367.185 423.387 367.881 424.035 368.25C425.429 369.044 426.856 367.886 427.46 366.665C427.822 365.935 428.044 365.125 428.251 364.338C428.451 363.579 428.614 362.81 428.758 362.038C429.053 360.453 429.257 358.852 429.534 357.265C429.838 355.52 430.193 354.457 430.689 352.759C430.705 352.702 430.62 352.672 430.592 352.723Z" fill="#263238"/>
<path d="M433.501 363.854C432.871 362.212 430.883 354.723 430.68 352.729C430.675 352.679 430.601 352.68 430.6 352.732C430.541 355.749 431.997 362.127 432.679 363.951C433.354 365.754 434.287 367.986 435.673 369.353C437.764 371.415 439.526 370.418 440.134 370.006C440.859 369.515 441.34 368.77 441.597 367.94C441.883 367.016 441.809 365.776 441.672 364.833C441.664 364.783 441.588 364.783 441.592 364.835C441.701 366.372 441.328 368.377 440.058 369.366C439.507 369.795 438.791 370.073 438.085 369.971C437.256 369.851 436.597 369.257 436.072 368.645C434.884 367.259 434.149 365.542 433.501 363.854Z" fill="#263238"/>
<path d="M438.344 326.717L466.892 343.67C466.892 343.67 479.802 317.717 482.813 307.283C484.07 302.926 477.204 274.646 474.522 265.611C471.558 255.628 465.214 248.097 461.858 262.248C459.496 272.21 457.615 300.18 456.974 301.049C456.334 301.918 438.344 326.717 438.344 326.717Z" fill="#FFC727"/>
<path d="M476.204 323.856C478.225 318.634 480.981 312.571 482.458 307.227C482.947 303.776 482.137 300.191 481.622 296.751C480.414 289.739 478.784 282.786 477.166 275.852L475.529 268.908C476.944 273.452 478.203 278.042 479.37 282.655C480.539 287.269 481.563 291.92 482.419 296.613C482.939 300.168 483.71 303.766 483.153 307.385C481.44 313.116 478.753 318.477 476.204 323.856Z" fill="#263238"/>
<path d="M476.888 274.533C476.664 272.932 476.829 271.286 476.631 269.691C477.377 271.164 477.223 272.96 476.888 274.533Z" fill="#263238"/>
<path d="M444.899 322.931C455.669 328.269 466.192 335.515 468.114 336.649C468.206 336.702 468.11 336.843 468.021 336.784C466.192 335.574 453.279 328.598 444.795 323.08C444.698 323.015 444.795 322.879 444.899 322.931Z" fill="#263238"/>
<path d="M445.644 316.403C449.116 311.14 452.694 305.956 456.333 300.812C456.596 300.526 456.637 299.968 456.753 299.472C457.033 297.933 457.229 296.374 457.427 294.819C458.229 288.808 458.958 282.118 459.717 276.064L460.534 269.813C460.427 271.913 460.26 274.007 460.117 276.104C459.625 282.211 458.994 288.879 458.233 294.924C457.873 296.931 457.817 299.185 457.053 301.075C453.324 306.24 449.539 311.362 445.644 316.403Z" fill="#263238"/>
<path d="M459.45 270.71C459.75 272.43 459.701 274.22 460.036 275.927C459.16 274.371 459.191 272.434 459.45 270.71Z" fill="#263238"/>
<path d="M453.858 369.533L379.98 370.065L380.004 373.373L453.881 372.841L453.858 369.533Z" fill="#C7C7C7"/>
<path d="M379.958 370.069L379.982 373.377L430.199 373.018L427.644 369.728L379.958 370.069Z" fill="#A6A6A6"/>
<path d="M420.041 373.092L355.384 373.555L345.701 328.004L410.359 327.541L420.041 373.092Z" fill="#A6A6A6"/>
<path d="M417.02 373.113L352.362 373.577L342.679 328.026L407.337 327.563L417.02 373.113Z" fill="#C7C7C7"/>
<path d="M374.008 348.912C373.955 351.068 375.413 353.116 377.262 353.49C379.111 353.862 380.653 352.416 380.705 350.26C380.757 348.105 379.3 346.056 377.45 345.683C375.601 345.311 374.06 346.756 374.008 348.912Z" fill="white"/>
<circle cx="134" cy="9" r="50" fill="#D9D9D9"/>
</g>
<defs>
<clipPath id="clip0_29_14526">
<rect width="611" height="407.333" fill="white"/>
</clipPath>
</defs>
</svg>
