<svg width="16" height="16" viewBox="0 0 16 16" fill="none" xmlns="http://www.w3.org/2000/svg">
<path fill-rule="evenodd" clip-rule="evenodd" d="M8.25419 0.626984C8.95623 0.626984 9.52535 1.1961 9.52535 1.89815L9.52535 6.98281L14.61 6.98281C15.3121 6.98281 15.8812 7.55193 15.8812 8.25397C15.8812 8.95602 15.3121 9.52514 14.61 9.52514H9.52535L9.52535 14.6098C9.52535 15.3118 8.95623 15.881 8.25419 15.881C7.55214 15.881 6.98302 15.3118 6.98302 14.6098L6.98302 9.52514H1.89836C1.19632 9.52514 0.627197 8.95602 0.627197 8.25398C0.627197 7.55193 1.19632 6.98281 1.89836 6.98281H6.98302L6.98302 1.89815C6.98302 1.1961 7.55214 0.626984 8.25419 0.626984Z" fill="white"/>
</svg>
