<svg width="57" height="57" viewBox="0 0 57 57" fill="none" xmlns="http://www.w3.org/2000/svg">
<path d="M44.2472 16.9823C44.3422 18.4311 44.2235 20.0698 43.9385 21.8986L42.2047 33.0373C40.7322 42.3236 36.4335 45.4586 27.1472 44.0098L16.0085 42.2523C12.8022 41.7536 10.3322 40.8986 8.52721 39.6161C5.08346 37.2173 4.08596 33.2748 5.03596 27.1948L6.79346 16.0561C8.26596 6.76982 12.5647 3.63482 21.851 5.08357L32.9897 6.84107C40.4472 8.00482 43.9385 11.0448 44.2472 16.9823Z" stroke="#263238" stroke-width="3.5625" stroke-linecap="round" stroke-linejoin="round"/>
<path d="M48.6886 31.9924L45.1261 42.7037C42.1573 51.6337 37.4073 54.0087 28.4773 51.0399L17.7661 47.4774C12.3748 45.6962 9.38234 43.2262 8.52734 39.6162C10.3323 40.8987 12.8023 41.7537 16.0086 42.2524L27.1473 44.0099C36.4336 45.4587 40.7323 42.3237 42.2048 33.0374L43.9386 21.8987C44.2236 20.0699 44.3423 18.4312 44.2473 16.9824C49.9236 19.9987 51.1586 24.5587 48.6886 31.9924Z" stroke="#263238" stroke-width="3.5625" stroke-linecap="round" stroke-linejoin="round"/>
<path d="M19.571 21.328C21.8533 21.328 23.7035 19.4778 23.7035 17.1955C23.7035 14.9132 21.8533 13.063 19.571 13.063C17.2887 13.063 15.4385 14.9132 15.4385 17.1955C15.4385 19.4778 17.2887 21.328 19.571 21.328Z" stroke="#263238" stroke-width="3.5625" stroke-linecap="round" stroke-linejoin="round"/>
</svg>
