<svg width="35" height="35" viewBox="0 0 35 35" fill="none" xmlns="http://www.w3.org/2000/svg">
<path fill-rule="evenodd" clip-rule="evenodd" d="M8.87223 8.87211C9.49985 5.48318 12.4711 2.91663 16.0417 2.91663H24.7917C28.8188 2.91663 32.0834 6.18122 32.0834 10.2083V18.9583C32.0834 22.529 29.5169 25.5002 26.1279 26.1278C25.5003 29.5167 22.5291 32.0833 18.9584 32.0833H10.2084C6.18134 32.0833 2.91675 28.8187 2.91675 24.7916V16.0416C2.91675 12.471 5.4833 9.49973 8.87223 8.87211ZM11.9157 8.74996H18.9584C22.9855 8.74996 26.2501 12.0145 26.2501 16.0416V23.0843C27.9493 22.4838 29.1667 20.8632 29.1667 18.9583V10.2083C29.1667 7.79205 27.208 5.83329 24.7917 5.83329H16.0417C14.1368 5.83329 12.5163 7.05072 11.9157 8.74996ZM10.2084 11.6666C7.79217 11.6666 5.83341 13.6254 5.83341 16.0416V24.7916C5.83341 27.2079 7.79217 29.1666 10.2084 29.1666H18.9584C21.3747 29.1666 23.3334 27.2079 23.3334 24.7916V16.0416C23.3334 13.6254 21.3747 11.6666 18.9584 11.6666H10.2084Z" fill="#FCBD01"/>
</svg>
