<svg width="20" height="21" viewBox="0 0 20 21" fill="none" xmlns="http://www.w3.org/2000/svg">
<path fill-rule="evenodd" clip-rule="evenodd" d="M17.893 5.08969C18.1341 5.32118 18.142 5.70434 17.9105 5.94548L13.8431 10.1823C13.729 10.3012 13.5713 10.3684 13.4065 10.3684C13.2416 10.3684 13.084 10.3012 12.9698 10.1823L10.5012 7.61083L7.57578 10.6581L9.66003 12.659L2.94751 14.6053L4.61827 7.81893L6.70252 9.81981L10.0646 6.31768C10.1787 6.19879 10.3364 6.13158 10.5012 6.13158C10.666 6.13158 10.8237 6.19879 10.9378 6.31768L13.4065 8.88917L17.0372 5.10715C17.2687 4.86601 17.6518 4.85819 17.893 5.08969Z" fill="#1C1C1C"/>
</svg>
