<svg width="62" height="62" viewBox="0 0 62 62" fill="none" xmlns="http://www.w3.org/2000/svg">
<path d="M43.9439 32.8851C45.4705 32.8851 46.708 31.6476 46.708 30.121C46.708 28.5944 45.4705 27.3569 43.9439 27.3569C42.4173 27.3569 41.1797 28.5944 41.1797 30.121C41.1797 31.6476 42.4173 32.8851 43.9439 32.8851Z" stroke="#263238" stroke-width="3.875" stroke-linecap="round" stroke-linejoin="round"/>
<path d="M51.667 15.4998V20.1239C51.0212 20.0464 50.272 19.9948 49.4711 19.9948H38.4145C32.8861 19.9948 31.052 21.8291 31.052 27.3574V40.5582H15.5003C7.23366 40.5582 5.16699 38.4915 5.16699 30.2249V15.4998C5.16699 7.23317 7.23366 5.1665 15.5003 5.1665H41.3337C49.6003 5.1665 51.667 7.23317 51.667 15.4998Z" stroke="#263238" stroke-width="3.875" stroke-linecap="round" stroke-linejoin="round"/>
<path d="M23.25 40.5562V51.6645" stroke="#263238" stroke-width="3.875" stroke-linecap="round" stroke-linejoin="round"/>
<path d="M5.16699 30.7427H31.0003" stroke="#263238" stroke-width="3.875" stroke-linecap="round" stroke-linejoin="round"/>
<path d="M15.3711 51.6665H31.0002" stroke="#263238" stroke-width="3.875" stroke-linecap="round" stroke-linejoin="round"/>
<path d="M43.94 32.8847C45.4666 32.8847 46.7041 31.6471 46.7041 30.1205C46.7041 28.5939 45.4666 27.3564 43.94 27.3564C42.4134 27.3564 41.1758 28.5939 41.1758 30.1205C41.1758 31.6471 42.4134 32.8847 43.94 32.8847Z" stroke="#263238" stroke-width="3.875" stroke-miterlimit="10" stroke-linecap="round" stroke-linejoin="round"/>
<path d="M51.6648 20.1243C51.019 20.0468 50.2698 19.9951 49.469 19.9951H38.4123C32.884 19.9951 31.0498 21.8294 31.0498 27.3577V49.471C31.0498 54.9994 32.884 56.8335 38.4123 56.8335H49.469C54.9973 56.8335 56.8315 54.9994 56.8315 49.471V27.3577C56.8315 22.6302 55.4882 20.6151 51.6648 20.1243ZM43.9407 27.3577C45.4649 27.3577 46.7048 28.5976 46.7048 30.1217C46.7048 31.6459 45.4649 32.8859 43.9407 32.8859C42.4165 32.8859 41.1765 31.6459 41.1765 30.1217C41.1765 28.5976 42.4165 27.3577 43.9407 27.3577ZM43.9407 49.471C40.8924 49.471 38.4123 46.991 38.4123 43.9427C38.4123 42.6768 38.8515 41.4885 39.5749 40.5585C40.5824 39.2668 42.1582 38.4143 43.9407 38.4143C45.3357 38.4143 46.6015 38.931 47.5573 39.7577C48.7198 40.791 49.469 42.2893 49.469 43.9427C49.469 46.991 46.989 49.471 43.9407 49.471Z" stroke="#263238" stroke-width="3.875" stroke-miterlimit="10" stroke-linecap="round" stroke-linejoin="round"/>
<path d="M49.4678 43.9449C49.4678 46.9932 46.9878 49.4732 43.9395 49.4732C40.8912 49.4732 38.4111 46.9932 38.4111 43.9449C38.4111 42.679 38.8503 41.4907 39.5737 40.5607C40.5812 39.269 42.157 38.4165 43.9395 38.4165C45.3345 38.4165 46.6003 38.9332 47.5562 39.7599C48.7187 40.7932 49.4678 42.2915 49.4678 43.9449Z" stroke="#263238" stroke-width="3.875" stroke-miterlimit="10" stroke-linecap="round" stroke-linejoin="round"/>
<path d="M43.94 32.8847C45.4666 32.8847 46.7041 31.6471 46.7041 30.1205C46.7041 28.5939 45.4666 27.3564 43.94 27.3564C42.4134 27.3564 41.1758 28.5939 41.1758 30.1205C41.1758 31.6471 42.4134 32.8847 43.94 32.8847Z" stroke="#263238" stroke-width="3.875" stroke-miterlimit="10" stroke-linecap="round" stroke-linejoin="round"/>
</svg>
