<svg width="50" height="50" viewBox="0 0 50 50" fill="none" xmlns="http://www.w3.org/2000/svg">
<path d="M45.833 13.542H33.333" stroke="#263238" stroke-width="3.125" stroke-miterlimit="10" stroke-linecap="round" stroke-linejoin="round"/>
<path d="M12.5003 13.542H4.16699" stroke="#263238" stroke-width="3.125" stroke-miterlimit="10" stroke-linecap="round" stroke-linejoin="round"/>
<path d="M20.8337 20.8338C24.8607 20.8338 28.1253 17.5692 28.1253 13.5422C28.1253 9.51508 24.8607 6.25049 20.8337 6.25049C16.8066 6.25049 13.542 9.51508 13.542 13.5422C13.542 17.5692 16.8066 20.8338 20.8337 20.8338Z" stroke="#263238" stroke-width="3.125" stroke-miterlimit="10" stroke-linecap="round" stroke-linejoin="round"/>
<path d="M45.8333 36.459H37.5" stroke="#263238" stroke-width="3.125" stroke-miterlimit="10" stroke-linecap="round" stroke-linejoin="round"/>
<path d="M16.667 36.459H4.16699" stroke="#263238" stroke-width="3.125" stroke-miterlimit="10" stroke-linecap="round" stroke-linejoin="round"/>
<path d="M29.1667 43.7503C33.1937 43.7503 36.4583 40.4857 36.4583 36.4587C36.4583 32.4316 33.1937 29.167 29.1667 29.167C25.1396 29.167 21.875 32.4316 21.875 36.4587C21.875 40.4857 25.1396 43.7503 29.1667 43.7503Z" stroke="#263238" stroke-width="3.125" stroke-miterlimit="10" stroke-linecap="round" stroke-linejoin="round"/>
</svg>
