<svg width="67" height="68" viewBox="0 0 67 68" fill="none" xmlns="http://www.w3.org/2000/svg">
<path d="M52.9052 61.685H14.2468C5.96289 61.685 5.96289 57.9572 5.96289 53.401V50.6397C5.96289 49.121 7.20548 47.8784 8.7242 47.8784H58.4279C59.9466 47.8784 61.1892 49.121 61.1892 50.6397V53.401C61.1892 57.9572 61.1892 61.685 52.9052 61.685Z" stroke="#263238" stroke-width="4.14197" stroke-linecap="round" stroke-linejoin="round"/>
<path d="M57.7347 36.8332V47.8784H9.5498V36.8332C9.5498 26.2297 17.033 17.3659 27.0013 15.2397C28.4924 14.9084 30.0388 14.7427 31.6403 14.7427H35.6442C37.2458 14.7427 38.8197 14.9084 40.3108 15.2397C50.2792 17.3935 57.7347 26.2297 57.7347 36.8332Z" stroke="#263238" stroke-width="4.14197" stroke-linecap="round" stroke-linejoin="round"/>
<path d="M40.5615 13.3623C40.5615 14.025 40.4786 14.6325 40.3129 15.24C38.8218 14.9086 37.2479 14.7429 35.6463 14.7429H31.6424C30.0408 14.7429 28.4945 14.9086 27.0034 15.24C26.8377 14.6325 26.7549 14.025 26.7549 13.3623C26.7549 9.55166 29.8476 6.45898 33.6582 6.45898C37.4688 6.45898 40.5615 9.55166 40.5615 13.3623Z" stroke="#263238" stroke-width="4.14197" stroke-linecap="round" stroke-linejoin="round"/>
<path d="M41.9409 31.3105H25.373" stroke="#263238" stroke-width="4.14197" stroke-linecap="round" stroke-linejoin="round"/>
</svg>
