<svg width="58" height="58" viewBox="0 0 58 58" fill="none" xmlns="http://www.w3.org/2000/svg">
<path d="M16.1914 43.4997H10.0289C6.57307 43.4997 4.83301 41.7596 4.83301 38.3038V10.0289C4.83301 6.57307 6.57307 4.83301 10.0289 4.83301H20.4205C23.8764 4.83301 25.6163 6.57307 25.6163 10.0289V14.4997" stroke="#263238" stroke-width="3.625" stroke-miterlimit="10" stroke-linecap="round" stroke-linejoin="round"/>
<path d="M41.9782 20.3478V47.3179C41.9782 51.2087 40.0449 53.1662 36.1541 53.1662H22.0407C18.1498 53.1662 16.1924 51.2087 16.1924 47.3179V20.3478C16.1924 16.457 18.1498 14.4995 22.0407 14.4995H36.1541C40.0449 14.4995 41.9782 16.457 41.9782 20.3478Z" stroke="#263238" stroke-width="3.625" stroke-miterlimit="10" stroke-linecap="round" stroke-linejoin="round"/>
<path d="M32.3848 14.4997V10.0289C32.3848 6.57307 34.1247 4.83301 37.5805 4.83301H47.9721C51.428 4.83301 53.168 6.57307 53.168 10.0289V38.3038C53.168 41.7596 51.428 43.4997 47.9721 43.4997H41.9789" stroke="#263238" stroke-width="3.625" stroke-miterlimit="10" stroke-linecap="round" stroke-linejoin="round"/>
<path d="M24.167 26.583H33.8337" stroke="#263238" stroke-width="3.625" stroke-miterlimit="10" stroke-linecap="round" stroke-linejoin="round"/>
<path d="M24.167 33.833H33.8337" stroke="#263238" stroke-width="3.625" stroke-miterlimit="10" stroke-linecap="round" stroke-linejoin="round"/>
<path d="M29 53.166V45.916" stroke="#263238" stroke-width="3.625" stroke-miterlimit="10" stroke-linecap="round" stroke-linejoin="round"/>
</svg>
