<svg width="65" height="65" viewBox="0 0 65 65" fill="none" xmlns="http://www.w3.org/2000/svg">
<path d="M48.751 40.6258V51.4591C48.751 55.9279 45.0947 59.5841 40.626 59.5841H24.376C19.9072 59.5841 16.251 55.9279 16.251 51.4591V37.8633L26.7864 37.9175C28.7635 37.9175 30.7135 38.3779 32.501 39.2716C34.2885 40.1654 36.2385 40.6258 38.2426 40.6258H48.751Z" stroke="#263238" stroke-width="4.0625" stroke-linecap="round" stroke-linejoin="round"/>
<path d="M48.751 29.3306V40.6244H38.2426C36.2385 40.6244 34.2885 40.1639 32.501 39.2702C30.7135 38.3764 28.7635 37.916 26.7864 37.916L16.251 37.8618V29.3306C16.251 28.0848 16.9552 26.3785 17.849 25.4848L23.5906 19.7431C24.0781 19.2556 24.376 18.5514 24.376 17.8473V13.541H40.626V17.8473C40.626 18.5514 40.9238 19.2556 41.4113 19.7431L47.153 25.4848C48.0467 26.3785 48.751 28.0848 48.751 29.3306Z" stroke="#263238" stroke-width="4.0625" stroke-linecap="round" stroke-linejoin="round"/>
<path d="M48.751 43.3328V40.6245" stroke="#263238" stroke-width="4.0625" stroke-linecap="round" stroke-linejoin="round"/>
<path d="M16.251 40.5716V37.8633" stroke="#263238" stroke-width="4.0625" stroke-linecap="round" stroke-linejoin="round"/>
<path d="M39.2721 13.541H25.7305C23.4826 13.541 21.668 11.6993 21.668 9.47852C21.668 7.25768 23.4826 5.41602 25.7305 5.41602H39.2721C41.5201 5.41602 43.3346 7.25768 43.3346 9.47852C43.3346 11.6993 41.5201 13.541 39.2721 13.541Z" stroke="#263238" stroke-width="4.0625" stroke-linecap="round" stroke-linejoin="round"/>
</svg>
