<svg width="91" height="96" viewBox="0 0 91 96" fill="none" xmlns="http://www.w3.org/2000/svg">
<circle cx="45.116" cy="47.6353" r="31.686" fill="#FCBD01"/>
<circle cx="44.6963" cy="47.6351" r="35.4632" fill="#FFD81A" fill-opacity="0.7"/>
<path d="M45.1162 54.4285C49.4059 54.4285 52.8803 50.9541 52.8803 46.6644V35.9887C52.8803 31.6991 49.4059 28.2246 45.1162 28.2246C40.8265 28.2246 37.3521 31.6991 37.3521 35.9887V46.6644C37.3521 50.9541 40.8265 54.4285 45.1162 54.4285Z" stroke="#263238" stroke-width="2.91155" stroke-linecap="round" stroke-linejoin="round"/>
<path d="M30.2672 43.0742V46.374C30.2672 54.5651 36.925 61.2229 45.1161 61.2229C53.3073 61.2229 59.965 54.5651 59.965 46.374V43.0742" stroke="#263238" stroke-width="2.91155" stroke-linecap="round" stroke-linejoin="round"/>
<path d="M42.4181 36.8232C44.165 36.1826 46.0672 36.1826 47.8142 36.8232" stroke="#263238" stroke-width="2.91155" stroke-linecap="round" stroke-linejoin="round"/>
<path d="M43.5632 40.9382C44.592 40.6664 45.6595 40.6664 46.6883 40.9382" stroke="#263238" stroke-width="2.91155" stroke-linecap="round" stroke-linejoin="round"/>
<path d="M45.1161 61.2227V67.0458" stroke="#263238" stroke-width="2.91155" stroke-linecap="round" stroke-linejoin="round"/>
</svg>
