<svg width="51" height="51" viewBox="0 0 51 51" fill="none" xmlns="http://www.w3.org/2000/svg">
<path d="M10.625 21.2505H14.875C19.125 21.2505 21.25 19.1255 21.25 14.8755V10.6255C21.25 6.37549 19.125 4.25049 14.875 4.25049H10.625C6.375 4.25049 4.25 6.37549 4.25 10.6255V14.8755C4.25 19.1255 6.375 21.2505 10.625 21.2505Z" stroke="#263238" stroke-width="3.1875" stroke-miterlimit="10" stroke-linecap="round" stroke-linejoin="round"/>
<path d="M36.125 21.2505H40.375C44.625 21.2505 46.75 19.1255 46.75 14.8755V10.6255C46.75 6.37549 44.625 4.25049 40.375 4.25049H36.125C31.875 4.25049 29.75 6.37549 29.75 10.6255V14.8755C29.75 19.1255 31.875 21.2505 36.125 21.2505Z" stroke="#263238" stroke-width="3.1875" stroke-miterlimit="10" stroke-linecap="round" stroke-linejoin="round"/>
<path d="M36.125 46.7505H40.375C44.625 46.7505 46.75 44.6255 46.75 40.3755V36.1255C46.75 31.8755 44.625 29.7505 40.375 29.7505H36.125C31.875 29.7505 29.75 31.8755 29.75 36.1255V40.3755C29.75 44.6255 31.875 46.7505 36.125 46.7505Z" stroke="#263238" stroke-width="3.1875" stroke-miterlimit="10" stroke-linecap="round" stroke-linejoin="round"/>
<path d="M10.625 46.7505H14.875C19.125 46.7505 21.25 44.6255 21.25 40.3755V36.1255C21.25 31.8755 19.125 29.7505 14.875 29.7505H10.625C6.375 29.7505 4.25 31.8755 4.25 36.1255V40.3755C4.25 44.6255 6.375 46.7505 10.625 46.7505Z" stroke="#263238" stroke-width="3.1875" stroke-miterlimit="10" stroke-linecap="round" stroke-linejoin="round"/>
</svg>
