<svg width="42" height="43" viewBox="0 0 42 43" fill="none" xmlns="http://www.w3.org/2000/svg">
<circle cx="20.8847" cy="21.5596" r="20.875" fill="#F2F8FF"/>
<path d="M20.8847 12.3745C19.9633 12.3745 19.2147 13.1231 19.2147 14.0445C19.2147 14.8208 19.7496 15.4683 20.4672 15.6558V16.967H16.7228C14.8734 16.967 13.3697 18.4707 13.3697 20.3201V21.977H11.2822V26.987H13.3697V30.7445H28.3997V26.987H30.4872V21.977H28.3997V20.3201C28.3997 18.4707 26.8961 16.967 25.0467 16.967H21.3022V15.6558C22.0214 15.4683 22.5547 14.8208 22.5547 14.0445C22.5547 13.1231 21.8062 12.3745 20.8847 12.3745ZM20.8847 13.2095C21.3446 13.2095 21.7197 13.5846 21.7197 14.0445C21.7197 14.5044 21.3446 14.8795 20.8847 14.8795C20.4248 14.8795 20.0497 14.5044 20.0497 14.0445C20.0497 13.5846 20.4248 13.2095 20.8847 13.2095ZM16.7228 17.802H25.0467C26.4345 17.802 27.5647 18.9322 27.5647 20.3201V29.9095H25.0597V26.5695H16.7097V29.9095H14.2047V20.3201C14.2047 18.9322 15.3349 17.802 16.7228 17.802ZM18.171 20.307C17.1354 20.307 16.2922 21.1502 16.2922 22.1858C16.2922 23.2214 17.1354 24.0645 18.171 24.0645C19.2066 24.0645 20.0497 23.2214 20.0497 22.1858C20.0497 21.1502 19.2066 20.307 18.171 20.307ZM23.5985 20.307C22.5629 20.307 21.7197 21.1502 21.7197 22.1858C21.7197 23.2214 22.5629 24.0645 23.5985 24.0645C24.6341 24.0645 25.4772 23.2214 25.4772 22.1858C25.4772 21.1502 24.6341 20.307 23.5985 20.307ZM18.171 21.142C18.7467 21.142 19.2147 21.6101 19.2147 22.1858C19.2147 22.7615 18.7467 23.2295 18.171 23.2295C17.5953 23.2295 17.1272 22.7615 17.1272 22.1858C17.1272 21.6101 17.5953 21.142 18.171 21.142ZM23.5985 21.142C24.1742 21.142 24.6422 21.6101 24.6422 22.1858C24.6422 22.7615 24.1742 23.2295 23.5985 23.2295C23.0228 23.2295 22.5547 22.7615 22.5547 22.1858C22.5547 21.6101 23.0228 21.142 23.5985 21.142ZM12.1172 22.812H13.3697V26.152H12.1172V22.812ZM28.3997 22.812H29.6522V26.152H28.3997V22.812ZM17.5447 27.4045H19.2147V29.9095H17.5447V27.4045ZM20.0497 27.4045H21.7197V29.9095H20.0497V27.4045ZM22.5547 27.4045H24.2247V29.9095H22.5547V27.4045Z" fill="#FC7901"/>
</svg>
