<svg width="31" height="31" viewBox="0 0 31 31" fill="none" xmlns="http://www.w3.org/2000/svg">
<path d="M13.3139 17.6858L19.5735 11.4261M25.9768 7.60602L20.693 24.7782C20.2194 26.3176 19.9826 27.0873 19.5742 27.3425C19.2199 27.5638 18.7809 27.6002 18.3951 27.4401C17.9502 27.2555 17.5896 26.5352 16.8693 25.0946L13.5226 18.4013C13.4083 18.1727 13.3511 18.0584 13.2748 17.9594C13.207 17.8715 13.1285 17.7926 13.0406 17.7249C12.9416 17.6485 12.827 17.5914 12.5984 17.4771L5.90508 14.1304C4.46447 13.4101 3.74411 13.0501 3.55952 12.6052C3.39943 12.2194 3.43594 11.7799 3.65727 11.4256C3.91249 11.0172 4.68227 10.7804 6.22169 10.3067L23.3939 5.023C24.6041 4.65062 25.209 4.4644 25.6178 4.61447C25.9739 4.74519 26.2548 5.0258 26.3855 5.38187C26.5356 5.79066 26.3491 6.39578 25.9768 7.60602Z" stroke="white" stroke-width="2.58333" stroke-linecap="round" stroke-linejoin="round"/>
</svg>
