<svg width="61" height="61" viewBox="0 0 61 61" fill="none" xmlns="http://www.w3.org/2000/svg">
<path d="M27.958 5.08301H22.8747C10.1663 5.08301 5.08301 10.1663 5.08301 22.8747V38.1247C5.08301 50.833 10.1663 55.9163 22.8747 55.9163H38.1247C50.833 55.9163 55.9163 50.833 55.9163 38.1247V33.0413" stroke="#263238" stroke-width="3.8125" stroke-linecap="round" stroke-linejoin="round"/>
<path d="M40.7683 7.67342L20.7399 27.7018C19.9774 28.4643 19.2149 29.9638 19.0624 31.0568L17.9695 38.7072C17.5629 41.4776 19.5199 43.4093 22.2904 43.028L29.9408 41.9351C31.0083 41.7826 32.5079 41.0201 33.2958 40.2576L53.3241 20.2293C56.7808 16.7726 58.4074 12.7568 53.3241 7.67342C48.2408 2.59009 44.2249 4.21676 40.7683 7.67342Z" stroke="#263238" stroke-width="3.8125" stroke-miterlimit="10" stroke-linecap="round" stroke-linejoin="round"/>
<path d="M37.8965 10.5483C39.5994 16.6229 44.3523 21.3758 50.4523 23.1042" stroke="#263238" stroke-width="3.8125" stroke-miterlimit="10" stroke-linecap="round" stroke-linejoin="round"/>
</svg>
