<svg width="20" height="21" viewBox="0 0 20 21" fill="none" xmlns="http://www.w3.org/2000/svg">
<path fill-rule="evenodd" clip-rule="evenodd" d="M10.34 7.47255L17.0525 5.52631L15.3817 12.3126L13.2975 10.3118L9.93542 13.8139C9.82129 13.9328 9.6636 14 9.49879 14C9.33398 14 9.1763 13.9328 9.06216 13.8139L6.59353 11.2424L2.96279 15.0244C2.73129 15.2656 2.34814 15.2734 2.107 15.0419C1.86585 14.8104 1.85804 14.4272 2.08953 14.1861L6.1569 9.94925C6.27104 9.83036 6.42872 9.76315 6.59353 9.76315C6.75834 9.76315 6.91602 9.83036 7.03016 9.94925L9.49879 12.5207L12.4242 9.47343L10.34 7.47255Z" fill="#1C1C1C"/>
</svg>
