<svg width="170" height="800" viewBox="0 0 170 800" fill="none" xmlns="http://www.w3.org/2000/svg">
<path d="M170 1008.8C156.169 1015.32 141.781 1021.75 126.837 1028.11C111.893 1034.47 97.1076 1040.51 82.4815 1046.24C67.8553 1051.96 53.8651 1057.29 40.5107 1062.21C27.1564 1066.98 15.2329 1071.12 4.74023 1074.62V1033.6C14.279 1030.42 24.6127 1027 35.7413 1023.34C46.711 1019.53 57.6806 1015.71 68.6502 1011.9C79.6198 1007.92 90.1125 1004.11 100.128 1000.45C110.144 996.795 118.808 993.376 126.122 990.197C118.808 987.176 110.144 983.838 100.128 980.181C90.1125 976.366 79.6198 972.55 68.6502 968.735C57.6806 964.76 46.711 960.945 35.7413 957.288C24.6127 953.472 14.279 949.975 4.74023 946.795V907.209C15.2329 910.866 27.1564 915.079 40.5107 919.848C53.8651 924.618 67.8553 929.864 82.4815 935.587C97.1076 941.311 111.893 947.352 126.837 953.711C141.781 960.07 156.169 966.509 170 973.027V1008.8ZM72.7042 815.937C61.4166 809.26 50.129 802.9 38.8415 796.859C27.5539 790.818 16.1868 785.254 4.74023 780.166V739.149C22.546 748.211 39.7953 757.591 56.4882 767.289C73.1811 776.987 89.9535 787.241 106.805 798.051H170V835.253H107.282C90.4305 846.063 73.5786 856.397 56.7267 866.254C39.8748 875.952 22.546 885.332 4.74023 894.393V851.23C16.1868 846.143 27.5539 840.658 38.8415 834.776C50.129 828.894 61.4166 822.614 72.7042 815.937ZM170 631.951C164.277 633.7 158.394 635.687 152.353 637.913C146.312 639.98 140.271 642.047 134.229 644.113V708.5C140.271 710.567 146.312 712.713 152.353 714.939C158.394 717.006 164.277 718.914 170 720.662V759.294C152.194 753.094 135.74 747.212 120.637 741.648C105.534 736.083 91.3049 730.678 77.9505 725.432C64.5962 720.026 51.9573 714.78 40.0338 709.693C27.9513 704.446 16.1868 699.041 4.74023 693.477L4.74023 657.945C16.1868 652.539 27.9513 647.214 40.0338 641.967C51.9573 636.721 64.5962 631.475 77.9505 626.228C91.3049 620.823 105.534 615.338 120.637 609.774C135.74 604.209 152.194 598.327 170 592.127V631.951ZM42.18 676.545C44.5647 677.34 47.8238 678.533 51.9573 680.122C56.0908 681.712 60.8602 683.541 66.2655 685.607C71.6708 687.674 77.6326 689.979 84.1508 692.523C90.669 694.908 97.5051 697.372 104.659 699.915V652.937C97.5051 655.481 90.669 657.945 84.1508 660.329C77.6326 662.714 71.6708 665.019 66.2655 667.245C60.8602 669.312 56.0908 671.14 51.9573 672.73C47.8238 674.32 44.5647 675.591 42.18 676.545ZM2.83247 521.134C2.83247 496.492 7.20442 477.573 15.9483 464.378C24.5332 451.182 38.6825 444.585 58.396 444.585C78.2685 444.585 92.6562 451.262 101.559 464.616C110.303 477.971 114.675 497.048 114.675 521.849V533.534H170V570.735H7.12493C5.53513 562.627 4.42227 554.043 3.78635 544.981C3.15043 535.919 2.83247 527.97 2.83247 521.134ZM34.549 518.749C34.549 521.452 34.6285 524.154 34.7875 526.857C34.9464 529.401 35.1054 531.626 35.2644 533.534H82.9584V521.849C82.9584 508.972 81.2096 499.274 77.7121 492.756C74.2145 486.238 67.6963 482.978 58.1575 482.978C53.5471 482.978 49.7316 483.853 46.711 485.602C43.6903 487.191 41.3056 489.576 39.5569 492.756C37.6491 495.776 36.3773 499.512 35.7413 503.964C34.9464 508.415 34.549 513.344 34.549 518.749ZM170 322.919C164.277 324.667 158.394 326.655 152.353 328.88C146.312 330.947 140.271 333.014 134.229 335.08L134.229 399.467C140.271 401.534 146.312 403.68 152.353 405.906C158.394 407.973 164.277 409.881 170 411.629V450.262C152.194 444.061 135.74 438.179 120.637 432.615C105.534 427.05 91.3049 421.645 77.9505 416.399C64.5962 410.993 51.9573 405.747 40.0338 400.66C27.9513 395.413 16.1868 390.008 4.74023 384.444V348.912C16.1868 343.506 27.9513 338.181 40.0338 332.934C51.9573 327.688 64.5962 322.442 77.9505 317.195C91.3049 311.79 105.534 306.305 120.637 300.741C135.74 295.176 152.194 289.294 170 283.094V322.919ZM42.18 367.512C44.5647 368.307 47.8238 369.5 51.9573 371.089C56.0908 372.679 60.8602 374.508 66.2655 376.574C71.6708 378.641 77.6326 380.946 84.1508 383.49C90.669 385.875 97.5051 388.339 104.659 390.882L104.659 343.904C97.5051 346.448 90.669 348.912 84.1508 351.296C77.6326 353.681 71.6708 355.986 66.2655 358.212C60.8602 360.279 56.0908 362.107 51.9573 363.697C47.8238 365.287 44.5647 366.559 42.18 367.512ZM170 142.203C164.277 143.952 158.394 145.939 152.353 148.165C146.312 150.231 140.271 152.298 134.229 154.365V218.752C140.271 220.819 146.312 222.965 152.353 225.19C158.394 227.257 164.277 229.165 170 230.914V269.546C152.194 263.346 135.74 257.463 120.637 251.899C105.534 246.335 91.3049 240.929 77.9505 235.683C64.5962 230.278 51.9573 225.031 40.0338 219.944C27.9513 214.698 16.1868 209.292 4.74023 203.728V168.196C16.1868 162.791 27.9513 157.465 40.0338 152.219C51.9573 146.972 64.5962 141.726 77.9505 136.48C91.3049 131.074 105.534 125.589 120.637 120.025C135.74 114.461 152.194 108.579 170 102.378V142.203ZM42.18 186.797C44.5647 187.592 47.8238 188.784 51.9573 190.374C56.0908 191.964 60.8602 193.792 66.2655 195.859C71.6708 197.925 77.6326 200.231 84.1508 202.774C90.669 205.159 97.5051 207.623 104.659 210.167V163.188C97.5051 165.732 90.669 168.196 84.1508 170.581C77.6326 172.966 71.6708 175.271 66.2655 177.496C60.8602 179.563 56.0908 181.391 51.9573 182.981C47.8238 184.571 44.5647 185.843 42.18 186.797ZM2.83247 32.5774C2.83247 7.77653 7.28391 -11.2216 16.1868 -24.4169C24.9307 -37.6123 38.603 -44.2099 57.2036 -44.2099C68.8092 -44.2099 78.2685 -41.5073 85.5816 -36.102C92.7357 -30.8556 98.3795 -23.2246 102.513 -13.2088C106.646 -16.5474 111.416 -20.045 116.821 -23.7015C122.068 -27.3581 127.632 -30.9351 133.514 -34.4327C139.237 -38.0892 145.279 -41.5868 151.638 -44.9254C157.838 -48.2639 163.959 -51.364 170 -54.2257V-12.4934C164.595 -9.47281 159.11 -6.3727 153.546 -3.1931C147.981 -0.172477 142.576 3.00713 137.33 6.34571C132.083 9.52531 127.155 12.7049 122.544 15.8845C117.775 19.0641 113.483 22.2437 109.667 25.4233V43.7855H170V80.9868H7.12493C5.53513 72.8789 4.42227 64.5324 3.78635 55.9475C3.15043 47.2036 2.83247 39.4136 2.83247 32.5774ZM34.549 30.4312C34.549 33.1338 34.6285 35.598 34.7875 37.8238C34.9464 39.8905 35.1054 41.8778 35.2644 43.7855H80.0968V33.2928C80.0968 19.3026 78.348 9.28684 74.8504 3.2456C71.3529 -2.79565 65.3911 -5.81627 56.9652 -5.81627C48.8572 -5.81627 43.1339 -2.71616 39.7953 3.48406C36.2978 9.52531 34.549 18.5077 34.549 30.4312ZM138.045 -245.771H170V-135.36H4.74023L4.74023 -172.561H138.045V-245.771ZM170 -387.834C164.277 -386.085 158.394 -384.098 152.353 -381.872C146.312 -379.806 140.271 -377.739 134.229 -375.672V-311.285C140.271 -309.219 146.312 -307.072 152.353 -304.847C158.394 -302.78 164.277 -300.872 170 -299.123V-260.491C152.194 -266.691 135.74 -272.574 120.637 -278.138C105.534 -283.702 91.3049 -289.108 77.9505 -294.354C64.5962 -299.759 51.9573 -305.006 40.0338 -310.093C27.9513 -315.339 16.1868 -320.745 4.74023 -326.309V-361.841C16.1868 -367.246 27.9513 -372.572 40.0338 -377.818C51.9573 -383.065 64.5962 -388.311 77.9505 -393.557C91.3049 -398.963 105.534 -404.448 120.637 -410.012C135.74 -415.576 152.194 -421.458 170 -427.659V-387.834ZM42.18 -343.24C44.5647 -342.445 47.8238 -341.253 51.9573 -339.663C56.0908 -338.073 60.8602 -336.245 66.2655 -334.178C71.6708 -332.112 77.6326 -329.806 84.1508 -327.263C90.669 -324.878 97.5051 -322.414 104.659 -319.87V-366.849C97.5051 -364.305 90.669 -361.841 84.1508 -359.456C77.6326 -357.072 71.6708 -354.766 66.2655 -352.541C60.8602 -350.474 56.0908 -348.646 51.9573 -347.056C47.8238 -345.466 44.5647 -344.194 42.18 -343.24ZM173.339 -509.018C173.339 -497.412 171.749 -487.397 168.569 -478.971C165.231 -470.545 160.7 -463.55 154.976 -457.985C149.094 -452.58 142.178 -448.526 134.229 -445.823C126.122 -443.28 117.219 -442.008 107.521 -442.008H4.74023V-479.209H104.421C111.098 -479.209 116.821 -479.925 121.591 -481.355C126.201 -482.945 130.017 -485.012 133.037 -487.556C135.899 -490.258 137.966 -493.438 139.237 -497.094C140.509 -500.91 141.145 -505.043 141.145 -509.495C141.145 -518.557 138.363 -525.87 132.799 -531.434C127.234 -537.157 117.775 -540.019 104.421 -540.019H4.74023V-577.22H107.521C117.219 -577.22 126.122 -575.869 134.229 -573.166C142.337 -570.464 149.333 -566.33 155.215 -560.766C160.938 -555.202 165.39 -548.127 168.569 -539.542C171.749 -530.957 173.339 -520.782 173.339 -509.018ZM170 -723.887C151.081 -713.235 132.401 -701.709 113.96 -689.309C95.5178 -676.908 78.1095 -663.713 61.7346 -649.723H170V-612.998H4.74023V-643.284C9.98657 -648.53 16.4253 -654.333 24.0563 -660.692C31.6873 -667.052 39.8748 -673.49 48.6187 -680.008C57.2037 -686.686 66.186 -693.283 75.5658 -699.801C84.7867 -706.32 93.6896 -712.44 102.274 -718.164H4.74023L4.74023 -755.127H170V-723.887ZM4.74023 -892.929V-930.13H170V-892.929H99.8898V-830.449H170V-793.248H4.74023V-830.449H67.9348V-892.929H4.74023ZM173.339 -1043.73C173.339 -1016.86 165.867 -996.355 150.922 -982.206C135.978 -968.216 114.754 -961.221 87.2509 -961.221C73.5786 -961.221 61.4166 -963.367 50.765 -967.659C39.9543 -971.952 30.8925 -977.834 23.5794 -985.306C16.1073 -992.778 10.4635 -1001.68 6.64798 -1012.01C2.83246 -1022.35 0.924703 -1033.56 0.924703 -1045.64C0.924703 -1052.63 1.48114 -1058.99 2.594 -1064.72C3.54788 -1070.44 4.74023 -1075.45 6.17105 -1079.74C7.44289 -1084.03 8.79422 -1087.61 10.225 -1090.47C11.6559 -1093.33 12.7687 -1095.4 13.5636 -1096.67L43.6109 -1085.94C40.9082 -1080.85 38.603 -1074.89 36.6952 -1068.06C34.7875 -1061.38 33.8336 -1053.75 33.8336 -1045.16C33.8336 -1039.44 34.7875 -1033.79 36.6952 -1028.23C38.603 -1022.83 41.7031 -1017.98 45.9956 -1013.68C50.129 -1009.55 55.5344 -1006.21 62.2115 -1003.67C68.8887 -1001.12 76.9967 -999.853 86.5355 -999.853C94.1665 -999.853 101.321 -1000.65 107.998 -1002.24C114.516 -1003.99 120.16 -1006.69 124.929 -1010.35C129.699 -1014.16 133.514 -1019.09 136.376 -1025.13C139.078 -1031.17 140.43 -1038.48 140.43 -1047.07C140.43 -1052.48 140.112 -1057.32 139.476 -1061.62C138.84 -1065.91 138.124 -1069.72 137.33 -1073.06C136.376 -1076.4 135.342 -1079.34 134.229 -1081.89C133.117 -1084.43 132.083 -1086.74 131.129 -1088.8L160.938 -1099.06C164.118 -1093.81 166.979 -1086.42 169.523 -1076.88C172.067 -1067.34 173.339 -1056.29 173.339 -1043.73ZM2.83247 -1172.61C2.83247 -1197.25 7.20442 -1216.17 15.9483 -1229.37C24.5332 -1242.56 38.6825 -1249.16 58.396 -1249.16C78.2685 -1249.16 92.6562 -1242.48 101.559 -1229.13C110.303 -1215.77 114.675 -1196.69 114.675 -1171.89V-1160.21H170V-1123.01H7.12493C5.53513 -1131.12 4.42227 -1139.7 3.78635 -1148.76C3.15043 -1157.82 2.83247 -1165.77 2.83247 -1172.61ZM34.549 -1174.99C34.549 -1172.29 34.6285 -1169.59 34.7875 -1166.89C34.9464 -1164.34 35.1054 -1162.12 35.2644 -1160.21H82.9584V-1171.89C82.9584 -1184.77 81.2096 -1194.47 77.7121 -1200.99C74.2145 -1207.51 67.6963 -1210.76 58.1575 -1210.76C53.5471 -1210.76 49.7316 -1209.89 46.711 -1208.14C43.6903 -1206.55 41.3056 -1204.17 39.5569 -1200.99C37.6491 -1197.97 36.3773 -1194.23 35.7413 -1189.78C34.9464 -1185.33 34.549 -1180.4 34.549 -1174.99ZM170 -1370.82C164.277 -1369.08 158.394 -1367.09 152.353 -1364.86C146.312 -1362.8 140.271 -1360.73 134.229 -1358.66V-1294.28C140.271 -1292.21 146.312 -1290.06 152.353 -1287.84C158.394 -1285.77 164.277 -1283.86 170 -1282.11V-1243.48C152.194 -1249.68 135.74 -1255.56 120.637 -1261.13C105.534 -1266.69 91.3049 -1272.1 77.9505 -1277.34C64.5962 -1282.75 51.9573 -1288 40.0338 -1293.08C27.9513 -1298.33 16.1868 -1303.74 4.74023 -1309.3V-1344.83C16.1868 -1350.24 27.9513 -1355.56 40.0338 -1360.81C51.9573 -1366.06 64.5962 -1371.3 77.9505 -1376.55C91.3049 -1381.95 105.534 -1387.44 120.637 -1393C135.74 -1398.57 152.194 -1404.45 170 -1410.65V-1370.82ZM42.18 -1326.23C44.5647 -1325.44 47.8238 -1324.24 51.9573 -1322.65C56.0908 -1321.06 60.8602 -1319.24 66.2655 -1317.17C71.6708 -1315.1 77.6326 -1312.8 84.1508 -1310.25C90.669 -1307.87 97.5051 -1305.4 104.659 -1302.86V-1349.84C97.5051 -1347.3 90.669 -1344.83 84.1508 -1342.45C77.6326 -1340.06 71.6708 -1337.76 66.2655 -1335.53C60.8602 -1333.46 56.0908 -1331.64 51.9573 -1330.05C47.8238 -1328.46 44.5647 -1327.18 42.18 -1326.23ZM139.714 -1469.24C139.873 -1470.99 140.032 -1472.98 140.191 -1475.2C140.191 -1477.59 140.191 -1480.37 140.191 -1483.55C140.191 -1502.15 135.501 -1515.9 126.122 -1524.81C116.742 -1533.87 103.785 -1538.4 87.2509 -1538.4C69.9221 -1538.4 56.8062 -1534.11 47.9033 -1525.52C39.0004 -1516.94 34.549 -1503.34 34.549 -1484.74C34.549 -1482.2 34.6285 -1479.58 34.7875 -1476.87C34.7875 -1474.17 34.9464 -1471.63 35.2644 -1469.24H139.714ZM87.2509 -1576.79C101.559 -1576.79 114.039 -1574.57 124.691 -1570.11C135.342 -1565.66 144.166 -1559.3 151.161 -1551.04C158.156 -1542.93 163.402 -1532.99 166.9 -1521.23C170.397 -1509.46 172.146 -1496.27 172.146 -1481.64C172.146 -1474.97 171.828 -1467.18 171.192 -1458.27C170.715 -1449.37 169.603 -1440.63 167.854 -1432.04H6.88646C5.29666 -1440.63 4.26329 -1449.53 3.78635 -1458.75C3.15043 -1468.13 2.83247 -1476.16 2.83247 -1482.83C2.83247 -1496.98 4.42227 -1509.78 7.60186 -1521.23C10.7815 -1532.83 15.7893 -1542.77 22.6255 -1551.04C29.4616 -1559.3 38.2055 -1565.66 48.8572 -1570.11C59.5089 -1574.57 72.3068 -1576.79 87.2509 -1576.79Z" fill="white" fill-opacity="0.3"/>
</svg>
