<svg width="174" height="800" viewBox="0 0 174 800" fill="none" xmlns="http://www.w3.org/2000/svg">
<path d="M170 2210.8C156.169 2217.32 141.781 2223.75 126.837 2230.11C111.893 2236.47 97.1076 2242.51 82.4815 2248.24C67.8553 2253.96 53.8651 2259.29 40.5107 2264.21C27.1564 2268.98 15.2329 2273.12 4.74023 2276.62V2235.6C14.279 2232.42 24.6127 2229 35.7413 2225.34C46.711 2221.53 57.6806 2217.71 68.6502 2213.9C79.6198 2209.92 90.1125 2206.11 100.128 2202.45C110.144 2198.79 118.808 2195.38 126.122 2192.2C118.808 2189.18 110.144 2185.84 100.128 2182.18C90.1125 2178.37 79.6198 2174.55 68.6502 2170.73C57.6806 2166.76 46.711 2162.94 35.7413 2159.29C24.6127 2155.47 14.279 2151.97 4.74023 2148.8V2109.21C15.2329 2112.87 27.1564 2117.08 40.5107 2121.85C53.8651 2126.62 67.8553 2131.86 82.4815 2137.59C97.1076 2143.31 111.893 2149.35 126.837 2155.71C141.781 2162.07 156.169 2168.51 170 2175.03V2210.8ZM72.7042 2017.94C61.4166 2011.26 50.129 2004.9 38.8415 1998.86C27.5539 1992.82 16.1868 1987.25 4.74023 1982.17V1941.15C22.546 1950.21 39.7953 1959.59 56.4882 1969.29C73.1811 1978.99 89.9535 1989.24 106.805 2000.05H170V2037.25H107.282C90.4305 2048.06 73.5786 2058.4 56.7267 2068.25C39.8748 2077.95 22.546 2087.33 4.74023 2096.39V2053.23C16.1868 2048.14 27.5539 2042.66 38.8415 2036.78C50.129 2030.89 61.4166 2024.61 72.7042 2017.94ZM170 1833.95C164.277 1835.7 158.394 1837.69 152.353 1839.91C146.312 1841.98 140.271 1844.05 134.229 1846.11V1910.5C140.271 1912.57 146.312 1914.71 152.353 1916.94C158.394 1919.01 164.277 1920.91 170 1922.66V1961.29C152.194 1955.09 135.74 1949.21 120.637 1943.65C105.534 1938.08 91.3049 1932.68 77.9505 1927.43C64.5962 1922.03 51.9573 1916.78 40.0338 1911.69C27.9513 1906.45 16.1868 1901.04 4.74023 1895.48L4.74023 1859.94C16.1868 1854.54 27.9513 1849.21 40.0338 1843.97C51.9573 1838.72 64.5962 1833.47 77.9505 1828.23C91.3049 1822.82 105.534 1817.34 120.637 1811.77C135.74 1806.21 152.194 1800.33 170 1794.13V1833.95ZM42.18 1878.55C44.5647 1879.34 47.8238 1880.53 51.9573 1882.12C56.0908 1883.71 60.8602 1885.54 66.2655 1887.61C71.6708 1889.67 77.6326 1891.98 84.1508 1894.52C90.669 1896.91 97.5051 1899.37 104.659 1901.92V1854.94C97.5051 1857.48 90.669 1859.94 84.1508 1862.33C77.6326 1864.71 71.6708 1867.02 66.2655 1869.25C60.8602 1871.31 56.0908 1873.14 51.9573 1874.73C47.8238 1876.32 44.5647 1877.59 42.18 1878.55ZM2.83247 1723.13C2.83247 1698.49 7.20442 1679.57 15.9483 1666.38C24.5332 1653.18 38.6825 1646.58 58.396 1646.58C78.2685 1646.58 92.6562 1653.26 101.559 1666.62C110.303 1679.97 114.675 1699.05 114.675 1723.85V1735.53H170V1772.74H7.12493C5.53513 1764.63 4.42227 1756.04 3.78635 1746.98C3.15043 1737.92 2.83247 1729.97 2.83247 1723.13ZM34.549 1720.75C34.549 1723.45 34.6285 1726.15 34.7875 1728.86C34.9464 1731.4 35.1054 1733.63 35.2644 1735.53H82.9584V1723.85C82.9584 1710.97 81.2096 1701.27 77.7121 1694.76C74.2145 1688.24 67.6963 1684.98 58.1575 1684.98C53.5471 1684.98 49.7316 1685.85 46.711 1687.6C43.6903 1689.19 41.3056 1691.58 39.5569 1694.76C37.6491 1697.78 36.3773 1701.51 35.7413 1705.96C34.9464 1710.42 34.549 1715.34 34.549 1720.75ZM170 1524.92C164.277 1526.67 158.394 1528.65 152.353 1530.88C146.312 1532.95 140.271 1535.01 134.229 1537.08L134.229 1601.47C140.271 1603.53 146.312 1605.68 152.353 1607.91C158.394 1609.97 164.277 1611.88 170 1613.63V1652.26C152.194 1646.06 135.74 1640.18 120.637 1634.61C105.534 1629.05 91.3049 1623.65 77.9505 1618.4C64.5962 1612.99 51.9573 1607.75 40.0338 1602.66C27.9513 1597.41 16.1868 1592.01 4.74023 1586.44V1550.91C16.1868 1545.51 27.9513 1540.18 40.0338 1534.93C51.9573 1529.69 64.5962 1524.44 77.9505 1519.2C91.3049 1513.79 105.534 1508.31 120.637 1502.74C135.74 1497.18 152.194 1491.29 170 1485.09V1524.92ZM42.18 1569.51C44.5647 1570.31 47.8238 1571.5 51.9573 1573.09C56.0908 1574.68 60.8602 1576.51 66.2655 1578.57C71.6708 1580.64 77.6326 1582.95 84.1508 1585.49C90.669 1587.87 97.5051 1590.34 104.659 1592.88L104.659 1545.9C97.5051 1548.45 90.669 1550.91 84.1508 1553.3C77.6326 1555.68 71.6708 1557.99 66.2655 1560.21C60.8602 1562.28 56.0908 1564.11 51.9573 1565.7C47.8238 1567.29 44.5647 1568.56 42.18 1569.51ZM170 1344.2C164.277 1345.95 158.394 1347.94 152.353 1350.16C146.312 1352.23 140.271 1354.3 134.229 1356.36V1420.75C140.271 1422.82 146.312 1424.96 152.353 1427.19C158.394 1429.26 164.277 1431.16 170 1432.91V1471.55C152.194 1465.35 135.74 1459.46 120.637 1453.9C105.534 1448.33 91.3049 1442.93 77.9505 1437.68C64.5962 1432.28 51.9573 1427.03 40.0338 1421.94C27.9513 1416.7 16.1868 1411.29 4.74023 1405.73V1370.2C16.1868 1364.79 27.9513 1359.46 40.0338 1354.22C51.9573 1348.97 64.5962 1343.73 77.9505 1338.48C91.3049 1333.07 105.534 1327.59 120.637 1322.03C135.74 1316.46 152.194 1310.58 170 1304.38V1344.2ZM42.18 1388.8C44.5647 1389.59 47.8238 1390.78 51.9573 1392.37C56.0908 1393.96 60.8602 1395.79 66.2655 1397.86C71.6708 1399.93 77.6326 1402.23 84.1508 1404.77C90.669 1407.16 97.5051 1409.62 104.659 1412.17V1365.19C97.5051 1367.73 90.669 1370.2 84.1508 1372.58C77.6326 1374.97 71.6708 1377.27 66.2655 1379.5C60.8602 1381.56 56.0908 1383.39 51.9573 1384.98C47.8238 1386.57 44.5647 1387.84 42.18 1388.8ZM2.83247 1234.58C2.83247 1209.78 7.28391 1190.78 16.1868 1177.58C24.9307 1164.39 38.603 1157.79 57.2036 1157.79C68.8092 1157.79 78.2685 1160.49 85.5816 1165.9C92.7357 1171.14 98.3795 1178.78 102.513 1188.79C106.646 1185.45 111.416 1181.96 116.821 1178.3C122.068 1174.64 127.632 1171.06 133.514 1167.57C139.237 1163.91 145.279 1160.41 151.638 1157.07C157.838 1153.74 163.959 1150.64 170 1147.77V1189.51C164.595 1192.53 159.11 1195.63 153.546 1198.81C147.981 1201.83 142.576 1205.01 137.33 1208.35C132.083 1211.53 127.155 1214.7 122.544 1217.88C117.775 1221.06 113.483 1224.24 109.667 1227.42V1245.79H170V1282.99H7.12493C5.53513 1274.88 4.42227 1266.53 3.78635 1257.95C3.15043 1249.2 2.83247 1241.41 2.83247 1234.58ZM34.549 1232.43C34.549 1235.13 34.6285 1237.6 34.7875 1239.82C34.9464 1241.89 35.1054 1243.88 35.2644 1245.79H80.0968V1235.29C80.0968 1221.3 78.348 1211.29 74.8504 1205.25C71.3529 1199.2 65.3911 1196.18 56.9652 1196.18C48.8572 1196.18 43.1339 1199.28 39.7953 1205.48C36.2978 1211.53 34.549 1220.51 34.549 1232.43ZM138.045 956.229H170V1066.64H4.74023L4.74023 1029.44H138.045V956.229ZM170 814.166C164.277 815.915 158.394 817.902 152.353 820.128C146.312 822.194 140.271 824.261 134.229 826.328V890.715C140.271 892.781 146.312 894.928 152.353 897.153C158.394 899.22 164.277 901.128 170 902.877V941.509C152.194 935.309 135.74 929.426 120.637 923.862C105.534 918.298 91.3049 912.892 77.9505 907.646C64.5962 902.241 51.9573 896.994 40.0338 891.907C27.9513 886.661 16.1868 881.255 4.74023 875.691V840.159C16.1868 834.754 27.9513 829.428 40.0338 824.182C51.9573 818.935 64.5962 813.689 77.9505 808.443C91.3049 803.037 105.534 797.552 120.637 791.988C135.74 786.424 152.194 780.542 170 774.341V814.166ZM42.18 858.76C44.5647 859.555 47.8238 860.747 51.9573 862.337C56.0908 863.927 60.8602 865.755 66.2655 867.822C71.6708 869.888 77.6326 872.194 84.1508 874.737C90.669 877.122 97.5051 879.586 104.659 882.13V835.151C97.5051 837.695 90.669 840.159 84.1508 842.544C77.6326 844.928 71.6708 847.234 66.2655 849.459C60.8602 851.526 56.0908 853.354 51.9573 854.944C47.8238 856.534 44.5647 857.806 42.18 858.76ZM173.339 692.982C173.339 704.588 171.749 714.603 168.569 723.029C165.231 731.455 160.7 738.45 154.976 744.015C149.094 749.42 142.178 753.474 134.229 756.177C126.122 758.72 117.219 759.992 107.521 759.992H4.74023V722.791H104.421C111.098 722.791 116.821 722.075 121.591 720.645C126.201 719.055 130.017 716.988 133.037 714.444C135.899 711.742 137.966 708.562 139.237 704.906C140.509 701.09 141.145 696.957 141.145 692.505C141.145 683.443 138.363 676.13 132.799 670.566C127.234 664.843 117.775 661.981 104.421 661.981H4.74023V624.78H107.521C117.219 624.78 126.122 626.131 134.229 628.834C142.337 631.536 149.333 635.67 155.215 641.234C160.938 646.798 165.39 653.873 168.569 662.458C171.749 671.043 173.339 681.218 173.339 692.982ZM170 478.113C151.081 488.765 132.401 500.291 113.96 512.691C95.5178 525.092 78.1095 538.287 61.7346 552.277H170V589.002H4.74023V558.716C9.98657 553.47 16.4253 547.667 24.0563 541.308C31.6873 534.948 39.8748 528.51 48.6187 521.992C57.2037 515.314 66.186 508.717 75.5658 502.199C84.7867 495.68 93.6896 489.56 102.274 483.836H4.74023L4.74023 446.873H170V478.113ZM4.74023 309.071V271.87H170V309.071H99.8898V371.551H170V408.752H4.74023V371.551H67.9348V309.071H4.74023ZM173.339 158.269C173.339 185.136 165.867 205.645 150.922 219.794C135.978 233.784 114.754 240.779 87.2509 240.779C73.5786 240.779 61.4166 238.633 50.765 234.341C39.9543 230.048 30.8925 224.166 23.5794 216.694C16.1073 209.222 10.4635 200.319 6.64798 189.985C2.83246 179.652 0.924703 168.444 0.924703 156.361C0.924703 149.366 1.48114 143.007 2.594 137.283C3.54788 131.56 4.74023 126.552 6.17105 122.26C7.44289 117.967 8.79422 114.39 10.225 111.529C11.6559 108.667 12.7687 106.6 13.5636 105.328L43.6109 116.06C40.9082 121.147 38.603 127.109 36.6952 133.945C34.7875 140.622 33.8336 148.253 33.8336 156.838C33.8336 162.561 34.7875 168.205 36.6952 173.769C38.603 179.175 41.7031 184.024 45.9956 188.316C50.129 192.45 55.5344 195.788 62.2115 198.332C68.8887 200.876 76.9967 202.147 86.5355 202.147C94.1665 202.147 101.321 201.352 107.998 199.763C114.516 198.014 120.16 195.311 124.929 191.655C129.699 187.839 133.514 182.911 136.376 176.87C139.078 170.828 140.43 163.515 140.43 154.93C140.43 149.525 140.112 144.676 139.476 140.384C138.84 136.091 138.124 132.276 137.33 128.937C136.376 125.598 135.342 122.657 134.229 120.114C133.117 117.57 132.083 115.265 131.129 113.198L160.938 102.944C164.118 108.19 166.979 115.583 169.523 125.122C172.067 134.66 173.339 145.709 173.339 158.269ZM2.83247 29.3907C2.83247 4.74877 7.20442 -14.1699 15.9483 -27.3652C24.5332 -40.5605 38.6825 -47.1582 58.396 -47.1582C78.2685 -47.1582 92.6562 -40.4811 101.559 -27.1267C110.303 -13.7724 114.675 5.3052 114.675 30.1061V41.7911H170V78.9925H7.12493C5.53513 70.8845 4.42227 62.2996 3.78635 53.2377C3.15043 44.1758 2.83247 36.2268 2.83247 29.3907ZM34.549 27.006C34.549 29.7086 34.6285 32.4113 34.7875 35.114C34.9464 37.6576 35.1054 39.8834 35.2644 41.7911H82.9584V30.1061C82.9584 17.2287 81.2096 7.53092 77.7121 1.01275C74.2145 -5.50544 67.6963 -8.76453 58.1575 -8.76453C53.5471 -8.76453 49.7316 -7.89014 46.711 -6.14136C43.6903 -4.55156 41.3056 -2.16686 39.5569 1.01275C37.6491 4.03337 36.3773 7.7694 35.7413 12.2208C34.9464 16.6723 34.549 21.6007 34.549 27.006ZM170 -168.825C164.277 -167.076 158.394 -165.089 152.353 -162.863C146.312 -160.796 140.271 -158.729 134.229 -156.663V-92.2758C140.271 -90.209 146.312 -88.0628 152.353 -85.8371C158.394 -83.7703 164.277 -81.8626 170 -80.1138V-41.4816C152.194 -47.6818 135.74 -53.5641 120.637 -59.1284C105.534 -64.6927 91.3049 -70.098 77.9505 -75.3444C64.5962 -80.7497 51.9573 -85.996 40.0338 -91.0834C27.9513 -96.3297 16.1868 -101.735 4.74023 -107.299V-142.831C16.1868 -148.237 27.9513 -153.563 40.0338 -158.809C51.9573 -164.055 64.5962 -169.302 77.9505 -174.548C91.3049 -179.953 105.534 -185.438 120.637 -191.002C135.74 -196.567 152.194 -202.449 170 -208.649V-168.825ZM42.18 -124.231C44.5647 -123.436 47.8238 -122.243 51.9573 -120.654C56.0908 -119.064 60.8602 -117.236 66.2655 -115.169C71.6708 -113.102 77.6326 -110.797 84.1508 -108.253C90.669 -105.869 97.5051 -103.404 104.659 -100.861V-147.839C97.5051 -145.296 90.669 -142.831 84.1508 -140.447C77.6326 -138.062 71.6708 -135.757 66.2655 -133.531C60.8602 -131.464 56.0908 -129.636 51.9573 -128.046C47.8238 -126.456 44.5647 -125.185 42.18 -124.231ZM139.714 -267.242C139.873 -268.991 140.032 -270.978 140.191 -273.204C140.191 -275.588 140.191 -278.37 140.191 -281.55C140.191 -300.151 135.501 -313.902 126.122 -322.805C116.742 -331.867 103.785 -336.398 87.2509 -336.398C69.9221 -336.398 56.8062 -332.106 47.9033 -323.521C39.0004 -314.936 34.549 -301.343 34.549 -282.742C34.549 -280.199 34.6285 -277.576 34.7875 -274.873C34.7875 -272.17 34.9464 -269.627 35.2644 -267.242H139.714ZM87.2509 -374.792C101.559 -374.792 114.039 -372.566 124.691 -368.115C135.342 -363.663 144.166 -357.304 151.161 -349.037C158.156 -340.929 163.402 -330.993 166.9 -319.228C170.397 -307.464 172.146 -294.268 172.146 -279.642C172.146 -272.965 171.828 -265.175 171.192 -256.272C170.715 -247.369 169.603 -238.625 167.854 -230.04H6.88646C5.29666 -238.625 4.26329 -247.528 3.78635 -256.749C3.15043 -266.129 2.83247 -274.157 2.83247 -280.835C2.83247 -294.984 4.42227 -307.782 7.60186 -319.228C10.7815 -330.834 15.7893 -340.77 22.6255 -349.037C29.4616 -357.304 38.2055 -363.663 48.8572 -368.115C59.5089 -372.566 72.3068 -374.792 87.2509 -374.792Z" fill="white" fill-opacity="0.3"/>
</svg>
