<svg width="500" height="500" viewBox="0 0 500 500" fill="none" xmlns="http://www.w3.org/2000/svg">
<rect width="500" height="500" rx="50" fill="white"/>
<path d="M127.547 377C118.161 357.082 108.888 336.363 99.7309 314.843C90.5732 293.322 81.8735 272.031 73.6316 250.968C65.3898 229.906 57.7202 209.759 50.6231 190.528C43.7549 171.297 37.8024 154.126 32.7657 139.016H91.8324C96.4112 152.753 101.333 167.634 106.599 183.66C112.094 199.457 117.588 215.253 123.083 231.05C128.806 246.847 134.301 261.957 139.567 276.381C144.832 290.804 149.754 303.281 154.333 313.812C158.683 303.281 163.491 290.804 168.756 276.381C174.251 261.957 179.746 246.847 185.24 231.05C190.964 215.253 196.458 199.457 201.724 183.66C207.219 167.634 212.255 152.753 216.834 139.016H273.84C268.575 154.126 262.508 171.297 255.639 190.528C248.771 209.759 241.216 229.906 232.974 250.968C224.732 272.031 216.033 293.322 206.875 314.843C197.717 336.363 188.445 357.082 179.059 377H127.547Z" fill="black"/>
<path d="M463.637 330.983V377H304.637V139.016H358.209V330.983H463.637Z" fill="#FCBD01"/>
</svg>
