<svg width="22" height="21" viewBox="0 0 22 21" fill="none" xmlns="http://www.w3.org/2000/svg">
<path d="M10.8847 1.37451C9.96329 1.37451 9.21473 2.12308 9.21473 3.04451C9.21473 3.8208 9.74965 4.46825 10.4672 4.6558V5.96701H6.72277C4.87338 5.96701 3.36973 7.47066 3.36973 9.32006V10.977H1.28223V15.987H3.36973V19.7445H18.3997V15.987H20.4872V10.977H18.3997V9.32006C18.3997 7.47066 16.8961 5.96701 15.0467 5.96701H11.3022V4.6558C12.0214 4.46825 12.5547 3.8208 12.5547 3.04451C12.5547 2.12308 11.8062 1.37451 10.8847 1.37451ZM10.8847 2.20951C11.3446 2.20951 11.7197 2.58461 11.7197 3.04451C11.7197 3.50441 11.3446 3.87951 10.8847 3.87951C10.4248 3.87951 10.0497 3.50441 10.0497 3.04451C10.0497 2.58461 10.4248 2.20951 10.8847 2.20951ZM6.72277 6.80201H15.0467C16.4345 6.80201 17.5647 7.9322 17.5647 9.32006V18.9095H15.0597V15.5695H6.70973V18.9095H4.20473V9.32006C4.20473 7.9322 5.33491 6.80201 6.72277 6.80201ZM8.17098 9.30701C7.13538 9.30701 6.29223 10.1502 6.29223 11.1858C6.29223 12.2214 7.13538 13.0645 8.17098 13.0645C9.20657 13.0645 10.0497 12.2214 10.0497 11.1858C10.0497 10.1502 9.20657 9.30701 8.17098 9.30701ZM13.5985 9.30701C12.5629 9.30701 11.7197 10.1502 11.7197 11.1858C11.7197 12.2214 12.5629 13.0645 13.5985 13.0645C14.6341 13.0645 15.4772 12.2214 15.4772 11.1858C15.4772 10.1502 14.6341 9.30701 13.5985 9.30701ZM8.17098 10.142C8.74667 10.142 9.21473 10.6101 9.21473 11.1858C9.21473 11.7615 8.74667 12.2295 8.17098 12.2295C7.59528 12.2295 7.12723 11.7615 7.12723 11.1858C7.12723 10.6101 7.59528 10.142 8.17098 10.142ZM13.5985 10.142C14.1742 10.142 14.6422 10.6101 14.6422 11.1858C14.6422 11.7615 14.1742 12.2295 13.5985 12.2295C13.0228 12.2295 12.5547 11.7615 12.5547 11.1858C12.5547 10.6101 13.0228 10.142 13.5985 10.142ZM2.11723 11.812H3.36973V15.152H2.11723V11.812ZM18.3997 11.812H19.6522V15.152H18.3997V11.812ZM7.54473 16.4045H9.21473V18.9095H7.54473V16.4045ZM10.0497 16.4045H11.7197V18.9095H10.0497V16.4045ZM12.5547 16.4045H14.2247V18.9095H12.5547V16.4045Z" fill="#FC7901"/>
</svg>
