<svg width="419" height="47" viewBox="0 0 419 47" fill="none" xmlns="http://www.w3.org/2000/svg">
<path d="M13.728 38C12.416 35.216 11.12 32.32 9.84 29.312C8.56 26.304 7.344 23.328 6.192 20.384C5.04 17.44 3.968 14.624 2.976 11.936C2.016 9.248 1.184 6.848 0.48 4.736H8.736C9.376 6.656 10.064 8.736 10.8 10.976C11.568 13.184 12.336 15.392 13.104 17.6C13.904 19.808 14.672 21.92 15.408 23.936C16.144 25.952 16.832 27.696 17.472 29.168C18.08 27.696 18.752 25.952 19.488 23.936C20.256 21.92 21.024 19.808 21.792 17.6C22.592 15.392 23.36 13.184 24.096 10.976C24.864 8.736 25.568 6.656 26.208 4.736H34.176C33.44 6.848 32.592 9.248 31.632 11.936C30.672 14.624 29.616 17.44 28.464 20.384C27.312 23.328 26.096 26.304 24.816 29.312C23.536 32.32 22.24 35.216 20.928 38H13.728ZM60.4166 12.752C58.9766 17.616 57.4726 22.176 55.9046 26.432C54.3366 30.688 52.6246 34.816 50.7686 38.816C50.0966 40.256 49.4246 41.472 48.7526 42.464C48.0806 43.488 47.3446 44.32 46.5446 44.96C45.7446 45.632 44.8326 46.112 43.8086 46.4C42.8166 46.72 41.6486 46.88 40.3046 46.88C39.1846 46.88 38.1446 46.768 37.1846 46.544C36.2566 46.352 35.4886 46.128 34.8806 45.872L36.1286 40.16C36.8646 40.416 37.5206 40.592 38.0966 40.688C38.6726 40.784 39.2806 40.832 39.9206 40.832C41.2006 40.832 42.1766 40.48 42.8486 39.776C43.5526 39.104 44.1446 38.16 44.6246 36.944C42.9926 33.744 41.3606 30.16 39.7286 26.192C38.0966 22.192 36.5606 17.712 35.1206 12.752H42.7046C43.0246 14 43.3926 15.36 43.8086 16.832C44.2566 18.272 44.7206 19.744 45.2006 21.248C45.6806 22.72 46.1606 24.16 46.6406 25.568C47.1526 26.976 47.6326 28.256 48.0806 29.408C48.4966 28.256 48.9286 26.976 49.3766 25.568C49.8246 24.16 50.2566 22.72 50.6726 21.248C51.1206 19.744 51.5366 18.272 51.9206 16.832C52.3366 15.36 52.7046 14 53.0246 12.752H60.4166ZM73.4299 33.008C74.1339 33.008 74.8059 32.992 75.4459 32.96C76.0859 32.928 76.5979 32.88 76.9819 32.816V27.392C76.6939 27.328 76.2619 27.264 75.6859 27.2C75.1099 27.136 74.5819 27.104 74.1019 27.104C73.4299 27.104 72.7899 27.152 72.1819 27.248C71.6059 27.312 71.0939 27.456 70.6459 27.68C70.1979 27.904 69.8459 28.208 69.5899 28.592C69.3339 28.976 69.2059 29.456 69.2059 30.032C69.2059 31.152 69.5739 31.936 70.3099 32.384C71.0779 32.8 72.1179 33.008 73.4299 33.008ZM72.8539 12.08C74.9659 12.08 76.7259 12.32 78.1339 12.8C79.5419 13.28 80.6619 13.968 81.4939 14.864C82.3579 15.76 82.9659 16.848 83.3179 18.128C83.6699 19.408 83.8459 20.832 83.8459 22.4V37.28C82.8219 37.504 81.3979 37.76 79.5739 38.048C77.7499 38.368 75.5419 38.528 72.9499 38.528C71.3179 38.528 69.8299 38.384 68.4859 38.096C67.1739 37.808 66.0379 37.344 65.0779 36.704C64.1179 36.032 63.3819 35.168 62.8699 34.112C62.3579 33.056 62.1019 31.76 62.1019 30.224C62.1019 28.752 62.3899 27.504 62.9659 26.48C63.5739 25.456 64.3739 24.64 65.3659 24.032C66.3579 23.424 67.4939 22.992 68.7739 22.736C70.0539 22.448 71.3819 22.304 72.7579 22.304C73.6859 22.304 74.5019 22.352 75.2059 22.448C75.9419 22.512 76.5339 22.608 76.9819 22.736V22.064C76.9819 20.848 76.6139 19.872 75.8779 19.136C75.1419 18.4 73.8619 18.032 72.0379 18.032C70.8219 18.032 69.6219 18.128 68.4379 18.32C67.2539 18.48 66.2299 18.72 65.3659 19.04L64.4539 13.28C64.8699 13.152 65.3819 13.024 65.9899 12.896C66.6299 12.736 67.3179 12.608 68.0539 12.512C68.7899 12.384 69.5579 12.288 70.3579 12.224C71.1899 12.128 72.0219 12.08 72.8539 12.08ZM200.298 31.568V38H178.074V4.736H185.562V31.568H200.298ZM214.852 33.008C215.556 33.008 216.228 32.992 216.868 32.96C217.508 32.928 218.02 32.88 218.404 32.816V27.392C218.116 27.328 217.684 27.264 217.108 27.2C216.532 27.136 216.004 27.104 215.524 27.104C214.852 27.104 214.212 27.152 213.604 27.248C213.028 27.312 212.516 27.456 212.068 27.68C211.62 27.904 211.268 28.208 211.012 28.592C210.756 28.976 210.628 29.456 210.628 30.032C210.628 31.152 210.996 31.936 211.732 32.384C212.5 32.8 213.54 33.008 214.852 33.008ZM214.276 12.08C216.388 12.08 218.148 12.32 219.556 12.8C220.964 13.28 222.084 13.968 222.916 14.864C223.78 15.76 224.388 16.848 224.74 18.128C225.092 19.408 225.268 20.832 225.268 22.4V37.28C224.244 37.504 222.82 37.76 220.996 38.048C219.172 38.368 216.964 38.528 214.372 38.528C212.74 38.528 211.252 38.384 209.908 38.096C208.596 37.808 207.46 37.344 206.5 36.704C205.54 36.032 204.804 35.168 204.292 34.112C203.78 33.056 203.524 31.76 203.524 30.224C203.524 28.752 203.812 27.504 204.388 26.48C204.996 25.456 205.796 24.64 206.788 24.032C207.78 23.424 208.916 22.992 210.196 22.736C211.476 22.448 212.804 22.304 214.18 22.304C215.108 22.304 215.924 22.352 216.628 22.448C217.364 22.512 217.956 22.608 218.404 22.736V22.064C218.404 20.848 218.036 19.872 217.3 19.136C216.564 18.4 215.284 18.032 213.46 18.032C212.244 18.032 211.044 18.128 209.86 18.32C208.676 18.48 207.652 18.72 206.788 19.04L205.876 13.28C206.292 13.152 206.804 13.024 207.412 12.896C208.052 12.736 208.74 12.608 209.476 12.512C210.212 12.384 210.98 12.288 211.78 12.224C212.612 12.128 213.444 12.08 214.276 12.08ZM253.287 37.136C252.071 37.488 250.503 37.808 248.583 38.096C246.663 38.416 244.647 38.576 242.535 38.576C240.391 38.576 238.599 38.288 237.159 37.712C235.751 37.136 234.631 36.336 233.799 35.312C232.967 34.256 232.375 33.008 232.023 31.568C231.671 30.128 231.495 28.544 231.495 26.816V12.752H238.647V25.952C238.647 28.256 238.951 29.92 239.559 30.944C240.167 31.968 241.303 32.48 242.967 32.48C243.479 32.48 244.023 32.464 244.599 32.432C245.175 32.368 245.687 32.304 246.135 32.24V12.752H253.287V37.136ZM260.001 13.616C261.217 13.264 262.785 12.944 264.705 12.656C266.625 12.336 268.641 12.176 270.753 12.176C272.897 12.176 274.673 12.464 276.081 13.04C277.521 13.584 278.657 14.368 279.489 15.392C280.321 16.416 280.913 17.632 281.265 19.04C281.617 20.448 281.793 22.016 281.793 23.744V38H274.641V24.608C274.641 22.304 274.337 20.672 273.729 19.712C273.121 18.752 271.985 18.272 270.321 18.272C269.809 18.272 269.265 18.304 268.689 18.368C268.113 18.4 267.601 18.448 267.153 18.512V38H260.001V13.616ZM287.066 25.376C287.066 23.552 287.354 21.84 287.93 20.24C288.538 18.608 289.402 17.2 290.522 16.016C291.642 14.8 293.002 13.84 294.602 13.136C296.202 12.432 298.026 12.08 300.074 12.08C301.418 12.08 302.65 12.208 303.77 12.464C304.89 12.688 305.978 13.024 307.034 13.472L305.546 19.184C304.874 18.928 304.138 18.704 303.338 18.512C302.538 18.32 301.642 18.224 300.65 18.224C298.538 18.224 296.954 18.88 295.898 20.192C294.874 21.504 294.362 23.232 294.362 25.376C294.362 27.648 294.842 29.408 295.802 30.656C296.794 31.904 298.506 32.528 300.938 32.528C301.802 32.528 302.73 32.448 303.722 32.288C304.714 32.128 305.626 31.872 306.458 31.52L307.466 37.376C306.634 37.728 305.594 38.032 304.346 38.288C303.098 38.544 301.722 38.672 300.218 38.672C297.914 38.672 295.93 38.336 294.266 37.664C292.602 36.96 291.226 36.016 290.138 34.832C289.082 33.648 288.298 32.256 287.786 30.656C287.306 29.024 287.066 27.264 287.066 25.376ZM312.266 38V1.904L319.418 0.751999V12.848C319.898 12.688 320.506 12.544 321.242 12.416C322.01 12.256 322.746 12.176 323.45 12.176C325.498 12.176 327.194 12.464 328.538 13.04C329.914 13.584 331.002 14.368 331.802 15.392C332.634 16.416 333.21 17.632 333.53 19.04C333.882 20.448 334.058 22.016 334.058 23.744V38H326.906V24.608C326.906 22.304 326.602 20.672 325.994 19.712C325.418 18.752 324.33 18.272 322.73 18.272C322.09 18.272 321.482 18.336 320.906 18.464C320.362 18.56 319.866 18.672 319.418 18.8V38H312.266Z" fill="black"/>
<path d="M106.489 25.568C106.489 23.36 105.993 21.6 105.001 20.288C104.009 18.944 102.537 18.272 100.585 18.272C99.9451 18.272 99.3531 18.304 98.8091 18.368C98.2651 18.4 97.8171 18.448 97.4651 18.512V31.424C97.9131 31.712 98.4891 31.952 99.1931 32.144C99.9291 32.336 100.665 32.432 101.401 32.432C104.793 32.432 106.489 30.144 106.489 25.568ZM113.785 25.376C113.785 27.328 113.545 29.104 113.065 30.704C112.585 32.304 111.881 33.68 110.953 34.832C110.025 35.984 108.873 36.88 107.497 37.52C106.121 38.16 104.537 38.48 102.745 38.48C101.753 38.48 100.825 38.384 99.9611 38.192C99.0971 38 98.2651 37.728 97.4651 37.376V46.88H90.3131V13.616C90.9531 13.424 91.6891 13.248 92.5211 13.088C93.3531 12.896 94.2171 12.736 95.1131 12.608C96.0411 12.48 96.9691 12.384 97.8971 12.32C98.8571 12.224 99.7691 12.176 100.633 12.176C102.713 12.176 104.569 12.496 106.201 13.136C107.833 13.744 109.209 14.624 110.329 15.776C111.449 16.896 112.297 18.272 112.873 19.904C113.481 21.536 113.785 23.36 113.785 25.376ZM128.93 33.008C129.634 33.008 130.306 32.992 130.946 32.96C131.586 32.928 132.098 32.88 132.482 32.816V27.392C132.194 27.328 131.762 27.264 131.186 27.2C130.61 27.136 130.082 27.104 129.602 27.104C128.93 27.104 128.29 27.152 127.682 27.248C127.106 27.312 126.594 27.456 126.146 27.68C125.698 27.904 125.346 28.208 125.09 28.592C124.834 28.976 124.706 29.456 124.706 30.032C124.706 31.152 125.074 31.936 125.81 32.384C126.578 32.8 127.618 33.008 128.93 33.008ZM128.354 12.08C130.466 12.08 132.226 12.32 133.634 12.8C135.042 13.28 136.162 13.968 136.994 14.864C137.858 15.76 138.466 16.848 138.818 18.128C139.17 19.408 139.346 20.832 139.346 22.4V37.28C138.322 37.504 136.898 37.76 135.074 38.048C133.25 38.368 131.042 38.528 128.45 38.528C126.818 38.528 125.33 38.384 123.986 38.096C122.674 37.808 121.538 37.344 120.578 36.704C119.618 36.032 118.882 35.168 118.37 34.112C117.858 33.056 117.602 31.76 117.602 30.224C117.602 28.752 117.89 27.504 118.466 26.48C119.074 25.456 119.874 24.64 120.866 24.032C121.858 23.424 122.994 22.992 124.274 22.736C125.554 22.448 126.882 22.304 128.258 22.304C129.186 22.304 130.002 22.352 130.706 22.448C131.442 22.512 132.034 22.608 132.482 22.736V22.064C132.482 20.848 132.114 19.872 131.378 19.136C130.642 18.4 129.362 18.032 127.538 18.032C126.322 18.032 125.122 18.128 123.938 18.32C122.754 18.48 121.73 18.72 120.866 19.04L119.954 13.28C120.37 13.152 120.882 13.024 121.49 12.896C122.13 12.736 122.818 12.608 123.554 12.512C124.29 12.384 125.058 12.288 125.858 12.224C126.69 12.128 127.522 12.08 128.354 12.08ZM161.029 19.088C160.389 18.928 159.637 18.768 158.773 18.608C157.909 18.416 156.981 18.32 155.989 18.32C155.541 18.32 154.997 18.368 154.357 18.464C153.749 18.528 153.285 18.608 152.965 18.704V38H145.813V14.096C147.093 13.648 148.597 13.232 150.325 12.848C152.085 12.432 154.037 12.224 156.181 12.224C156.565 12.224 157.029 12.256 157.573 12.32C158.117 12.352 158.661 12.416 159.205 12.512C159.749 12.576 160.293 12.672 160.837 12.8C161.381 12.896 161.845 13.024 162.229 13.184L161.029 19.088ZM356.708 25.568C356.708 23.36 356.212 21.6 355.22 20.288C354.228 18.944 352.756 18.272 350.804 18.272C350.164 18.272 349.572 18.304 349.028 18.368C348.484 18.4 348.036 18.448 347.684 18.512V31.424C348.132 31.712 348.708 31.952 349.412 32.144C350.148 32.336 350.884 32.432 351.62 32.432C355.012 32.432 356.708 30.144 356.708 25.568ZM364.004 25.376C364.004 27.328 363.764 29.104 363.284 30.704C362.804 32.304 362.1 33.68 361.172 34.832C360.244 35.984 359.092 36.88 357.716 37.52C356.34 38.16 354.756 38.48 352.964 38.48C351.972 38.48 351.044 38.384 350.18 38.192C349.316 38 348.484 37.728 347.684 37.376V46.88H340.532V13.616C341.172 13.424 341.908 13.248 342.74 13.088C343.572 12.896 344.436 12.736 345.332 12.608C346.26 12.48 347.188 12.384 348.116 12.32C349.076 12.224 349.988 12.176 350.852 12.176C352.932 12.176 354.788 12.496 356.42 13.136C358.052 13.744 359.428 14.624 360.548 15.776C361.668 16.896 362.516 18.272 363.092 19.904C363.7 21.536 364.004 23.36 364.004 25.376ZM379.149 33.008C379.853 33.008 380.525 32.992 381.165 32.96C381.805 32.928 382.317 32.88 382.701 32.816V27.392C382.413 27.328 381.981 27.264 381.405 27.2C380.829 27.136 380.301 27.104 379.821 27.104C379.149 27.104 378.509 27.152 377.901 27.248C377.325 27.312 376.813 27.456 376.365 27.68C375.917 27.904 375.565 28.208 375.309 28.592C375.053 28.976 374.925 29.456 374.925 30.032C374.925 31.152 375.293 31.936 376.029 32.384C376.797 32.8 377.837 33.008 379.149 33.008ZM378.573 12.08C380.685 12.08 382.445 12.32 383.853 12.8C385.261 13.28 386.381 13.968 387.213 14.864C388.077 15.76 388.685 16.848 389.037 18.128C389.389 19.408 389.565 20.832 389.565 22.4V37.28C388.541 37.504 387.117 37.76 385.293 38.048C383.469 38.368 381.261 38.528 378.669 38.528C377.037 38.528 375.549 38.384 374.205 38.096C372.893 37.808 371.757 37.344 370.797 36.704C369.837 36.032 369.101 35.168 368.589 34.112C368.077 33.056 367.821 31.76 367.821 30.224C367.821 28.752 368.109 27.504 368.685 26.48C369.293 25.456 370.093 24.64 371.085 24.032C372.077 23.424 373.213 22.992 374.493 22.736C375.773 22.448 377.101 22.304 378.477 22.304C379.405 22.304 380.221 22.352 380.925 22.448C381.661 22.512 382.253 22.608 382.701 22.736V22.064C382.701 20.848 382.333 19.872 381.597 19.136C380.861 18.4 379.581 18.032 377.757 18.032C376.541 18.032 375.341 18.128 374.157 18.32C372.973 18.48 371.949 18.72 371.085 19.04L370.173 13.28C370.589 13.152 371.101 13.024 371.709 12.896C372.349 12.736 373.037 12.608 373.773 12.512C374.509 12.384 375.277 12.288 376.077 12.224C376.909 12.128 377.741 12.08 378.573 12.08ZM402.128 25.184C402.128 27.392 402.624 29.168 403.616 30.512C404.608 31.856 406.08 32.528 408.032 32.528C408.672 32.528 409.264 32.512 409.808 32.48C410.352 32.416 410.8 32.352 411.152 32.288V19.28C410.704 18.992 410.112 18.752 409.376 18.56C408.672 18.368 407.952 18.272 407.216 18.272C403.824 18.272 402.128 20.576 402.128 25.184ZM418.304 37.184C417.664 37.376 416.928 37.568 416.096 37.76C415.264 37.92 414.384 38.064 413.456 38.192C412.56 38.32 411.632 38.416 410.672 38.48C409.744 38.576 408.848 38.624 407.984 38.624C405.904 38.624 404.048 38.32 402.416 37.712C400.784 37.104 399.408 36.24 398.288 35.12C397.168 33.968 396.304 32.592 395.696 30.992C395.12 29.36 394.832 27.536 394.832 25.52C394.832 23.472 395.088 21.632 395.6 20C396.112 18.336 396.848 16.928 397.808 15.776C398.768 14.624 399.936 13.744 401.312 13.136C402.72 12.528 404.32 12.224 406.112 12.224C407.104 12.224 407.984 12.32 408.752 12.512C409.552 12.704 410.352 12.976 411.152 13.328V1.904L418.304 0.751999V37.184Z" fill="#FCBD01"/>
</svg>
