<svg width="52" height="52" viewBox="0 0 52 52" fill="none" xmlns="http://www.w3.org/2000/svg">
<path d="M46.9733 36.7459L40.1917 20.9076C37.895 15.5342 33.67 15.3176 30.8317 20.4309L26.7367 27.8192C24.6567 31.5676 20.7783 31.8926 18.0917 28.5342L17.615 27.9276C14.82 24.4176 10.8767 24.8509 8.86167 28.8592L5.135 36.3342C2.51334 41.5342 6.305 47.6659 12.1117 47.6659H39.7583C45.3917 47.6659 49.1833 41.9242 46.9733 36.7459Z" stroke="#FCBD01" stroke-width="3.25" stroke-linecap="round" stroke-linejoin="round"/>
<path d="M15.1016 17.333C18.6915 17.333 21.6016 14.4229 21.6016 10.833C21.6016 7.24316 18.6915 4.33301 15.1016 4.33301C11.5118 4.33301 8.60162 7.24316 8.60162 10.833C8.60162 14.4229 11.5118 17.333 15.1016 17.333Z" stroke="#FCBD01" stroke-width="3.25" stroke-linecap="round" stroke-linejoin="round"/>
</svg>
