<svg width="1440" height="800" viewBox="0 0 1440 800" fill="none" xmlns="http://www.w3.org/2000/svg">
<g clip-path="url(#clip0_1470_2003)">
<rect width="1440" height="800" fill="#FFE9A9"/>
<path d="M175 2210.8C161.169 2217.32 146.781 2223.75 131.837 2230.11C116.893 2236.47 102.108 2242.51 87.4815 2248.24C72.8553 2253.96 58.8651 2259.29 45.5107 2264.21C32.1564 2268.98 20.2329 2273.12 9.74023 2276.62V2235.6C19.279 2232.42 29.6127 2229 40.7413 2225.34C51.711 2221.53 62.6806 2217.71 73.6502 2213.9C84.6198 2209.92 95.1125 2206.11 105.128 2202.45C115.144 2198.79 123.808 2195.38 131.122 2192.2C123.808 2189.18 115.144 2185.84 105.128 2182.18C95.1125 2178.37 84.6198 2174.55 73.6502 2170.73C62.6806 2166.76 51.711 2162.94 40.7413 2159.29C29.6127 2155.47 19.279 2151.97 9.74023 2148.8V2109.21C20.2329 2112.87 32.1564 2117.08 45.5107 2121.85C58.8651 2126.62 72.8553 2131.86 87.4815 2137.59C102.108 2143.31 116.893 2149.35 131.837 2155.71C146.781 2162.07 161.169 2168.51 175 2175.03V2210.8ZM77.7042 2017.94C66.4166 2011.26 55.129 2004.9 43.8415 1998.86C32.5539 1992.82 21.1868 1987.25 9.74023 1982.17V1941.15C27.546 1950.21 44.7953 1959.59 61.4882 1969.29C78.1811 1978.99 94.9535 1989.24 111.805 2000.05H175V2037.25H112.282C95.4305 2048.06 78.5786 2058.4 61.7267 2068.25C44.8748 2077.95 27.546 2087.33 9.74023 2096.39V2053.23C21.1868 2048.14 32.5539 2042.66 43.8415 2036.78C55.129 2030.89 66.4166 2024.61 77.7042 2017.94ZM175 1833.95C169.277 1835.7 163.394 1837.69 157.353 1839.91C151.312 1841.98 145.271 1844.05 139.229 1846.11V1910.5C145.271 1912.57 151.312 1914.71 157.353 1916.94C163.394 1919.01 169.277 1920.91 175 1922.66V1961.29C157.194 1955.09 140.74 1949.21 125.637 1943.65C110.534 1938.08 96.3049 1932.68 82.9505 1927.43C69.5962 1922.03 56.9573 1916.78 45.0338 1911.69C32.9513 1906.45 21.1868 1901.04 9.74023 1895.48L9.74023 1859.94C21.1868 1854.54 32.9513 1849.21 45.0338 1843.97C56.9573 1838.72 69.5962 1833.47 82.9505 1828.23C96.3049 1822.82 110.534 1817.34 125.637 1811.77C140.74 1806.21 157.194 1800.33 175 1794.13V1833.95ZM47.18 1878.55C49.5647 1879.34 52.8238 1880.53 56.9573 1882.12C61.0908 1883.71 65.8602 1885.54 71.2655 1887.61C76.6708 1889.67 82.6326 1891.98 89.1508 1894.52C95.669 1896.91 102.505 1899.37 109.659 1901.92V1854.94C102.505 1857.48 95.669 1859.94 89.1508 1862.33C82.6326 1864.71 76.6708 1867.02 71.2655 1869.25C65.8602 1871.31 61.0908 1873.14 56.9573 1874.73C52.8238 1876.32 49.5647 1877.59 47.18 1878.55ZM7.83247 1723.13C7.83247 1698.49 12.2044 1679.57 20.9483 1666.38C29.5332 1653.18 43.6825 1646.58 63.396 1646.58C83.2685 1646.58 97.6562 1653.26 106.559 1666.62C115.303 1679.97 119.675 1699.05 119.675 1723.85V1735.53H175V1772.74H12.1249C10.5351 1764.63 9.42227 1756.04 8.78635 1746.98C8.15043 1737.92 7.83247 1729.97 7.83247 1723.13ZM39.549 1720.75C39.549 1723.45 39.6285 1726.15 39.7875 1728.86C39.9464 1731.4 40.1054 1733.63 40.2644 1735.53H87.9584V1723.85C87.9584 1710.97 86.2096 1701.27 82.7121 1694.76C79.2145 1688.24 72.6963 1684.98 63.1575 1684.98C58.5471 1684.98 54.7316 1685.85 51.711 1687.6C48.6903 1689.19 46.3056 1691.58 44.5569 1694.76C42.6491 1697.78 41.3773 1701.51 40.7413 1705.96C39.9464 1710.42 39.549 1715.34 39.549 1720.75ZM175 1524.92C169.277 1526.67 163.394 1528.65 157.353 1530.88C151.312 1532.95 145.271 1535.01 139.229 1537.08L139.229 1601.47C145.271 1603.53 151.312 1605.68 157.353 1607.91C163.394 1609.97 169.277 1611.88 175 1613.63V1652.26C157.194 1646.06 140.74 1640.18 125.637 1634.61C110.534 1629.05 96.3049 1623.65 82.9505 1618.4C69.5962 1612.99 56.9573 1607.75 45.0338 1602.66C32.9513 1597.41 21.1868 1592.01 9.74023 1586.44V1550.91C21.1868 1545.51 32.9513 1540.18 45.0338 1534.93C56.9573 1529.69 69.5962 1524.44 82.9505 1519.2C96.3049 1513.79 110.534 1508.31 125.637 1502.74C140.74 1497.18 157.194 1491.29 175 1485.09V1524.92ZM47.18 1569.51C49.5647 1570.31 52.8238 1571.5 56.9573 1573.09C61.0908 1574.68 65.8602 1576.51 71.2655 1578.57C76.6708 1580.64 82.6326 1582.95 89.1508 1585.49C95.669 1587.87 102.505 1590.34 109.659 1592.88L109.659 1545.9C102.505 1548.45 95.669 1550.91 89.1508 1553.3C82.6326 1555.68 76.6708 1557.99 71.2655 1560.21C65.8602 1562.28 61.0908 1564.11 56.9573 1565.7C52.8238 1567.29 49.5647 1568.56 47.18 1569.51ZM175 1344.2C169.277 1345.95 163.394 1347.94 157.353 1350.16C151.312 1352.23 145.271 1354.3 139.229 1356.36V1420.75C145.271 1422.82 151.312 1424.96 157.353 1427.19C163.394 1429.26 169.277 1431.16 175 1432.91V1471.55C157.194 1465.35 140.74 1459.46 125.637 1453.9C110.534 1448.33 96.3049 1442.93 82.9505 1437.68C69.5962 1432.28 56.9573 1427.03 45.0338 1421.94C32.9513 1416.7 21.1868 1411.29 9.74023 1405.73V1370.2C21.1868 1364.79 32.9513 1359.46 45.0338 1354.22C56.9573 1348.97 69.5962 1343.73 82.9505 1338.48C96.3049 1333.07 110.534 1327.59 125.637 1322.03C140.74 1316.46 157.194 1310.58 175 1304.38V1344.2ZM47.18 1388.8C49.5647 1389.59 52.8238 1390.78 56.9573 1392.37C61.0908 1393.96 65.8602 1395.79 71.2655 1397.86C76.6708 1399.93 82.6326 1402.23 89.1508 1404.77C95.669 1407.16 102.505 1409.62 109.659 1412.17V1365.19C102.505 1367.73 95.669 1370.2 89.1508 1372.58C82.6326 1374.97 76.6708 1377.27 71.2655 1379.5C65.8602 1381.56 61.0908 1383.39 56.9573 1384.98C52.8238 1386.57 49.5647 1387.84 47.18 1388.8ZM7.83247 1234.58C7.83247 1209.78 12.2839 1190.78 21.1868 1177.58C29.9307 1164.39 43.603 1157.79 62.2036 1157.79C73.8092 1157.79 83.2685 1160.49 90.5816 1165.9C97.7357 1171.14 103.379 1178.78 107.513 1188.79C111.646 1185.45 116.416 1181.96 121.821 1178.3C127.068 1174.64 132.632 1171.06 138.514 1167.57C144.237 1163.91 150.279 1160.41 156.638 1157.07C162.838 1153.74 168.959 1150.64 175 1147.77V1189.51C169.595 1192.53 164.11 1195.63 158.546 1198.81C152.981 1201.83 147.576 1205.01 142.33 1208.35C137.083 1211.53 132.155 1214.7 127.544 1217.88C122.775 1221.06 118.483 1224.24 114.667 1227.42V1245.79H175V1282.99H12.1249C10.5351 1274.88 9.42227 1266.53 8.78635 1257.95C8.15043 1249.2 7.83247 1241.41 7.83247 1234.58ZM39.549 1232.43C39.549 1235.13 39.6285 1237.6 39.7875 1239.82C39.9464 1241.89 40.1054 1243.88 40.2644 1245.79H85.0968V1235.29C85.0968 1221.3 83.348 1211.29 79.8504 1205.25C76.3529 1199.2 70.3911 1196.18 61.9652 1196.18C53.8572 1196.18 48.1339 1199.28 44.7953 1205.48C41.2978 1211.53 39.549 1220.51 39.549 1232.43ZM143.045 956.229H175V1066.64H9.74023L9.74023 1029.44H143.045V956.229ZM175 814.166C169.277 815.915 163.394 817.902 157.353 820.128C151.312 822.194 145.271 824.261 139.229 826.328V890.715C145.271 892.781 151.312 894.928 157.353 897.153C163.394 899.22 169.277 901.128 175 902.877V941.509C157.194 935.309 140.74 929.426 125.637 923.862C110.534 918.298 96.3049 912.892 82.9505 907.646C69.5962 902.241 56.9573 896.994 45.0338 891.907C32.9513 886.661 21.1868 881.255 9.74023 875.691V840.159C21.1868 834.754 32.9513 829.428 45.0338 824.182C56.9573 818.935 69.5962 813.689 82.9505 808.443C96.3049 803.037 110.534 797.552 125.637 791.988C140.74 786.424 157.194 780.542 175 774.341V814.166ZM47.18 858.76C49.5647 859.555 52.8238 860.747 56.9573 862.337C61.0908 863.927 65.8602 865.755 71.2655 867.822C76.6708 869.888 82.6326 872.194 89.1508 874.737C95.669 877.122 102.505 879.586 109.659 882.13V835.151C102.505 837.695 95.669 840.159 89.1508 842.544C82.6326 844.928 76.6708 847.234 71.2655 849.459C65.8602 851.526 61.0908 853.354 56.9573 854.944C52.8238 856.534 49.5647 857.806 47.18 858.76ZM178.339 692.982C178.339 704.588 176.749 714.603 173.569 723.029C170.231 731.455 165.7 738.45 159.976 744.015C154.094 749.42 147.178 753.474 139.229 756.177C131.122 758.72 122.219 759.992 112.521 759.992H9.74023V722.791H109.421C116.098 722.791 121.821 722.075 126.591 720.645C131.201 719.055 135.017 716.988 138.037 714.444C140.899 711.742 142.966 708.562 144.237 704.906C145.509 701.09 146.145 696.957 146.145 692.505C146.145 683.443 143.363 676.13 137.799 670.566C132.234 664.843 122.775 661.981 109.421 661.981H9.74023V624.78H112.521C122.219 624.78 131.122 626.131 139.229 628.834C147.337 631.536 154.333 635.67 160.215 641.234C165.938 646.798 170.39 653.873 173.569 662.458C176.749 671.043 178.339 681.218 178.339 692.982ZM175 478.113C156.081 488.765 137.401 500.291 118.96 512.691C100.518 525.092 83.1095 538.287 66.7346 552.277H175V589.002H9.74023V558.716C14.9866 553.47 21.4253 547.667 29.0563 541.308C36.6873 534.948 44.8748 528.51 53.6187 521.992C62.2037 515.314 71.186 508.717 80.5658 502.199C89.7867 495.68 98.6896 489.56 107.274 483.836H9.74023L9.74023 446.873H175V478.113ZM9.74023 309.071V271.87H175V309.071H104.89V371.551H175V408.752H9.74023V371.551H72.9348V309.071H9.74023ZM178.339 158.269C178.339 185.136 170.867 205.645 155.922 219.794C140.978 233.784 119.754 240.779 92.2509 240.779C78.5786 240.779 66.4166 238.633 55.765 234.341C44.9543 230.048 35.8925 224.166 28.5794 216.694C21.1073 209.222 15.4635 200.319 11.648 189.985C7.83246 179.652 5.9247 168.444 5.9247 156.361C5.9247 149.366 6.48114 143.007 7.594 137.283C8.54788 131.56 9.74023 126.552 11.171 122.26C12.4429 117.967 13.7942 114.39 15.225 111.529C16.6559 108.667 17.7687 106.6 18.5636 105.328L48.6109 116.06C45.9082 121.147 43.603 127.109 41.6952 133.945C39.7875 140.622 38.8336 148.253 38.8336 156.838C38.8336 162.561 39.7875 168.205 41.6952 173.769C43.603 179.175 46.7031 184.024 50.9956 188.316C55.129 192.45 60.5344 195.788 67.2115 198.332C73.8887 200.876 81.9967 202.147 91.5355 202.147C99.1665 202.147 106.321 201.352 112.998 199.763C119.516 198.014 125.16 195.311 129.929 191.655C134.699 187.839 138.514 182.911 141.376 176.87C144.078 170.828 145.43 163.515 145.43 154.93C145.43 149.525 145.112 144.676 144.476 140.384C143.84 136.091 143.124 132.276 142.33 128.937C141.376 125.598 140.342 122.657 139.229 120.114C138.117 117.57 137.083 115.265 136.129 113.198L165.938 102.944C169.118 108.19 171.979 115.583 174.523 125.122C177.067 134.66 178.339 145.709 178.339 158.269ZM7.83247 29.3907C7.83247 4.74877 12.2044 -14.1699 20.9483 -27.3652C29.5332 -40.5605 43.6825 -47.1582 63.396 -47.1582C83.2685 -47.1582 97.6562 -40.4811 106.559 -27.1267C115.303 -13.7724 119.675 5.3052 119.675 30.1061V41.7911H175V78.9925H12.1249C10.5351 70.8845 9.42227 62.2996 8.78635 53.2377C8.15043 44.1758 7.83247 36.2268 7.83247 29.3907ZM39.549 27.006C39.549 29.7086 39.6285 32.4113 39.7875 35.114C39.9464 37.6576 40.1054 39.8834 40.2644 41.7911H87.9584V30.1061C87.9584 17.2287 86.2096 7.53092 82.7121 1.01275C79.2145 -5.50544 72.6963 -8.76453 63.1575 -8.76453C58.5471 -8.76453 54.7316 -7.89014 51.711 -6.14136C48.6903 -4.55156 46.3056 -2.16686 44.5569 1.01275C42.6491 4.03337 41.3773 7.7694 40.7413 12.2208C39.9464 16.6723 39.549 21.6007 39.549 27.006ZM175 -168.825C169.277 -167.076 163.394 -165.089 157.353 -162.863C151.312 -160.796 145.271 -158.729 139.229 -156.663V-92.2758C145.271 -90.209 151.312 -88.0628 157.353 -85.8371C163.394 -83.7703 169.277 -81.8626 175 -80.1138V-41.4816C157.194 -47.6818 140.74 -53.5641 125.637 -59.1284C110.534 -64.6927 96.3049 -70.098 82.9505 -75.3444C69.5962 -80.7497 56.9573 -85.996 45.0338 -91.0834C32.9513 -96.3297 21.1868 -101.735 9.74023 -107.299V-142.831C21.1868 -148.237 32.9513 -153.563 45.0338 -158.809C56.9573 -164.055 69.5962 -169.302 82.9505 -174.548C96.3049 -179.953 110.534 -185.438 125.637 -191.002C140.74 -196.567 157.194 -202.449 175 -208.649V-168.825ZM47.18 -124.231C49.5647 -123.436 52.8238 -122.243 56.9573 -120.654C61.0908 -119.064 65.8602 -117.236 71.2655 -115.169C76.6708 -113.102 82.6326 -110.797 89.1508 -108.253C95.669 -105.869 102.505 -103.404 109.659 -100.861V-147.839C102.505 -145.296 95.669 -142.831 89.1508 -140.447C82.6326 -138.062 76.6708 -135.757 71.2655 -133.531C65.8602 -131.464 61.0908 -129.636 56.9573 -128.046C52.8238 -126.456 49.5647 -125.185 47.18 -124.231ZM144.714 -267.242C144.873 -268.991 145.032 -270.978 145.191 -273.204C145.191 -275.588 145.191 -278.37 145.191 -281.55C145.191 -300.151 140.501 -313.902 131.122 -322.805C121.742 -331.867 108.785 -336.398 92.2509 -336.398C74.9221 -336.398 61.8062 -332.106 52.9033 -323.521C44.0004 -314.936 39.549 -301.343 39.549 -282.742C39.549 -280.199 39.6285 -277.576 39.7875 -274.873C39.7875 -272.17 39.9464 -269.627 40.2644 -267.242H144.714ZM92.2509 -374.792C106.559 -374.792 119.039 -372.566 129.691 -368.115C140.342 -363.663 149.166 -357.304 156.161 -349.037C163.156 -340.929 168.402 -330.993 171.9 -319.228C175.397 -307.464 177.146 -294.268 177.146 -279.642C177.146 -272.965 176.828 -265.175 176.192 -256.272C175.715 -247.369 174.603 -238.625 172.854 -230.04H11.8865C10.2967 -238.625 9.26329 -247.528 8.78635 -256.749C8.15043 -266.129 7.83247 -274.157 7.83247 -280.835C7.83247 -294.984 9.42227 -307.782 12.6019 -319.228C15.7815 -330.834 20.7893 -340.77 27.6255 -349.037C34.4616 -357.304 43.2055 -363.663 53.8572 -368.115C64.5089 -372.566 77.3068 -374.792 92.2509 -374.792Z" fill="white" fill-opacity="0.3"/>
<path d="M1440 1008.8C1426.17 1015.32 1411.78 1021.75 1396.84 1028.11C1381.89 1034.47 1367.11 1040.51 1352.48 1046.24C1337.86 1051.96 1323.87 1057.29 1310.51 1062.21C1297.16 1066.98 1285.23 1071.12 1274.74 1074.62V1033.6C1284.28 1030.42 1294.61 1027 1305.74 1023.34C1316.71 1019.53 1327.68 1015.71 1338.65 1011.9C1349.62 1007.92 1360.11 1004.11 1370.13 1000.45C1380.14 996.795 1388.81 993.376 1396.12 990.197C1388.81 987.176 1380.14 983.838 1370.13 980.181C1360.11 976.366 1349.62 972.55 1338.65 968.735C1327.68 964.76 1316.71 960.945 1305.74 957.288C1294.61 953.472 1284.28 949.975 1274.74 946.795V907.209C1285.23 910.866 1297.16 915.079 1310.51 919.848C1323.87 924.618 1337.86 929.864 1352.48 935.587C1367.11 941.311 1381.89 947.352 1396.84 953.711C1411.78 960.07 1426.17 966.509 1440 973.027V1008.8ZM1342.7 815.937C1331.42 809.26 1320.13 802.9 1308.84 796.859C1297.55 790.818 1286.19 785.254 1274.74 780.166V739.149C1292.55 748.211 1309.8 757.591 1326.49 767.289C1343.18 776.987 1359.95 787.241 1376.81 798.051H1440V835.253H1377.28C1360.43 846.063 1343.58 856.397 1326.73 866.254C1309.87 875.952 1292.55 885.332 1274.74 894.393V851.23C1286.19 846.143 1297.55 840.658 1308.84 834.776C1320.13 828.894 1331.42 822.614 1342.7 815.937ZM1440 631.951C1434.28 633.7 1428.39 635.687 1422.35 637.913C1416.31 639.98 1410.27 642.047 1404.23 644.113V708.5C1410.27 710.567 1416.31 712.713 1422.35 714.939C1428.39 717.006 1434.28 718.914 1440 720.662V759.294C1422.19 753.094 1405.74 747.212 1390.64 741.648C1375.53 736.083 1361.3 730.678 1347.95 725.432C1334.6 720.026 1321.96 714.78 1310.03 709.693C1297.95 704.446 1286.19 699.041 1274.74 693.477V657.945C1286.19 652.539 1297.95 647.214 1310.03 641.967C1321.96 636.721 1334.6 631.475 1347.95 626.228C1361.3 620.823 1375.53 615.338 1390.64 609.774C1405.74 604.209 1422.19 598.327 1440 592.127V631.951ZM1312.18 676.545C1314.56 677.34 1317.82 678.533 1321.96 680.122C1326.09 681.712 1330.86 683.541 1336.27 685.607C1341.67 687.674 1347.63 689.979 1354.15 692.523C1360.67 694.908 1367.51 697.372 1374.66 699.915V652.937C1367.51 655.481 1360.67 657.945 1354.15 660.329C1347.63 662.714 1341.67 665.019 1336.27 667.245C1330.86 669.312 1326.09 671.14 1321.96 672.73C1317.82 674.32 1314.56 675.591 1312.18 676.545ZM1272.83 521.134C1272.83 496.492 1277.2 477.573 1285.95 464.378C1294.53 451.182 1308.68 444.585 1328.4 444.585C1348.27 444.585 1362.66 451.262 1371.56 464.616C1380.3 477.971 1384.67 497.048 1384.67 521.849V533.534H1440V570.735H1277.12C1275.54 562.627 1274.42 554.043 1273.79 544.981C1273.15 535.919 1272.83 527.97 1272.83 521.134ZM1304.55 518.749C1304.55 521.452 1304.63 524.154 1304.79 526.857C1304.95 529.401 1305.11 531.626 1305.26 533.534H1352.96V521.849C1352.96 508.972 1351.21 499.274 1347.71 492.756C1344.21 486.238 1337.7 482.978 1328.16 482.978C1323.55 482.978 1319.73 483.853 1316.71 485.602C1313.69 487.191 1311.31 489.576 1309.56 492.756C1307.65 495.776 1306.38 499.512 1305.74 503.964C1304.95 508.415 1304.55 513.344 1304.55 518.749ZM1440 322.919C1434.28 324.667 1428.39 326.655 1422.35 328.88C1416.31 330.947 1410.27 333.014 1404.23 335.08V399.467C1410.27 401.534 1416.31 403.68 1422.35 405.906C1428.39 407.973 1434.28 409.881 1440 411.629V450.262C1422.19 444.061 1405.74 438.179 1390.64 432.615C1375.53 427.05 1361.3 421.645 1347.95 416.399C1334.6 410.993 1321.96 405.747 1310.03 400.66C1297.95 395.413 1286.19 390.008 1274.74 384.444V348.912C1286.19 343.506 1297.95 338.181 1310.03 332.934C1321.96 327.688 1334.6 322.442 1347.95 317.195C1361.3 311.79 1375.53 306.305 1390.64 300.741C1405.74 295.176 1422.19 289.294 1440 283.094V322.919ZM1312.18 367.512C1314.56 368.307 1317.82 369.5 1321.96 371.089C1326.09 372.679 1330.86 374.508 1336.27 376.574C1341.67 378.641 1347.63 380.946 1354.15 383.49C1360.67 385.875 1367.51 388.339 1374.66 390.882V343.904C1367.51 346.448 1360.67 348.912 1354.15 351.296C1347.63 353.681 1341.67 355.986 1336.27 358.212C1330.86 360.279 1326.09 362.107 1321.96 363.697C1317.82 365.287 1314.56 366.559 1312.18 367.512ZM1440 142.203C1434.28 143.952 1428.39 145.939 1422.35 148.165C1416.31 150.231 1410.27 152.298 1404.23 154.365V218.752C1410.27 220.819 1416.31 222.965 1422.35 225.19C1428.39 227.257 1434.28 229.165 1440 230.914V269.546C1422.19 263.346 1405.74 257.463 1390.64 251.899C1375.53 246.335 1361.3 240.929 1347.95 235.683C1334.6 230.278 1321.96 225.031 1310.03 219.944C1297.95 214.698 1286.19 209.292 1274.74 203.728V168.196C1286.19 162.791 1297.95 157.465 1310.03 152.219C1321.96 146.972 1334.6 141.726 1347.95 136.48C1361.3 131.074 1375.53 125.589 1390.64 120.025C1405.74 114.461 1422.19 108.579 1440 102.378V142.203ZM1312.18 186.797C1314.56 187.592 1317.82 188.784 1321.96 190.374C1326.09 191.964 1330.86 193.792 1336.27 195.859C1341.67 197.925 1347.63 200.231 1354.15 202.774C1360.67 205.159 1367.51 207.623 1374.66 210.167V163.188C1367.51 165.732 1360.67 168.196 1354.15 170.581C1347.63 172.966 1341.67 175.271 1336.27 177.496C1330.86 179.563 1326.09 181.391 1321.96 182.981C1317.82 184.571 1314.56 185.843 1312.18 186.797ZM1272.83 32.5774C1272.83 7.77653 1277.28 -11.2216 1286.19 -24.4169C1294.93 -37.6123 1308.6 -44.2099 1327.2 -44.2099C1338.81 -44.2099 1348.27 -41.5073 1355.58 -36.102C1362.74 -30.8556 1368.38 -23.2246 1372.51 -13.2088C1376.65 -16.5474 1381.42 -20.045 1386.82 -23.7015C1392.07 -27.3581 1397.63 -30.9351 1403.51 -34.4327C1409.24 -38.0892 1415.28 -41.5868 1421.64 -44.9254C1427.84 -48.2639 1433.96 -51.364 1440 -54.2257V-12.4934C1434.59 -9.47281 1429.11 -6.3727 1423.55 -3.1931C1417.98 -0.172477 1412.58 3.00713 1407.33 6.34571C1402.08 9.52531 1397.15 12.7049 1392.54 15.8845C1387.78 19.0641 1383.48 22.2437 1379.67 25.4233V43.7855H1440V80.9868H1277.12C1275.54 72.8789 1274.42 64.5324 1273.79 55.9475C1273.15 47.2036 1272.83 39.4136 1272.83 32.5774ZM1304.55 30.4312C1304.55 33.1338 1304.63 35.598 1304.79 37.8238C1304.95 39.8905 1305.11 41.8778 1305.26 43.7855H1350.1V33.2928C1350.1 19.3026 1348.35 9.28684 1344.85 3.2456C1341.35 -2.79565 1335.39 -5.81627 1326.97 -5.81627C1318.86 -5.81627 1313.13 -2.71616 1309.8 3.48406C1306.3 9.52531 1304.55 18.5077 1304.55 30.4312ZM1408.05 -245.771H1440V-135.36H1274.74V-172.561H1408.05V-245.771ZM1440 -387.834C1434.28 -386.085 1428.39 -384.098 1422.35 -381.872C1416.31 -379.806 1410.27 -377.739 1404.23 -375.672V-311.285C1410.27 -309.219 1416.31 -307.072 1422.35 -304.847C1428.39 -302.78 1434.28 -300.872 1440 -299.123V-260.491C1422.19 -266.691 1405.74 -272.574 1390.64 -278.138C1375.53 -283.702 1361.3 -289.108 1347.95 -294.354C1334.6 -299.759 1321.96 -305.006 1310.03 -310.093C1297.95 -315.339 1286.19 -320.745 1274.74 -326.309V-361.841C1286.19 -367.246 1297.95 -372.572 1310.03 -377.818C1321.96 -383.065 1334.6 -388.311 1347.95 -393.557C1361.3 -398.963 1375.53 -404.448 1390.64 -410.012C1405.74 -415.576 1422.19 -421.458 1440 -427.659V-387.834ZM1312.18 -343.24C1314.56 -342.445 1317.82 -341.253 1321.96 -339.663C1326.09 -338.073 1330.86 -336.245 1336.27 -334.178C1341.67 -332.112 1347.63 -329.806 1354.15 -327.263C1360.67 -324.878 1367.51 -322.414 1374.66 -319.87V-366.849C1367.51 -364.305 1360.67 -361.841 1354.15 -359.456C1347.63 -357.072 1341.67 -354.766 1336.27 -352.541C1330.86 -350.474 1326.09 -348.646 1321.96 -347.056C1317.82 -345.466 1314.56 -344.194 1312.18 -343.24ZM1443.34 -509.018C1443.34 -497.412 1441.75 -487.397 1438.57 -478.971C1435.23 -470.545 1430.7 -463.55 1424.98 -457.985C1419.09 -452.58 1412.18 -448.526 1404.23 -445.823C1396.12 -443.28 1387.22 -442.008 1377.52 -442.008H1274.74V-479.209H1374.42C1381.1 -479.209 1386.82 -479.925 1391.59 -481.355C1396.2 -482.945 1400.02 -485.012 1403.04 -487.556C1405.9 -490.258 1407.97 -493.438 1409.24 -497.094C1410.51 -500.91 1411.15 -505.043 1411.15 -509.495C1411.15 -518.557 1408.36 -525.87 1402.8 -531.434C1397.23 -537.157 1387.78 -540.019 1374.42 -540.019H1274.74V-577.22H1377.52C1387.22 -577.22 1396.12 -575.869 1404.23 -573.166C1412.34 -570.464 1419.33 -566.33 1425.21 -560.766C1430.94 -555.202 1435.39 -548.127 1438.57 -539.542C1441.75 -530.957 1443.34 -520.782 1443.34 -509.018ZM1440 -723.887C1421.08 -713.235 1402.4 -701.709 1383.96 -689.309C1365.52 -676.908 1348.11 -663.713 1331.73 -649.723H1440V-612.998H1274.74V-643.284C1279.99 -648.53 1286.43 -654.333 1294.06 -660.692C1301.69 -667.052 1309.87 -673.49 1318.62 -680.008C1327.2 -686.686 1336.19 -693.283 1345.57 -699.801C1354.79 -706.32 1363.69 -712.44 1372.27 -718.164H1274.74V-755.127H1440V-723.887ZM1274.74 -892.929V-930.13H1440V-892.929H1369.89V-830.449H1440V-793.248H1274.74V-830.449H1337.93V-892.929H1274.74ZM1443.34 -1043.73C1443.34 -1016.86 1435.87 -996.355 1420.92 -982.206C1405.98 -968.216 1384.75 -961.221 1357.25 -961.221C1343.58 -961.221 1331.42 -963.367 1320.76 -967.659C1309.95 -971.952 1300.89 -977.834 1293.58 -985.306C1286.11 -992.778 1280.46 -1001.68 1276.65 -1012.01C1272.83 -1022.35 1270.92 -1033.56 1270.92 -1045.64C1270.92 -1052.63 1271.48 -1058.99 1272.59 -1064.72C1273.55 -1070.44 1274.74 -1075.45 1276.17 -1079.74C1277.44 -1084.03 1278.79 -1087.61 1280.23 -1090.47C1281.66 -1093.33 1282.77 -1095.4 1283.56 -1096.67L1313.61 -1085.94C1310.91 -1080.85 1308.6 -1074.89 1306.7 -1068.06C1304.79 -1061.38 1303.83 -1053.75 1303.83 -1045.16C1303.83 -1039.44 1304.79 -1033.79 1306.7 -1028.23C1308.6 -1022.83 1311.7 -1017.98 1316 -1013.68C1320.13 -1009.55 1325.53 -1006.21 1332.21 -1003.67C1338.89 -1001.12 1347 -999.853 1356.54 -999.853C1364.17 -999.853 1371.32 -1000.65 1378 -1002.24C1384.52 -1003.99 1390.16 -1006.69 1394.93 -1010.35C1399.7 -1014.16 1403.51 -1019.09 1406.38 -1025.13C1409.08 -1031.17 1410.43 -1038.48 1410.43 -1047.07C1410.43 -1052.48 1410.11 -1057.32 1409.48 -1061.62C1408.84 -1065.91 1408.12 -1069.72 1407.33 -1073.06C1406.38 -1076.4 1405.34 -1079.34 1404.23 -1081.89C1403.12 -1084.43 1402.08 -1086.74 1401.13 -1088.8L1430.94 -1099.06C1434.12 -1093.81 1436.98 -1086.42 1439.52 -1076.88C1442.07 -1067.34 1443.34 -1056.29 1443.34 -1043.73ZM1272.83 -1172.61C1272.83 -1197.25 1277.2 -1216.17 1285.95 -1229.37C1294.53 -1242.56 1308.68 -1249.16 1328.4 -1249.16C1348.27 -1249.16 1362.66 -1242.48 1371.56 -1229.13C1380.3 -1215.77 1384.67 -1196.69 1384.67 -1171.89V-1160.21H1440V-1123.01H1277.12C1275.54 -1131.12 1274.42 -1139.7 1273.79 -1148.76C1273.15 -1157.82 1272.83 -1165.77 1272.83 -1172.61ZM1304.55 -1174.99C1304.55 -1172.29 1304.63 -1169.59 1304.79 -1166.89C1304.95 -1164.34 1305.11 -1162.12 1305.26 -1160.21H1352.96V-1171.89C1352.96 -1184.77 1351.21 -1194.47 1347.71 -1200.99C1344.21 -1207.51 1337.7 -1210.76 1328.16 -1210.76C1323.55 -1210.76 1319.73 -1209.89 1316.71 -1208.14C1313.69 -1206.55 1311.31 -1204.17 1309.56 -1200.99C1307.65 -1197.97 1306.38 -1194.23 1305.74 -1189.78C1304.95 -1185.33 1304.55 -1180.4 1304.55 -1174.99ZM1440 -1370.82C1434.28 -1369.08 1428.39 -1367.09 1422.35 -1364.86C1416.31 -1362.8 1410.27 -1360.73 1404.23 -1358.66V-1294.28C1410.27 -1292.21 1416.31 -1290.06 1422.35 -1287.84C1428.39 -1285.77 1434.28 -1283.86 1440 -1282.11V-1243.48C1422.19 -1249.68 1405.74 -1255.56 1390.64 -1261.13C1375.53 -1266.69 1361.3 -1272.1 1347.95 -1277.34C1334.6 -1282.75 1321.96 -1288 1310.03 -1293.08C1297.95 -1298.33 1286.19 -1303.74 1274.74 -1309.3V-1344.83C1286.19 -1350.24 1297.95 -1355.56 1310.03 -1360.81C1321.96 -1366.06 1334.6 -1371.3 1347.95 -1376.55C1361.3 -1381.95 1375.53 -1387.44 1390.64 -1393C1405.74 -1398.57 1422.19 -1404.45 1440 -1410.65V-1370.82ZM1312.18 -1326.23C1314.56 -1325.44 1317.82 -1324.24 1321.96 -1322.65C1326.09 -1321.06 1330.86 -1319.24 1336.27 -1317.17C1341.67 -1315.1 1347.63 -1312.8 1354.15 -1310.25C1360.67 -1307.87 1367.51 -1305.4 1374.66 -1302.86V-1349.84C1367.51 -1347.3 1360.67 -1344.83 1354.15 -1342.45C1347.63 -1340.06 1341.67 -1337.76 1336.27 -1335.53C1330.86 -1333.46 1326.09 -1331.64 1321.96 -1330.05C1317.82 -1328.46 1314.56 -1327.18 1312.18 -1326.23ZM1409.71 -1469.24C1409.87 -1470.99 1410.03 -1472.98 1410.19 -1475.2C1410.19 -1477.59 1410.19 -1480.37 1410.19 -1483.55C1410.19 -1502.15 1405.5 -1515.9 1396.12 -1524.81C1386.74 -1533.87 1373.78 -1538.4 1357.25 -1538.4C1339.92 -1538.4 1326.81 -1534.11 1317.9 -1525.52C1309 -1516.94 1304.55 -1503.34 1304.55 -1484.74C1304.55 -1482.2 1304.63 -1479.58 1304.79 -1476.87C1304.79 -1474.17 1304.95 -1471.63 1305.26 -1469.24H1409.71ZM1357.25 -1576.79C1371.56 -1576.79 1384.04 -1574.57 1394.69 -1570.11C1405.34 -1565.66 1414.17 -1559.3 1421.16 -1551.04C1428.16 -1542.93 1433.4 -1532.99 1436.9 -1521.23C1440.4 -1509.46 1442.15 -1496.27 1442.15 -1481.64C1442.15 -1474.97 1441.83 -1467.18 1441.19 -1458.27C1440.72 -1449.37 1439.6 -1440.63 1437.85 -1432.04H1276.89C1275.3 -1440.63 1274.26 -1449.53 1273.79 -1458.75C1273.15 -1468.13 1272.83 -1476.16 1272.83 -1482.83C1272.83 -1496.98 1274.42 -1509.78 1277.6 -1521.23C1280.78 -1532.83 1285.79 -1542.77 1292.63 -1551.04C1299.46 -1559.3 1308.21 -1565.66 1318.86 -1570.11C1329.51 -1574.57 1342.31 -1576.79 1357.25 -1576.79Z" fill="white" fill-opacity="0.3"/>
</g>
<defs>
<clipPath id="clip0_1470_2003">
<rect width="1440" height="800" fill="white"/>
</clipPath>
</defs>
</svg>
